<?xml version="1.0" encoding="UTF-8" standalone="no"?>
<!-- Created with Inkscape (http://www.inkscape.org/) -->

<svg
   xmlns:dc="http://purl.org/dc/elements/1.1/"
   xmlns:cc="http://creativecommons.org/ns#"
   xmlns:rdf="http://www.w3.org/1999/02/22-rdf-syntax-ns#"
   xmlns:svg="http://www.w3.org/2000/svg"
   xmlns="http://www.w3.org/2000/svg"
   xmlns:sodipodi="http://sodipodi.sourceforge.net/DTD/sodipodi-0.dtd"
   xmlns:inkscape="http://www.inkscape.org/namespaces/inkscape"
   width="470"
   height="600"
   viewBox="0 0 470 600.00001"
   id="svg2"
   version="1.1"
   inkscape:version="0.91 r"
   sodipodi:docname="Desarrollo fondo.svg"
   inkscape:export-filename="D:\Brand1\Dropbox\Webjuego\image\fondo.png"
   inkscape:export-xdpi="90"
   inkscape:export-ydpi="90">
  <defs
     id="defs4" />
  <sodipodi:namedview
     id="base"
     pagecolor="#ffffff"
     bordercolor="#666666"
     borderopacity="1.0"
     inkscape:pageopacity="0.0"
     inkscape:pageshadow="2"
     inkscape:zoom="2.2894827"
     inkscape:cx="355.44896"
     inkscape:cy="308.83565"
     inkscape:document-units="px"
     inkscape:current-layer="layer1"
     showgrid="false"
     units="px"
     inkscape:window-width="1366"
     inkscape:window-height="710"
     inkscape:window-x="0"
     inkscape:window-y="0"
     inkscape:window-maximized="1"
     showguides="true"
     inkscape:guide-bbox="true">
    <sodipodi:guide
       position="225.43407,186.53564"
       orientation="1,0"
       id="guide4203" />
    <sodipodi:guide
       position="144.10127,455.2473"
       orientation="0,1"
       id="guide4363" />
  </sodipodi:namedview>
  <metadata
     id="metadata7">
    <rdf:RDF>
      <cc:Work
         rdf:about="">
        <dc:format>image/svg+xml</dc:format>
        <dc:type
           rdf:resource="http://purl.org/dc/dcmitype/StillImage" />
        <dc:title></dc:title>
      </cc:Work>
    </rdf:RDF>
  </metadata>
  <g
     inkscape:label="Capa 1"
     inkscape:groupmode="layer"
     id="layer1"
     transform="translate(0,-452.36216)">
    <path
       style="fill:#ffff00;fill-opacity:1;fill-rule:evenodd;stroke:none;stroke-width:1.51879883px;stroke-linecap:butt;stroke-linejoin:miter;stroke-opacity:1"
       d="m 90.396712,706.76852 c -14.517765,-6.0761 -19.332253,-1.76133 -15.285445,-20.21382 4.195874,-3.74871 -12.338165,1.39475 2.213335,-24.502 -12.251653,-8.08822 -0.483885,-19.37732 -1.582128,-25.68189 5.692309,2.91098 -1.667689,16.16716 9.796749,13.18138 4.832112,-4.86905 -6.211713,-10.71266 5.651408,-18.47989 3.244793,-2.12448 1.057085,-10.25771 -2.436992,-14.73575 5.011285,1.0163 13.960361,3.41218 14.565521,9.14625 0.78647,7.45197 -11.290316,18.50345 -7.065205,29.0696 9.763895,-1.50896 12.513085,-12.19102 15.000615,-23.21523 4.61054,7.73405 9.60712,14.66501 -2.08786,22.84814 -3.86485,2.70428 1.01003,10.31181 -3.26951,15.01055 11.44898,4.58214 13.74726,-4.91371 18.21504,-11.07188 0.37708,11.78376 1.50452,24.0365 -11.42904,27.50112 2.19225,5.68618 6.24515,9.30499 13.57198,9.28609 -1.22086,6.52511 5.58794,15.81907 -10.71472,17.14356 z"
       id="path4313"
       inkscape:connector-curvature="0"
       sodipodi:nodetypes="cccccscsccscccccc"
       inkscape:export-xdpi="90"
       inkscape:export-ydpi="90" />
    <path
       sodipodi:nodetypes="ccccscccscccc"
       inkscape:connector-curvature="0"
       id="path4315"
       d="m 81.211131,702.92928 c -10.926326,-4.88074 -13.177581,-2.56662 -10.131882,-17.38892 3.157888,-3.01122 -4.930859,-9.13859 -1.042243,-26.24545 6.669083,24.99316 15.046128,7.30424 13.415422,2.72311 3.636732,-3.91115 -3.268637,-5.17415 5.659757,-11.41332 2.442089,-1.70652 1.398326,-5.88089 -7.660668,-7.97689 19.763703,-3.58415 12.418695,16.63405 10.065007,23.40673 7.75031,0.93227 15.445036,-10.0071 17.317186,-18.8625 3.46998,6.21251 3.81492,17.56972 -4.98692,24.14298 -2.90875,2.17226 -1.85173,2.7078 -5.07259,6.48214 -0.450659,5.67497 13.42,8.37186 15.32178,20.65632 -0.91884,5.2414 4.20558,12.70695 -8.0641,13.77088 z"
       style="fill:#ffc700;fill-rule:evenodd;stroke:none;stroke-width:1.18091261px;stroke-linecap:butt;stroke-linejoin:miter;stroke-opacity:1;fill-opacity:1"
       inkscape:export-xdpi="90"
       inkscape:export-ydpi="90" />
    <path
       style="fill:#552200;fill-rule:evenodd;stroke:none;stroke-width:1px;stroke-linecap:butt;stroke-linejoin:miter;stroke-opacity:1"
       d="m 94.193359,244.66016 c -1.291411,0 -2.368584,0.94482 -3.271484,2.51172 -0.613284,-0.003 -1.238351,-0.004 -1.818359,-0.0156 -1.345818,-0.157 -2.767843,-0.28288 -4.300782,-0.34961 l 0,0.17774 c -9.088247,-0.52651 -14.916149,-1.95985 -28.65039,-2.11133 -13.644953,9.43002 -6.930789,29.14927 7.5,25.50586 9.129605,-7.14285 15.674731,-9.50096 24.146484,-11.97461 -1.232693,8.23426 -1.427731,11.862 -1.427734,14.79348 -10e-7,5.54453 5.803765,10.03906 12.964844,10.03906 7.161072,0 12.966792,-4.49453 12.966792,-10.03906 0,-2.55982 -2.34517,-4.28297 -5.5625,-11.62942 5.72042,2.01769 11.05221,4.67048 17.79883,9.87891 14.62113,3.64251 21.42454,-16.07036 7.59961,-25.49805 -6.95703,0.0757 -13.99978,-3.10834 -17.51172,0.54687 -4.9208,5.12154 -10.35248,2.90203 -14.912106,2.31641 -0.01209,-0.0159 -0.02502,-0.031 -0.03711,-0.0469 l -1.091796,-1.74804 c -0.130085,0.006 -0.242422,0.008 -0.371094,0.0137 -1.403658,-1.47938 -2.770457,-2.37109 -4.021485,-2.37109 z"
       transform="translate(0,452.36216)"
       id="path4323"
       inkscape:connector-curvature="0"
       sodipodi:nodetypes="ccccccccssscccsccccsc"
       inkscape:export-xdpi="90"
       inkscape:export-ydpi="90" />
    <path
       style="fill:#0b2817;fill-opacity:1;stroke-width:0;stroke-miterlimit:4;stroke-dasharray:none"
       d="M 216.1543 387.78125 A 14.312118 12.240033 0 0 0 201.90625 398.91211 A 14.312118 12.240033 0 0 0 201.8418 398.91016 A 14.312118 12.240033 0 0 0 187.5293 411.14844 A 14.312118 12.240033 0 0 0 193.66016 421.18555 A 19.191251 16.412772 0 0 0 189.85742 421.64062 A 20.167076 17.24732 0 0 0 180.16016 417.58594 A 17.239598 14.743677 0 0 0 163.13672 405.05273 A 17.239598 14.743677 0 0 0 152.04688 408.52734 A 14.312118 12.240033 0 0 0 138.0918 398.93359 A 14.312118 12.240033 0 0 0 123.8457 410.06445 A 14.312118 12.240033 0 0 0 123.7793 410.06055 A 14.312118 12.240033 0 0 0 109.46875 422.30078 A 14.312118 12.240033 0 0 0 109.70312 424.44141 A 23.094556 19.750963 0 0 0 104.47656 419.3457 A 17.239598 14.743677 0 0 0 105.35742 414.72852 A 17.239598 14.743677 0 0 0 88.117188 399.98438 A 17.239598 14.743677 0 0 0 77.027344 403.45898 A 14.312118 12.240033 0 0 0 63.072266 393.86523 A 14.312118 12.240033 0 0 0 48.824219 404.99414 A 14.312118 12.240033 0 0 0 48.759766 404.99219 A 14.312118 12.240033 0 0 0 34.447266 417.23242 A 14.312118 12.240033 0 0 0 40.578125 427.26758 A 19.191251 16.412772 0 0 0 36.775391 427.72266 A 20.167076 17.24732 0 0 0 23.388672 423.35156 A 20.167076 17.24732 0 0 0 3.2207031 440.59766 A 20.167076 17.24732 0 0 0 5.7539062 448.94531 L 78.621094 448.94531 A 20.167076 17.24732 0 0 0 80.775391 454.01367 L 216.63867 454.01367 A 26.997861 23.089154 0 0 0 211.53906 442.86133 L 294.70117 442.86133 A 26.997861 23.089154 0 0 0 267.87109 422.27539 A 26.997861 23.089154 0 0 0 265.03125 422.42969 A 23.094556 19.750963 0 0 0 257.55859 413.26172 A 17.239598 14.743677 0 0 0 258.43945 408.64453 A 17.239598 14.743677 0 0 0 241.19922 393.90234 A 17.239598 14.743677 0 0 0 230.10938 397.37695 A 14.312118 12.240033 0 0 0 216.1543 387.78125 z "
       transform="translate(0,452.36216)"
       id="path4277" />
    <path
       style="fill:#2d5016;fill-opacity:1"
       d="m 0,890.86945 c 158.43478,12.37677 313.33333,-8.84055 470,0 l 0,161.49275 -470,0 z"
       id="rect4160"
       inkscape:connector-curvature="0"
       sodipodi:nodetypes="ccccc" />
    <path
       style="fill:#447821;fill-opacity:1"
       d="m 0,966.89819 c 169.04344,-57.46359 281.50735,72.49251 470,0 l 0,85.46401 -470,0 z"
       id="rect4205"
       inkscape:connector-curvature="0"
       sodipodi:nodetypes="ccccc" />
    <g
       id="g4164"
       transform="translate(-2.6521655,54.81142)">
      <path
         sodipodi:nodetypes="cccc"
         inkscape:connector-curvature="0"
         id="path4162"
         d="m 263.48867,957.03115 53.76044,-100.33199 24.6923,100.33199 z"
         style="fill:#000000;fill-rule:evenodd;stroke:#000000;stroke-width:1px;stroke-linecap:butt;stroke-linejoin:miter;stroke-opacity:1" />
      <g
         transform="matrix(0.49217408,0,0,0.47549778,255.53222,499.26186)"
         id="g4155">
        <path
           style="fill:#161650"
           d="M 312.60519,962.90878 C 303.4716,948.4867 140.5025,655.53774 140.53337,653.59703 c 0.0357,-2.23926 2.09367,-2.31388 54.50988,-1.97643 l 54.47286,0.35068 3.27622,3.75 c 4.86891,5.57301 170.85002,273.90529 170.81438,276.14594 -0.0168,1.05679 -1.30888,2.71929 -2.87127,3.69444 -3.65999,2.28436 -98.76408,32.03462 -102.40662,32.03462 -1.80922,0 -3.77412,-1.6092 -5.72363,-4.6875 z"
           id="path4147"
           inkscape:connector-curvature="0" />
        <path
           inkscape:connector-curvature="0"
           style="fill:#2c2ca0"
           d="m -35.086679,967.9841 c -2.666373,-2.66636 0.599255,-10.34217 18.024004,-42.36518 10.3715345,-19.06069 19.1555795,-36.49365 19.5200983,-38.73992 1.36625,-8.41921 -16.7235163,-36.84231 -39.3149363,-61.77262 -10.080796,-11.12447 -11.229809,-13.05505 -9.355859,-15.71988 0.505098,-0.71826 12.168359,-6.96346 25.918359,-13.87822 29.1849888,-14.67688 102.043088,-54.33051 107.5,-58.50778 2.4219,-1.85397 11.961837,-17.2012 26.936763,-43.33412 12.75271,-22.25492 24.06325,-40.63229 25.13451,-40.83859 1.4136,-0.27224 25.82128,41.93898 89.00074,153.92008 47.87915,84.86236 87.05299,155.36942 87.05299,156.68238 0,5.45704 1.17072,5.38719 -90.29015,5.38719 -93.84914,0 -93.15988,0.0451 -97.67149,-6.39609 -1.83896,-2.6255 -2.03836,-11.7725 -2.03836,-93.50705 0,-57.95742 -0.43285,-90.16401 -1.20145,-89.39541 -0.6608,0.6608 -20.29333,41.97643 -43.627841,91.8125 -23.334512,49.83607 -43.822818,92.15793 -45.529578,94.04855 l -3.1032,3.4375 -33.060634,0 c -18.183349,0 -33.435634,-0.375 -33.893966,-0.83334 z"
           id="path4153" />
        <path
           inkscape:connector-curvature="0"
           style="fill:#161650"
           d="M 60.039212,865.60173 C 110.71681,766.029 120.62764,746.19842 120.01842,745.5892 c -0.35415,-0.35413 -9.56955,4.36543 -20.47867,10.48793 -10.909113,6.1225 -39.803513,21.7054 -64.209763,34.62865 -24.40625,12.92326 -45.1387925,24.19406 -46.072316,25.04621 -1.400228,1.27817 -0.138175,3.2309 7.2103323,11.15628 15.3316937,16.53526 29.8549497,44.72983 36.7199797,71.28597 1.51132,5.84627 3.314664,10.4467 4.00743,10.22317 0.692765,-0.22351 10.972478,-19.49057 22.843799,-42.81568 z"
           id="path4151" />
      </g>
    </g>
    <path
       style="fill:#165016;fill-opacity:1;stroke-width:0;stroke-miterlimit:4;stroke-dasharray:none"
       d="m 363.34694,964.84068 a 19.449213,19.449213 0 0 0 -19.36133,17.68554 19.449213,19.449213 0 0 0 -0.0879,-0.004 19.449213,19.449213 0 0 0 -19.44922,19.44918 19.449213,19.449213 0 0 0 8.33008,15.9473 26.079628,26.079628 0 0 0 -5.16601,0.7227 27.40571,27.40571 0 0 0 -18.19336,-6.9454 27.40571,27.40571 0 0 0 -27.40625,27.4043 27.40571,27.40571 0 0 0 3.44336,13.2618 l 184.63086,0 a 36.68829,36.68829 0 0 0 -36.45899,-32.711 36.68829,36.68829 0 0 0 -3.85937,0.2461 31.383959,31.383959 0 0 0 -10.15625,-14.5683 23.427462,23.427462 0 0 0 1.19726,-7.33598 23.427462,23.427462 0 0 0 -23.42773,-23.42774 23.427462,23.427462 0 0 0 -15.07031,5.52149 19.449213,19.449213 0 0 0 -18.96485,-15.24609 z"
       id="path4209"
       inkscape:connector-curvature="0" />
    <g
       id="g4307"
       transform="matrix(1.0284474,0,0,1,-3.8763497,0)">
      <path
         sodipodi:nodetypes="cccccccccccccccccc"
         style="fill:#241c1c;fill-rule:evenodd;stroke:#000000;stroke-width:0;stroke-linecap:butt;stroke-linejoin:miter;stroke-miterlimit:4;stroke-dasharray:none;stroke-opacity:1"
         d="m 192.17258,838.31541 -3.08378,16.30499 -2.84968,9.23487 -3.6554,15.01366 6.3551,17.47332 -7.12257,2.18558 -6.97587,-3.01013 -0.52861,-16.65576 0.0787,-14.67685 -15.54247,-21.51919 11.80567,8.94698 0.1372,-15.29732 3.46241,17.05543 6.43649,6.03175 4.94944,-5.60688 -7.04921,-15.5014 8.84902,9.11886 z"
         id="path4286"
         inkscape:connector-curvature="0" />
      <path
         id="path4288"
         transform="translate(0,452.36216)"
         d="m 161.73828,355.93945 a 8.7164516,8.7164516 0 0 0 -8.7168,8.7168 8.7164516,8.7164516 0 0 0 0.01,0.26367 6.6345884,7.2948105 0 0 0 -2.35352,-0.48828 6.6345884,7.2948105 0 0 0 -6.63476,7.29492 6.6345884,7.2948105 0 0 0 0.76367,3.38477 7.3209252,8.0494462 0 0 0 -1.22266,-0.11524 7.3209252,8.0494462 0 0 0 -7.32031,8.05079 7.3209252,8.0494462 0 0 0 7.32031,8.04882 7.3209252,8.0494462 0 0 0 4.59766,-1.79297 6.1770306,6.7917203 0 0 0 6.15625,6.32032 6.1770306,6.7917203 0 0 0 6.17773,-6.79102 6.1770306,6.7917203 0 0 0 -0.0566,-0.86133 10.066272,11.067988 0 0 0 3.25782,0.60938 10.066272,11.067988 0 0 0 3.61718,-0.75196 9.3799353,10.313353 0 0 0 8.9668,7.29297 9.3799353,10.313353 0 0 0 6.18164,-2.57421 8.0964622,5.0038886 0 0 0 5.75391,1.48632 8.0964622,5.0038886 0 0 0 7.73828,-3.53711 6.863367,7.5463554 0 0 0 6.63672,5.63086 6.863367,7.5463554 0 0 0 6.86133,-7.54687 6.863367,7.5463554 0 0 0 -3.6836,-6.6836 4.8043571,5.2824491 0 0 0 0.93946,-3.12695 4.8043571,5.2824491 0 0 0 -4.22852,-5.24023 9.1411667,5.6495519 0 0 0 0.76562,-2.25586 9.1411667,5.6495519 0 0 0 -9.14257,-5.64844 9.1411667,5.6495519 0 0 0 -1.72266,0.10547 8.4648198,9.3071722 0 0 0 -7.40625,-4.82031 8.4648198,9.3071722 0 0 0 -5.62109,2.36132 7.3209252,8.0494462 0 0 0 -6.50391,-4.37304 7.3209252,8.0494462 0 0 0 -3.74414,1.13672 8.7164516,8.7164516 0 0 0 -7.38672,-4.09571 z m 23.86914,27.64649 a 7.3209252,8.0494462 0 0 0 0.24414,0.66797 8.0964622,5.0038886 0 0 0 -0.19531,0.0391 9.3799353,10.313353 0 0 0 -0.0488,-0.70703 z"
         style="fill:#005522;fill-opacity:1;stroke-width:0;stroke-miterlimit:4;stroke-dasharray:none"
         inkscape:connector-curvature="0" />
    </g>
    <g
       id="g4303"
       transform="matrix(1.3266685,0,0,1,-50.023426,0)">
      <path
         inkscape:connector-curvature="0"
         id="path4299"
         d="m 105.97657,850.58301 6.28703,15.65932 6.42668,8.26638 2.86034,15.01366 -4.97285,17.47332 5.57339,2.18558 5.4586,-3.01013 0.41364,-16.65576 -0.0616,-14.67685 7.15137,-10.61078 5.01057,-16.39655 -8.59224,15.72645 -6.24116,-16.58865 2.77881,17.05543 -4.06805,9.26007 -8.39256,-10.12653 1.64201,-16.14706 -4.34168,14.92983 z"
         style="fill:#241c1c;fill-rule:evenodd;stroke:#000000;stroke-width:0;stroke-linecap:butt;stroke-linejoin:miter;stroke-miterlimit:4;stroke-dasharray:none;stroke-opacity:1"
         sodipodi:nodetypes="ccccccccccccccccccc" />
      <path
         inkscape:connector-curvature="0"
         style="fill:#16502d;fill-opacity:1;stroke-width:0;stroke-miterlimit:4;stroke-dasharray:none"
         d="m 135.10543,815.72673 a 8.3496375,8.7164516 0 0 1 8.34998,8.7168 8.3496375,8.7164516 0 0 1 -0.01,0.26367 6.3553853,7.2948105 0 0 1 2.25447,-0.48828 6.3553853,7.2948105 0 0 1 6.35555,7.29492 6.3553853,7.2948105 0 0 1 -0.73153,3.38477 7.012839,8.0494462 0 0 1 1.17121,-0.11524 7.012839,8.0494462 0 0 1 7.01224,8.05079 7.012839,8.0494462 0 0 1 -7.01224,8.04882 7.012839,8.0494462 0 0 1 -4.40418,-1.79297 5.9170829,6.7917203 0 0 1 -5.89718,6.32032 5.9170829,6.7917203 0 0 1 -5.91775,-6.79102 5.9170829,6.7917203 0 0 1 0.0542,-0.86133 9.6426535,11.067988 0 0 1 -3.12072,0.60938 9.6426535,11.067988 0 0 1 -3.46496,-0.75196 8.9851999,10.313353 0 0 1 -8.58945,7.29297 8.9851999,10.313353 0 0 1 -5.9215,-2.57421 7.7557391,5.0038886 0 0 1 -5.51177,1.48632 7.7557391,5.0038886 0 0 1 -7.41263,-3.53711 6.5745362,7.5463554 0 0 1 -6.357434,5.63086 6.5745362,7.5463554 0 0 1 -6.57258,-7.54687 6.5745362,7.5463554 0 0 1 3.52858,-6.6836 4.6021755,5.2824491 0 0 1 -0.89992,-3.12695 4.6021755,5.2824491 0 0 1 4.05057,-5.24023 8.7564794,5.6495519 0 0 1 -0.7334,-2.25586 8.7564794,5.6495519 0 0 1 8.757824,-5.64844 8.7564794,5.6495519 0 0 1 1.65017,0.10547 8.1085952,9.3071722 0 0 1 7.09457,-4.82031 8.1085952,9.3071722 0 0 1 5.38454,2.36132 7.012839,8.0494462 0 0 1 6.23021,-4.37304 7.012839,8.0494462 0 0 1 3.58657,1.13672 8.3496375,8.7164516 0 0 1 7.07587,-4.09571 z m -22.86465,27.64649 a 7.012839,8.0494462 0 0 1 -0.23387,0.66797 7.7557391,5.0038886 0 0 1 0.18709,0.0391 8.9851999,10.313353 0 0 1 0.0468,-0.70703 z"
         id="path4301" />
    </g>
    <g
       id="g4334">
      <path
         inkscape:connector-curvature="0"
         id="path4271"
         d="m 31.148314,839.00049 11.78452,20.09703 4.071016,12.10144 1.071322,20.09703 -4.928071,22.4741 10.175196,2.864 9.965624,-3.94449 -3.856756,-21.82581 4.499543,-19.23264 26.354481,-23.12238 -23.783307,14.2624 2.571165,-27.66042 -7.713504,26.57994 -6.427922,3.67365 -7.070709,-7.3473 10.070403,-20.31313 -12.641576,14.9107 z"
         style="fill:#241c1c;fill-rule:evenodd;stroke:#000000;stroke-width:0;stroke-linecap:butt;stroke-linejoin:miter;stroke-miterlimit:4;stroke-dasharray:none;stroke-opacity:1"
         sodipodi:nodetypes="cccccccccccccccccc" />
      <path
         id="path4240"
         d="m 66.105469,802.27818 a 10.458569,10.548044 0 0 0 -9.292969,5.73046 12.09272,12.196176 0 0 0 -8.029297,-3.09375 12.09272,12.196176 0 0 0 -11.794922,9.56836 7.289124,6.7684722 0 0 0 -3.666015,-0.92578 7.289124,6.7684722 0 0 0 -7.289063,6.76758 7.289124,6.7684722 0 0 0 0.132813,1.26367 6.8634358,6.9221538 0 0 0 -1.570313,-0.19336 6.8634358,6.9221538 0 0 0 -6.861328,6.92383 6.8634358,6.9221538 0 0 0 1.341797,4.0957 9.8049078,9.8887906 0 0 0 -5.263672,8.75977 9.8049078,9.8887906 0 0 0 9.802734,9.88867 9.8049078,9.8887906 0 0 0 9.806641,-9.88867 9.8049078,9.8887906 0 0 0 -0.01563,-0.42578 10.458569,10.548044 0 0 0 4.589844,1.08398 10.458569,10.548044 0 0 0 0.222656,-0.0117 7.8097754,7.289124 0 0 0 7.425781,5.05664 7.8097754,7.289124 0 0 0 5.302735,-1.94921 13.400041,13.514681 0 0 0 10.253906,4.8164 13.400041,13.514681 0 0 0 11.527344,-6.6582 6.7684722,6.0742698 0 0 0 5.890625,3.09766 6.7684722,6.0742698 0 0 0 5.425781,-2.45704 8.8244175,8.899912 0 0 0 8.533203,6.67579 8.8244175,8.899912 0 0 0 8.79296,-8.28125 10.458569,10.548044 0 0 0 6.56836,2.34961 10.458569,10.548044 0 0 0 10.45899,-10.54883 10.458569,10.548044 0 0 0 -10.45899,-10.54883 10.458569,10.548044 0 0 0 -1.74414,0.15039 9.4780779,9.5591646 0 0 0 1.08985,-4.43555 9.4780779,9.5591646 0 0 0 -9.478514,-9.55859 9.4780779,9.5591646 0 0 0 -5.72461,1.96484 8.5039778,7.4626746 0 0 0 -5.480469,-1.75586 8.5039778,7.4626746 0 0 0 -1.785156,0.17383 6.9420228,6.5949216 0 0 0 -6.371094,-3.99219 6.9420228,6.5949216 0 0 0 -3.689453,1.01172 10.458569,10.548044 0 0 0 -8.65039,-4.65429 z"
         style="fill:#005522;fill-opacity:1;stroke-width:0;stroke-miterlimit:4;stroke-dasharray:none"
         inkscape:connector-curvature="0" />
    </g>
    <path
       style="fill:#ffcc00"
       d="m 55.8198,556.67213 c -0.4881,-0.18816 -1.72995,-2.6205 -2.97323,-5.82363 -0.5696,-1.46748 -1.07955,-2.71233 -1.13323,-2.76629 -0.0537,-0.0539 -1.10178,0.91979 -2.32914,2.16397 -1.22737,1.24418 -2.90294,2.75918 -3.72352,3.36664 -2.38359,1.76455 -3.50894,1.42206 -4.73888,-1.44221 -0.66924,-1.55854 -1.59852,-4.79496 -1.96928,-6.85848 -0.0989,-0.5503 -0.27016,-1.00055 -0.38066,-1.00055 -0.1105,0 -0.68267,0.31412 -1.27145,0.69802 -3.14938,2.05352 -9.43725,3.74635 -11.01507,2.96553 -1.48645,-0.7356 -1.50684,-1.28309 -0.25039,-6.7238 0.6315,-2.73462 1.08692,-5.03083 1.01202,-5.10267 -0.0749,-0.072 -0.93378,-0.002 -1.90871,0.15551 -0.9749,0.15738 -3.5488,0.3606 -5.71977,0.4516 -4.37416,0.18331 -5.12213,-0.006 -5.4852,-1.39503 -0.23718,-0.90668 0.86537,-3.21374 3.16061,-6.61359 0.92613,-1.37179 1.68384,-2.57327 1.68384,-2.66992 0,-0.0967 -0.6569,-0.17673 -1.45981,-0.17795 -2.47386,-0.003 -6.42208,-0.53058 -7.08113,-0.94495 -1.0852096,-0.6823 -1.1112796,-1.63947 -0.0943,-3.46587 1.20971,-2.17256 3.95517,-5.83525 6.08481,-8.11771 l 1.72717,-1.85104 -0.90915,-0.1379 c -0.50003,-0.0759 -3.16141,-0.33461 -5.9142,-0.57504 -4.9815096,-0.43512 -5.8107096,-0.6181 -6.4560096,-1.42459 -0.44457,-0.55563 -0.45004,-2.0179 -0.009,-2.36846 0.64157,-0.50977 4.6395,-1.91463 7.0929096,-2.4924 1.33683,-0.31483 2.53335,-0.6604 2.65893,-0.76792 0.12559,-0.10747 -0.53662,-0.60116 -1.47157,-1.097 -2.57019,-1.36306 -8.5608696,-5.6177 -8.8920896,-6.31522 -0.4287,-0.90288 -0.35773,-1.59364 0.22076,-2.14875 0.45012,-0.43191 1.17078,-0.51122 5.9087596,-0.65028 2.96786,-0.0871 6.36048,-0.2998 7.53917,-0.47267 l 2.14307,-0.31431 -1.60856,-2.03706 c -4.7782,-6.05107 -5.45874,-7.39407 -4.34518,-8.57478 0.63153,-0.66961 2.97214,-0.70574 8.59905,-0.13278 2.13003,0.2169 3.92366,0.34553 3.98585,0.28584 0.0622,-0.0597 -0.14775,-1.33573 -0.46656,-2.83567 -0.73811,-3.47264 -0.74323,-4.63041 -0.0236,-5.321 0.30586,-0.29349 0.7989,-0.53363 1.09566,-0.53363 0.69408,0 4.01179,1.14914 6.65597,2.30541 1.1362,0.49683 2.10508,0.86566 2.15305,0.81965 0.048,-0.046 -0.49091,-2.40249 -1.19755,-5.23658 -1.40202,-5.62309 -1.40405,-6.26683 -0.0217,-6.90258 0.68228,-0.31377 1.10821,-0.20488 4.85955,1.24233 2.26147,0.87241 4.71096,1.83508 5.44329,2.13922 0.97346,0.40429 1.35766,0.46467 1.42869,0.22454 0.0535,-0.18066 0.37142,-1.64918 0.70662,-3.2634 0.91317,-4.39732 3.19861,-9.22857 4.60906,-9.74315 1.48889,-0.54316 2.17831,0.1022 6.51874,6.10267 l 2.57766,3.56347 1.08029,-2.2053 c 1.2832,-2.61955 3.85674,-6.41009 4.87264,-7.1769 1.06867,-0.8066 1.96847,-0.69277 3.02558,0.38276 0.89226,0.9078 4.57468,7.60181 4.57468,8.31596 0,0.66408 0.40583,0.37179 2.42464,-1.74626 2.38881,-2.50625 6.00432,-5.36424 6.78607,-5.36424 1.64062,0 2.33901,1.22188 2.62388,4.59068 0.10668,1.26133 0.27249,2.4153 0.36853,2.56442 0.11546,0.17928 0.68879,0.14309 1.69295,-0.10683 2.87405,-0.71536 9.47061,-0.3183 10.85114,0.65314 1.46222,1.02893 1.07736,2.22422 -2.51405,7.8076 l -1.30892,2.03489 5.59577,0.11657 c 3.45476,0.0721 5.82055,0.2338 6.18326,0.42292 0.32313,0.16849 0.74045,0.66068 0.92739,1.09376 0.41528,0.96199 0.18023,1.51476 -2.84513,6.69068 l -2.09778,3.58894 2.96527,0.58191 c 6.49438,1.27451 9.30279,2.70363 8.8341,4.49549 -0.25904,0.99038 -3.16813,4.36006 -5.55463,6.43409 l -2.12667,1.84824 2.9168,1.40406 c 2.35897,1.13555 2.95206,1.53886 3.10114,2.10879 0.32569,1.24515 -0.20962,2.02782 -2.16352,3.16338 -2.14062,1.24405 -5.07213,3.33103 -7.04144,5.0129 l -1.38475,1.18261 1.47315,1.54667 c 2.5544,2.68186 5.32818,6.97159 5.32818,8.24013 0,0.40137 -0.12461,0.95314 -0.27693,1.22623 -0.36207,0.64915 -2.66187,1.45944 -5.99909,2.11361 -1.4754,0.28923 -2.71677,0.56278 -2.75858,0.60791 -0.0419,0.0451 0.78633,1.22266 1.84039,2.61677 2.25619,2.98408 2.46334,3.52255 1.72186,4.47554 -0.61178,0.78625 -0.67855,0.80918 -5.2329,1.79555 -1.83518,0.3975 -3.42276,0.79999 -3.52797,0.89448 -0.10516,0.0945 0.3586,1.25239 1.03064,2.57311 1.35835,2.66952 1.53162,3.80493 0.69187,4.53416 -0.7623,0.66195 -3.78671,0.42125 -8.20465,-0.65304 -1.83518,-0.44622 -3.37566,-0.81166 -3.42326,-0.81208 -0.15013,-0.002 0.23458,2.45668 0.70248,4.48829 0.52773,2.29133 0.31343,3.2432 -0.81598,3.6243 -1.16763,0.39406 -4.09332,-0.78842 -7.79129,-3.14897 -0.92511,-0.59051 -0.84602,-0.78588 -1.44586,3.57211 -0.47906,3.48052 -0.8386,4.3611 -1.98527,4.86244 -0.54164,0.23678 -0.88106,0.21228 -1.59716,-0.11541 -1.17173,-0.53613 -5.04422,-4.03161 -6.57293,-5.93294 -0.65215,-0.81114 -1.27256,-1.42331 -1.37866,-1.36038 -0.10614,0.0629 -0.73795,0.99213 -1.40409,2.06487 -1.62744,2.62082 -4.63197,6.52455 -5.1758,6.72479 -0.51123,0.18823 -1.48971,0.17948 -2.00186,-0.0179 z"
       id="path4177"
       inkscape:connector-curvature="0"
       inkscape:export-xdpi="90"
       inkscape:export-ydpi="90" />
    <path
       style="fill:#ffff00"
       d="m 58.84087,537.87886 c -12.75021,-1.041 -22.6834,-9.57359 -26.184,-22.49196 -0.64064,-2.36415 -0.73327,-3.38996 -0.73302,-8.11826 2.5e-4,-4.75174 0.0876,-5.70763 0.71548,-7.8334 1.41573,-4.7929 4.38836,-9.62875 8.124,-13.21611 7.60812,-7.30612 19.1473,-11.23601 29.81595,-10.15439 4.21137,0.42695 7.13532,1.20128 10.45116,2.76765 6.36429,3.00645 11.08806,8.79923 13.20037,16.18765 1.11678,3.90625 1.39034,10.93173 0.59507,15.28185 -1.33754,7.31629 -4.39138,13.55491 -9.17125,18.73562 -2.94095,3.18761 -8.32252,6.43637 -12.50126,7.54683 -1.32512,0.35212 -11.6118,1.72162 -11.64954,1.55094 -0.005,-0.0219 -1.20316,-0.13724 -2.66296,-0.25642 z"
       id="path4173"
       inkscape:connector-curvature="0"
       inkscape:export-xdpi="90"
       inkscape:export-ydpi="90" />
    <g
       style="fill:#e6e6e6"
       id="g4198"
       transform="matrix(3.5013582,0,0,3.5013582,284.12087,461.84739)"
       inkscape:export-xdpi="90"
       inkscape:export-ydpi="90">
      <g
         style="fill:#e6e6e6"
         id="g4200">
        <g
           style="fill:#e6e6e6"
           id="g4202">
          <g
             style="fill:#e6e6e6"
             id="g4204">
            <g
               style="fill:#e6e6e6"
               id="g4206">
              <path
                 style="fill:#e6e6e6"
                 inkscape:connector-curvature="0"
                 d="m 5.961382,19.723155 c 0,-3.322 0.8960002,-6.43 2.4480006,-9.112999 0.376,-0.6490002 -0.191,-1.4510002 -0.9180002,-1.2650002 -8.38000068,2.1520002 -14.4410008,10.0719992 -13.6630007,19.2899992 0.736,8.701 7.7679999,15.803 16.4630013,16.617 6.033,0.565 11.517,-1.811 15.221,-5.848 0.5,-0.546 0.073,-1.432 -0.666,-1.401 -0.196,0.009 -0.395,0.013 -0.594,0.013 -10.102,0 -18.291001,-8.189 -18.291001,-18.293 z"
                 id="path4208" />
            </g>
          </g>
          <g
             style="fill:#e6e6e6"
             id="g4210">
            <path
               style="fill:#e6e6e6"
               inkscape:connector-curvature="0"
               d="m 23.144,5.6 0.917,2.633 2.788,0.061 c 0.354,0.008 0.498,0.456 0.218,0.669 l -2.221,1.687 0.805,2.669 c 0.104,0.338 -0.279,0.614 -0.568,0.414 l -2.292,-1.59 -2.29,1.59 c -0.29,0.201 -0.669,-0.076 -0.569,-0.414 L 20.737,10.65 18.516,8.963 C 18.236,8.75 18.382,8.302 18.734,8.294 L 21.522,8.233 22.44,5.6 c 0.116,-0.333 0.587,-0.333 0.704,0 z"
               id="path4212" />
          </g>
          <g
             style="fill:#e6e6e6"
             id="g4214">
            <path
               style="fill:#e6e6e6"
               inkscape:connector-curvature="0"
               d="m 40.26,26.44 0.881,2.53 2.679,0.057 c 0.389,0.009 0.549,0.502 0.24,0.737 l -2.134,1.621 0.772,2.564 c 0.111,0.371 -0.309,0.677 -0.627,0.454 l -2.201,-1.527 -2.2,1.527 c -0.318,0.223 -0.739,-0.083 -0.626,-0.454 l 0.772,-2.564 -2.133,-1.621 c -0.31,-0.234 -0.149,-0.729 0.238,-0.737 L 38.6,28.97 39.484,26.44 c 0.128,-0.366 0.647,-0.366 0.776,0 z"
               id="path4216" />
          </g>
          <g
             style="fill:#e6e6e6"
             id="g4218">
            <path
               style="fill:#ffeeaa"
               inkscape:connector-curvature="0"
               d="m 39.926,8.098 1.325,3.799 4.021,0.086 c 0.452,0.01 0.639,0.584 0.278,0.858 l -3.204,2.434 1.162,3.853 c 0.131,0.433 -0.356,0.788 -0.729,0.529 l -3.306,-2.294 -3.305,2.294 c -0.372,0.259 -0.86,-0.097 -0.729,-0.529 L 36.6,15.275 33.395,12.841 c -0.358,-0.273 -0.172,-0.849 0.279,-0.858 l 4.022,-0.086 1.324,-3.799 c 0.153,-0.426 0.756,-0.426 0.906,0 z"
               id="path4220" />
          </g>
        </g>
      </g>
    </g>
    <g
       style="fill:#e6e6e6"
       id="g4222"
       transform="matrix(1.8832175,0,0,1.8832175,361.95889,456.0482)" />
    <g
       style="fill:#e6e6e6"
       id="g4224"
       transform="matrix(1.8832175,0,0,1.8832175,361.95889,456.0482)" />
    <g
       style="fill:#e6e6e6"
       id="g4226"
       transform="matrix(1.8832175,0,0,1.8832175,361.95889,456.0482)" />
    <g
       style="fill:#e6e6e6"
       id="g4228"
       transform="matrix(1.8832175,0,0,1.8832175,361.95889,456.0482)" />
    <g
       style="fill:#e6e6e6"
       id="g4230"
       transform="matrix(1.8832175,0,0,1.8832175,361.95889,456.0482)" />
    <g
       style="fill:#e6e6e6"
       id="g4232"
       transform="matrix(1.8832175,0,0,1.8832175,361.95889,456.0482)" />
    <g
       style="fill:#e6e6e6"
       id="g4234"
       transform="matrix(1.8832175,0,0,1.8832175,361.95889,456.0482)" />
    <g
       style="fill:#e6e6e6"
       id="g4236"
       transform="matrix(1.8832175,0,0,1.8832175,361.95889,456.0482)" />
    <g
       style="fill:#e6e6e6"
       id="g4238"
       transform="matrix(1.8832175,0,0,1.8832175,361.95889,456.0482)" />
    <g
       style="fill:#e6e6e6"
       id="g4240"
       transform="matrix(1.8832175,0,0,1.8832175,361.95889,456.0482)" />
    <g
       style="fill:#e6e6e6"
       id="g4242"
       transform="matrix(1.8832175,0,0,1.8832175,361.95889,456.0482)" />
    <g
       style="fill:#e6e6e6"
       id="g4244"
       transform="matrix(1.8832175,0,0,1.8832175,361.95889,456.0482)" />
    <g
       style="fill:#e6e6e6"
       id="g4246"
       transform="matrix(1.8832175,0,0,1.8832175,361.95889,456.0482)" />
    <g
       style="fill:#e6e6e6"
       id="g4248"
       transform="matrix(1.8832175,0,0,1.8832175,361.95889,456.0482)" />
    <g
       style="fill:#e6e6e6"
       id="g4250"
       transform="matrix(1.8832175,0,0,1.8832175,361.95889,456.0482)" />
    <path
       style="fill:#ffff00;fill-rule:evenodd;stroke:none;stroke-width:1px;stroke-linecap:butt;stroke-linejoin:miter;stroke-opacity:1"
       d="m 75.575501,635.88036 c -7.783168,-2.7149 1.842302,-10.27824 0.954771,-16.13133 7.846784,4.23995 0.812597,7.94733 -0.954771,16.13133 z"
       id="path4321"
       inkscape:connector-curvature="0"
       sodipodi:nodetypes="ccc"
       inkscape:export-xdpi="90"
       inkscape:export-ydpi="90" />
    <path
       style="fill:#ff9c00;fill-rule:evenodd;stroke:none;stroke-width:1px;stroke-linecap:butt;stroke-linejoin:miter;stroke-opacity:1;fill-opacity:1"
       d="m 97.277344,205.38867 c -0.540673,22.36327 -3.291703,23.23437 -9.859614,26.86285 -0.749239,-8.15158 2.237855,-19.06863 -12.216558,-21.03472 8.602128,2.59224 4.100138,13.52186 2.833984,21.08789 -5.560333,-2.02348 -11.841693,-6.69566 -11.511718,-23.23047 -1.263245,1.80258 -9.039549,15.88214 3.607421,27.8418 1.577811,4.60494 2.510761,5.64944 0.808594,13.10156 9.408792,-1.05321 11.952191,1.11406 16.724609,8.08984 3.429099,-4.07205 13.280718,0.48336 13.066408,-11.08984 -10.667276,-3.11961 11.73779,-15.34446 -3.453126,-41.62891 z"
       transform="translate(0,452.36216)"
       id="path4319"
       inkscape:connector-curvature="0"
       sodipodi:nodetypes="cccccccccc"
       inkscape:export-xdpi="90"
       inkscape:export-ydpi="90" />
    <path
       style="fill:#803300;fill-opacity:1;stroke:none;stroke-width:0.16909827;stroke-miterlimit:4;stroke-dasharray:none"
       d="m 56.346124,698.37943 c -11.978853,8.27857 -6.745218,25.24499 5.404761,23.52985 a 19.178753,14.28368 12.258446 0 0 0.612599,-0.4185 19.178753,14.28368 12.258446 0 0 -1.652593,-20.52384 19.178753,14.28368 12.258446 0 0 -4.316685,-2.58574 c -0.01717,-1.9e-4 -0.03088,-0.002 -0.04808,-0.002 z"
       id="path4335"
       inkscape:connector-curvature="0"
       inkscape:export-xdpi="90"
       inkscape:export-ydpi="90" />
    <path
       sodipodi:type="spiral"
       style="fill:none;fill-rule:evenodd;stroke:#000000;stroke-width:1px;stroke-linecap:butt;stroke-linejoin:miter;stroke-opacity:1"
       id="path4327"
       sodipodi:cx="14.359349"
       sodipodi:cy="689.09204"
       sodipodi:expansion="1"
       sodipodi:revolution="1.8"
       sodipodi:radius="14.707006"
       sodipodi:argument="-17.605118"
       sodipodi:t0="0"
       d="m 14.359349,689.09204 c 0.394005,1.16411 -1.374804,1.10544 -1.934821,0.65486 -1.517612,-1.22104 -0.712455,-3.53997 0.625099,-4.5245 2.392568,-1.7611 5.706196,-0.46818 7.114187,1.90506 2.066282,3.48281 0.231258,7.90708 -3.185019,9.70387 -4.553361,2.39483 -10.1209748,-0.002 -12.2935531,-4.46498 -2.7339681,-5.61665 0.232297,-12.34123 5.7449391,-14.88324 6.676549,-3.07871 14.565092,0.46161 17.472919,7.0249 0.617864,1.39459 1.009315,2.8872 1.162161,4.40462"
       transform="matrix(0.46511102,-0.02202921,0.0374022,0.78968685,24.522081,168.75641)"
       inkscape:export-xdpi="90"
       inkscape:export-ydpi="90" />
    <ellipse
       style="fill:#803300;fill-opacity:1;stroke:none;stroke-width:0.2;stroke-miterlimit:4;stroke-dasharray:none"
       id="path4340"
       cx="99.675369"
       cy="726.29022"
       rx="11.708148"
       ry="8.5469484"
       inkscape:export-xdpi="90"
       inkscape:export-ydpi="90" />
    <path
       transform="matrix(0.07669354,-0.56787496,0.84967585,0.10580307,-485.96119,662.89728)"
       d="m 14.359349,689.09204 c 0.394005,1.16411 -1.374804,1.10544 -1.934821,0.65486 -1.517612,-1.22104 -0.712455,-3.53997 0.625099,-4.5245 2.392568,-1.7611 5.706196,-0.46818 7.114187,1.90506 2.066282,3.48281 0.231258,7.90708 -3.185019,9.70387 -4.553361,2.39483 -10.1209748,-0.002 -12.2935531,-4.46498 -2.7339681,-5.61665 0.232297,-12.34123 5.7449391,-14.88324 6.676549,-3.07871 14.565092,0.46161 17.472919,7.0249 0.617864,1.39459 1.009315,2.8872 1.162161,4.40462"
       sodipodi:t0="0"
       sodipodi:argument="-17.605118"
       sodipodi:radius="14.707006"
       sodipodi:revolution="1.8"
       sodipodi:expansion="1"
       sodipodi:cy="689.09204"
       sodipodi:cx="14.359349"
       id="path4333"
       style="fill:none;fill-rule:evenodd;stroke:#000000;stroke-width:1px;stroke-linecap:butt;stroke-linejoin:miter;stroke-opacity:1"
       sodipodi:type="spiral"
       inkscape:export-xdpi="90"
       inkscape:export-ydpi="90" />
    <path
       inkscape:export-ydpi="90"
       inkscape:export-xdpi="90"
       sodipodi:nodetypes="cccccscsccscccccc"
       inkscape:connector-curvature="0"
       id="path4401"
       d="m 211.59686,707.61297 c -14.51776,-6.0761 -19.33225,-1.76133 -15.28544,-20.21382 4.19587,-3.74871 -12.33817,1.39475 2.21333,-24.502 -12.25165,-8.08822 -0.48388,-19.37732 -1.58213,-25.68189 5.69231,2.91098 -1.66768,16.16716 9.79675,13.18138 4.83212,-4.86905 -6.21171,-10.71266 5.65141,-18.47989 3.24479,-2.12448 1.05709,-10.25771 -2.43699,-14.73575 5.01128,1.0163 13.96036,3.41218 14.56552,9.14625 0.78647,7.45197 -11.29032,18.50345 -7.0652,29.0696 9.76389,-1.50896 12.51308,-12.19102 15.00061,-23.21523 4.61054,7.73405 9.60712,14.66501 -2.08786,22.84814 -3.86485,2.70428 1.01003,10.31181 -3.26951,15.01055 11.44898,4.58214 13.74726,-4.91371 18.21504,-11.07188 0.37708,11.78376 1.50452,24.0365 -11.42904,27.50112 2.19225,5.68618 6.24515,9.30499 13.57198,9.28609 -1.22086,6.52511 5.58794,15.81907 -10.71472,17.14356 z"
       style="fill:#ff9c00;fill-opacity:1;fill-rule:evenodd;stroke:none;stroke-width:1.51879883px;stroke-linecap:butt;stroke-linejoin:miter;stroke-opacity:1" />
    <path
       inkscape:export-ydpi="90"
       inkscape:export-xdpi="90"
       style="fill:#ffc700;fill-opacity:1;fill-rule:evenodd;stroke:none;stroke-width:1.18091261px;stroke-linecap:butt;stroke-linejoin:miter;stroke-opacity:1"
       d="m 202.41128,703.77373 c -10.92633,-4.88074 -13.17758,-2.56662 -10.13188,-17.38892 3.15789,-3.01122 9.71497,-14.00868 -1.04224,-26.24545 13.41542,2.72311 8.45183,13.44511 10.75721,12.23677 6.28377,-12.36791 -8.65513,-20.16711 0.97397,-26.47607 -1.66429,8.76597 12.10202,14.20625 9.74833,20.97893 7.75031,0.93227 15.02281,-3.77926 16.89496,-12.63466 4.45132,13.11804 2.77026,20.51062 -9.63728,24.39728 -0.45066,5.67497 13.42,8.37186 15.32178,20.65632 -0.91884,5.2414 4.20558,12.70695 -8.0641,13.77088 z"
       id="path4403"
       inkscape:connector-curvature="0"
       sodipodi:nodetypes="ccccccccccc" />
    <path
       inkscape:export-ydpi="90"
       inkscape:export-xdpi="90"
       sodipodi:nodetypes="ccccccccssscccsccccsc"
       inkscape:connector-curvature="0"
       id="path4405"
       d="m 215.39351,697.86677 c -1.29141,0 -2.36858,0.94482 -3.27148,2.51172 -0.61329,-0.003 -1.23836,-0.004 -1.81836,-0.0156 -1.34582,-0.157 -2.76785,-0.28288 -4.30079,-0.34961 l 0,0.17774 c -9.08824,-0.52651 -14.91615,-1.95985 -28.65039,-2.11133 -13.64495,9.43002 -6.93079,29.14927 7.5,25.50586 9.12961,-7.14285 15.67473,-9.50096 24.14649,-11.97461 -1.23269,8.23426 -1.42773,11.862 -1.42774,14.79348 0,5.54453 5.80377,10.03906 12.96485,10.03906 7.16107,0 12.96679,-4.49453 12.96679,-10.03906 0,-2.55982 -2.34517,-4.28297 -5.5625,-11.62942 5.72042,2.01769 11.05221,4.67048 17.79883,9.87891 14.62113,3.64251 21.42454,-16.07036 7.59961,-25.49805 -6.95703,0.0757 -13.99978,-3.10834 -17.51172,0.54687 -4.9208,5.12154 -10.35248,2.90203 -14.91211,2.31641 -0.0121,-0.0159 -0.025,-0.031 -0.0371,-0.0469 l -1.09179,-1.74804 c -0.13009,0.006 -0.24242,0.008 -0.3711,0.0137 -1.40365,-1.47938 -2.77045,-2.37109 -4.02148,-2.37109 z"
       style="fill:#552200;fill-rule:evenodd;stroke:none;stroke-width:1px;stroke-linecap:butt;stroke-linejoin:miter;stroke-opacity:1" />
    <path
       inkscape:export-ydpi="90"
       inkscape:export-xdpi="90"
       sodipodi:nodetypes="cccccccccc"
       inkscape:connector-curvature="0"
       id="path4409"
       d="m 218.47749,658.59528 c -16.69083,16.66321 -3.2917,23.23437 -9.85961,26.86285 -0.74924,-8.15158 -12.11785,-12.94635 -12.21656,-21.03472 -5.54245,9.45342 4.10014,13.52186 2.83399,21.08789 -5.56034,-2.02348 -18.91399,-3.74008 -11.51172,-23.23047 -10.97446,11.51379 -9.25066,24.01 3.60742,27.8418 1.57781,4.60494 2.51076,5.64944 0.80859,13.10156 9.40879,-1.05321 11.95219,1.11406 16.72461,8.08984 3.4291,-4.07205 13.28072,0.48336 13.06641,-11.08984 7.3829,-11.88081 -12.64578,-17.45559 -3.45313,-41.62891 z"
       style="fill:#ffff00;fill-opacity:1;fill-rule:evenodd;stroke:none;stroke-width:1px;stroke-linecap:butt;stroke-linejoin:miter;stroke-opacity:1" />
    <path
       inkscape:export-ydpi="90"
       inkscape:export-xdpi="90"
       inkscape:connector-curvature="0"
       id="path4411"
       d="m 177.54627,699.22388 c -11.97885,8.27857 -6.74521,25.24499 5.40476,23.52985 a 19.178753,14.28368 12.258446 0 0 0.6126,-0.4185 19.178753,14.28368 12.258446 0 0 -1.65259,-20.52384 19.178753,14.28368 12.258446 0 0 -4.31668,-2.58574 c -0.0172,-1.9e-4 -0.0309,-0.002 -0.0481,-0.002 z"
       style="fill:#803300;fill-opacity:1;stroke:none;stroke-width:0.16909827;stroke-miterlimit:4;stroke-dasharray:none" />
    <path
       inkscape:export-ydpi="90"
       inkscape:export-xdpi="90"
       transform="matrix(0.46511102,-0.02202921,0.0374022,0.78968685,145.72223,169.60086)"
       d="m 14.359349,689.09204 c 0.394005,1.16411 -1.374804,1.10544 -1.934821,0.65486 -1.517612,-1.22104 -0.712455,-3.53997 0.625099,-4.5245 2.392568,-1.7611 5.706196,-0.46818 7.114187,1.90506 2.066282,3.48281 0.231258,7.90708 -3.185019,9.70387 -4.553361,2.39483 -10.1209748,-0.002 -12.2935531,-4.46498 -2.7339681,-5.61665 0.232297,-12.34123 5.7449391,-14.88324 6.676549,-3.07871 14.565092,0.46161 17.472919,7.0249 0.617864,1.39459 1.009315,2.8872 1.162161,4.40462"
       sodipodi:t0="0"
       sodipodi:argument="-17.605118"
       sodipodi:radius="14.707006"
       sodipodi:revolution="1.8"
       sodipodi:expansion="1"
       sodipodi:cy="689.09204"
       sodipodi:cx="14.359349"
       id="path4413"
       style="fill:none;fill-rule:evenodd;stroke:#000000;stroke-width:1px;stroke-linecap:butt;stroke-linejoin:miter;stroke-opacity:1"
       sodipodi:type="spiral" />
    <ellipse
       inkscape:export-ydpi="90"
       inkscape:export-xdpi="90"
       ry="8.5469484"
       rx="11.708148"
       cy="727.1347"
       cx="220.87552"
       id="ellipse4415"
       style="fill:#803300;fill-opacity:1;stroke:none;stroke-width:0.2;stroke-miterlimit:4;stroke-dasharray:none" />
    <path
       inkscape:export-ydpi="90"
       inkscape:export-xdpi="90"
       sodipodi:type="spiral"
       style="fill:none;fill-rule:evenodd;stroke:#000000;stroke-width:1px;stroke-linecap:butt;stroke-linejoin:miter;stroke-opacity:1"
       id="path4417"
       sodipodi:cx="14.359349"
       sodipodi:cy="689.09204"
       sodipodi:expansion="1"
       sodipodi:revolution="1.8"
       sodipodi:radius="14.707006"
       sodipodi:argument="-17.605118"
       sodipodi:t0="0"
       d="m 14.359349,689.09204 c 0.394005,1.16411 -1.374804,1.10544 -1.934821,0.65486 -1.517612,-1.22104 -0.712455,-3.53997 0.625099,-4.5245 2.392568,-1.7611 5.706196,-0.46818 7.114187,1.90506 2.066282,3.48281 0.231258,7.90708 -3.185019,9.70387 -4.553361,2.39483 -10.1209748,-0.002 -12.2935531,-4.46498 -2.7339681,-5.61665 0.232297,-12.34123 5.7449391,-14.88324 6.676549,-3.07871 14.565092,0.46161 17.472919,7.0249 0.617864,1.39459 1.009315,2.8872 1.162161,4.40462"
       transform="matrix(0.07669354,-0.56787496,0.84967585,0.10580307,-364.76104,663.74173)" />
    <path
       style="fill:#552200;fill-rule:evenodd;stroke:none;stroke-width:1px;stroke-linecap:butt;stroke-linejoin:miter;stroke-opacity:1"
       d="m 364.01719,761.50013 c -1.29141,0 -2.36858,0.94482 -3.27148,2.51172 -0.61329,-0.003 -1.23836,-0.004 -1.81836,-0.0156 -1.34582,-0.157 -2.76785,-0.28288 -4.30079,-0.34961 l 0,0.17774 c -9.08824,-0.52651 -14.91615,-1.95985 -28.65039,-2.11133 -13.64495,9.43002 -6.93079,29.14927 7.5,25.50586 9.12961,-7.14285 15.67473,-9.50096 24.14649,-11.97461 -1.23269,8.23426 -1.42773,11.862 -1.42774,14.79348 0,5.54453 5.80377,10.03906 12.96485,10.03906 7.16107,0 12.96679,-4.49453 12.96679,-10.03906 0,-2.55982 -2.34517,-4.28297 -5.5625,-11.62942 5.72042,2.01769 11.05221,4.67048 17.79883,9.87891 14.62113,3.64251 21.42454,-16.07036 7.59961,-25.49805 -6.95703,0.0757 -13.99978,-3.10834 -17.51172,0.54687 -4.9208,5.12154 -10.35248,2.90203 -14.91211,2.31641 -0.0121,-0.0159 -0.025,-0.031 -0.0371,-0.0469 l -1.09179,-1.74804 c -0.13009,0.006 -0.24242,0.008 -0.3711,0.0137 -1.40365,-1.47938 -2.77045,-2.37109 -4.02148,-2.37109 z"
       id="path4338"
       inkscape:connector-curvature="0"
       sodipodi:nodetypes="ccccccccssscccsccccsc"
       inkscape:export-xdpi="90"
       inkscape:export-ydpi="90" />
    <path
       style="fill:#803300;fill-opacity:1;stroke:none;stroke-width:0.16909827;stroke-miterlimit:4;stroke-dasharray:none"
       d="m 326.16995,762.85724 c -11.97885,8.27857 -6.74521,25.24499 5.40476,23.52985 a 19.178753,14.28368 12.258446 0 0 0.6126,-0.4185 19.178753,14.28368 12.258446 0 0 -1.65259,-20.52384 19.178753,14.28368 12.258446 0 0 -4.31668,-2.58574 c -0.0172,-1.9e-4 -0.0309,-0.002 -0.0481,-0.002 z"
       id="path4343"
       inkscape:connector-curvature="0"
       inkscape:export-xdpi="90"
       inkscape:export-ydpi="90" />
    <path
       sodipodi:type="spiral"
       style="fill:none;fill-rule:evenodd;stroke:#000000;stroke-width:1px;stroke-linecap:butt;stroke-linejoin:miter;stroke-opacity:1"
       id="path4345"
       sodipodi:cx="14.359349"
       sodipodi:cy="689.09204"
       sodipodi:expansion="1"
       sodipodi:revolution="1.8"
       sodipodi:radius="14.707006"
       sodipodi:argument="-17.605118"
       sodipodi:t0="0"
       d="m 14.359349,689.09204 c 0.394005,1.16411 -1.374804,1.10544 -1.934821,0.65486 -1.517612,-1.22104 -0.712455,-3.53997 0.625099,-4.5245 2.392568,-1.7611 5.706196,-0.46818 7.114187,1.90506 2.066282,3.48281 0.231258,7.90708 -3.185019,9.70387 -4.553361,2.39483 -10.1209748,-0.002 -12.2935531,-4.46498 -2.7339681,-5.61665 0.232297,-12.34123 5.7449391,-14.88324 6.676549,-3.07871 14.565092,0.46161 17.472919,7.0249 0.617864,1.39459 1.009315,2.8872 1.162161,4.40462"
       transform="matrix(0.46511102,-0.02202921,0.0374022,0.78968685,294.34591,233.23422)"
       inkscape:export-xdpi="90"
       inkscape:export-ydpi="90" />
    <ellipse
       style="fill:#803300;fill-opacity:1;stroke:none;stroke-width:0.2;stroke-miterlimit:4;stroke-dasharray:none"
       id="ellipse4347"
       cx="369.49921"
       cy="790.76801"
       rx="11.708148"
       ry="8.5469484"
       inkscape:export-xdpi="90"
       inkscape:export-ydpi="90" />
    <path
       transform="matrix(0.07669354,-0.56787496,0.84967585,0.10580307,-216.13736,727.37509)"
       d="m 14.359349,689.09204 c 0.394005,1.16411 -1.374804,1.10544 -1.934821,0.65486 -1.517612,-1.22104 -0.712455,-3.53997 0.625099,-4.5245 2.392568,-1.7611 5.706196,-0.46818 7.114187,1.90506 2.066282,3.48281 0.231258,7.90708 -3.185019,9.70387 -4.553361,2.39483 -10.1209748,-0.002 -12.2935531,-4.46498 -2.7339681,-5.61665 0.232297,-12.34123 5.7449391,-14.88324 6.676549,-3.07871 14.565092,0.46161 17.472919,7.0249 0.617864,1.39459 1.009315,2.8872 1.162161,4.40462"
       sodipodi:t0="0"
       sodipodi:argument="-17.605118"
       sodipodi:radius="14.707006"
       sodipodi:revolution="1.8"
       sodipodi:expansion="1"
       sodipodi:cy="689.09204"
       sodipodi:cx="14.359349"
       id="path4349"
       style="fill:none;fill-rule:evenodd;stroke:#000000;stroke-width:1px;stroke-linecap:butt;stroke-linejoin:miter;stroke-opacity:1"
       sodipodi:type="spiral"
       inkscape:export-xdpi="90"
       inkscape:export-ydpi="90" />
    <path
       style="fill:#1a1a1a;fill-rule:evenodd;stroke:none;stroke-width:1px;stroke-linecap:butt;stroke-linejoin:miter;stroke-opacity:1"
       d="m 364.01758,761.50037 c -1.29141,0 -2.36859,0.94482 -3.27149,2.51172 -0.61329,-0.003 -1.23836,-0.004 -1.81836,-0.0156 -1.34582,-0.157 -2.76784,-0.28288 -4.30078,-0.34961 l 0,0.17773 c -3.09665,-0.1794 -5.8495,-0.47005 -8.63086,-0.77344 l -1.25,1.04883 12.03125,1.82227 -4.00976,6.01562 10.75586,-3.28125 2.1875,6.7461 3.64648,-7.10938 12.57813,6.74414 -2.91602,-5.10351 14.21875,-1.27735 -8.74219,-5.35937 c -0.0142,0.0145 -0.0308,0.0244 -0.0449,0.0391 -4.9208,5.12154 -10.35248,2.90203 -14.91211,2.31641 -0.0121,-0.0159 -0.025,-0.031 -0.0371,-0.0469 l -1.09179,-1.74804 c -0.13009,0.006 -0.24242,0.008 -0.3711,0.0137 -1.40365,-1.47938 -2.77045,-2.3711 -4.02148,-2.3711 z"
       id="path4351"
       inkscape:connector-curvature="0" />
    <path
       style="opacity:1;fill:none;fill-rule:evenodd;stroke:#808080;stroke-width:1.02987778;stroke-linecap:square;stroke-linejoin:miter;stroke-miterlimit:14;stroke-dasharray:none;stroke-dashoffset:0;stroke-opacity:1"
       d="m 332.82004,690.42522 c 5.49145,10.40465 33.52063,1.60203 18.23092,15.5306"
       id="path4374"
       inkscape:connector-curvature="0"
       sodipodi:nodetypes="cc" />
    <path
       style="opacity:1;fill:none;fill-rule:evenodd;stroke:#808080;stroke-width:1.02987778;stroke-linecap:square;stroke-linejoin:miter;stroke-miterlimit:14;stroke-dasharray:none;stroke-dashoffset:0;stroke-opacity:1"
       d="m 346.38761,707.81022 c -20.68116,21.13436 17.64748,12.8653 11.33333,29.90219"
       id="path4376"
       inkscape:connector-curvature="0"
       sodipodi:nodetypes="cc" />
    <path
       style="opacity:1;fill:none;fill-rule:evenodd;stroke:#808080;stroke-width:1.02987778;stroke-linecap:square;stroke-linejoin:miter;stroke-miterlimit:14;stroke-dasharray:none;stroke-dashoffset:0;stroke-opacity:1"
       d="m 379.45907,688.10722 c -7.59903,25.25946 -30.28266,12.85232 -29.44495,31.0612 l 0,0 0,0 0,0"
       id="path4378"
       inkscape:connector-curvature="0"
       sodipodi:nodetypes="ccccc" />
    <path
       sodipodi:nodetypes="cc"
       inkscape:connector-curvature="0"
       id="path4382"
       d="m 362.80923,738.63961 c -8.10528,25.36006 3.73306,5.99 3.2617,20.39839"
       style="opacity:1;fill:none;fill-rule:evenodd;stroke:#808080;stroke-width:1.02987778;stroke-linecap:square;stroke-linejoin:miter;stroke-miterlimit:14;stroke-dasharray:none;stroke-dashoffset:0;stroke-opacity:1" />
    <path
       sodipodi:nodetypes="csc"
       inkscape:connector-curvature="0"
       id="path4384"
       d="m 383.61676,702.94242 c -0.30191,5.61827 -4.4282,7.51131 -8.2103,9.06194 -24.62332,10.09535 6.96678,4.88331 -7.18173,36.37085"
       style="opacity:1;fill:none;fill-rule:evenodd;stroke:#808080;stroke-width:1.02987778;stroke-linecap:square;stroke-linejoin:miter;stroke-miterlimit:14;stroke-dasharray:none;stroke-dashoffset:0;stroke-opacity:1" />
    <path
       style="opacity:1;fill:none;fill-rule:evenodd;stroke:#808080;stroke-width:1.02987778;stroke-linecap:square;stroke-linejoin:miter;stroke-miterlimit:14;stroke-dasharray:none;stroke-dashoffset:0;stroke-opacity:1"
       d="m 364.12138,746.75261 c -0.35385,8.25271 11.21121,4.99305 9.17132,16.226"
       id="path4386"
       inkscape:connector-curvature="0"
       sodipodi:nodetypes="cc" />
    <path
       sodipodi:nodetypes="cc"
       inkscape:connector-curvature="0"
       id="path4388"
       d="m 355.95533,716.15502 c -0.35384,8.25271 9.81559,8.23824 7.7757,19.4712"
       style="opacity:1;fill:none;fill-rule:evenodd;stroke:#808080;stroke-width:1.02987778;stroke-linecap:square;stroke-linejoin:miter;stroke-miterlimit:14;stroke-dasharray:none;stroke-dashoffset:0;stroke-opacity:1" />
    <path
       style="opacity:1;fill:none;fill-rule:evenodd;stroke:#808080;stroke-width:1.02987778;stroke-linecap:square;stroke-linejoin:miter;stroke-miterlimit:14;stroke-dasharray:none;stroke-dashoffset:0;stroke-opacity:1"
       d="m 351.61142,731.88998 c -0.20698,4.82776 5.74202,4.81929 4.54872,11.39045"
       id="path4390"
       inkscape:connector-curvature="0"
       sodipodi:nodetypes="cc" />
  </g>
</svg>
