<?xml version="1.0" encoding="UTF-8" standalone="no"?>
<!-- Created with Inkscape (http://www.inkscape.org/) -->

<svg
   xmlns:dc="http://purl.org/dc/elements/1.1/"
   xmlns:cc="http://creativecommons.org/ns#"
   xmlns:rdf="http://www.w3.org/1999/02/22-rdf-syntax-ns#"
   xmlns:svg="http://www.w3.org/2000/svg"
   xmlns="http://www.w3.org/2000/svg"
   xmlns:sodipodi="http://sodipodi.sourceforge.net/DTD/sodipodi-0.dtd"
   xmlns:inkscape="http://www.inkscape.org/namespaces/inkscape"
   width="100"
   height="100"
   viewBox="0 0 100 100"
   id="svg2"
   version="1.1"
   inkscape:version="0.91 r"
   sodipodi:docname="btn_volver.svg">
  <defs
     id="defs4" />
  <sodipodi:namedview
     id="base"
     pagecolor="#ffffff"
     bordercolor="#666666"
     borderopacity="1.0"
     inkscape:pageopacity="0.0"
     inkscape:pageshadow="2"
     inkscape:zoom="2.3363754"
     inkscape:cx="19.860645"
     inkscape:cy="35.811951"
     inkscape:document-units="px"
     inkscape:current-layer="layer1"
     showgrid="false"
     units="px"
     inkscape:window-width="1366"
     inkscape:window-height="710"
     inkscape:window-x="0"
     inkscape:window-y="0"
     inkscape:window-maximized="1"
     showguides="false" />
  <metadata
     id="metadata7">
    <rdf:RDF>
      <cc:Work
         rdf:about="">
        <dc:format>image/svg+xml</dc:format>
        <dc:type
           rdf:resource="http://purl.org/dc/dcmitype/StillImage" />
        <dc:title></dc:title>
      </cc:Work>
    </rdf:RDF>
  </metadata>
  <g
     inkscape:label="Capa 1"
     inkscape:groupmode="layer"
     id="layer1"
     transform="translate(0,-952.36216)">
    <g
       id="g4768"
       transform="matrix(1.5966236,0.63155236,-0.62072105,1.6244839,389.52032,-868.28596)">
      <path
         inkscape:connector-curvature="0"
         id="path4381"
         d="m 216.83878,1049.4274 c -0.48486,0.2414 -1.09135,0.3623 -1.81864,0.3623 l -0.98697,0 c -0.90045,0 -1.57583,0.201 -2.02605,0.6032 -0.96971,0.2012 -2.06039,0.3021 -3.27254,0.3021 -0.86582,0 -2.09527,-0.061 -3.68837,-0.1816 -1.62774,-0.1207 -2.92608,-0.1807 -3.89579,-0.1807 l -1.14328,0 c -0.3117,0 -0.57177,0.02 -0.77956,0.06 -0.58876,-0.362 -1.21172,-0.543 -1.86974,-0.543 -0.27706,0 -0.64096,0.02 -1.09118,0.06 -0.45022,0.04 -0.83159,0.06 -1.14328,0.06 -1.14288,0.6839 -1.71343,1.7296 -1.71343,3.1376 -0.2078,0.4424 -0.31162,0.8253 -0.31162,1.1471 0,0.3218 0.0863,0.8038 0.25952,1.4474 0.20779,0.6034 0.31162,1.0662 0.31162,1.3881 0,0.362 -0.0864,0.704 -0.25952,1.0258 0.24243,0.6436 0.57138,1.0255 0.98697,1.1462 0.2078,0.081 0.46686,0.1414 0.77856,0.1816 0.34633,0 0.67528,0.02 0.98697,0.06 0.34633,0 0.67528,0.02 0.98698,0.06 0.31169,0.04 0.55428,0.1202 0.72745,0.2409 0.34632,0.4827 0.76263,0.7846 1.24749,0.9053 0.45022,0.081 1.07319,0.1414 1.86974,0.1816 0.79655,0 1.41951,0.1001 1.86974,0.3012 0.51949,-0.6437 1.19486,-0.9656 2.02605,-0.9656 0.17316,0 0.39828,0.02 0.67534,0.06 0.27707,0.04 0.5546,0.1011 0.83167,0.1816 0.31169,0.04 0.58823,0.1002 0.83066,0.1807 0.27706,0.081 0.50218,0.1413 0.67535,0.1816 0.38096,-0.1609 0.74485,-0.2819 1.09118,-0.3623 0.34633,-0.1207 0.71022,-0.2016 1.09118,-0.2419 0.41559,-0.08 0.86584,-0.1204 1.3507,-0.1204 0.48486,-0.04 1.07388,-0.06 1.76653,-0.06 1.38531,-0.04 2.49346,-0.1411 3.32464,-0.302 0.83119,-0.2012 1.59292,-0.6031 2.28557,-1.2065 0,-0.4023 -0.0174,-0.7842 -0.0521,-1.1462 0,-0.4023 -0.0175,-0.8051 -0.0521,-1.2074 0,-0.4023 -0.0339,-0.8851 -0.1032,-1.4483 -0.0346,-0.5632 -0.0871,-1.1461 -0.15631,-1.7495 -0.0346,-0.6034 -0.0871,-1.1863 -0.15631,-1.7495 -0.0346,-0.5632 -0.0686,-1.066 -0.10321,-1.5086 l -1.3507,-0.302 z"
         style="font-style:normal;font-variant:normal;font-weight:normal;font-stretch:normal;font-size:medium;line-height:100%;font-family:Logger;-inkscape-font-specification:Logger;text-align:justify;letter-spacing:0px;word-spacing:0px;writing-mode:lr-tb;text-anchor:start;fill:#2b1100;fill-opacity:1;stroke:none;stroke-width:1px;stroke-linecap:butt;stroke-linejoin:miter;stroke-opacity:1" />
      <path
         inkscape:connector-curvature="0"
         id="path4754"
         d="m 195.12338,1050.3929 -0.77856,0.784 c 0,0.6034 -0.13877,1.2672 -0.41583,1.9913 -0.24243,0.6838 -0.36373,1.1867 -0.36373,1.5085 l 0,0.3021 c 0.0346,0.08 0.0696,0.2014 0.10421,0.3623 0.51949,0.6034 0.96974,0.9044 1.3507,0.9044 l 0,-0.4827 0.77855,-0.1807 0,-0.9054 -0.77855,0.3623 c 0.13853,-1.0057 0.48495,-1.5085 1.03908,-1.5085 0.27706,0 0.76125,0.181 1.4539,0.543 0.72729,0.3218 1.22995,0.4828 1.50701,0.4828 0.3117,0 0.58823,-0.1001 0.83066,-0.3012 -0.62338,0 -1.05616,-0.1409 -1.29859,-0.4225 l 4.83166,-0.2419 0.15531,-0.543 0.77956,0 c 0.27706,-0.04 0.46724,-0.06 0.57114,-0.06 0.45022,0 0.7627,0.1009 0.93587,0.3021 l -1.97495,0.3011 c 0.48486,0.5632 0.98752,0.8451 1.50701,0.8451 0.34633,0 0.86546,-0.201 1.55812,-0.6032 0.72728,-0.4023 1.33377,-0.6033 1.81863,-0.6033 0.24243,0 0.55391,0.08 0.93487,0.241 0.20779,0 0.43292,0.1609 0.67535,0.4827 0.24243,0.2816 0.5025,0.4226 0.77956,0.4226 0.27706,-0.4426 0.77872,-0.6644 1.50601,-0.6644 0.31169,0 0.67559,0.041 1.09118,0.1214 0.45022,0.04 0.72776,0.06 0.83166,0.06 0,-0.4023 0.10383,-0.9452 0.31162,-1.629 0.24243,-0.7241 0.36373,-1.3079 0.36373,-1.7504 -1.31604,0.2011 -2.66679,0.3621 -4.0521,0.4828 -1.38531,0.1207 -2.85735,0.1807 -4.41583,0.1807 -1.76626,0 -3.44596,-0.06 -5.03907,-0.1807 -0.79655,-0.081 -1.73199,-0.1605 -2.8056,-0.2409 -1.07362,-0.081 -2.33801,-0.2015 -3.79258,-0.3624 z"
         style="font-style:normal;font-variant:normal;font-weight:normal;font-stretch:normal;font-size:medium;line-height:100%;font-family:Logger;-inkscape-font-specification:Logger;text-align:justify;letter-spacing:0px;word-spacing:0px;writing-mode:lr-tb;text-anchor:start;fill:#c8ab37;fill-opacity:1;stroke:none;stroke-width:1px;stroke-linecap:butt;stroke-linejoin:miter;stroke-opacity:1" />
      <path
         inkscape:connector-curvature="0"
         id="path4752"
         d="m 216.68247,1050.3929 c -0.90045,1.1264 -1.35071,2.0312 -1.35071,2.7151 0,0.4022 0.19119,0.825 0.57215,1.2676 0.1039,-1.9712 0.36297,-3.2988 0.77856,-3.9827 z"
         style="font-style:normal;font-variant:normal;font-weight:normal;font-stretch:normal;font-size:medium;line-height:100%;font-family:Logger;-inkscape-font-specification:Logger;text-align:justify;letter-spacing:0px;word-spacing:0px;writing-mode:lr-tb;text-anchor:start;fill:#c8ab37;fill-opacity:1;stroke:none;stroke-width:1px;stroke-linecap:butt;stroke-linejoin:miter;stroke-opacity:1" />
      <path
         inkscape:connector-curvature="0"
         id="path4750"
         d="m 217.1504,1050.9359 -0.46793,2.5344 c 0.0693,-0.1207 0.13915,-0.3617 0.20841,-0.7238 0.1039,-0.4022 0.25914,-0.6841 0.46693,-0.845 0,-0.523 -0.0689,-0.8449 -0.20741,-0.9656 z"
         style="font-style:normal;font-variant:normal;font-weight:normal;font-stretch:normal;font-size:medium;line-height:100%;font-family:Logger;-inkscape-font-specification:Logger;text-align:justify;letter-spacing:0px;word-spacing:0px;writing-mode:lr-tb;text-anchor:start;fill:#c8ab37;fill-opacity:1;stroke:none;stroke-width:1px;stroke-linecap:butt;stroke-linejoin:miter;stroke-opacity:1" />
      <path
         inkscape:connector-curvature="0"
         id="path4748"
         d="m 217.51413,1053.0477 0.25952,1.629 0,-0.6032 -0.25952,-1.0258 z"
         style="font-style:normal;font-variant:normal;font-weight:normal;font-stretch:normal;font-size:medium;line-height:100%;font-family:Logger;-inkscape-font-specification:Logger;text-align:justify;letter-spacing:0px;word-spacing:0px;writing-mode:lr-tb;text-anchor:start;fill:#c8ab37;fill-opacity:1;stroke:none;stroke-width:1px;stroke-linecap:butt;stroke-linejoin:miter;stroke-opacity:1" />
      <path
         inkscape:connector-curvature="0"
         id="path4744"
         d="m 216.68247,1053.8928 c -0.13853,0.2816 -0.20742,0.5626 -0.20742,0.8442 0,0.2011 0.0689,0.4029 0.20742,0.6041 0.13853,0.2011 0.27729,0.4221 0.41583,0.6635 0.17316,0.2012 0.3294,0.3821 0.46793,0.543 0.17316,0.1609 0.27699,0.2818 0.31162,0.3623 -0.13852,0.1609 -0.27729,0.2409 -0.41582,0.2409 -0.17317,0 -0.43323,-0.1201 -0.77956,-0.3614 -0.3117,-0.2816 -0.57077,-0.4225 -0.77856,-0.4225 0.20779,0.4827 0.48433,0.8246 0.83066,1.0258 0.38096,0.1609 0.79627,0.3418 1.24649,0.5429 0.0693,-0.2413 0.10421,-0.4832 0.10421,-0.7246 0,-0.2011 -0.0689,-0.422 -0.20742,-0.6634 -0.13852,-0.2816 -0.31224,-0.5635 -0.52004,-0.8451 -0.17316,-0.3218 -0.3284,-0.6228 -0.46693,-0.9044 -0.13853,-0.3218 -0.20841,-0.6237 -0.20841,-0.9053 z"
         style="font-style:normal;font-variant:normal;font-weight:normal;font-stretch:normal;font-size:medium;line-height:100%;font-family:Logger;-inkscape-font-specification:Logger;text-align:justify;letter-spacing:0px;word-spacing:0px;writing-mode:lr-tb;text-anchor:start;fill:#c8ab37;fill-opacity:1;stroke:none;stroke-width:1px;stroke-linecap:butt;stroke-linejoin:miter;stroke-opacity:1" />
      <path
         inkscape:connector-curvature="0"
         id="path4742"
         d="m 214.86483,1054.5563 -0.41583,0.1204 c 0.17316,0.1207 0.25952,0.2817 0.25952,0.4828 0,0.1207 -0.0514,0.2816 -0.15531,0.4828 -0.0693,0.1609 -0.10421,0.2618 -0.10421,0.3021 l 0.41583,0 0,-1.3881 z"
         style="font-style:normal;font-variant:normal;font-weight:normal;font-stretch:normal;font-size:medium;line-height:100%;font-family:Logger;-inkscape-font-specification:Logger;text-align:justify;letter-spacing:0px;word-spacing:0px;writing-mode:lr-tb;text-anchor:start;fill:#c8ab37;fill-opacity:1;stroke:none;stroke-width:1px;stroke-linecap:butt;stroke-linejoin:miter;stroke-opacity:1" />
      <path
         inkscape:connector-curvature="0"
         id="path4740"
         d="m 196.99411,1054.6767 -0.15631,0.6644 c 0.55412,0 0.83166,-0.1009 0.83166,-0.3021 l -0.67535,-0.3623 z"
         style="font-style:normal;font-variant:normal;font-weight:normal;font-stretch:normal;font-size:medium;line-height:100%;font-family:Logger;-inkscape-font-specification:Logger;text-align:justify;letter-spacing:0px;word-spacing:0px;writing-mode:lr-tb;text-anchor:start;fill:#c8ab37;fill-opacity:1;stroke:none;stroke-width:1px;stroke-linecap:butt;stroke-linejoin:miter;stroke-opacity:1" />
      <path
         inkscape:connector-curvature="0"
         id="path4736"
         d="m 211.54019,1055.5821 0.36272,0.543 0.41584,-0.543 -0.77856,0 z"
         style="font-style:normal;font-variant:normal;font-weight:normal;font-stretch:normal;font-size:medium;line-height:100%;font-family:Logger;-inkscape-font-specification:Logger;text-align:justify;letter-spacing:0px;word-spacing:0px;writing-mode:lr-tb;text-anchor:start;fill:#c8ab37;fill-opacity:1;stroke:none;stroke-width:1px;stroke-linecap:butt;stroke-linejoin:miter;stroke-opacity:1" />
    </g>
    <g
       transform="matrix(1.536379,-0.76619046,0.79771381,1.5455214,-1129.9457,-493.26292)"
       id="g4779"
       inkscape:transform-center-x="-5.7025"
       inkscape:transform-center-y="-7.2469433">
      <path
         style="font-style:normal;font-variant:normal;font-weight:normal;font-stretch:normal;font-size:medium;line-height:100%;font-family:Logger;-inkscape-font-specification:Logger;text-align:justify;letter-spacing:0px;word-spacing:0px;writing-mode:lr-tb;text-anchor:start;fill:#2b1100;fill-opacity:1;stroke:none;stroke-width:1px;stroke-linecap:butt;stroke-linejoin:miter;stroke-opacity:1"
         d="m 216.83878,1049.4274 c -0.48486,0.2414 -1.09135,0.3623 -1.81864,0.3623 l -0.98697,0 c -0.90045,0 -1.57583,0.201 -2.02605,0.6032 -0.96971,0.2012 -2.06039,0.3021 -3.27254,0.3021 -0.86582,0 -2.09527,-0.061 -3.68837,-0.1816 -1.62774,-0.1207 -2.92608,-0.1807 -3.89579,-0.1807 l -1.14328,0 c -0.3117,0 -0.57177,0.02 -0.77956,0.06 -0.58876,-0.362 -1.21172,-0.543 -1.86974,-0.543 -0.27706,0 -0.64096,0.02 -1.09118,0.06 -0.45022,0.04 -0.83159,0.06 -1.14328,0.06 -1.14288,0.6839 -1.71343,1.7296 -1.71343,3.1376 -0.2078,0.4424 -0.31162,0.8253 -0.31162,1.1471 0,0.3218 0.0863,0.8038 0.25952,1.4474 0.20779,0.6034 0.31162,1.0662 0.31162,1.3881 0,0.362 -0.0864,0.704 -0.25952,1.0258 0.24243,0.6436 0.57138,1.0255 0.98697,1.1462 0.2078,0.081 0.46686,0.1414 0.77856,0.1816 0.34633,0 0.67528,0.02 0.98697,0.06 0.34633,0 0.67528,0.02 0.98698,0.06 0.31169,0.04 0.55428,0.1202 0.72745,0.2409 0.34632,0.4827 0.76263,0.7846 1.24749,0.9053 0.45022,0.081 1.07319,0.1414 1.86974,0.1816 0.79655,0 1.41951,0.1001 1.86974,0.3012 0.51949,-0.6437 1.19486,-0.9656 2.02605,-0.9656 0.17316,0 0.39828,0.02 0.67534,0.06 0.27707,0.04 0.5546,0.1011 0.83167,0.1816 0.31169,0.04 0.58823,0.1002 0.83066,0.1807 0.27706,0.081 0.50218,0.1413 0.67535,0.1816 0.38096,-0.1609 0.74485,-0.2819 1.09118,-0.3623 0.34633,-0.1207 0.71022,-0.2016 1.09118,-0.2419 0.41559,-0.08 0.86584,-0.1204 1.3507,-0.1204 0.48486,-0.04 1.07388,-0.06 1.76653,-0.06 1.38531,-0.04 2.49346,-0.1411 3.32464,-0.302 0.83119,-0.2012 1.59292,-0.6031 2.28557,-1.2065 0,-0.4023 -0.0174,-0.7842 -0.0521,-1.1462 0,-0.4023 -0.0175,-0.8051 -0.0521,-1.2074 0,-0.4023 -0.0339,-0.8851 -0.1032,-1.4483 -0.0346,-0.5632 -0.0871,-1.1461 -0.15631,-1.7495 -0.0346,-0.6034 -0.0871,-1.1863 -0.15631,-1.7495 -0.0346,-0.5632 -0.0686,-1.066 -0.10321,-1.5086 l -1.3507,-0.302 z"
         id="path4781"
         inkscape:connector-curvature="0" />
      <path
         style="font-style:normal;font-variant:normal;font-weight:normal;font-stretch:normal;font-size:medium;line-height:100%;font-family:Logger;-inkscape-font-specification:Logger;text-align:justify;letter-spacing:0px;word-spacing:0px;writing-mode:lr-tb;text-anchor:start;fill:#c8ab37;fill-opacity:1;stroke:none;stroke-width:1px;stroke-linecap:butt;stroke-linejoin:miter;stroke-opacity:1"
         d="m 195.12338,1050.3929 -0.77856,0.784 c 0,0.6034 -0.13877,1.2672 -0.41583,1.9913 -0.24243,0.6838 -0.36373,1.1867 -0.36373,1.5085 l 0,0.3021 c 0.0346,0.08 0.0696,0.2014 0.10421,0.3623 0.51949,0.6034 0.96974,0.9044 1.3507,0.9044 l 0,-0.4827 0.77855,-0.1807 0,-0.9054 -0.77855,0.3623 c 0.13853,-1.0057 0.48495,-1.5085 1.03908,-1.5085 0.27706,0 0.76125,0.181 1.4539,0.543 0.72729,0.3218 1.22995,0.4828 1.50701,0.4828 0.3117,0 0.58823,-0.1001 0.83066,-0.3012 -0.62338,0 -1.05616,-0.1409 -1.29859,-0.4225 l 4.83166,-0.2419 0.15531,-0.543 0.77956,0 c 0.27706,-0.04 0.46724,-0.06 0.57114,-0.06 0.45022,0 0.7627,0.1009 0.93587,0.3021 l -1.97495,0.3011 c 0.48486,0.5632 0.98752,0.8451 1.50701,0.8451 0.34633,0 0.86546,-0.201 1.55812,-0.6032 0.72728,-0.4023 1.33377,-0.6033 1.81863,-0.6033 0.24243,0 0.55391,0.08 0.93487,0.241 0.20779,0 0.43292,0.1609 0.67535,0.4827 0.24243,0.2816 0.5025,0.4226 0.77956,0.4226 0.27706,-0.4426 0.77872,-0.6644 1.50601,-0.6644 0.31169,0 0.67559,0.041 1.09118,0.1214 0.45022,0.04 0.72776,0.06 0.83166,0.06 0,-0.4023 0.10383,-0.9452 0.31162,-1.629 0.24243,-0.7241 0.36373,-1.3079 0.36373,-1.7504 -1.31604,0.2011 -2.66679,0.3621 -4.0521,0.4828 -1.38531,0.1207 -2.85735,0.1807 -4.41583,0.1807 -1.76626,0 -3.44596,-0.06 -5.03907,-0.1807 -0.79655,-0.081 -1.73199,-0.1605 -2.8056,-0.2409 -1.07362,-0.081 -2.33801,-0.2015 -3.79258,-0.3624 z"
         id="path4783"
         inkscape:connector-curvature="0" />
      <path
         style="font-style:normal;font-variant:normal;font-weight:normal;font-stretch:normal;font-size:medium;line-height:100%;font-family:Logger;-inkscape-font-specification:Logger;text-align:justify;letter-spacing:0px;word-spacing:0px;writing-mode:lr-tb;text-anchor:start;fill:#c8ab37;fill-opacity:1;stroke:none;stroke-width:1px;stroke-linecap:butt;stroke-linejoin:miter;stroke-opacity:1"
         d="m 216.68247,1050.3929 c -0.90045,1.1264 -1.35071,2.0312 -1.35071,2.7151 0,0.4022 0.19119,0.825 0.57215,1.2676 0.1039,-1.9712 0.36297,-3.2988 0.77856,-3.9827 z"
         id="path4785"
         inkscape:connector-curvature="0" />
      <path
         style="font-style:normal;font-variant:normal;font-weight:normal;font-stretch:normal;font-size:medium;line-height:100%;font-family:Logger;-inkscape-font-specification:Logger;text-align:justify;letter-spacing:0px;word-spacing:0px;writing-mode:lr-tb;text-anchor:start;fill:#c8ab37;fill-opacity:1;stroke:none;stroke-width:1px;stroke-linecap:butt;stroke-linejoin:miter;stroke-opacity:1"
         d="m 217.1504,1050.9359 -0.46793,2.5344 c 0.0693,-0.1207 0.13915,-0.3617 0.20841,-0.7238 0.1039,-0.4022 0.25914,-0.6841 0.46693,-0.845 0,-0.523 -0.0689,-0.8449 -0.20741,-0.9656 z"
         id="path4787"
         inkscape:connector-curvature="0" />
      <path
         style="font-style:normal;font-variant:normal;font-weight:normal;font-stretch:normal;font-size:medium;line-height:100%;font-family:Logger;-inkscape-font-specification:Logger;text-align:justify;letter-spacing:0px;word-spacing:0px;writing-mode:lr-tb;text-anchor:start;fill:#c8ab37;fill-opacity:1;stroke:none;stroke-width:1px;stroke-linecap:butt;stroke-linejoin:miter;stroke-opacity:1"
         d="m 217.51413,1053.0477 0.25952,1.629 0,-0.6032 -0.25952,-1.0258 z"
         id="path4789"
         inkscape:connector-curvature="0" />
      <path
         style="font-style:normal;font-variant:normal;font-weight:normal;font-stretch:normal;font-size:medium;line-height:100%;font-family:Logger;-inkscape-font-specification:Logger;text-align:justify;letter-spacing:0px;word-spacing:0px;writing-mode:lr-tb;text-anchor:start;fill:#c8ab37;fill-opacity:1;stroke:none;stroke-width:1px;stroke-linecap:butt;stroke-linejoin:miter;stroke-opacity:1"
         d="m 216.68247,1053.8928 c -0.13853,0.2816 -0.20742,0.5626 -0.20742,0.8442 0,0.2011 0.0689,0.4029 0.20742,0.6041 0.13853,0.2011 0.27729,0.4221 0.41583,0.6635 0.17316,0.2012 0.3294,0.3821 0.46793,0.543 0.17316,0.1609 0.27699,0.2818 0.31162,0.3623 -0.13852,0.1609 -0.27729,0.2409 -0.41582,0.2409 -0.17317,0 -0.43323,-0.1201 -0.77956,-0.3614 -0.3117,-0.2816 -0.57077,-0.4225 -0.77856,-0.4225 0.20779,0.4827 0.48433,0.8246 0.83066,1.0258 0.38096,0.1609 0.79627,0.3418 1.24649,0.5429 0.0693,-0.2413 0.10421,-0.4832 0.10421,-0.7246 0,-0.2011 -0.0689,-0.422 -0.20742,-0.6634 -0.13852,-0.2816 -0.31224,-0.5635 -0.52004,-0.8451 -0.17316,-0.3218 -0.3284,-0.6228 -0.46693,-0.9044 -0.13853,-0.3218 -0.20841,-0.6237 -0.20841,-0.9053 z"
         id="path4791"
         inkscape:connector-curvature="0" />
      <path
         style="font-style:normal;font-variant:normal;font-weight:normal;font-stretch:normal;font-size:medium;line-height:100%;font-family:Logger;-inkscape-font-specification:Logger;text-align:justify;letter-spacing:0px;word-spacing:0px;writing-mode:lr-tb;text-anchor:start;fill:#c8ab37;fill-opacity:1;stroke:none;stroke-width:1px;stroke-linecap:butt;stroke-linejoin:miter;stroke-opacity:1"
         d="m 214.86483,1054.5563 -0.41583,0.1204 c 0.17316,0.1207 0.25952,0.2817 0.25952,0.4828 0,0.1207 -0.0514,0.2816 -0.15531,0.4828 -0.0693,0.1609 -0.10421,0.2618 -0.10421,0.3021 l 0.41583,0 0,-1.3881 z"
         id="path4793"
         inkscape:connector-curvature="0" />
      <path
         style="font-style:normal;font-variant:normal;font-weight:normal;font-stretch:normal;font-size:medium;line-height:100%;font-family:Logger;-inkscape-font-specification:Logger;text-align:justify;letter-spacing:0px;word-spacing:0px;writing-mode:lr-tb;text-anchor:start;fill:#c8ab37;fill-opacity:1;stroke:none;stroke-width:1px;stroke-linecap:butt;stroke-linejoin:miter;stroke-opacity:1"
         d="m 196.99411,1054.6767 -0.15631,0.6644 c 0.55412,0 0.83166,-0.1009 0.83166,-0.3021 l -0.67535,-0.3623 z"
         id="path4795"
         inkscape:connector-curvature="0" />
      <path
         style="font-style:normal;font-variant:normal;font-weight:normal;font-stretch:normal;font-size:medium;line-height:100%;font-family:Logger;-inkscape-font-specification:Logger;text-align:justify;letter-spacing:0px;word-spacing:0px;writing-mode:lr-tb;text-anchor:start;fill:#c8ab37;fill-opacity:1;stroke:none;stroke-width:1px;stroke-linecap:butt;stroke-linejoin:miter;stroke-opacity:1"
         d="m 211.54019,1055.5821 0.36272,0.543 0.41584,-0.543 -0.77856,0 z"
         id="path4797"
         inkscape:connector-curvature="0" />
    </g>
    <g
       inkscape:transform-center-y="-7.4664181"
       inkscape:transform-center-x="2.7182557"
       id="g4799"
       transform="matrix(-0.00142655,-1.7148017,1.7411194,-0.02349459,-1824.2407,1382.0906)">
      <path
         inkscape:connector-curvature="0"
         id="path4801"
         d="m 216.83878,1049.4274 c -0.48486,0.2414 -1.09135,0.3623 -1.81864,0.3623 l -0.98697,0 c -0.90045,0 -1.57583,0.201 -2.02605,0.6032 -0.96971,0.2012 -2.06039,0.3021 -3.27254,0.3021 -0.86582,0 -2.09527,-0.061 -3.68837,-0.1816 -1.62774,-0.1207 -2.92608,-0.1807 -3.89579,-0.1807 l -1.14328,0 c -0.3117,0 -0.57177,0.02 -0.77956,0.06 -0.58876,-0.362 -1.21172,-0.543 -1.86974,-0.543 -0.27706,0 -0.64096,0.02 -1.09118,0.06 -0.45022,0.04 -0.83159,0.06 -1.14328,0.06 -1.14288,0.6839 -1.71343,1.7296 -1.71343,3.1376 -0.2078,0.4424 -0.31162,0.8253 -0.31162,1.1471 0,0.3218 0.0863,0.8038 0.25952,1.4474 0.20779,0.6034 0.31162,1.0662 0.31162,1.3881 0,0.362 -0.0864,0.704 -0.25952,1.0258 0.24243,0.6436 0.57138,1.0255 0.98697,1.1462 0.2078,0.081 0.46686,0.1414 0.77856,0.1816 0.34633,0 0.67528,0.02 0.98697,0.06 0.34633,0 0.67528,0.02 0.98698,0.06 0.31169,0.04 0.55428,0.1202 0.72745,0.2409 0.34632,0.4827 0.76263,0.7846 1.24749,0.9053 0.45022,0.081 1.07319,0.1414 1.86974,0.1816 0.79655,0 1.41951,0.1001 1.86974,0.3012 0.51949,-0.6437 1.19486,-0.9656 2.02605,-0.9656 0.17316,0 0.39828,0.02 0.67534,0.06 0.27707,0.04 0.5546,0.1011 0.83167,0.1816 0.31169,0.04 0.58823,0.1002 0.83066,0.1807 0.27706,0.081 0.50218,0.1413 0.67535,0.1816 0.38096,-0.1609 0.74485,-0.2819 1.09118,-0.3623 0.34633,-0.1207 0.71022,-0.2016 1.09118,-0.2419 0.41559,-0.08 0.86584,-0.1204 1.3507,-0.1204 0.48486,-0.04 1.07388,-0.06 1.76653,-0.06 1.38531,-0.04 2.49346,-0.1411 3.32464,-0.302 0.83119,-0.2012 1.59292,-0.6031 2.28557,-1.2065 0,-0.4023 -0.0174,-0.7842 -0.0521,-1.1462 0,-0.4023 -0.0175,-0.8051 -0.0521,-1.2074 0,-0.4023 -0.0339,-0.8851 -0.1032,-1.4483 -0.0346,-0.5632 -0.0871,-1.1461 -0.15631,-1.7495 -0.0346,-0.6034 -0.0871,-1.1863 -0.15631,-1.7495 -0.0346,-0.5632 -0.0686,-1.066 -0.10321,-1.5086 l -1.3507,-0.302 z"
         style="font-style:normal;font-variant:normal;font-weight:normal;font-stretch:normal;font-size:medium;line-height:100%;font-family:Logger;-inkscape-font-specification:Logger;text-align:justify;letter-spacing:0px;word-spacing:0px;writing-mode:lr-tb;text-anchor:start;fill:#2b1100;fill-opacity:1;stroke:none;stroke-width:1px;stroke-linecap:butt;stroke-linejoin:miter;stroke-opacity:1" />
      <path
         inkscape:connector-curvature="0"
         id="path4803"
         d="m 195.12338,1050.3929 -0.77856,0.784 c 0,0.6034 -0.13877,1.2672 -0.41583,1.9913 -0.24243,0.6838 -0.36373,1.1867 -0.36373,1.5085 l 0,0.3021 c 0.0346,0.08 0.0696,0.2014 0.10421,0.3623 0.51949,0.6034 0.96974,0.9044 1.3507,0.9044 l 0,-0.4827 0.77855,-0.1807 0,-0.9054 -0.77855,0.3623 c 0.13853,-1.0057 0.48495,-1.5085 1.03908,-1.5085 0.27706,0 0.76125,0.181 1.4539,0.543 0.72729,0.3218 1.22995,0.4828 1.50701,0.4828 0.3117,0 0.58823,-0.1001 0.83066,-0.3012 -0.62338,0 -1.05616,-0.1409 -1.29859,-0.4225 l 4.83166,-0.2419 0.15531,-0.543 0.77956,0 c 0.27706,-0.04 0.46724,-0.06 0.57114,-0.06 0.45022,0 0.7627,0.1009 0.93587,0.3021 l -1.97495,0.3011 c 0.48486,0.5632 0.98752,0.8451 1.50701,0.8451 0.34633,0 0.86546,-0.201 1.55812,-0.6032 0.72728,-0.4023 1.33377,-0.6033 1.81863,-0.6033 0.24243,0 0.55391,0.08 0.93487,0.241 0.20779,0 0.43292,0.1609 0.67535,0.4827 0.24243,0.2816 0.5025,0.4226 0.77956,0.4226 0.27706,-0.4426 0.77872,-0.6644 1.50601,-0.6644 0.31169,0 0.67559,0.041 1.09118,0.1214 0.45022,0.04 0.72776,0.06 0.83166,0.06 0,-0.4023 0.10383,-0.9452 0.31162,-1.629 0.24243,-0.7241 0.36373,-1.3079 0.36373,-1.7504 -1.31604,0.2011 -2.66679,0.3621 -4.0521,0.4828 -1.38531,0.1207 -2.85735,0.1807 -4.41583,0.1807 -1.76626,0 -3.44596,-0.06 -5.03907,-0.1807 -0.79655,-0.081 -1.73199,-0.1605 -2.8056,-0.2409 -1.07362,-0.081 -2.33801,-0.2015 -3.79258,-0.3624 z"
         style="font-style:normal;font-variant:normal;font-weight:normal;font-stretch:normal;font-size:medium;line-height:100%;font-family:Logger;-inkscape-font-specification:Logger;text-align:justify;letter-spacing:0px;word-spacing:0px;writing-mode:lr-tb;text-anchor:start;fill:#c8ab37;fill-opacity:1;stroke:none;stroke-width:1px;stroke-linecap:butt;stroke-linejoin:miter;stroke-opacity:1" />
      <path
         inkscape:connector-curvature="0"
         id="path4805"
         d="m 216.68247,1050.3929 c -0.90045,1.1264 -1.35071,2.0312 -1.35071,2.7151 0,0.4022 0.19119,0.825 0.57215,1.2676 0.1039,-1.9712 0.36297,-3.2988 0.77856,-3.9827 z"
         style="font-style:normal;font-variant:normal;font-weight:normal;font-stretch:normal;font-size:medium;line-height:100%;font-family:Logger;-inkscape-font-specification:Logger;text-align:justify;letter-spacing:0px;word-spacing:0px;writing-mode:lr-tb;text-anchor:start;fill:#c8ab37;fill-opacity:1;stroke:none;stroke-width:1px;stroke-linecap:butt;stroke-linejoin:miter;stroke-opacity:1" />
      <path
         inkscape:connector-curvature="0"
         id="path4807"
         d="m 217.1504,1050.9359 -0.46793,2.5344 c 0.0693,-0.1207 0.13915,-0.3617 0.20841,-0.7238 0.1039,-0.4022 0.25914,-0.6841 0.46693,-0.845 0,-0.523 -0.0689,-0.8449 -0.20741,-0.9656 z"
         style="font-style:normal;font-variant:normal;font-weight:normal;font-stretch:normal;font-size:medium;line-height:100%;font-family:Logger;-inkscape-font-specification:Logger;text-align:justify;letter-spacing:0px;word-spacing:0px;writing-mode:lr-tb;text-anchor:start;fill:#c8ab37;fill-opacity:1;stroke:none;stroke-width:1px;stroke-linecap:butt;stroke-linejoin:miter;stroke-opacity:1" />
      <path
         inkscape:connector-curvature="0"
         id="path4809"
         d="m 217.51413,1053.0477 0.25952,1.629 0,-0.6032 -0.25952,-1.0258 z"
         style="font-style:normal;font-variant:normal;font-weight:normal;font-stretch:normal;font-size:medium;line-height:100%;font-family:Logger;-inkscape-font-specification:Logger;text-align:justify;letter-spacing:0px;word-spacing:0px;writing-mode:lr-tb;text-anchor:start;fill:#c8ab37;fill-opacity:1;stroke:none;stroke-width:1px;stroke-linecap:butt;stroke-linejoin:miter;stroke-opacity:1" />
      <path
         inkscape:connector-curvature="0"
         id="path4811"
         d="m 216.68247,1053.8928 c -0.13853,0.2816 -0.20742,0.5626 -0.20742,0.8442 0,0.2011 0.0689,0.4029 0.20742,0.6041 0.13853,0.2011 0.27729,0.4221 0.41583,0.6635 0.17316,0.2012 0.3294,0.3821 0.46793,0.543 0.17316,0.1609 0.27699,0.2818 0.31162,0.3623 -0.13852,0.1609 -0.27729,0.2409 -0.41582,0.2409 -0.17317,0 -0.43323,-0.1201 -0.77956,-0.3614 -0.3117,-0.2816 -0.57077,-0.4225 -0.77856,-0.4225 0.20779,0.4827 0.48433,0.8246 0.83066,1.0258 0.38096,0.1609 0.79627,0.3418 1.24649,0.5429 0.0693,-0.2413 0.10421,-0.4832 0.10421,-0.7246 0,-0.2011 -0.0689,-0.422 -0.20742,-0.6634 -0.13852,-0.2816 -0.31224,-0.5635 -0.52004,-0.8451 -0.17316,-0.3218 -0.3284,-0.6228 -0.46693,-0.9044 -0.13853,-0.3218 -0.20841,-0.6237 -0.20841,-0.9053 z"
         style="font-style:normal;font-variant:normal;font-weight:normal;font-stretch:normal;font-size:medium;line-height:100%;font-family:Logger;-inkscape-font-specification:Logger;text-align:justify;letter-spacing:0px;word-spacing:0px;writing-mode:lr-tb;text-anchor:start;fill:#c8ab37;fill-opacity:1;stroke:none;stroke-width:1px;stroke-linecap:butt;stroke-linejoin:miter;stroke-opacity:1" />
      <path
         inkscape:connector-curvature="0"
         id="path4813"
         d="m 214.86483,1054.5563 -0.41583,0.1204 c 0.17316,0.1207 0.25952,0.2817 0.25952,0.4828 0,0.1207 -0.0514,0.2816 -0.15531,0.4828 -0.0693,0.1609 -0.10421,0.2618 -0.10421,0.3021 l 0.41583,0 0,-1.3881 z"
         style="font-style:normal;font-variant:normal;font-weight:normal;font-stretch:normal;font-size:medium;line-height:100%;font-family:Logger;-inkscape-font-specification:Logger;text-align:justify;letter-spacing:0px;word-spacing:0px;writing-mode:lr-tb;text-anchor:start;fill:#c8ab37;fill-opacity:1;stroke:none;stroke-width:1px;stroke-linecap:butt;stroke-linejoin:miter;stroke-opacity:1" />
      <path
         inkscape:connector-curvature="0"
         id="path4815"
         d="m 196.99411,1054.6767 -0.15631,0.6644 c 0.55412,0 0.83166,-0.1009 0.83166,-0.3021 l -0.67535,-0.3623 z"
         style="font-style:normal;font-variant:normal;font-weight:normal;font-stretch:normal;font-size:medium;line-height:100%;font-family:Logger;-inkscape-font-specification:Logger;text-align:justify;letter-spacing:0px;word-spacing:0px;writing-mode:lr-tb;text-anchor:start;fill:#c8ab37;fill-opacity:1;stroke:none;stroke-width:1px;stroke-linecap:butt;stroke-linejoin:miter;stroke-opacity:1" />
      <path
         inkscape:connector-curvature="0"
         id="path4817"
         d="m 211.54019,1055.5821 0.36272,0.543 0.41584,-0.543 -0.77856,0 z"
         style="font-style:normal;font-variant:normal;font-weight:normal;font-stretch:normal;font-size:medium;line-height:100%;font-family:Logger;-inkscape-font-specification:Logger;text-align:justify;letter-spacing:0px;word-spacing:0px;writing-mode:lr-tb;text-anchor:start;fill:#c8ab37;fill-opacity:1;stroke:none;stroke-width:1px;stroke-linecap:butt;stroke-linejoin:miter;stroke-opacity:1" />
    </g>
    <g
       transform="matrix(1.5966236,0.63155236,-0.62072105,1.6244839,353.75039,-808.75739)"
       id="g4819">
      <path
         style="font-style:normal;font-variant:normal;font-weight:normal;font-stretch:normal;font-size:medium;line-height:100%;font-family:Logger;-inkscape-font-specification:Logger;text-align:justify;letter-spacing:0px;word-spacing:0px;writing-mode:lr-tb;text-anchor:start;fill:#2b1100;fill-opacity:1;stroke:none;stroke-width:1px;stroke-linecap:butt;stroke-linejoin:miter;stroke-opacity:1"
         d="m 216.83878,1049.4274 c -0.48486,0.2414 -1.09135,0.3623 -1.81864,0.3623 l -0.98697,0 c -0.90045,0 -1.57583,0.201 -2.02605,0.6032 -0.96971,0.2012 -2.06039,0.3021 -3.27254,0.3021 -0.86582,0 -2.09527,-0.061 -3.68837,-0.1816 -1.62774,-0.1207 -2.92608,-0.1807 -3.89579,-0.1807 l -1.14328,0 c -0.3117,0 -0.57177,0.02 -0.77956,0.06 -0.58876,-0.362 -1.21172,-0.543 -1.86974,-0.543 -0.27706,0 -0.64096,0.02 -1.09118,0.06 -0.45022,0.04 -0.83159,0.06 -1.14328,0.06 -1.14288,0.6839 -1.71343,1.7296 -1.71343,3.1376 -0.2078,0.4424 -0.31162,0.8253 -0.31162,1.1471 0,0.3218 0.0863,0.8038 0.25952,1.4474 0.20779,0.6034 0.31162,1.0662 0.31162,1.3881 0,0.362 -0.0864,0.704 -0.25952,1.0258 0.24243,0.6436 0.57138,1.0255 0.98697,1.1462 0.2078,0.081 0.46686,0.1414 0.77856,0.1816 0.34633,0 0.67528,0.02 0.98697,0.06 0.34633,0 0.67528,0.02 0.98698,0.06 0.31169,0.04 0.55428,0.1202 0.72745,0.2409 0.34632,0.4827 0.76263,0.7846 1.24749,0.9053 0.45022,0.081 1.07319,0.1414 1.86974,0.1816 0.79655,0 1.41951,0.1001 1.86974,0.3012 0.51949,-0.6437 1.19486,-0.9656 2.02605,-0.9656 0.17316,0 0.39828,0.02 0.67534,0.06 0.27707,0.04 0.5546,0.1011 0.83167,0.1816 0.31169,0.04 0.58823,0.1002 0.83066,0.1807 0.27706,0.081 0.50218,0.1413 0.67535,0.1816 0.38096,-0.1609 0.74485,-0.2819 1.09118,-0.3623 0.34633,-0.1207 0.71022,-0.2016 1.09118,-0.2419 0.41559,-0.08 0.86584,-0.1204 1.3507,-0.1204 0.48486,-0.04 1.07388,-0.06 1.76653,-0.06 1.38531,-0.04 2.49346,-0.1411 3.32464,-0.302 0.83119,-0.2012 1.59292,-0.6031 2.28557,-1.2065 0,-0.4023 -0.0174,-0.7842 -0.0521,-1.1462 0,-0.4023 -0.0175,-0.8051 -0.0521,-1.2074 0,-0.4023 -0.0339,-0.8851 -0.1032,-1.4483 -0.0346,-0.5632 -0.0871,-1.1461 -0.15631,-1.7495 -0.0346,-0.6034 -0.0871,-1.1863 -0.15631,-1.7495 -0.0346,-0.5632 -0.0686,-1.066 -0.10321,-1.5086 l -1.3507,-0.302 z"
         id="path4821"
         inkscape:connector-curvature="0" />
      <path
         style="font-style:normal;font-variant:normal;font-weight:normal;font-stretch:normal;font-size:medium;line-height:100%;font-family:Logger;-inkscape-font-specification:Logger;text-align:justify;letter-spacing:0px;word-spacing:0px;writing-mode:lr-tb;text-anchor:start;fill:#c8ab37;fill-opacity:1;stroke:none;stroke-width:1px;stroke-linecap:butt;stroke-linejoin:miter;stroke-opacity:1"
         d="m 195.12338,1050.3929 -0.77856,0.784 c 0,0.6034 -0.13877,1.2672 -0.41583,1.9913 -0.24243,0.6838 -0.36373,1.1867 -0.36373,1.5085 l 0,0.3021 c 0.0346,0.08 0.0696,0.2014 0.10421,0.3623 0.51949,0.6034 0.96974,0.9044 1.3507,0.9044 l 0,-0.4827 0.77855,-0.1807 0,-0.9054 -0.77855,0.3623 c 0.13853,-1.0057 0.48495,-1.5085 1.03908,-1.5085 0.27706,0 0.76125,0.181 1.4539,0.543 0.72729,0.3218 1.22995,0.4828 1.50701,0.4828 0.3117,0 0.58823,-0.1001 0.83066,-0.3012 -0.62338,0 -1.05616,-0.1409 -1.29859,-0.4225 l 4.83166,-0.2419 0.15531,-0.543 0.77956,0 c 0.27706,-0.04 0.46724,-0.06 0.57114,-0.06 0.45022,0 0.7627,0.1009 0.93587,0.3021 l -1.97495,0.3011 c 0.48486,0.5632 0.98752,0.8451 1.50701,0.8451 0.34633,0 0.86546,-0.201 1.55812,-0.6032 0.72728,-0.4023 1.33377,-0.6033 1.81863,-0.6033 0.24243,0 0.55391,0.08 0.93487,0.241 0.20779,0 0.43292,0.1609 0.67535,0.4827 0.24243,0.2816 0.5025,0.4226 0.77956,0.4226 0.27706,-0.4426 0.77872,-0.6644 1.50601,-0.6644 0.31169,0 0.67559,0.041 1.09118,0.1214 0.45022,0.04 0.72776,0.06 0.83166,0.06 0,-0.4023 0.10383,-0.9452 0.31162,-1.629 0.24243,-0.7241 0.36373,-1.3079 0.36373,-1.7504 -1.31604,0.2011 -2.66679,0.3621 -4.0521,0.4828 -1.38531,0.1207 -2.85735,0.1807 -4.41583,0.1807 -1.76626,0 -3.44596,-0.06 -5.03907,-0.1807 -0.79655,-0.081 -1.73199,-0.1605 -2.8056,-0.2409 -1.07362,-0.081 -2.33801,-0.2015 -3.79258,-0.3624 z"
         id="path4823"
         inkscape:connector-curvature="0" />
      <path
         style="font-style:normal;font-variant:normal;font-weight:normal;font-stretch:normal;font-size:medium;line-height:100%;font-family:Logger;-inkscape-font-specification:Logger;text-align:justify;letter-spacing:0px;word-spacing:0px;writing-mode:lr-tb;text-anchor:start;fill:#c8ab37;fill-opacity:1;stroke:none;stroke-width:1px;stroke-linecap:butt;stroke-linejoin:miter;stroke-opacity:1"
         d="m 216.68247,1050.3929 c -0.90045,1.1264 -1.35071,2.0312 -1.35071,2.7151 0,0.4022 0.19119,0.825 0.57215,1.2676 0.1039,-1.9712 0.36297,-3.2988 0.77856,-3.9827 z"
         id="path4825"
         inkscape:connector-curvature="0" />
      <path
         style="font-style:normal;font-variant:normal;font-weight:normal;font-stretch:normal;font-size:medium;line-height:100%;font-family:Logger;-inkscape-font-specification:Logger;text-align:justify;letter-spacing:0px;word-spacing:0px;writing-mode:lr-tb;text-anchor:start;fill:#c8ab37;fill-opacity:1;stroke:none;stroke-width:1px;stroke-linecap:butt;stroke-linejoin:miter;stroke-opacity:1"
         d="m 217.1504,1050.9359 -0.46793,2.5344 c 0.0693,-0.1207 0.13915,-0.3617 0.20841,-0.7238 0.1039,-0.4022 0.25914,-0.6841 0.46693,-0.845 0,-0.523 -0.0689,-0.8449 -0.20741,-0.9656 z"
         id="path4827"
         inkscape:connector-curvature="0" />
      <path
         style="font-style:normal;font-variant:normal;font-weight:normal;font-stretch:normal;font-size:medium;line-height:100%;font-family:Logger;-inkscape-font-specification:Logger;text-align:justify;letter-spacing:0px;word-spacing:0px;writing-mode:lr-tb;text-anchor:start;fill:#c8ab37;fill-opacity:1;stroke:none;stroke-width:1px;stroke-linecap:butt;stroke-linejoin:miter;stroke-opacity:1"
         d="m 217.51413,1053.0477 0.25952,1.629 0,-0.6032 -0.25952,-1.0258 z"
         id="path4829"
         inkscape:connector-curvature="0" />
      <path
         style="font-style:normal;font-variant:normal;font-weight:normal;font-stretch:normal;font-size:medium;line-height:100%;font-family:Logger;-inkscape-font-specification:Logger;text-align:justify;letter-spacing:0px;word-spacing:0px;writing-mode:lr-tb;text-anchor:start;fill:#c8ab37;fill-opacity:1;stroke:none;stroke-width:1px;stroke-linecap:butt;stroke-linejoin:miter;stroke-opacity:1"
         d="m 216.68247,1053.8928 c -0.13853,0.2816 -0.20742,0.5626 -0.20742,0.8442 0,0.2011 0.0689,0.4029 0.20742,0.6041 0.13853,0.2011 0.27729,0.4221 0.41583,0.6635 0.17316,0.2012 0.3294,0.3821 0.46793,0.543 0.17316,0.1609 0.27699,0.2818 0.31162,0.3623 -0.13852,0.1609 -0.27729,0.2409 -0.41582,0.2409 -0.17317,0 -0.43323,-0.1201 -0.77956,-0.3614 -0.3117,-0.2816 -0.57077,-0.4225 -0.77856,-0.4225 0.20779,0.4827 0.48433,0.8246 0.83066,1.0258 0.38096,0.1609 0.79627,0.3418 1.24649,0.5429 0.0693,-0.2413 0.10421,-0.4832 0.10421,-0.7246 0,-0.2011 -0.0689,-0.422 -0.20742,-0.6634 -0.13852,-0.2816 -0.31224,-0.5635 -0.52004,-0.8451 -0.17316,-0.3218 -0.3284,-0.6228 -0.46693,-0.9044 -0.13853,-0.3218 -0.20841,-0.6237 -0.20841,-0.9053 z"
         id="path4831"
         inkscape:connector-curvature="0" />
      <path
         style="font-style:normal;font-variant:normal;font-weight:normal;font-stretch:normal;font-size:medium;line-height:100%;font-family:Logger;-inkscape-font-specification:Logger;text-align:justify;letter-spacing:0px;word-spacing:0px;writing-mode:lr-tb;text-anchor:start;fill:#c8ab37;fill-opacity:1;stroke:none;stroke-width:1px;stroke-linecap:butt;stroke-linejoin:miter;stroke-opacity:1"
         d="m 214.86483,1054.5563 -0.41583,0.1204 c 0.17316,0.1207 0.25952,0.2817 0.25952,0.4828 0,0.1207 -0.0514,0.2816 -0.15531,0.4828 -0.0693,0.1609 -0.10421,0.2618 -0.10421,0.3021 l 0.41583,0 0,-1.3881 z"
         id="path4833"
         inkscape:connector-curvature="0" />
      <path
         style="font-style:normal;font-variant:normal;font-weight:normal;font-stretch:normal;font-size:medium;line-height:100%;font-family:Logger;-inkscape-font-specification:Logger;text-align:justify;letter-spacing:0px;word-spacing:0px;writing-mode:lr-tb;text-anchor:start;fill:#c8ab37;fill-opacity:1;stroke:none;stroke-width:1px;stroke-linecap:butt;stroke-linejoin:miter;stroke-opacity:1"
         d="m 196.99411,1054.6767 -0.15631,0.6644 c 0.55412,0 0.83166,-0.1009 0.83166,-0.3021 l -0.67535,-0.3623 z"
         id="path4835"
         inkscape:connector-curvature="0" />
      <path
         style="font-style:normal;font-variant:normal;font-weight:normal;font-stretch:normal;font-size:medium;line-height:100%;font-family:Logger;-inkscape-font-specification:Logger;text-align:justify;letter-spacing:0px;word-spacing:0px;writing-mode:lr-tb;text-anchor:start;fill:#c8ab37;fill-opacity:1;stroke:none;stroke-width:1px;stroke-linecap:butt;stroke-linejoin:miter;stroke-opacity:1"
         d="m 211.54019,1055.5821 0.36272,0.543 0.41584,-0.543 -0.77856,0 z"
         id="path4837"
         inkscape:connector-curvature="0" />
    </g>
    <g
       inkscape:transform-center-y="-7.2469477"
       inkscape:transform-center-x="-5.7024234"
       id="g4839"
       transform="matrix(1.536379,-0.76619046,0.79771381,1.5455214,-1089.4044,-439.58792)">
      <path
         inkscape:connector-curvature="0"
         id="path4841"
         d="m 216.83878,1049.4274 c -0.48486,0.2414 -1.09135,0.3623 -1.81864,0.3623 l -0.98697,0 c -0.90045,0 -1.57583,0.201 -2.02605,0.6032 -0.96971,0.2012 -2.06039,0.3021 -3.27254,0.3021 -0.86582,0 -2.09527,-0.061 -3.68837,-0.1816 -1.62774,-0.1207 -2.92608,-0.1807 -3.89579,-0.1807 l -1.14328,0 c -0.3117,0 -0.57177,0.02 -0.77956,0.06 -0.58876,-0.362 -1.21172,-0.543 -1.86974,-0.543 -0.27706,0 -0.64096,0.02 -1.09118,0.06 -0.45022,0.04 -0.83159,0.06 -1.14328,0.06 -1.14288,0.6839 -1.71343,1.7296 -1.71343,3.1376 -0.2078,0.4424 -0.31162,0.8253 -0.31162,1.1471 0,0.3218 0.0863,0.8038 0.25952,1.4474 0.20779,0.6034 0.31162,1.0662 0.31162,1.3881 0,0.362 -0.0864,0.704 -0.25952,1.0258 0.24243,0.6436 0.57138,1.0255 0.98697,1.1462 0.2078,0.081 0.46686,0.1414 0.77856,0.1816 0.34633,0 0.67528,0.02 0.98697,0.06 0.34633,0 0.67528,0.02 0.98698,0.06 0.31169,0.04 0.55428,0.1202 0.72745,0.2409 0.34632,0.4827 0.76263,0.7846 1.24749,0.9053 0.45022,0.081 1.07319,0.1414 1.86974,0.1816 0.79655,0 1.41951,0.1001 1.86974,0.3012 0.51949,-0.6437 1.19486,-0.9656 2.02605,-0.9656 0.17316,0 0.39828,0.02 0.67534,0.06 0.27707,0.04 0.5546,0.1011 0.83167,0.1816 0.31169,0.04 0.58823,0.1002 0.83066,0.1807 0.27706,0.081 0.50218,0.1413 0.67535,0.1816 0.38096,-0.1609 0.74485,-0.2819 1.09118,-0.3623 0.34633,-0.1207 0.71022,-0.2016 1.09118,-0.2419 0.41559,-0.08 0.86584,-0.1204 1.3507,-0.1204 0.48486,-0.04 1.07388,-0.06 1.76653,-0.06 1.38531,-0.04 2.49346,-0.1411 3.32464,-0.302 0.83119,-0.2012 1.59292,-0.6031 2.28557,-1.2065 0,-0.4023 -0.0174,-0.7842 -0.0521,-1.1462 0,-0.4023 -0.0175,-0.8051 -0.0521,-1.2074 0,-0.4023 -0.0339,-0.8851 -0.1032,-1.4483 -0.0346,-0.5632 -0.0871,-1.1461 -0.15631,-1.7495 -0.0346,-0.6034 -0.0871,-1.1863 -0.15631,-1.7495 -0.0346,-0.5632 -0.0686,-1.066 -0.10321,-1.5086 l -1.3507,-0.302 z"
         style="font-style:normal;font-variant:normal;font-weight:normal;font-stretch:normal;font-size:medium;line-height:100%;font-family:Logger;-inkscape-font-specification:Logger;text-align:justify;letter-spacing:0px;word-spacing:0px;writing-mode:lr-tb;text-anchor:start;fill:#2b1100;fill-opacity:1;stroke:none;stroke-width:1px;stroke-linecap:butt;stroke-linejoin:miter;stroke-opacity:1" />
      <path
         inkscape:connector-curvature="0"
         id="path4843"
         d="m 195.12338,1050.3929 -0.77856,0.784 c 0,0.6034 -0.13877,1.2672 -0.41583,1.9913 -0.24243,0.6838 -0.36373,1.1867 -0.36373,1.5085 l 0,0.3021 c 0.0346,0.08 0.0696,0.2014 0.10421,0.3623 0.51949,0.6034 0.96974,0.9044 1.3507,0.9044 l 0,-0.4827 0.77855,-0.1807 0,-0.9054 -0.77855,0.3623 c 0.13853,-1.0057 0.48495,-1.5085 1.03908,-1.5085 0.27706,0 0.76125,0.181 1.4539,0.543 0.72729,0.3218 1.22995,0.4828 1.50701,0.4828 0.3117,0 0.58823,-0.1001 0.83066,-0.3012 -0.62338,0 -1.05616,-0.1409 -1.29859,-0.4225 l 4.83166,-0.2419 0.15531,-0.543 0.77956,0 c 0.27706,-0.04 0.46724,-0.06 0.57114,-0.06 0.45022,0 0.7627,0.1009 0.93587,0.3021 l -1.97495,0.3011 c 0.48486,0.5632 0.98752,0.8451 1.50701,0.8451 0.34633,0 0.86546,-0.201 1.55812,-0.6032 0.72728,-0.4023 1.33377,-0.6033 1.81863,-0.6033 0.24243,0 0.55391,0.08 0.93487,0.241 0.20779,0 0.43292,0.1609 0.67535,0.4827 0.24243,0.2816 0.5025,0.4226 0.77956,0.4226 0.27706,-0.4426 0.77872,-0.6644 1.50601,-0.6644 0.31169,0 0.67559,0.041 1.09118,0.1214 0.45022,0.04 0.72776,0.06 0.83166,0.06 0,-0.4023 0.10383,-0.9452 0.31162,-1.629 0.24243,-0.7241 0.36373,-1.3079 0.36373,-1.7504 -1.31604,0.2011 -2.66679,0.3621 -4.0521,0.4828 -1.38531,0.1207 -2.85735,0.1807 -4.41583,0.1807 -1.76626,0 -3.44596,-0.06 -5.03907,-0.1807 -0.79655,-0.081 -1.73199,-0.1605 -2.8056,-0.2409 -1.07362,-0.081 -2.33801,-0.2015 -3.79258,-0.3624 z"
         style="font-style:normal;font-variant:normal;font-weight:normal;font-stretch:normal;font-size:medium;line-height:100%;font-family:Logger;-inkscape-font-specification:Logger;text-align:justify;letter-spacing:0px;word-spacing:0px;writing-mode:lr-tb;text-anchor:start;fill:#c8ab37;fill-opacity:1;stroke:none;stroke-width:1px;stroke-linecap:butt;stroke-linejoin:miter;stroke-opacity:1" />
      <path
         inkscape:connector-curvature="0"
         id="path4845"
         d="m 216.68247,1050.3929 c -0.90045,1.1264 -1.35071,2.0312 -1.35071,2.7151 0,0.4022 0.19119,0.825 0.57215,1.2676 0.1039,-1.9712 0.36297,-3.2988 0.77856,-3.9827 z"
         style="font-style:normal;font-variant:normal;font-weight:normal;font-stretch:normal;font-size:medium;line-height:100%;font-family:Logger;-inkscape-font-specification:Logger;text-align:justify;letter-spacing:0px;word-spacing:0px;writing-mode:lr-tb;text-anchor:start;fill:#c8ab37;fill-opacity:1;stroke:none;stroke-width:1px;stroke-linecap:butt;stroke-linejoin:miter;stroke-opacity:1" />
      <path
         inkscape:connector-curvature="0"
         id="path4847"
         d="m 217.1504,1050.9359 -0.46793,2.5344 c 0.0693,-0.1207 0.13915,-0.3617 0.20841,-0.7238 0.1039,-0.4022 0.25914,-0.6841 0.46693,-0.845 0,-0.523 -0.0689,-0.8449 -0.20741,-0.9656 z"
         style="font-style:normal;font-variant:normal;font-weight:normal;font-stretch:normal;font-size:medium;line-height:100%;font-family:Logger;-inkscape-font-specification:Logger;text-align:justify;letter-spacing:0px;word-spacing:0px;writing-mode:lr-tb;text-anchor:start;fill:#c8ab37;fill-opacity:1;stroke:none;stroke-width:1px;stroke-linecap:butt;stroke-linejoin:miter;stroke-opacity:1" />
      <path
         inkscape:connector-curvature="0"
         id="path4849"
         d="m 217.51413,1053.0477 0.25952,1.629 0,-0.6032 -0.25952,-1.0258 z"
         style="font-style:normal;font-variant:normal;font-weight:normal;font-stretch:normal;font-size:medium;line-height:100%;font-family:Logger;-inkscape-font-specification:Logger;text-align:justify;letter-spacing:0px;word-spacing:0px;writing-mode:lr-tb;text-anchor:start;fill:#c8ab37;fill-opacity:1;stroke:none;stroke-width:1px;stroke-linecap:butt;stroke-linejoin:miter;stroke-opacity:1" />
      <path
         inkscape:connector-curvature="0"
         id="path4851"
         d="m 216.68247,1053.8928 c -0.13853,0.2816 -0.20742,0.5626 -0.20742,0.8442 0,0.2011 0.0689,0.4029 0.20742,0.6041 0.13853,0.2011 0.27729,0.4221 0.41583,0.6635 0.17316,0.2012 0.3294,0.3821 0.46793,0.543 0.17316,0.1609 0.27699,0.2818 0.31162,0.3623 -0.13852,0.1609 -0.27729,0.2409 -0.41582,0.2409 -0.17317,0 -0.43323,-0.1201 -0.77956,-0.3614 -0.3117,-0.2816 -0.57077,-0.4225 -0.77856,-0.4225 0.20779,0.4827 0.48433,0.8246 0.83066,1.0258 0.38096,0.1609 0.79627,0.3418 1.24649,0.5429 0.0693,-0.2413 0.10421,-0.4832 0.10421,-0.7246 0,-0.2011 -0.0689,-0.422 -0.20742,-0.6634 -0.13852,-0.2816 -0.31224,-0.5635 -0.52004,-0.8451 -0.17316,-0.3218 -0.3284,-0.6228 -0.46693,-0.9044 -0.13853,-0.3218 -0.20841,-0.6237 -0.20841,-0.9053 z"
         style="font-style:normal;font-variant:normal;font-weight:normal;font-stretch:normal;font-size:medium;line-height:100%;font-family:Logger;-inkscape-font-specification:Logger;text-align:justify;letter-spacing:0px;word-spacing:0px;writing-mode:lr-tb;text-anchor:start;fill:#c8ab37;fill-opacity:1;stroke:none;stroke-width:1px;stroke-linecap:butt;stroke-linejoin:miter;stroke-opacity:1" />
      <path
         inkscape:connector-curvature="0"
         id="path4853"
         d="m 214.86483,1054.5563 -0.41583,0.1204 c 0.17316,0.1207 0.25952,0.2817 0.25952,0.4828 0,0.1207 -0.0514,0.2816 -0.15531,0.4828 -0.0693,0.1609 -0.10421,0.2618 -0.10421,0.3021 l 0.41583,0 0,-1.3881 z"
         style="font-style:normal;font-variant:normal;font-weight:normal;font-stretch:normal;font-size:medium;line-height:100%;font-family:Logger;-inkscape-font-specification:Logger;text-align:justify;letter-spacing:0px;word-spacing:0px;writing-mode:lr-tb;text-anchor:start;fill:#c8ab37;fill-opacity:1;stroke:none;stroke-width:1px;stroke-linecap:butt;stroke-linejoin:miter;stroke-opacity:1" />
      <path
         inkscape:connector-curvature="0"
         id="path4855"
         d="m 196.99411,1054.6767 -0.15631,0.6644 c 0.55412,0 0.83166,-0.1009 0.83166,-0.3021 l -0.67535,-0.3623 z"
         style="font-style:normal;font-variant:normal;font-weight:normal;font-stretch:normal;font-size:medium;line-height:100%;font-family:Logger;-inkscape-font-specification:Logger;text-align:justify;letter-spacing:0px;word-spacing:0px;writing-mode:lr-tb;text-anchor:start;fill:#c8ab37;fill-opacity:1;stroke:none;stroke-width:1px;stroke-linecap:butt;stroke-linejoin:miter;stroke-opacity:1" />
      <path
         inkscape:connector-curvature="0"
         id="path4857"
         d="m 211.54019,1055.5821 0.36272,0.543 0.41584,-0.543 -0.77856,0 z"
         style="font-style:normal;font-variant:normal;font-weight:normal;font-stretch:normal;font-size:medium;line-height:100%;font-family:Logger;-inkscape-font-specification:Logger;text-align:justify;letter-spacing:0px;word-spacing:0px;writing-mode:lr-tb;text-anchor:start;fill:#c8ab37;fill-opacity:1;stroke:none;stroke-width:1px;stroke-linecap:butt;stroke-linejoin:miter;stroke-opacity:1" />
    </g>
    <g
       id="g4899"
       transform="matrix(-0.57965748,-0.22825601,-0.30576962,0.63248141,467.58969,385.27569)">
      <path
         id="path4766"
         d="m 171.07345,960.79749 c -0.30159,0.0613 -0.72843,0.121 -1.28125,0.18164 -0.50257,0.0607 -1.02921,0.12299 -1.58203,0.1836 -0.5027,0.12308 -0.98101,0.27731 -1.43359,0.46289 -0.45258,0.18556 -0.77886,0.43312 -0.98047,0.74414 -0.55726,2.2421 -1.59033,3.36019 -3.09766,3.35547 -0.40195,-10e-4 -1.02904,-0.0956 -1.88281,-0.28516 -0.80365,-0.12718 -1.40664,-0.1921 -1.80859,-0.19336 -1.3566,-0.004 -2.33921,0.77205 -2.94532,2.32813 -0.14895,-0.87308 -0.49911,-1.56018 -1.05078,-2.06055 -0.60204,-0.4382 -1.42975,-0.78253 -2.48437,-1.03516 -0.95414,-0.2523 -1.50747,-0.37843 -1.65821,-0.3789 -1.91627,3.42208 -4.20747,6.25084 -6.875,8.48632 -2.61727,2.23564 -5.73601,4.28212 -9.35742,6.14063 -3.52104,1.92115 -6.96783,3.77919 -10.33789,5.57617 -3.37005,1.79697 -6.21216,3.65904 -8.52734,5.58399 -0.86025,2.9891 -1.29175,5.2621 -1.29492,6.82031 -0.002,0.99726 0.146,2.02736 0.44531,3.08789 2.05214,3.87086 4.51107,5.80936 7.375,5.81836 0.35006,0.8113 0.82582,1.4682 1.42773,1.9687 0.65216,0.5007 1.3544,0.9087 2.10743,1.2227 0.75302,0.3141 1.58231,0.5661 2.48632,0.7559 0.90389,0.2521 1.83298,0.5035 2.78711,0.7558 0.65292,0.1267 1.45509,0.5654 2.40821,1.3164 1.15384,0.8762 2.08368,1.3162 2.78711,1.3184 0.55141,0.625 1.40348,1.0634 2.55859,1.3164 1.2051,0.3777 2.05861,0.6925 2.56055,0.9434 0.55205,0.3134 0.95236,1.061 1.20117,2.246 1.25001,2.9958 3.48358,4.4997 6.69922,4.5098 0.60293,0 1.40671,-0.1228 2.41211,-0.3672 2.1605,0.01 3.84228,0.324 5.04687,0.9512 0.65254,0.3137 1.50669,0.7836 2.56055,1.4102 1.1041,0.6267 2.40851,1.3785 3.91406,2.2558 1.5558,0.8775 2.93591,1.5993 4.14063,2.1641 1.20472,0.5648 2.23399,0.9117 3.08789,1.039 1.11223,-3.3623 1.99905,-6.5081 2.6582,-9.4355 0.70926,-2.8649 1.24256,-5.6059 1.59961,-8.2227 -4.76953,-1.8225 -8.53585,-3.3305 -11.29688,-4.5234 -1.40557,-0.6277 -2.81148,-1.318 -4.21679,-2.0703 -1.3552,-0.6899 -2.75954,-1.4724 -4.21485,-2.3496 -0.8539,-0.1274 -1.7069,-0.3164 -2.56054,-0.5684 -0.85378,-0.1896 -1.70899,-0.4415 -2.5625,-0.7558 -0.85352,-0.3144 -1.6312,-0.6295 -2.33399,-0.9434 -0.70291,-0.2515 -1.35473,-0.5341 -1.95703,-0.84766 -0.6023,-0.31353 -1.38036,-0.72099 -2.33398,-1.22265 -0.90339,-0.50147 -2.00755,-1.09738 -3.3125,-1.78711 l 0.002,-0.74805 c 0.95642,-0.86961 2.41539,-1.79991 4.37695,-2.79102 1.05615,-0.49532 1.96042,-0.92722 2.71485,-1.29882 0.75442,-0.37162 1.40931,-0.77638 1.96289,-1.21094 0.60369,-0.37209 1.10666,-0.83679 1.50976,-1.39649 0.45322,-0.4972 0.88168,-1.1205 1.28516,-1.86718 l 7.68555,0.49218 c 0.55319,-0.24758 1.1824,-0.58739 1.88671,-1.02148 0.70431,-0.4341 1.5342,-0.99317 2.49024,-1.67578 1.86158,-1.24075 3.39613,-2.2324 4.60351,-2.97656 1.25751,-0.68168 2.59057,-1.17715 3.99805,-1.48438 0.15518,-2.18104 0.23396,-4.33004 0.23828,-6.44922 0.0107,-5.23562 -0.53311,-9.72555 -1.63086,-13.46875 z"
         style="font-style:normal;font-variant:normal;font-weight:normal;font-stretch:normal;font-size:medium;line-height:100%;font-family:Logger;-inkscape-font-specification:Logger;text-align:justify;letter-spacing:0px;word-spacing:0px;writing-mode:lr-tb;text-anchor:start;fill:#2b1100;fill-opacity:1;stroke:none;stroke-width:1px;stroke-linecap:butt;stroke-linejoin:miter;stroke-opacity:1"
         inkscape:connector-curvature="0" />
      <path
         id="path4762"
         d="m 170.01681,961.54163 c -0.85415,-0.003 -1.58172,0.21403 -2.18554,0.64844 -0.55358,0.43456 -1.20941,1.08678 -1.96485,1.95703 -0.75557,0.93257 -1.40944,1.5848 -1.96289,1.95703 -0.50333,0.43488 -1.15703,0.65111 -1.96094,0.64844 -0.70265,-0.37643 -1.30419,-0.56507 -1.80664,-0.56641 -0.9044,-0.003 -1.76097,0.36786 -2.5664,1.11329 -0.75532,0.80791 -1.66227,2.02143 -2.72071,3.63867 -0.55434,0.80854 -1.00664,1.46146 -1.35937,1.95898 -0.35286,0.55985 -0.63055,0.9642 -0.83203,1.21289 0.95502,-0.18398 1.93537,-0.55547 2.9414,-1.11328 1.00603,-0.55781 2.1885,-1.27032 3.54688,-2.13867 0.70431,-0.4341 1.30759,-0.77571 1.81055,-1.02344 0.55319,-0.24759 1.03138,-0.43325 1.43359,-0.55664 -1.00705,1.05644 -2.18875,1.95749 -3.54688,2.70117 -1.35812,0.74369 -2.74215,1.45552 -4.15039,2.13672 -1.40824,0.68121 -2.74041,1.39272 -3.99804,2.13672 -1.25764,0.74401 -2.28951,1.67748 -3.09571,2.79688 -1.00461,-0.12781 -1.50672,-0.41135 -1.50586,-0.84766 5.1e-4,-0.24932 0.17777,-0.81015 0.53125,-1.68164 0.40361,-0.80902 0.60603,-1.55462 0.60743,-2.24024 0.15035,0.18746 0.22486,0.34214 0.22461,0.4668 0.15085,-0.0619 0.35165,-0.24774 0.60351,-0.55859 0.25173,-0.24853 0.47795,-0.56024 0.67969,-0.9336 0.25198,-0.37318 0.504,-0.71453 0.75586,-1.02539 l 0.60547,-0.74609 -0.52735,-0.28125 0.62305,-1.6875 c -0.14884,0.18426 -0.42067,0.2845 -0.8457,0.2832 7.6e-4,-0.37397 0.20211,-0.90158 0.60547,-1.58594 0.40337,-0.68435 0.60655,-1.24533 0.60742,-1.68164 -4.43396,6.09436 -9.1936,10.87903 -14.27539,14.35352 -0.25008,-0.56148 -0.65044,-0.8437 -1.20313,-0.8457 -0.30146,-9.5e-4 -0.72818,0.0921 -1.28125,0.27734 -0.50282,0.18529 -0.87964,0.27606 -1.13086,0.27539 -0.60369,0.37208 -1.35826,0.80694 -2.26367,1.30274 -0.90554,0.55812 -1.98859,1.1777 -3.24609,1.85937 -1.20727,0.68184 -2.33813,1.33315 -3.39453,1.95313 -1.00616,0.62013 -1.9378,1.17787 -2.79297,1.67382 -1.76084,1.1164 -3.3444,2.32637 -4.75391,3.63086 -0.30388,1.1833 -0.45776,2.55506 -0.46094,4.11328 -0.003,1.55819 0.19409,2.89829 0.59375,4.02149 0.35209,-0.18587 0.60487,-0.34065 0.75586,-0.46485 l 0.22461,-0.0937 c 0.20098,6e-4 0.37699,0.0957 0.52735,0.28321 3.1201,-2.42107 6.31637,-4.53085 9.58593,-6.32813 3.31981,-1.79712 7.76936,-3.9345 13.35157,-6.41015 2.81622,-1.23775 5.25643,-2.31958 7.31835,-3.24805 2.06193,-0.92846 3.74694,-1.73449 5.05469,-2.41602 2.71574,-1.23806 5.55704,-2.81734 8.52539,-4.74023 l 1.8086,-0.27539 c -0.40247,0.24805 -1.02973,0.58982 -1.88477,1.02344 -0.80493,0.49611 -1.86217,1.08411 -3.16992,1.76562 -1.25763,0.74401 -2.36465,1.36374 -3.32031,1.85938 -0.95579,0.55796 -1.78423,0.99134 -2.48828,1.30078 1.00564,-0.37083 2.16112,-0.86519 3.46875,-1.48438 1.35774,-0.5567 2.89147,-1.26948 4.60156,-2.13672 1.71008,-0.86724 3.14402,-1.57938 4.30078,-2.13671 1.20701,-0.55718 2.16313,-0.9894 2.86719,-1.29883 -0.45027,-0.93636 -0.67346,-2.27823 -0.66993,-4.02344 l 0.006,-3.08398 c -0.45232,0.0609 -1.2831,0.40002 -2.49023,1.01953 -1.05615,0.49532 -1.91102,0.80512 -2.56445,0.92773 0.55345,-0.37224 1.33381,-0.83672 2.33984,-1.39453 1.05627,-0.55765 1.88629,-1.08529 2.49023,-1.58203 0.65407,-0.43425 1.23419,-1.05654 1.73829,-1.86524 0.55421,-0.74622 0.9814,-1.67981 1.28515,-2.80078 z"
         style="font-style:normal;font-variant:normal;font-weight:normal;font-stretch:normal;font-size:medium;line-height:100%;font-family:Logger;-inkscape-font-specification:Logger;text-align:justify;letter-spacing:0px;word-spacing:0px;writing-mode:lr-tb;text-anchor:start;fill:#c8ab37;fill-opacity:1;stroke:none;stroke-width:1px;stroke-linecap:butt;stroke-linejoin:miter;stroke-opacity:1"
         inkscape:connector-curvature="0" />
      <path
         id="path4760"
         d="m 150.1965,969.51429 c 0.0799,-0.0989 0.13445,-0.21481 0.13477,-0.36719 l -0.13477,0.36719 z"
         style="font-style:normal;font-variant:normal;font-weight:normal;font-stretch:normal;font-size:medium;line-height:100%;font-family:Logger;-inkscape-font-specification:Logger;text-align:justify;letter-spacing:0px;word-spacing:0px;writing-mode:lr-tb;text-anchor:start;fill:#c8ab37;fill-opacity:1;stroke:none;stroke-width:1px;stroke-linecap:butt;stroke-linejoin:miter;stroke-opacity:1"
         inkscape:connector-curvature="0" />
      <path
         id="path4758"
         d="m 171.06955,962.76038 c -1.86285,1.86404 -2.79706,4.66653 -2.80469,8.40625 -0.002,1.18425 0.0702,2.30518 0.21875,3.36524 1.20154,2.12294 2.32963,3.18612 3.38476,3.18945 0.002,-1.12191 -0.2217,-2.181 -0.67187,-3.17969 l 0.67969,0.002 0,-0.375 -0.22657,0 c -0.30111,-0.18793 -0.45115,-0.74866 -0.44921,-1.6836 l 0.67773,0.375 c 0.003,-1.5585 -0.1458,-2.33722 -0.44727,-2.33789 -0.25159,0.18619 -0.37805,0.96471 -0.38085,2.33594 l -0.22657,0 c -0.45121,-0.50005 -0.67589,-1.24884 -0.67383,-2.24609 0.051,-0.37382 0.55411,-0.80905 1.50977,-1.30469 0.002,-1.0596 -0.072,-1.6208 -0.22266,-1.6836 -1.10652,0.5575 -1.66208,1.80219 -1.66601,3.73438 -0.001,0.56096 0.0726,1.49531 0.2207,2.80469 l -0.15039,0 c -0.70141,-0.99946 -1.05063,-1.936 -1.04883,-2.8086 0.001,-0.49863 0.0768,-0.99598 0.22852,-1.49414 0.20199,-0.498 0.53052,-1.15208 0.98437,-1.96094 0.45385,-0.80884 0.78226,-1.4924 0.98438,-2.05273 0.202,-0.498 0.30342,-1.06031 0.30469,-1.68359 0.001,-0.49864 -0.0748,-0.96557 -0.22461,-1.40235 z"
         style="font-style:normal;font-variant:normal;font-weight:normal;font-stretch:normal;font-size:medium;line-height:100%;font-family:Logger;-inkscape-font-specification:Logger;text-align:justify;letter-spacing:0px;word-spacing:0px;writing-mode:lr-tb;text-anchor:start;fill:#c8ab37;fill-opacity:1;stroke:none;stroke-width:1px;stroke-linecap:butt;stroke-linejoin:miter;stroke-opacity:1"
         inkscape:connector-curvature="0" />
      <path
         id="path4756"
         d="m 151.16916,965.22327 -0.002,0.4668 c 0.15074,4.7e-4 0.37703,0.18758 0.67774,0.5625 0.25109,0.0631 0.677,0.25092 1.27929,0.56445 0.6023,0.31366 1.03003,0.47199 1.28125,0.47266 0.30147,9.5e-4 0.60207,-0.18557 0.9043,-0.55859 -0.65114,-0.99927 -2.03036,-1.50115 -4.14062,-1.50782 z"
         style="font-style:normal;font-variant:normal;font-weight:normal;font-stretch:normal;font-size:medium;line-height:100%;font-family:Logger;-inkscape-font-specification:Logger;text-align:justify;letter-spacing:0px;word-spacing:0px;writing-mode:lr-tb;text-anchor:start;fill:#c8ab37;fill-opacity:1;stroke:none;stroke-width:1px;stroke-linecap:butt;stroke-linejoin:miter;stroke-opacity:1"
         inkscape:connector-curvature="0" />
      <path
         id="path4746"
         d="m 129.25314,993.67054 -1.43359,1.21094 0.375,0.46875 c 0.90439,0.003 1.63349,0.16121 2.18554,0.47461 0.60217,0.37586 1.32901,0.93885 2.18164,1.68945 0.90288,0.7508 1.63129,1.21947 2.1836,1.4082 l -1.88477,0.27539 c -0.15124,0.24887 -0.22813,0.4673 -0.22851,0.6543 -5.1e-4,0.24932 0.25184,0.46772 0.7539,0.65622 0.50194,0.2509 0.77631,0.4691 0.82617,0.6563 -0.10087,0.1847 -0.45175,0.2773 -1.05468,0.2773 -0.20098,-6e-4 -0.30236,0.092 -0.30274,0.2793 l 3.39063,1.0391 -0.90235,-1.2168 c 0.003,-1.4959 0.30672,-2.36785 0.91016,-2.61525 0.40246,-0.24667 0.82905,-0.37109 1.28125,-0.37109 0.55307,-0.1852 1.00503,0.0358 1.35547,0.66015 0.40055,0.68687 0.77494,1.43479 1.125,2.24609 0.40018,0.8739 0.85234,1.6232 1.35351,2.2481 0.31523,0.4323 0.70702,0.6867 1.16211,0.7988 l -2.5957,-0.1485 c 0.25046,0.3748 0.62685,0.6571 1.12891,0.8457 0.50193,0.2509 1.02777,0.4695 1.58008,0.6583 0.5523,0.1887 1.05416,0.4094 1.50585,0.6601 0.4517,0.2507 0.75433,0.5631 0.9043,0.9375 -1.00438,-0.2525 -2.48561,-0.8185 -4.44336,-1.6973 -0.90351,-0.4391 -1.73317,-0.7834 -2.48633,-1.0351 -0.70291,-0.2515 -1.33038,-0.442 -1.88281,-0.5684 0.25084,0.1878 0.57694,0.3763 0.97852,0.5645 0.45169,0.2507 0.90365,0.4717 1.35547,0.6601 0.45169,0.2508 0.87772,0.47 1.27929,0.6582 0.45182,0.1884 0.82978,0.3766 1.13086,0.5645 0.50168,0.3756 0.95113,0.9363 1.35156,1.6855 0.45195,0.1261 1.12983,0.44 2.03321,0.9414 0.95337,0.6282 1.733,0.9434 2.33594,0.9434 0.35171,0 0.70246,-0.1229 1.05468,-0.3711 l 8.58594,2.9258 c -0.35133,-0.1881 -0.80316,-0.3777 -1.35547,-0.5664 -0.55231,-0.1887 -1.10407,-0.4072 -1.65625,-0.6582 -0.5523,-0.1888 -1.05429,-0.4409 -1.50586,-0.7539 -0.40144,-0.2506 -0.65222,-0.5633 -0.75195,-0.9375 l 4.14258,1.1347 -0.75,-1.8711 c 0.4017,0.126 0.77808,0.4084 1.1289,0.8458 0.40094,0.4998 0.77639,1.0297 1.12696,1.5917 0.40068,0.6246 0.77651,1.2487 1.12695,1.8731 0.35044,0.6244 0.70179,1.1249 1.05273,1.5 0.30096,0.2503 0.67773,0.6249 1.12891,1.125 0.50143,0.5013 0.92759,0.7519 1.2793,0.7519 0.30146,0 0.55242,-0.1223 0.7539,-0.371 -0.0486,-0.8104 -0.14715,-1.4658 -0.29687,-1.9649 -0.14972,-0.4991 -0.3511,-0.9357 -0.60156,-1.3105 -0.20022,-0.3746 -0.47523,-0.75 -0.82618,-1.125 -0.3007,-0.375 -0.67577,-0.8125 -1.12695,-1.3125 -1.3e-4,0.062 0.10031,0.2187 0.30078,0.4687 l 0.59961,0.75 c 0.25059,0.3125 0.45147,0.6254 0.60156,0.9375 0.20022,0.3746 0.30129,0.6862 0.30079,0.9356 -7.7e-4,0.3718 -0.35322,0.5566 -1.05665,0.5566 l -6.76757,-7.5937 0.45312,-0.8399 c -1.65666,-0.6922 -2.70991,-1.0391 -3.16211,-1.0391 l 1.65039,2.9043 c -0.25096,-0.1254 -0.677,-0.3446 -1.27929,-0.6582 -0.60243,-0.2512 -1.40434,-0.6271 -2.40821,-1.1289 -0.95362,-0.5016 -1.75774,-0.9404 -2.41015,-1.3164 -0.65254,-0.3136 -1.17864,-0.597 -1.58008,-0.8476 0.10036,0.063 0.82776,0.2839 2.18359,0.6621 1.20498,0.4423 2.15986,0.6621 2.86328,0.6621 -0.40132,-0.3129 -1.15528,-0.6891 -2.25976,-1.1289 -1.10436,-0.5021 -1.75669,-0.9085 -1.95703,-1.2207 0.45194,0.126 1.00528,0.2522 1.6582,0.3789 0.65279,0.189 1.12873,0.4079 1.42969,0.6582 0.75366,0 1.45645,0.069 2.10937,0.1953 0.6528,0.1891 1.28039,0.409 1.88281,0.6602 0.65255,0.3136 1.33068,0.6884 2.03321,1.1269 0.70253,0.4385 1.50495,0.9401 2.4082,1.5039 0.90313,0.6262 1.7075,1.1277 2.41016,1.5039 0.70253,0.4386 1.30445,0.7215 1.80664,0.8477 l -0.60547,0.7461 c 0.0995,0.4989 0.32471,0.904 0.67578,1.2168 0.35107,0.3128 0.72733,0.5637 1.12891,0.7519 0.40144,0.2506 0.75373,0.4998 1.05468,0.75 0.35121,0.2504 0.57606,0.5632 0.67579,0.9375 -0.20098,-6e-4 -0.62676,-0.157 -1.2793,-0.4707 0.0999,0.2496 0.14917,0.5616 0.14844,0.9356 -5.1e-4,0.2492 -0.0525,0.6856 -0.1543,1.3086 -0.10176,0.623 -0.15171,1.0888 -0.15234,1.4004 -0.002,0.8751 0.39921,1.3125 1.20312,1.3125 0.001,-0.4978 0.12573,-0.7461 0.37695,-0.7461 l 0.37696,0 c 0.35174,0 0.52856,-0.1846 0.52929,-0.5586 l -1.27929,-1.0332 c 0.20097,6e-4 0.47849,0.032 0.83007,0.096 0.40171,0.1259 0.77745,0.2531 1.12891,0.3789 0.40157,0.1883 0.77732,0.3136 1.12891,0.3769 0.35145,0.1258 0.6291,0.1888 0.83008,0.1895 -0.10024,-0.125 -0.30231,-0.2494 -0.60352,-0.375 -0.25097,-0.1255 -0.50111,-0.283 -0.75195,-0.4707 -0.25097,-0.1255 -0.47714,-0.2812 -0.67774,-0.4688 -0.15035,-0.1874 -0.17509,-0.3758 -0.0742,-0.5625 l 2.41016,0.8496 -2.93555,-1.8789 c 0.60293,0 1.282,0.1292 2.03516,0.3809 0.75303,0.314 1.35469,0.5341 1.80664,0.6601 l 3.32422,-3.6347 c -6.12485,-2.4501 -11.77196,-5.0872 -16.94141,-7.9082 -1.35609,-0.2536 -2.66262,-0.5674 -3.91797,-0.9453 -1.25547,-0.3156 -2.46063,-0.7263 -3.61523,-1.2286 -1.15473,-0.4399 -2.51023,-1.0048 -4.06641,-1.69527 -1.55617,-0.69053 -3.31191,-1.5062 -5.26953,-2.44726 -1.95775,-0.87874 -3.69133,-1.66317 -5.19726,-2.35352 -1.50606,-0.62802 -2.81141,-1.13037 -3.91602,-1.50781 z"
         style="font-style:normal;font-variant:normal;font-weight:normal;font-stretch:normal;font-size:medium;line-height:100%;font-family:Logger;-inkscape-font-specification:Logger;text-align:justify;letter-spacing:0px;word-spacing:0px;writing-mode:lr-tb;text-anchor:start;fill:#c8ab37;fill-opacity:1;stroke:none;stroke-width:1px;stroke-linecap:butt;stroke-linejoin:miter;stroke-opacity:1"
         inkscape:connector-curvature="0" />
      <path
         id="path4738"
         d="m 126.9133,995.90491 c -0.9058,0.6828 -1.56005,1.24267 -1.96289,1.67774 -0.35272,0.49753 -0.52959,1.15067 -0.53125,1.96094 0.20059,0.1876 0.40058,0.28253 0.60156,0.2832 0.15073,4.7e-4 0.42787,-0.0621 0.83008,-0.18555 0.40208,-0.06 0.75322,-0.0898 1.05468,-0.0898 l 0.22852,-0.65235 c -0.15035,-0.18746 -0.42668,-0.4076 -0.82813,-0.6582 -0.35132,-0.18807 -0.52797,-0.43833 -0.52734,-0.75 1.55694,0.31653 2.58621,0.66346 3.08789,1.03906 0.25225,-0.49786 0.37973,-1.02695 0.38086,-1.58789 l -2.33398,-1.03711 z"
         style="font-style:normal;font-variant:normal;font-weight:normal;font-stretch:normal;font-size:medium;line-height:100%;font-family:Logger;-inkscape-font-specification:Logger;text-align:justify;letter-spacing:0px;word-spacing:0px;writing-mode:lr-tb;text-anchor:start;fill:#c8ab37;fill-opacity:1;stroke:none;stroke-width:1px;stroke-linecap:butt;stroke-linejoin:miter;stroke-opacity:1"
         inkscape:connector-curvature="0" />
      <path
         id="path4734"
         d="m 126.67697,1000.5787 c -0.4522,0 -0.7528,0.1851 -0.9043,0.5586 0.35209,-0.1848 0.70298,-0.2773 1.05469,-0.2773 0.40195,0 0.95372,0.2216 1.65625,0.6601 0.75277,0.4401 1.35639,0.6602 1.80859,0.6602 -1.70614,-1.0672 -2.91181,-1.6016 -3.61523,-1.6016 z"
         style="font-style:normal;font-variant:normal;font-weight:normal;font-stretch:normal;font-size:medium;line-height:100%;font-family:Logger;-inkscape-font-specification:Logger;text-align:justify;letter-spacing:0px;word-spacing:0px;writing-mode:lr-tb;text-anchor:start;fill:#c8ab37;fill-opacity:1;stroke:none;stroke-width:1px;stroke-linecap:butt;stroke-linejoin:miter;stroke-opacity:1"
         inkscape:connector-curvature="0" />
      <path
         id="path4732"
         d="m 133.60666,1003.0319 -0.0762,0.1875 2.10743,0.9414 0.0762,-0.3731 -2.10742,-0.7558 z"
         style="font-style:normal;font-variant:normal;font-weight:normal;font-stretch:normal;font-size:medium;line-height:100%;font-family:Logger;-inkscape-font-specification:Logger;text-align:justify;letter-spacing:0px;word-spacing:0px;writing-mode:lr-tb;text-anchor:start;fill:#c8ab37;fill-opacity:1;stroke:none;stroke-width:1px;stroke-linecap:butt;stroke-linejoin:miter;stroke-opacity:1"
         inkscape:connector-curvature="0" />
      <path
         id="path4730"
         d="m 156.80783,1008.528 0.30078,0.2812 0.97851,0.5645 -1.27929,-0.8457 z"
         style="font-style:normal;font-variant:normal;font-weight:normal;font-stretch:normal;font-size:medium;line-height:100%;font-family:Logger;-inkscape-font-specification:Logger;text-align:justify;letter-spacing:0px;word-spacing:0px;writing-mode:lr-tb;text-anchor:start;fill:#c8ab37;fill-opacity:1;stroke:none;stroke-width:1px;stroke-linecap:butt;stroke-linejoin:miter;stroke-opacity:1"
         inkscape:connector-curvature="0" />
      <path
         id="path4728"
         d="m 155.97775,1008.8053 -0.0762,0.2813 3.91211,4.125 0.15039,-0.1856 -3.98633,-4.2207 z"
         style="font-style:normal;font-variant:normal;font-weight:normal;font-stretch:normal;font-size:medium;line-height:100%;font-family:Logger;-inkscape-font-specification:Logger;text-align:justify;letter-spacing:0px;word-spacing:0px;writing-mode:lr-tb;text-anchor:start;fill:#c8ab37;fill-opacity:1;stroke:none;stroke-width:1px;stroke-linecap:butt;stroke-linejoin:miter;stroke-opacity:1"
         inkscape:connector-curvature="0" />
      <path
         id="path4726"
         d="m 146.02267,1012.7037 -0.002,0.2793 0.7539,0 0.002,-0.2793 -0.75391,0 z"
         style="font-style:normal;font-variant:normal;font-weight:normal;font-stretch:normal;font-size:medium;line-height:100%;font-family:Logger;-inkscape-font-specification:Logger;text-align:justify;letter-spacing:0px;word-spacing:0px;writing-mode:lr-tb;text-anchor:start;fill:#c8ab37;fill-opacity:1;stroke:none;stroke-width:1px;stroke-linecap:butt;stroke-linejoin:miter;stroke-opacity:1"
         inkscape:connector-curvature="0" />
      <path
         id="path4724"
         d="m 173.45627,1012.7877 c -0.80468,0.3715 -1.61046,0.9599 -2.41602,1.7676 -0.75532,0.8079 -1.36022,1.7112 -1.81445,2.707 -0.7591,2.6778 -1.1412,4.8268 -1.14453,6.4473 -0.004,1.7452 0.37192,3.2413 1.12304,4.4902 1.30701,-0.3075 1.96131,-1.3329 1.96485,-3.0781 7.6e-4,-0.374 -0.0478,-0.9982 -0.14649,-1.8711 -0.0486,-0.8104 -0.0731,-1.4329 -0.0723,-1.8691 0.004,-2.1192 0.71141,-3.3963 2.11914,-3.8281 -0.0497,-0.2495 -0.15005,-0.3746 -0.30078,-0.375 -0.0502,-2e-4 -0.15175,0.063 -0.30274,0.1875 -0.15099,0.1242 -0.30239,0.186 -0.45312,0.1855 -0.8048,0.4337 -1.33256,1.1795 -1.58594,2.2383 -0.25349,1.1211 -0.38212,2.803 -0.38672,5.0469 -0.39889,-1.4972 -0.59742,-3.1495 -0.59375,-4.9571 0.052,-0.8724 0.25469,-1.5571 0.60742,-2.0547 0.35273,-0.4975 0.9314,-0.9941 1.73633,-1.4902 0.40246,-0.248 0.70489,-0.4659 0.90625,-0.6523 0.25148,-0.1239 0.42673,-0.2154 0.52734,-0.2774 0.35312,-0.6845 0.53012,-1.3082 0.53125,-1.8691 6.4e-4,-0.3117 -0.0982,-0.5605 -0.29882,-0.7481 z"
         style="font-style:normal;font-variant:normal;font-weight:normal;font-stretch:normal;font-size:medium;line-height:100%;font-family:Logger;-inkscape-font-specification:Logger;text-align:justify;letter-spacing:0px;word-spacing:0px;writing-mode:lr-tb;text-anchor:start;fill:#c8ab37;fill-opacity:1;stroke:none;stroke-width:1px;stroke-linecap:butt;stroke-linejoin:miter;stroke-opacity:1"
         inkscape:connector-curvature="0" />
      <path
         id="path4722"
         d="m 166.05587,1019.5885 0,0.2813 1.20508,0.4707 0.0742,-0.1875 -1.2793,-0.5645 z"
         style="font-style:normal;font-variant:normal;font-weight:normal;font-stretch:normal;font-size:medium;line-height:100%;font-family:Logger;-inkscape-font-specification:Logger;text-align:justify;letter-spacing:0px;word-spacing:0px;writing-mode:lr-tb;text-anchor:start;fill:#c8ab37;fill-opacity:1;stroke:none;stroke-width:1px;stroke-linecap:butt;stroke-linejoin:miter;stroke-opacity:1"
         inkscape:connector-curvature="0" />
      <path
         id="path4379"
         d="m 172.15939,1020.3561 -0.60742,1.8672 0,0 0.45312,0 0.1543,-1.8691 z"
         style="font-style:normal;font-variant:normal;font-weight:normal;font-stretch:normal;font-size:medium;line-height:100%;font-family:Logger;-inkscape-font-specification:Logger;text-align:justify;letter-spacing:0px;word-spacing:0px;writing-mode:lr-tb;text-anchor:start;fill:#c8ab37;fill-opacity:1;stroke:none;stroke-width:1px;stroke-linecap:butt;stroke-linejoin:miter;stroke-opacity:1"
         inkscape:connector-curvature="0" />
    </g>
  </g>
</svg>
