<?xml version="1.0" encoding="UTF-8" standalone="no"?>
<!-- Created with Inkscape (http://www.inkscape.org/) -->

<svg
   xmlns:dc="http://purl.org/dc/elements/1.1/"
   xmlns:cc="http://creativecommons.org/ns#"
   xmlns:rdf="http://www.w3.org/1999/02/22-rdf-syntax-ns#"
   xmlns:svg="http://www.w3.org/2000/svg"
   xmlns="http://www.w3.org/2000/svg"
   xmlns:sodipodi="http://sodipodi.sourceforge.net/DTD/sodipodi-0.dtd"
   xmlns:inkscape="http://www.inkscape.org/namespaces/inkscape"
   width="250"
   height="55"
   viewBox="0 0 250 55.000001"
   id="svg2"
   version="1.1"
   inkscape:version="0.91 r13725"
   sodipodi:docname="btn_jugar.svg">
  <defs
     id="defs4">
    <filter
       style="color-interpolation-filters:sRGB"
       inkscape:label="Drop Shadow"
       id="filter4518">
      <feFlood
         flood-opacity="1"
         flood-color="rgb(255,255,255)"
         result="flood"
         id="feFlood4520" />
      <feComposite
         in="flood"
         in2="SourceGraphic"
         operator="in"
         result="composite1"
         id="feComposite4522" />
      <feGaussianBlur
         in="composite1"
         stdDeviation="2"
         result="blur"
         id="feGaussianBlur4524" />
      <feOffset
         dx="0"
         dy="0"
         result="offset"
         id="feOffset4526" />
      <feComposite
         in="SourceGraphic"
         in2="offset"
         operator="over"
         result="fbSourceGraphic"
         id="feComposite4528" />
      <feColorMatrix
         result="fbSourceGraphicAlpha"
         in="fbSourceGraphic"
         values="0 0 0 -1 0 0 0 0 -1 0 0 0 0 -1 0 0 0 0 1 0"
         id="feColorMatrix4530" />
      <feFlood
         id="feFlood4532"
         flood-opacity="1"
         flood-color="rgb(255,255,255)"
         result="flood"
         in="fbSourceGraphic" />
      <feComposite
         id="feComposite4534"
         in2="fbSourceGraphic"
         in="flood"
         operator="in"
         result="composite1" />
      <feGaussianBlur
         id="feGaussianBlur4536"
         in="composite1"
         stdDeviation="2"
         result="blur" />
      <feOffset
         id="feOffset4538"
         dx="0"
         dy="0"
         result="offset" />
      <feComposite
         id="feComposite4540"
         in2="offset"
         in="fbSourceGraphic"
         operator="over"
         result="composite2" />
    </filter>
  </defs>
  <sodipodi:namedview
     id="base"
     pagecolor="#333333"
     bordercolor="#666666"
     borderopacity="1.0"
     inkscape:pageopacity="0"
     inkscape:pageshadow="2"
     inkscape:zoom="3.0417089"
     inkscape:cx="150.84224"
     inkscape:cy="40.788973"
     inkscape:document-units="px"
     inkscape:current-layer="layer1"
     showgrid="false"
     units="px"
     inkscape:window-width="1920"
     inkscape:window-height="1017"
     inkscape:window-x="-4"
     inkscape:window-y="-4"
     inkscape:window-maximized="1" />
  <metadata
     id="metadata7">
    <rdf:RDF>
      <cc:Work
         rdf:about="">
        <dc:format>image/svg+xml</dc:format>
        <dc:type
           rdf:resource="http://purl.org/dc/dcmitype/StillImage" />
        <dc:title></dc:title>
      </cc:Work>
    </rdf:RDF>
  </metadata>
  <g
     inkscape:label="Capa 1"
     inkscape:groupmode="layer"
     id="layer1"
     transform="translate(0,-997.36218)">
    <g
       id="g4542"
       transform="matrix(0.83332977,0,0,0.83332977,25.000423,172.89733)">
      <path
         inkscape:connector-curvature="0"
         id="path4512"
         d="m 34.09192,994.86228 c -0.27468,0 -0.66321,0.0222 -1.16675,0.068 l -1.44233,0 c -0.50355,0 -1.00678,0.0222 -1.51034,0.068 l -1.09875,0 -0.82316,0 c -0.36621,-0.0458 -0.64184,-0.068 -0.82496,-0.068 -0.13732,0.0458 -0.52586,0.11426 -1.16674,0.20579 -0.5951,0.0457 -1.00766,0.2289 -1.23654,0.54938 l 1.58012,17.02875 c -0.41199,2.2889 -0.61916,4.533 -0.61916,6.7303 0,0.6409 0.024,1.6696 0.0698,3.0887 0.0916,1.3733 0.22847,3.1586 0.41158,5.3559 0,0.5036 0.0222,1.053 0.068,1.6481 0.0458,0.5951 0.0921,1.1909 0.1378,1.786 0.0915,0.5493 0.16001,1.0765 0.20578,1.5801 0.0916,0.5035 0.1378,0.8921 0.1378,1.1667 0,0.9613 -0.25161,1.8087 -0.75517,2.5411 l -5.83732,-0.6872 c -0.0915,-0.046 -0.34317,-0.1382 -0.75517,-0.2755 -0.41199,-0.1832 -0.98368,-0.4108 -1.71611,-0.6854 -0.73245,-0.3205 -1.41883,-0.6183 -2.05971,-0.893 -0.5951,-0.2746 -1.16858,-0.5263 -1.71791,-0.7551 -1.05288,-0.5494 -2.0131,-1.0766 -2.88287,-1.5802 -0.82399,-0.5493 -1.64909,-1.1672 -2.47308,-1.8539 -0.18311,-0.1831 -0.47917,-0.2738 -0.89117,-0.2738 -0.41199,0 -0.77831,0.137 -1.09874,0.4116 -0.27467,0.2289 -0.73346,0.6637 -1.37433,1.3046 -1.28177,1.4191 -1.92191,3.2969 -1.92191,5.6315 0,1.1902 0.25161,2.402 0.75517,3.638 1.83108,1.1902 3.54795,2.3354 5.15015,3.4341 1.64797,1.0986 3.27237,2.0588 4.87457,2.8828 1.6022,0.824 3.20436,1.4882 4.80658,1.9917 1.6022,0.5036 3.29684,0.7552 5.08214,0.7552 0.54933,0 1.07478,-0.022 1.57834,-0.068 0.50354,-0.046 0.98455,-0.1142 1.44232,-0.2058 0.77822,0 1.5793,-0.068 2.40329,-0.2058 0.86977,-0.1373 1.48769,-0.2058 1.85391,-0.2058 0.64088,0 1.23659,0.2054 1.78592,0.6174 0.54932,0.1373 1.09879,0.2058 1.64812,0.2058 1.83108,0 3.20385,-0.6642 4.1194,-1.9917 0,-0.2289 0.0223,-0.6397 0.068,-1.2348 0.0458,-0.5951 0.11426,-1.4202 0.20579,-2.4731 0.0915,-1.0528 0.1618,-1.9908 0.20758,-2.8148 0.0458,-0.824 0.068,-1.5566 0.068,-2.1975 0,-1.9227 -0.18315,-3.6858 -0.54938,-5.288 0.91554,-1.1902 1.37255,-2.9052 1.37255,-5.1483 -0.91555,-1.3276 -1.37255,-3.457 -1.37255,-6.3867 l 0,-3.9136 c 0.50355,-1.7396 1.00678,-3.1141 1.51034,-4.1212 0.50354,-1.0071 1.30462,-1.762 2.40328,-2.2655 0,-1.0071 -0.29786,-1.8989 -0.89296,-2.6771 -0.412,0 -0.89122,0.1369 -1.44054,0.4116 -0.50355,0.2289 -0.84764,0.3436 -1.03074,0.3436 -0.27467,-0.6867 -0.41159,-1.4656 -0.41159,-2.3353 0,-0.9156 0.13692,-1.6944 0.41159,-2.3353 -0.0458,-0.1831 -0.068,-0.3885 -0.068,-0.6174 l 0,-0.9609 c 0,-0.9156 0.20538,-3.6167 0.61737,-8.10285 -1.46487,-0.54933 -3.41113,-0.82317 -5.83731,-0.82317 z m 58.55929,0 c -0.45778,0 -1.00724,0.0444 -1.64812,0.136 -0.59511,0.0457 -1.32773,0.11421 -2.1975,0.2058 -0.86977,0.0915 -1.62461,0.16179 -2.26549,0.20757 -0.5951,0.0458 -1.07612,0.068 -1.44233,0.068 -0.73244,0 -1.18944,-0.0223 -1.37254,-0.068 -0.32044,0 -0.82367,-0.0685 -1.51034,-0.20579 -0.68665,-0.13733 -1.2139,-0.20758 -1.58012,-0.20758 -0.50355,0 -0.96054,0.13871 -1.37253,0.41337 l 0,3.63804 c 0.0458,1.37331 0.0903,3.02171 0.13599,4.94441 0.13734,3.7079 0.20759,6.6384 0.20759,8.7899 0,1.1902 -0.024,2.2189 -0.0698,3.0887 0,0.8698 -0.0222,1.6024 -0.068,2.1975 0.54933,1.8769 0.82316,3.8916 0.82316,6.0431 0,2.1058 -0.27383,4.1205 -0.82316,6.0431 0,0.6409 0.0684,1.418 0.20579,2.3335 0.13732,0.8698 0.20579,1.5117 0.20579,1.9237 0,0.4578 -0.1147,1.0295 -0.34359,1.7161 -1.09864,-0.412 -2.47141,-0.6173 -4.1194,-0.6173 -0.86977,0 -2.12963,0.068 -3.77762,0.2058 -1.64797,0.1373 -2.95228,0.2057 -3.91361,0.2057 -0.68666,-0.2746 -1.12143,-0.7094 -1.30454,-1.3045 -0.13733,-0.5951 -0.20579,-1.4646 -0.20579,-2.6091 0,-1.236 -0.0907,-2.0611 -0.2738,-2.4731 -1.55641,-1.5564 -2.33527,-3.5933 -2.33527,-6.1111 0,-1.8768 0.45699,-4.1191 1.37253,-6.7285 -0.5951,-1.7853 -0.89116,-3.8684 -0.89116,-6.2488 0,-0.9156 0.0685,-2.083 0.20579,-3.5021 0.1831,-1.4191 0.34225,-2.6772 0.47958,-3.7758 0.13733,-1.0987 0.25203,-2.1514 0.34358,-3.1585 0.0916,-1.00707 0.13779,-2.06155 0.13779,-3.16021 0,-0.13733 -0.0222,-0.36493 -0.068,-0.68537 l 0,-0.75517 -2.1295,0 c -2.6093,0 -6.34089,-0.1387 -11.19327,-0.41337 l -2.0597,14.41972 c -0.32044,-0.046 -0.61829,0.047 -0.89296,0.2756 -0.22888,0.2289 -0.45648,0.5027 -0.68537,0.8232 -0.1831,0.2746 -0.36626,0.5725 -0.54937,0.8929 -0.18312,0.3204 -0.36627,0.5721 -0.54938,0.7552 l 1.64813,-1.7842 c 0.13733,0.2747 0.20579,0.5486 0.20579,0.8232 0,0.2289 -0.0685,0.5045 -0.20579,0.825 l -0.48138,0.9609 -0.54937,0.961 c -0.18311,0.2746 -0.29781,0.48 -0.34358,0.6174 0.73242,0.412 1.2819,0.9392 1.64811,1.5801 0.32044,0.5493 0.61829,1.3966 0.89296,2.5411 0.27466,1.1444 0.55029,1.9455 0.82495,2.4032 -0.22888,0.824 -0.34358,1.762 -0.34358,2.8149 0,0.9155 0.0907,1.8073 0.27379,2.6771 0.22889,0.8698 0.54897,1.9927 0.96096,3.366 0.412,1.3276 0.73386,2.4247 0.96275,3.2945 0.22888,0.8697 0.34179,1.7855 0.34179,2.7468 0,0.6409 -0.0685,1.2588 -0.20579,1.8539 -0.13733,0.5494 -0.20579,1.0304 -0.20579,1.4424 0,0.7324 0.13692,1.4428 0.41158,2.1295 0.27467,0.6866 0.665,1.4637 1.16854,2.3335 0.54933,0.8697 0.96009,1.6264 1.23474,2.2673 0.27468,0.5951 0.43561,1.2574 0.48138,1.9899 1.92264,1.236 3.77642,1.8539 5.56174,1.8539 1.37331,0 2.56294,-0.3663 3.57003,-1.0988 0.86977,-0.3662 1.83179,-0.5493 2.88466,-0.5493 0.5951,0 1.1908,0.046 1.78591,0.1378 0.59511,0.092 1.44064,0.2524 2.53929,0.4813 1.14443,0.1831 1.94552,0.2978 2.40329,0.3436 0.45777,0.046 0.9628,0.068 1.51211,0.068 1.23599,0 2.37937,-0.2294 3.43224,-0.6872 0.68667,0.046 1.26015,0.092 1.71792,0.1378 0.45778,0 0.98323,0.022 1.57833,0.068 0.64088,0 1.23658,0.024 1.78591,0.07 l 1.30454,0 c 2.97552,0 5.2863,-0.3663 6.93428,-1.0987 l 0,-1.9237 c 0,-0.5951 0.024,-1.0743 0.0698,-1.4406 0.0457,-0.8239 0.11421,-2.3132 0.20579,-4.4647 0.0915,-1.0529 0.13779,-1.9909 0.13779,-2.8149 0.0457,-0.824 0.0902,-1.4882 0.136,-1.9917 0.0457,-0.5036 0.0698,-1.029 0.0698,-1.5783 l 0,-1.854 0,-1.8539 c 0,-0.5493 -0.024,-1.0081 -0.0698,-1.3743 0.96132,-1.0986 1.44234,-2.2883 1.44234,-3.57 0,-0.6867 -0.11471,-1.3731 -0.34359,-2.0597 -0.1831,-0.6867 -0.45695,-1.51 -0.82316,-2.4713 -0.32045,-1.0071 -0.57206,-1.8082 -0.75517,-2.4033 -0.18311,-0.5951 -0.27558,-1.1908 -0.27558,-1.7859 0.5951,-1.9684 0.96141,-4.0294 1.09875,-6.1809 0.0916,-1.0529 0.16001,-2.2203 0.20579,-3.502 0.0457,-1.2818 0.0698,-2.7008 0.0698,-4.2572 0.0458,-1.5565 0.068,-2.92925 0.068,-4.11946 0.0457,-1.19021 0.11421,-2.22068 0.20579,-3.09045 -0.36622,-0.0458 -0.68629,-0.068 -0.96096,-0.068 -0.27466,-0.0457 -0.50406,-0.068 -0.68716,-0.068 z m 12.54612,0 -0.96096,0.54937 c -0.0916,0.73244 -0.34317,1.39481 -0.75517,1.98991 -0.41199,0.54933 -1.0059,1.2375 -1.78412,2.0615 -0.77821,0.77824 -1.37392,1.46464 -1.78591,2.05974 -0.412,0.5951 -0.61917,1.2574 -0.61917,1.9899 0,0.412 0.0702,0.8485 0.20759,1.3063 0.96132,1.1902 1.44053,2.6092 1.44053,4.2572 0,1.0987 -0.32007,2.7453 -0.96095,4.9426 -0.59511,2.1057 -0.93741,3.571 -1.02895,4.395 0.5951,1.3275 0.89116,2.5411 0.89116,3.6398 0,0.824 -0.18316,1.7842 -0.54938,2.8829 0.32045,0.9155 0.5036,1.8091 0.54938,2.6788 0.0458,0.4578 0.0698,0.9851 0.0698,1.5802 0.0457,0.5493 0.068,1.1672 0.068,1.8539 0.0458,0.6408 0.0698,1.1885 0.0698,1.6463 0,0.412 0.0222,0.7339 0.068,0.9627 0.13731,0.5951 0.27424,1.3278 0.41157,2.1975 0.13733,0.824 0.29827,1.8083 0.48137,2.9527 0.32045,2.2431 0.66275,4.0969 1.02896,5.5617 0.412,1.4649 1.02993,2.8599 1.85392,4.1874 0.96132,0.824 2.31187,1.2366 4.0514,1.2366 1.51065,0 3.02213,-0.3201 4.53278,-0.961 0.22889,-0.046 0.54897,-0.07 0.96096,-0.07 l 1.37433,0 c 0.50355,0 1.09747,0.024 1.78412,0.07 0.73244,0 1.57975,0.022 2.54108,0.068 1.0071,0.046 1.85442,0.07 2.54108,0.07 l 1.78411,0 c 5.12706,0 9.01957,-0.7788 11.67464,-2.3353 0,-0.3662 0.0222,-0.9156 0.068,-1.6481 0.0915,-0.7782 0.13779,-1.4646 0.13779,-2.0597 0,-1.4649 -0.27563,-2.586 -0.82496,-3.3642 1.09865,-2.2431 1.64812,-5.1958 1.64812,-8.858 0,-1.1902 -0.0685,-2.7924 -0.20579,-4.8066 -0.0458,-1.0071 -0.0921,-1.8766 -0.13779,-2.6091 l 0,-1.9237 0,-1.1667 c 0,-0.3204 0.024,-0.5961 0.0698,-0.825 -0.91554,-0.1373 -1.99225,-0.2057 -3.22824,-0.2057 -1.46487,0 -2.56381,0.1369 -3.29624,0.4115 -0.54933,0.2747 -1.30417,0.4134 -2.2655,0.4134 l -1.57833,0 c -1.51065,0 -2.58736,0.3201 -3.22824,0.961 l 1.03075,9.5451 c -0.36622,0.3662 -0.54937,0.801 -0.54937,1.3045 0,0.3205 0.13691,0.8237 0.41158,1.5104 0.32044,0.6866 0.47958,1.2361 0.47958,1.6481 0,0.3204 -0.11291,0.6627 -0.34179,1.0289 -0.22889,-0.046 -0.77836,-0.068 -1.64812,-0.068 -0.32044,0 -0.71077,0.022 -1.16854,0.068 -0.412,0 -0.91523,0.024 -1.51033,0.07 -0.59511,0.046 -1.09834,0.09 -1.51034,0.136 l -1.03074,0 c -1.00709,0 -2.01356,-0.1369 -3.02066,-0.4115 -0.27466,-0.6867 -0.45782,-1.4638 -0.54937,-2.3335 -0.0458,-0.8698 -0.092,-1.7411 -0.13779,-2.6109 -0.0458,-0.8698 -0.11422,-1.6931 -0.20579,-2.4713 -0.0916,-0.7782 -0.31916,-1.4183 -0.68538,-1.9219 -0.0457,-0.2289 -0.092,-0.4361 -0.13779,-0.6192 l 0,-0.6173 c 0,-0.8698 0.15914,-1.6487 0.47958,-2.3353 0.36622,-0.7325 0.91568,-1.6242 1.64813,-2.6771 0.77821,-1.0529 1.35169,-1.9464 1.71791,-2.6789 0.36621,-0.7324 0.54937,-1.5557 0.54937,-2.4713 -0.27466,-0.412 -0.61876,-0.6173 -1.03074,-0.6173 -0.22889,0 -0.61744,0.1591 -1.16675,0.4795 -0.54933,0.2747 -1.03034,0.4116 -1.44234,0.4116 l 1.09875,-5.4919 c 0.36622,-0.824 0.96014,-1.5344 1.78412,-2.1295 0.82399,-0.5951 1.69533,-0.893 2.61087,-0.893 0.73243,-0.2746 1.44105,-0.4116 2.12771,-0.4116 0.68666,0 1.35081,0.1148 1.9917,0.3436 0.64088,0.1831 1.39572,0.457 2.26549,0.8232 l 2.05971,0.825 c 0.45777,0.1373 0.98502,0.2057 1.58012,0.2057 0.86976,0 1.76153,-0.2738 2.67707,-0.8231 0,-1.1902 0.59571,-1.7859 1.78591,-1.7859 0.22889,0 0.59521,0.022 1.09875,0.068 0.50356,0.046 0.86987,0.07 1.09875,0.07 0.50355,0 0.9161,-0.093 1.23654,-0.2756 0.27466,-1.4191 0.41158,-2.9288 0.41158,-4.531 0,-0.5493 -0.0222,-1.282 -0.068,-2.19752 -0.0458,-0.91554 -0.11606,-2.01448 -0.20758,-3.29623 l -0.89117,-0.96096 c -5.03549,0.68666 -10.02515,1.02896 -14.96909,1.02896 -4.98972,0 -9.98116,-0.3423 -14.97087,-1.02896 z m 59.78509,0 c -3.11285,0 -6.29497,1.14338 -9.54514,3.43224 -0.54933,0.50355 -0.82317,1.03079 -0.82317,1.58012 0,0.36626 0.0907,0.70856 0.27379,1.02896 0.18312,0.2747 0.48096,0.6872 0.89296,1.2365 0.45777,0.5494 0.80186,1.0304 1.03075,1.4424 0.27466,0.412 0.41158,0.8467 0.41158,1.3045 -1.92264,2.472 -3.68574,5.3562 -5.28794,8.6522 -1.55643,3.2502 -3.06613,6.5008 -4.531,9.7509 -0.73242,0 -1.21344,0.044 -1.44233,0.136 -0.22888,0.046 -0.34358,0.229 -0.34358,0.5494 -0.13733,2.1515 -0.54809,4.4179 -1.23475,6.7983 -0.32043,1.1902 -0.66453,2.4483 -1.03074,3.7758 -0.36622,1.2818 -0.77877,2.6563 -1.23654,4.1212 -0.91555,2.884 -1.46502,5.3557 -1.64812,7.4157 l 3.29624,3.2962 c 1.00709,0.2747 2.1985,0.4116 3.57182,0.4116 1.28176,0 2.47139,-0.1369 3.57004,-0.4116 1.0071,-0.412 1.67126,-0.9855 1.9917,-1.7179 0.36622,-0.7324 0.54938,-1.6705 0.54938,-2.8149 l 0,-1.6481 c 0,-1.6022 0.2276,-2.7918 0.68537,-3.57 0.22889,-0.046 0.41205,-0.068 0.54937,-0.068 0.18312,-0.046 0.32182,-0.07 0.41337,-0.07 0.54933,0 1.44109,0.1831 2.67708,0.5493 0.59511,0.1831 1.09834,0.3201 1.51034,0.4116 0.41199,0.046 0.73206,0.092 0.96095,0.1378 0.0457,0.046 0.20668,0.1383 0.48138,0.2756 0.32043,0.1373 0.73298,0.3649 1.23654,0.6854 1.00708,0.5493 1.80817,0.8249 2.40327,0.8249 0.41201,0 0.82276,-0.1369 1.23476,-0.4116 0,-0.2746 -0.0685,-0.5503 -0.2058,-0.8249 -0.13733,-0.2747 -0.20579,-0.4801 -0.20579,-0.6174 0.824,-0.3204 1.85448,-0.4814 3.09046,-0.4814 1.23598,0 2.26645,0.161 3.09044,0.4814 0.27466,0.4578 0.50227,1.0517 0.68538,1.7841 0.1831,0.6867 0.36627,1.3971 0.54937,2.1295 l 0.54938,2.0597 c 0.1831,0.6409 0.39028,1.1682 0.61916,1.5801 0.27466,0.046 0.52628,0.229 0.75517,0.5494 0.27466,0.2747 0.48004,0.4116 0.61737,0.4116 0.13732,0 0.32049,-0.1147 0.54938,-0.3436 0.68665,0.2289 1.39706,0.3436 2.12949,0.3436 1.55643,0 3.41021,-0.6864 5.56174,-2.0597 0.45777,-0.7324 0.68536,-1.5335 0.68536,-2.4033 0,-0.4578 -0.0684,-0.9388 -0.20579,-1.4423 -0.13731,-0.5493 -0.32047,-1.2135 -0.54936,-1.9917 -0.22889,-0.7782 -0.36581,-1.2352 -0.41159,-1.3726 0.32044,-0.412 0.96059,-0.7098 1.92191,-0.8929 1.05288,-0.2747 1.71704,-0.7095 1.99171,-1.3046 0,-0.5951 0.0685,-1.7624 0.20579,-3.502 0.13733,-1.6937 0.20579,-3.1368 0.20579,-4.327 -0.412,-0.7324 -1.07438,-1.0969 -1.98992,-1.0969 -0.32043,0 -0.91614,0.069 -1.7859,0.2058 -0.824,0.1373 -1.51038,0.2057 -2.05971,0.2057 -0.32044,0 -0.57206,-0.1369 -0.75517,-0.4115 -0.1831,-0.2747 -0.34404,-0.5966 -0.48137,-0.9628 l -0.27379,-1.0987 c -0.0915,-0.412 -0.20624,-0.7543 -0.34358,-1.029 -0.22888,-0.5493 -0.34359,-1.0988 -0.34359,-1.6481 0,-0.3205 0.0223,-0.7792 0.068,-1.3743 0.0916,-0.5951 0.13779,-1.0744 0.13779,-1.4406 0,-0.7782 -0.18317,-1.4664 -0.54938,-2.0615 -0.1831,-0.1831 -0.36626,-0.2738 -0.54937,-0.2738 -0.22889,0 -0.4805,0.161 -0.75517,0.4814 -0.27466,0.2747 -0.52628,0.4116 -0.75516,0.4116 -0.36622,-1.6938 -1.0526,-3.4106 -2.0597,-5.1502 0,-1.0071 -0.18315,-2.0135 -0.54938,-3.0206 -0.1831,-0.5036 -0.43472,-1.0308 -0.75516,-1.5801 -0.27467,-0.5494 -0.61875,-1.1451 -1.03075,-1.7859 -0.36622,-0.6409 -0.66408,-1.1664 -0.89296,-1.5784 -0.22889,-0.412 -0.36581,-0.6636 -0.41158,-0.7551 -0.22888,-0.3663 -0.34358,-0.7326 -0.34358,-1.0988 0,-0.5493 0.39033,-1.2819 1.16853,-2.1975 0.77822,-0.9155 1.18898,-1.5797 1.23476,-1.9917 -0.91554,-1.05287 -2.01448,-1.87618 -3.29625,-2.47128 -0.5951,-0.27466 -1.14457,-0.52628 -1.64812,-0.75516 -0.45777,-0.22889 -1.21262,-0.55076 -2.26549,-0.96276 l -0.96096,-1.44053 z m 42.64178,0 c -3.29596,0 -7.23292,0.61793 -11.81064,1.85391 l -0.13779,4.05141 c -1.14444,0.2747 -2.21935,1.1202 -3.22645,2.5393 -0.36622,0.4578 -0.54938,1.0312 -0.54938,1.7179 0,0.8698 0.2276,1.7393 0.68537,2.6091 -0.13732,0.412 -0.20579,0.7783 -0.20579,1.0987 0,0.6409 0.20718,1.1219 0.61917,1.4424 0.18311,0.1831 0.43472,0.3884 0.75516,0.6173 0.36622,0.1831 0.73253,0.3885 1.09875,0.6174 0.36622,0.1831 0.70852,0.3663 1.02896,0.5494 0.32044,0.1831 0.54983,0.344 0.68716,0.4814 0.412,2.4719 0.61738,5.4246 0.61738,8.8579 0,1.1902 -0.0444,2.563 -0.13601,4.1194 -0.0457,1.5565 -0.11421,3.364 -0.20579,5.424 -0.0916,2.06 -0.1618,3.8231 -0.20758,5.2879 -0.0457,1.4649 -0.068,2.6545 -0.068,3.5701 0,2.9297 0.13692,5.2885 0.41159,7.0738 0.36621,0.7782 0.89346,1.3499 1.58012,1.7161 0.36621,0.1831 0.77876,0.3663 1.23654,0.5494 0.45777,0.1373 1.00545,0.252 1.64632,0.3436 0.64089,0.092 1.14591,0.1822 1.51212,0.2738 0.36622,0.046 0.64006,0.092 0.82317,0.1378 0.45777,-0.4578 1.32731,-0.8241 2.60908,-1.0988 1.23598,-0.2746 2.17399,-0.5725 2.81486,-0.8929 0.64089,-0.3205 1.05344,-0.9846 1.23654,-1.9917 l -0.34358,-16.2737 0.34358,-0.068 c 1.32754,1.6023 2.58741,3.1582 3.77762,4.6688 1.19021,1.5107 2.51674,3.1591 3.98161,4.9444 1.46487,1.7395 2.83765,3.3639 4.11942,4.8746 1.28174,1.4648 2.61009,2.8838 3.9834,4.2572 0.86977,0.4119 1.69307,0.6191 2.47129,0.6191 1.05287,0 2.01488,-0.3201 2.88465,-0.9609 0.41201,-0.3663 0.84678,-0.801 1.30454,-1.3046 0.45778,-0.5035 0.93879,-1.077 1.44233,-1.7179 1.09866,-1.3733 1.8535,-2.2428 2.2655,-2.6091 -0.13733,-0.9155 -0.54988,-1.6704 -1.23654,-2.2655 -0.64087,-0.6408 -1.39573,-1.3272 -2.2655,-2.0597 -0.36621,-1.5564 -1.23576,-3.0439 -2.60907,-4.4629 -0.68666,-0.7783 -1.35083,-1.5109 -1.9917,-2.1975 -0.59511,-0.6867 -1.14458,-1.3749 -1.64813,-2.0615 -0.45777,-0.6867 -0.84631,-1.3953 -1.16675,-2.1277 -0.32043,-0.7325 -0.5036,-1.5336 -0.54937,-2.4033 l 4.11941,-4.5328 6.86807,-11.8786 -2.40329,-2.5411 0.54758,-3.0887 c 0,-0.412 0.11471,-0.9392 0.34359,-1.5801 0.27466,-0.6867 0.41337,-1.16769 0.41337,-1.44235 0,-0.36621 -0.0925,-0.64005 -0.27558,-0.82316 -0.96133,-0.0457 -2.06026,-0.16046 -3.29625,-0.34358 -1.1902,-0.18312 -2.26512,-0.36626 -3.22645,-0.54938 -0.91554,-0.18311 -1.87755,-0.32003 -2.88466,-0.41158 -0.96131,-0.13733 -1.89932,-0.20579 -2.81486,-0.20579 -1.46488,0 -2.95235,0.20539 -4.463,0.61737 -0.50354,-0.77821 -1.26017,-1.16675 -2.26728,-1.16675 -0.18311,0 -0.43473,0.0222 -0.75517,0.068 l -0.68537,0 c -0.27466,0 -0.55029,-0.0463 -0.82495,-0.1378 l 0.27558,0.27559 c -0.64088,0.91554 -1.96921,1.37253 -3.98341,1.37253 -0.36621,-0.36621 -0.54938,-0.89167 -0.54938,-1.57832 0,-0.0458 -0.0222,-0.22898 -0.068,-0.54938 l 0,-1.23654 -0.82495,0 c -0.36621,-0.0457 -0.64005,-0.068 -0.82316,-0.068 z m 9.81893,13.25122 c 1.00711,0 1.85442,0.6641 2.54108,1.9917 -0.13733,1.0986 -0.54988,2.1291 -1.23654,3.0904 -0.64089,0.9613 -1.6029,2.151 -2.88466,3.5701 -1.05288,1.0986 -2.03712,2.1291 -2.95266,3.0904 -0.86976,0.9613 -1.76153,1.7624 -2.67708,2.4033 -0.0457,-0.5036 -0.092,-0.9383 -0.13779,-1.3045 l 0,-1.0308 c 0,-1.648 0.36631,-2.9283 1.09875,-3.8438 -0.50355,-1.4191 -0.75517,-3.641 -0.75517,-6.6623 0.45777,0.2747 0.96101,0.4134 1.51034,0.4134 0.64088,0 1.58067,-0.2757 2.81665,-0.825 1.19021,-0.5951 2.08198,-0.8929 2.67708,-0.8929 z m -54.52042,8.7899 c 1.87688,4.12 3.47904,8.0792 4.80658,11.8787 -0.77822,0 -1.87715,0.069 -3.29624,0.2058 -1.46487,0.1373 -2.51758,0.2076 -3.15845,0.2076 -1.46487,0 -2.72296,-0.2294 -3.77583,-0.6872 0.45777,-1.5107 1.14416,-3.2275 2.05971,-5.1502 0.91554,-1.9226 2.03671,-4.0742 3.36423,-6.4547 z"
         style="font-style:normal;font-variant:normal;font-weight:normal;font-stretch:normal;font-size:medium;line-height:125%;font-family:Logger;-inkscape-font-specification:Logger;letter-spacing:0px;word-spacing:0px;fill:#28170b;fill-opacity:1;stroke:none;stroke-width:1px;stroke-linecap:butt;stroke-linejoin:miter;stroke-opacity:1;filter:url(#filter4518)" />
      <path
         inkscape:connector-curvature="0"
         id="path4510"
         d="m 208.20758,995.4449 c -0.86977,0 -1.48769,0.0685 -1.85391,0.2058 -0.36622,0.13733 -0.54937,0.4574 -0.54937,0.96095 -0.64088,0.82399 -1.53265,1.23653 -2.67708,1.23653 -0.27467,0 -0.61875,-0.0222 -1.03075,-0.068 -0.412,-0.0916 -0.84677,-0.18403 -1.30454,-0.27559 -0.412,-0.0916 -0.82454,-0.16003 -1.23654,-0.20578 -0.41199,-0.0916 -0.75429,-0.1378 -1.02895,-0.1378 -0.54933,0 -1.00812,0.1147 -1.37433,0.34358 1.23598,0.54934 2.70123,0.82317 4.39498,0.82317 1.55643,0 3.13637,-0.15914 4.73858,-0.47959 l 0.27379,-0.27558 c 0.13734,-0.13733 0.36672,-0.32048 0.68717,-0.54937 0.64088,-0.50355 0.96095,-1.029 0.96095,-1.57833 z m -178.612657,0.34359 c -0.22889,0 -0.43426,0.13692 -0.61737,0.41158 0.27466,0.54933 0.70943,0.93786 1.30454,1.16674 0.64088,0.18312 1.32726,0.39028 2.0597,0.61917 0.59511,-0.41199 1.44243,-0.61917 2.54108,-0.61917 1.0071,0 1.78596,0.13872 2.33528,0.41338 -0.27466,0.27467 -0.73345,0.41158 -1.37433,0.41158 l -0.82316,0 c -0.36622,-0.0458 -0.73253,-0.0698 -1.09875,-0.0698 -0.5951,0.59511 -1.28149,0.89295 -2.0597,0.89295 -0.73244,0 -1.67223,-0.3663 -2.81666,-1.09874 -1.23599,-0.82402 -2.0593,-1.25879 -2.47128,-1.30454 0.22888,0.36622 0.64143,0.80099 1.23653,1.30454 0.5951,0.50355 1.07432,0.89387 1.44054,1.16853 0.5951,0.54933 1.23704,0.82317 1.9237,0.82317 0.22889,0 0.52674,-0.0462 0.89296,-0.13779 0.412,-0.13733 0.82276,-0.25202 1.23475,-0.34358 0.41199,-0.13733 0.82454,-0.25024 1.23654,-0.3418 0.45776,-0.13732 0.82408,-0.20758 1.09874,-0.20758 0.41201,0 0.75609,0.0462 1.03075,0.13779 0.22889,-0.36621 0.5952,-0.75474 1.09875,-1.16675 0.54932,-0.45776 0.82316,-1.00723 0.82316,-1.64811 -0.82399,0 -1.60285,0.0462 -2.33528,0.13779 -0.68666,0.0915 -1.55621,0.2507 -2.60908,0.47958 -0.91555,0.18311 -1.46501,0.27559 -1.64812,0.27559 -0.27466,0 -0.68543,-0.20718 -1.23475,-0.61918 -0.50355,-0.45777 -0.89388,-0.68536 -1.16854,-0.68536 z m 23.88255,0 -0.20579,0.54937 c 2.42618,2.42619 4.71653,3.63803 6.86806,3.63803 0.412,0 0.93746,-0.0685 1.57833,-0.20579 0.64088,-0.22889 1.25881,-0.61742 1.85392,-1.16675 0.64088,-0.54933 0.96095,-1.12101 0.96095,-1.71612 0,-0.27466 -0.11469,-0.57251 -0.34358,-0.89295 l -3.43224,0.13779 1.78591,0.20579 0,0.47958 c -0.0916,0.0458 -0.36719,0.27517 -0.82496,0.68716 -0.41199,0.412 -0.84677,0.61738 -1.30454,0.61738 -0.50354,-0.0916 -0.96054,-0.27471 -1.37254,-0.54938 -0.41199,-0.27466 -0.61916,-0.57072 -0.61916,-0.89116 0,-0.18311 0.0462,-0.36627 0.13779,-0.54937 l -1.51033,0 c 0.36622,1.05286 0.86945,1.71524 1.51033,1.98991 0.45777,0.32045 0.961,0.48137 1.51033,0.48137 1.05287,0 2.33497,-0.75485 3.84562,-2.26549 l 0.27379,0.20579 c -0.0915,0.64088 -0.82238,1.4882 -2.19571,2.54107 -0.64087,0.27467 -1.21435,0.41159 -1.71791,0.41159 -0.5951,0 -1.14457,-0.13692 -1.64812,-0.41159 -0.45777,-0.32044 -1.05169,-0.77921 -1.78413,-1.37433 -0.68665,-0.64087 -1.28235,-1.09787 -1.7859,-1.37253 -0.45777,-0.32041 -0.98502,-0.50356 -1.58012,-0.54937 z m 39.55311,0 c -0.91555,0 -1.62595,0.0444 -2.12949,0.136 -0.50355,0.0458 -1.07524,0.11602 -1.71613,0.20758 l 0.89296,0.68537 c -0.36621,0.22889 -0.73253,0.34358 -1.09875,0.34358 -0.18311,0 -0.4125,-0.0462 -0.68716,-0.13779 -0.27467,-0.13733 -0.57252,-0.27425 -0.89296,-0.41158 -0.27467,-0.18311 -0.57252,-0.32003 -0.89296,-0.41158 -0.27466,-0.13733 -0.52627,-0.20579 -0.75515,-0.20579 -0.22889,0 -0.64144,0.11469 -1.23654,0.34358 l 0.61916,0.68537 c -0.22889,0.22889 -0.61742,0.34358 -1.16675,0.34358 -0.0916,-0.0916 -0.23027,-0.16003 -0.41337,-0.20579 -0.18311,-0.0458 -0.36627,-0.092 -0.54938,-0.13779 -0.1831,-0.0916 -0.34224,-0.18224 -0.47958,-0.27379 -0.13732,-0.13734 -0.20579,-0.34272 -0.20579,-0.61737 l -1.58012,0 c 0,0.54932 0.20538,1.09879 0.61737,1.64812 0.412,0.50355 0.73386,0.93832 0.96275,1.30453 1.14443,1.09868 2.7466,1.64638 4.80657,1.64638 0.68666,0 1.37305,-0.069 2.0597,-0.2058 1.05288,-0.3204 1.92242,-0.91439 2.60908,-1.78416 0.73244,-0.91554 1.14498,-1.89978 1.23654,-2.95265 z m -59.24646,0.068 c -0.36621,0 -0.68629,0.0685 -0.96095,0.20579 0.54932,0 0.86941,-0.0685 0.96095,-0.20579 z m 171.540587,0.068 c -0.45777,0.32044 -1.1904,0.48137 -2.19749,0.48137 l -1.37433,0 c -0.50355,0 -0.89209,0.0685 -1.16675,0.20579 l 0.20579,0.20579 c 0.68666,0.22889 1.30459,0.34358 1.85391,0.34358 1.28177,0 2.17533,-0.41254 2.67887,-1.23653 z m -72.3509,0.0698 c -0.77821,0.18313 -1.64776,0.29782 -2.60907,0.34358 -0.91555,0.0458 -1.62595,0.25115 -2.1295,0.61738 -2.15153,0.2289 -5.12646,0.36582 -8.92598,0.41157 -3.84528,0.0916 -7.00339,0.23027 -9.47536,0.41338 -2.42619,0.18311 -4.87568,0.70856 -7.34765,1.57833 -0.0458,0.0915 -0.16048,0.22847 -0.34358,0.41158 l -0.61738,0.61919 -0.54937,0.5494 c -0.13734,0.1831 -0.2058,0.32 -0.2058,0.4116 0,0.1373 0.0462,0.252 0.1378,0.3435 4.16572,-0.4577 7.4145,-0.7796 9.74914,-0.9627 2.38041,-0.2289 3.86789,-0.3658 4.463,-0.4116 0.41201,0.412 1.03172,0.6192 1.8557,0.6192 0.86977,0 1.69308,-0.1387 2.47129,-0.4134 l 0,-0.5494 c 0.86977,-0.36622 1.78555,-0.61784 2.74687,-0.75517 1.0071,-0.13733 2.17449,-0.25203 3.50203,-0.34358 0.68666,-0.0458 1.3046,-0.0902 1.85392,-0.136 0.59511,-0.0458 1.12056,-0.092 1.57833,-0.13779 0.0916,0.22889 0.0231,0.41205 -0.20579,0.54937 l -0.68717,0.34358 c -0.27466,0.0915 -0.52628,0.22847 -0.75516,0.41158 -0.18315,0.18311 -0.25161,0.45701 -0.20579,0.82321 0.27465,0.092 0.52627,0.1378 0.75516,0.1378 0.27467,0 0.68721,-0.1147 1.23654,-0.3436 0.54933,-0.2289 1.07657,-0.3418 1.58012,-0.3418 l 0,-0.82498 c -0.0916,-0.18311 -0.13779,-0.32003 -0.13779,-0.41159 0,-0.36621 0.3423,-0.86944 1.02895,-1.51032 0.68666,-0.59511 1.09921,-1.07612 1.23654,-1.44233 z m 29.98292,0.47957 c -3.52484,0.22889 -6.06502,1.19091 -7.62144,2.88467 0.0916,0.54932 0.27472,1.21347 0.54937,1.99177 0.32045,0.7324 0.73299,1.5557 1.23654,2.4712 0.50354,0.9156 0.9143,1.6944 1.23475,2.3353 0.36621,0.5951 0.59561,1.0521 0.68717,1.3726 1.09865,1.3733 1.96819,2.7923 2.60907,4.2572 0.32045,0.6866 0.66453,1.5562 1.03073,2.609 0.41202,1.0071 0.86901,2.1985 1.37255,3.5719 0.50354,1.3733 0.98456,2.5869 1.44234,3.6398 0.50354,1.0071 0.93831,1.8526 1.30453,2.5393 0.32045,0.3662 0.66452,1.0526 1.03074,2.0597 0.18311,0.5035 0.34226,0.9623 0.47958,1.3743 0.18312,0.3662 0.32182,0.6641 0.41338,0.893 0.18311,0.412 0.64011,0.6173 1.37253,0.6173 0.0916,0 0.3672,-0.046 0.82496,-0.1378 0.0458,-0.4119 -0.0467,-0.8005 -0.27558,-1.1667 -0.18311,-0.3662 -0.4125,-0.7325 -0.68717,-1.0987 -0.27466,-0.3663 -0.52627,-0.7104 -0.75516,-1.0308 -0.18311,-0.3662 -0.22933,-0.7085 -0.13779,-1.0289 -0.45776,-0.6867 -0.80005,-1.4878 -1.02895,-2.4033 -0.22888,-0.9614 -0.45828,-1.9456 -0.68716,-2.9527 -0.18311,-1.0071 -0.41251,-1.9913 -0.68717,-2.9527 -0.22888,-0.9613 -0.54896,-1.8308 -0.96096,-2.609 0.36622,-0.3662 0.54938,-0.6179 0.54938,-0.7552 0,-0.092 -0.0685,-0.2063 -0.20579,-0.3436 l -0.68716,0.2058 c -0.77822,-1.1902 -1.34992,-2.563 -1.71614,-4.1194 0,-0.1373 -0.15913,-0.4352 -0.47957,-0.893 -0.27468,-0.4577 -0.41337,-0.848 -0.41337,-1.1685 0,-0.2289 0.0685,-0.4565 0.20578,-0.6854 l 0.61917,0 c 0,-0.8697 0.0223,-1.373 0.068,-1.5103 -0.64087,0 -1.12189,-0.1609 -1.44233,-0.4814 -0.27466,-0.2746 -0.41158,-0.5485 -0.41158,-0.8231 0,-0.2289 0.11469,-0.573 0.34358,-1.0308 0.22889,-0.5035 0.34358,-0.9383 0.34358,-1.3045 l 0.47959,0.8231 c 0,-0.3204 -0.11291,-0.6867 -0.3418,-1.0987 -0.1831,-0.4578 -0.27558,-0.8001 -0.27558,-1.02899 0,-0.0458 0.0462,-0.20671 0.13779,-0.48137 l 0.89296,1.51036 c 0,-0.3662 -0.13871,-0.86948 -0.41337,-1.51036 -0.27466,-0.64087 -0.41159,-1.09786 -0.41159,-1.37253 0,-0.13733 0.0462,-0.29827 0.13779,-0.48138 0.18312,0.18311 0.4125,0.59566 0.68717,1.23654 0.27466,0.5951 0.48004,1.02987 0.61737,1.30454 0.22889,0.22892 0.48051,0.36589 0.75517,0.41159 -0.13733,-0.59511 -0.38894,-1.19082 -0.75517,-1.78592 -0.36621,-0.64088 -0.71029,-1.25881 -1.03074,-1.85392 z m -110.646007,0.54938 c -1.32754,3.84536 -1.99171,8.69806 -1.99171,14.55756 0.45778,0.5035 0.8481,1.0992 1.16854,1.7859 0.36621,0.6409 0.82322,1.0294 1.37254,1.1667 l 0.41159,-4.395 c 0.13732,0.5494 0.20579,1.1229 0.20579,1.718 0,0.2288 -0.0223,0.5952 -0.068,1.0987 l 0,1.029 c 0,1.9684 0.73262,3.2042 2.19749,3.7078 l -1.30454,1.3743 c -0.96132,0 -1.85488,-0.1831 -2.67887,-0.5494 0.86977,1.6938 1.6024,3.5476 2.1975,5.5618 0.5951,2.0142 1.07611,4.188 1.44233,6.5227 l -0.41158,0.2756 -0.82496,-1.1686 c 0,0.5951 -0.0685,0.917 -0.20579,0.9628 -0.32045,-0.5951 -0.57207,-1.2593 -0.75516,-1.9917 -0.13735,-0.7325 -0.3205,-1.4873 -0.54938,-2.2655 0.0916,0.6409 0.16004,1.4419 0.20579,2.4033 0.0916,0.9613 0.13779,2.0824 0.13779,3.3642 0,2.5635 0.0685,4.6227 0.2058,6.1791 0.18309,1.5564 0.66411,3.0901 1.44233,4.6008 0.36621,0.3662 0.68629,1.0526 0.96095,2.0597 0.32044,1.0529 0.54984,1.7393 0.68716,2.0597 0.18312,0.412 0.61789,0.6192 1.30454,0.6192 -0.0916,-0.5494 -0.29694,-1.3745 -0.61738,-2.4731 -0.32043,-1.0071 -0.48137,-1.7842 -0.48137,-2.3335 l 0,-0.3436 c 0.0458,-0.1373 0.092,-0.3205 0.13779,-0.5494 0.41201,1.7396 0.77831,3.0661 1.09875,3.9816 0.32044,0.9156 0.77744,1.7167 1.37254,2.4033 -0.77821,-1.4648 -1.32768,-3.043 -1.64812,-4.7367 -0.27466,-1.6938 -0.48004,-3.8454 -0.61738,-6.4547 -0.0458,-1.3276 -0.092,-2.495 -0.13779,-3.5021 -0.0458,-1.0071 -0.092,-1.8766 -0.13779,-2.6091 -0.0915,-1.419 -0.36538,-2.8621 -0.82316,-4.3269 0.32044,0.2288 0.52582,0.8468 0.61737,1.8539 l 0.34358,0 0,-1.7162 c 0.0458,-0.6408 0.0698,-1.0978 0.0698,-1.3725 0,-1.1902 -0.27563,-2.0375 -0.82496,-2.5411 0.0457,0 0.068,-0.069 0.068,-0.2058 0.0458,-0.1831 0.0698,-0.3662 0.0698,-0.5493 0.0458,-0.1831 0.11423,-0.3441 0.20578,-0.4814 0.0916,-0.1831 0.22848,-0.2738 0.41158,-0.2738 l 0,-0.7552 c -0.50354,-0.7782 -0.75516,-2.1527 -0.75516,-4.1212 l 0,-2.4032 c 0,-0.824 -0.0685,-1.5104 -0.20579,-2.0597 l 0,1.1685 c 0.0457,0.412 0.068,0.7081 0.068,0.8912 0,0.5951 -0.13691,1.1223 -0.41158,1.5801 -0.27466,-0.3205 -0.41158,-0.8922 -0.41158,-1.7162 l 0,-0.8929 c 0,-0.6867 -0.18316,-1.2139 -0.54938,-1.5801 l 0.75517,-0.7552 -0.54937,-0.6872 0.54937,-0.3417 c 0,-0.6409 -0.0462,-1.2589 -0.13779,-1.854 -0.0458,-0.5951 -0.068,-0.9854 -0.068,-1.1685 0,-0.412 0.13692,-0.8005 0.41158,-1.1667 l 0.75516,1.9917 c 0.13733,-0.6867 0.20579,-1.3971 0.20579,-2.1295 0,-0.2747 -0.0222,-0.6632 -0.068,-1.1668 l 0,-1.2365 c 0,-0.9156 0.1147,-1.7629 0.34358,-2.5411 -0.50354,-0.64091 -1.23617,-1.05166 -2.19749,-1.23478 l 0.2058,-0.20579 -2.1975,-2.06149 z m 52.441027,0.0698 c -0.45778,0.0458 -0.68538,0.27516 -0.68538,0.68716 0,-0.0458 0.0444,0.0671 0.136,0.34179 0.86977,0 1.44325,-0.22761 1.71791,-0.68537 -0.0916,0 -0.27471,-0.0462 -0.54937,-0.13779 -0.22888,-0.13734 -0.43606,-0.20579 -0.61916,-0.20579 z m 30.14576,0.27378 c -0.86979,0.0916 -1.32858,0.7335 -1.37433,1.9237 0.0458,-0.18309 0.2974,-0.4125 0.75517,-0.68716 0.50355,-0.32044 0.75517,-0.61829 0.75517,-0.89296 l -0.068,-0.068 c 0,-0.0916 -0.0222,-0.18403 -0.068,-0.27559 z m 80.45192,0.13779 -2.60907,1.23654 c -1.83109,0 -3.64043,0.13693 -5.42574,0.41158 -1.78531,0.22889 -3.95917,0.61743 -6.52269,1.16677 -1.28176,0.2289 -2.3807,0.4361 -3.29624,0.6192 -0.86976,0.1831 -1.60239,0.32 -2.19749,0.4116 l -1.30455,1.0289 c 0.86977,0 1.64863,-0.044 2.33529,-0.136 0.68666,-0.1373 1.50997,-0.3205 2.47128,-0.5494 0.50356,-0.092 0.91609,-0.184 1.23654,-0.2755 0.36622,-0.092 0.64184,-0.1601 0.82495,-0.2058 0.82399,-0.046 1.94516,-0.1143 3.36424,-0.2058 1.41911,-0.1374 3.15819,-0.2983 5.21816,-0.4814 2.05998,-0.1831 3.89155,-0.32 5.49375,-0.4116 1.64796,-0.092 3.06698,-0.1378 4.25718,-0.1378 0.96133,0 1.87711,0.024 2.74687,0.0698 0.91555,0.046 1.76108,0.1143 2.53929,0.2058 l 0.68716,-1.09866 c 0.32045,-0.27465 0.64051,-0.41158 0.96096,-0.41158 0.68666,0 1.39706,0.5717 2.1295,1.71604 0.27466,0.092 0.64096,0.1378 1.09875,0.1378 1.00709,0 1.92288,-0.3441 2.74687,-1.03067 -0.41199,-0.22888 -1.02992,-0.41204 -1.85391,-0.54938 -0.82399,-0.13736 -1.37346,-0.22803 -1.64812,-0.27379 -1.09866,-0.50355 -2.21983,-0.75516 -3.36426,-0.75516 -0.36621,0 -0.80277,0.0444 -1.30633,0.136 -0.50355,0.0458 -1.09746,0.11424 -1.78411,0.20579 -0.68666,0.0916 -1.28237,0.16183 -1.78591,0.20758 -0.50356,0.0458 -0.93831,0.068 -1.30454,0.068 -1.46487,0 -2.70072,-0.3663 -3.70783,-1.09875 z m -48.54708,0.48138 0.34358,1.02895 c 0.77821,1.60226 2.01406,2.40336 3.70782,2.40336 -1.55642,-0.9156 -2.47221,-1.7167 -2.74687,-2.40336 0.50355,0 1.03079,0.16094 1.58012,0.48138 0.59507,0.27466 0.91515,0.41158 0.96096,0.41158 -0.13733,-0.0458 -0.6868,-0.36586 -1.64812,-0.96096 -0.96132,-0.59513 -1.69395,-0.9152 -2.19749,-0.96095 z m -140.777457,0.136 c 0.36622,2.47201 0.59561,5.08241 0.68717,7.82901 0.0916,2.7467 0.13779,6.0879 0.13779,10.0248 0.0864,3.7152 0.14939,6.3001 0.19505,8.0992 0.0129,-0.15 0.0363,-0.3081 0.0787,-0.4778 0.13734,-0.412 0.29827,-0.8228 0.48138,-1.2347 0.18311,-0.412 0.34226,-0.8024 0.47958,-1.1686 0.18312,-0.3662 0.32004,-0.6641 0.41158,-0.8929 0.13734,-2.2431 0.20758,-4.6001 0.20758,-7.0721 0,-2.6093 -0.1387,-4.7369 -0.41337,-6.3849 l 0.68717,-0.5494 c 0.36622,1.9684 0.54937,4.0961 0.54937,6.3849 0,0.7782 -0.0222,1.7625 -0.068,2.9527 -0.0458,1.1444 -0.11423,2.4727 -0.20579,3.9834 0.50355,0.4578 0.9143,0.6854 1.23475,0.6854 0.22885,0.092 0.36577,-0.068 0.41158,-0.4796 0.0916,-0.412 0.13779,-0.8708 0.13779,-1.3743 0.0458,-0.5494 0.0921,-1.0526 0.13779,-1.5104 0.0458,-0.4577 0.20671,-0.6854 0.48138,-0.6854 0.13733,-0.412 0.20579,-0.8707 0.20579,-1.3743 0,-0.5951 -0.13871,-1.0076 -0.41337,-1.2365 0,0.3662 -0.0444,0.825 -0.13601,1.3743 -0.0458,0.5493 -0.13824,1.121 -0.27558,1.7161 -0.0915,0.5951 -0.20625,1.1668 -0.34358,1.7162 -0.0916,0.5493 -0.18223,1.0303 -0.27379,1.4423 -0.412,-0.5951 -0.61917,-1.5794 -0.61917,-2.9527 l 0,-1.3725 c 0.0457,-0.6867 0.0698,-1.3286 0.0698,-1.9237 0.36623,-0.3662 0.54938,-0.9601 0.54938,-1.7841 l 0,-1.1686 c 0,-0.9155 0.18315,-1.5557 0.54937,-1.9219 0,-0.3662 0.13692,-0.8232 0.41159,-1.3725 0.27466,-0.5494 0.41158,-0.9157 0.41158,-1.0988 0,-0.1831 -0.0445,-0.3218 -0.136,-0.4134 -0.3662,-0.092 -0.52712,-0.136 -0.48138,-0.136 -0.13733,0 -0.25202,0.068 -0.34358,0.2058 -0.0458,0.1374 -0.11423,0.2965 -0.20579,0.4796 -0.0458,0.1374 -0.11423,0.2761 -0.20579,0.4134 -0.0916,0.1373 -0.22847,0.2058 -0.41159,0.2058 -0.13732,-1.0987 -0.20758,-2.1514 -0.20758,-3.1585 0,-1.1444 0.13871,-2.1064 0.41338,-2.8846 0.0916,-0.092 0.16004,-0.1378 0.20579,-0.1378 0.0915,0 0.15998,0.1369 0.20579,0.4116 0.0916,0.2289 0.18224,0.3676 0.27379,0.4133 l 0.27558,-0.4813 c -0.13733,0 -0.43518,-0.1832 -0.89295,-0.5494 -0.45777,-0.412 -0.87032,-0.6174 -1.23654,-0.6174 l 0,0.7552 c 0.0457,0.2746 0.0698,0.48 0.0698,0.6174 0,0.3662 -0.0462,0.6418 -0.13779,0.8249 l -0.68717,0 c -0.0915,-0.5493 -0.18223,-1.0303 -0.27379,-1.4423 -0.0458,-0.412 -0.0698,-0.7561 -0.0698,-1.03079 -0.36621,-0.36622 -0.66228,-0.73253 -0.89116,-1.09875 -0.22889,-0.36621 -0.57298,-0.54937 -1.03075,-0.54937 z m 1.02001,25.95301 c -0.015,0.1737 -0.0138,0.3358 0.0107,0.4832 -0.003,-0.1005 -0.008,-0.3759 -0.0107,-0.4832 z m 169.284037,-25.60944 0.20579,2.12954 0.41159,0 c 0.96131,-0.1831 1.44233,-0.5494 1.44233,-1.09879 0,-0.18311 -0.0907,-0.36626 -0.2738,-0.54938 l -1.16853,0.61738 c 0,-0.73243 -0.20538,-1.09875 -0.61738,-1.09875 z m -116.139747,0.0698 -0.41157,0.54937 0.41157,17.64617 c 0.18312,1.3276 0.36627,2.7466 0.54938,4.2572 0.18311,1.4649 0.27379,2.6101 0.27379,3.4341 0,2.0142 -0.3423,3.731 -1.02896,5.1501 0.412,2.5635 0.82455,4.6449 1.23654,6.2471 1.00711,0 1.76195,-0.2516 2.2655,-0.7551 l 0.20579,-11.6031 0.54937,-0.8249 c 0.18311,0.046 0.2738,0.3898 0.2738,1.0307 0.54932,0 0.89341,-0.046 1.03074,-0.1378 0.18311,-0.091 0.38849,-0.3894 0.61737,-0.8929 0,0.2288 0.16093,0.8245 0.48138,1.7859 0.32044,0.9613 0.48137,1.7384 0.48137,2.3335 l 0,-3.9817 c -0.13733,-0.4577 -0.50364,-0.8481 -1.09874,-1.1685 -0.54933,-0.3204 -0.91565,-0.5943 -1.09875,-0.8231 l 0.20579,-0.068 c -0.412,-0.091 -0.73208,-0.321 -0.96096,-0.6872 -0.18311,-0.3662 -0.32182,-0.7788 -0.41337,-1.2365 -0.0915,-0.4578 -0.15998,-0.9148 -0.20579,-1.3726 -0.0458,-0.4578 -0.13646,-0.8241 -0.2738,-1.0987 l 0,1.7161 c 0.0458,0.5951 0.068,0.9836 0.068,1.1667 0,0.6867 -0.13692,1.4433 -0.41159,2.2673 -0.22888,-1.0986 -0.38981,-2.4732 -0.48137,-4.1212 -0.0916,-1.6937 -0.2507,-3.1812 -0.47959,-4.463 0.36623,-0.9613 0.54938,-2.0824 0.54938,-3.3642 0,-0.2289 -0.024,-0.549 -0.0698,-0.961 0,-0.412 -0.0222,-0.893 -0.068,-1.4423 -0.0457,-0.5493 -0.068,-1.0303 -0.068,-1.4423 l 0,-1.0988 c 0,-1.2817 0.13692,-2.3807 0.41158,-3.2962 0.0916,0.6866 0.16005,1.8781 0.20579,3.5718 0.0458,0.824 0.092,1.5788 0.13779,2.2655 0.0458,0.6867 0.0903,1.3268 0.13601,1.9219 0.0458,0.5493 0.11602,1.0766 0.20757,1.5801 0.0916,0.4578 0.18224,0.8926 0.2738,1.3046 0.1831,0 0.38848,-0.022 0.61737,-0.068 0.22889,-0.046 0.43606,-0.07 0.61917,-0.07 0,-0.3205 -0.024,-0.7997 -0.0698,-1.4406 l 0,-1.5121 c 0,-1.1902 0.0925,-2.082 0.27558,-2.6771 0.27466,0.6409 0.41158,1.4882 0.41158,2.5411 0,0.1831 -0.0223,0.6179 -0.068,1.3046 l 0,1.7841 0.68537,0 c -0.0457,-0.2289 -0.068,-0.7081 -0.068,-1.4406 l 0,-1.5801 c 0.0457,-0.6866 0.068,-1.2139 0.068,-1.5801 0,-1.8769 -0.22761,-3.2496 -0.68537,-4.1194 l -0.54937,0.6174 c -0.13733,-0.046 -0.20579,-0.2512 -0.20579,-0.6174 l -0.54938,0.2058 c 0,-0.7782 -0.20717,-1.3499 -0.61916,-1.7161 -0.36621,-0.3663 -0.98415,-0.8233 -1.85392,-1.3726 -0.77821,-0.59512 -1.28144,-1.14459 -1.51033,-1.64814 z m 52.167237,0.27379 0,1.37435 0.2058,0 0,-1.37435 -0.2058,0 z m 2.54108,0.48137 0,0.68538 0.2058,0 0,-0.68538 -0.2058,0 z m 99.19684,0.34359 c -2.05998,0.54939 -3.45498,1.67049 -4.1874,3.36429 -0.45778,0.7782 -0.68717,1.533 -0.68717,2.2655 0,0.5951 0.22939,1.1223 0.68717,1.5801 -0.0458,-0.2747 -0.092,-0.504 -0.13779,-0.6872 l 0,-0.4115 c 0,-0.824 0.20538,-1.6029 0.61736,-2.3353 0.412,-0.7782 0.87078,-1.6016 1.37433,-2.4713 0.13734,-0.1831 0.54989,-0.3218 1.23654,-0.4134 0.68664,-0.1373 1.05115,-0.4334 1.09696,-0.89119 z m -100.57117,0.68539 c -0.27466,0.2289 -0.41158,0.4583 -0.41158,0.6872 0,0.092 0.0462,0.1822 0.13779,0.2738 l 0.136,0 c 0.0916,-0.046 0.20625,-0.068 0.34359,-0.068 0,-0.5036 -0.0685,-0.8014 -0.2058,-0.893 z m -11.81063,0.4116 4.94436,0 -4.94436,0 z m 94.73563,0.07 c -9.88787,0 -17.85247,1.0305 -23.89506,3.0905 l 0,0.6853 c 0.86977,0 1.67085,-0.045 2.40328,-0.136 0.73244,-0.1373 1.67044,-0.3205 2.81487,-0.5493 1.19021,-0.2747 2.08197,-0.4579 2.67708,-0.5494 0.64088,-0.1374 1.30504,-0.2058 1.9917,-0.2058 0.18311,0 0.3885,0.022 0.61738,0.068 0.27466,0 0.59652,0.022 0.96274,0.068 -0.0458,0.046 -0.22893,0.1382 -0.54937,0.2756 -0.32041,0.092 -0.50357,0.2747 -0.54938,0.5493 l 6.93428,-0.6191 c -0.5951,0.4577 -1.6478,0.7556 -3.15845,0.8929 -1.46486,0.091 -2.4251,0.2285 -2.88287,0.4116 3.15863,-0.1373 5.90418,-0.2965 8.23882,-0.4796 2.33464,-0.2289 4.53251,-0.5952 6.59248,-1.0987 -0.54933,-0.2747 -1.12102,-0.4116 -1.71613,-0.4116 -0.27466,0 -0.59653,0.044 -0.96274,0.136 -0.36621,0.046 -0.75475,0.116 -1.16674,0.2076 l -1.09875,0.2738 c -0.32044,0.046 -0.59428,0.068 -0.82317,0.068 l -0.61916,-0.4796 c 0.91554,-0.2747 1.87755,-0.4819 2.88466,-0.6192 1.05287,-0.1831 2.42565,-0.3662 4.11941,-0.5493 0.86976,-0.092 1.55615,-0.1601 2.0597,-0.2058 0.54932,-0.046 0.93965,-0.09 1.16854,-0.1361 l 0.27379,0.4116 c -0.2289,0.2747 -0.64143,0.5041 -1.23654,0.6872 l 3.14414,-0.1789 c -0.71085,-0.058 -1.28413,-0.1777 -1.70181,-0.3705 0.54932,-0.2289 1.07657,-0.3436 1.58012,-0.3436 0.36622,0 0.91569,0.068 1.64812,0.2058 0.73244,0.092 1.2819,0.1378 1.64812,0.1378 l 0.3418,0 c 0.1831,-0.046 0.39027,-0.092 0.61916,-0.1378 0.50355,0 0.75517,-0.2294 0.75517,-0.6871 -0.22889,-0.046 -0.41206,-0.068 -0.54938,-0.068 -0.0916,-0.046 -0.18403,-0.07 -0.27558,-0.07 -0.36622,0 -0.77698,0.069 -1.23475,0.2058 -0.45777,0.1373 -0.77784,0.2075 -0.96096,0.2075 -0.412,0 -0.80232,-0.1831 -1.16854,-0.5493 -2.05998,-0.046 -3.82128,-0.07 -5.28615,-0.07 -1.46487,-0.046 -2.6785,-0.068 -3.63983,-0.068 z m 8.22451,1.607 c 0.26191,0.021 0.54292,0.035 0.84463,0.038 -0.0973,-0.039 -0.2086,-0.066 -0.34895,-0.066 l -0.49568,0.029 z m 0.84463,0.038 c 0.22012,0.088 0.33822,0.2672 0.33822,0.5529 -0.41199,0.2747 -0.89301,0.4116 -1.44233,0.4116 -0.45777,0 -1.05348,-0.1369 -1.78592,-0.4116 -0.27466,0.1831 -0.59473,0.32 -0.96095,0.4116 -0.36622,0.046 -0.75475,0.092 -1.16675,0.1378 -0.36622,0.046 -0.7103,0.1142 -1.03074,0.2058 -0.32045,0.046 -0.59429,0.1605 -0.82317,0.3436 l 8.37661,-0.4116 c 0.0915,-0.3662 0.25249,-0.5494 0.48137,-0.5494 0.13733,0 0.29647,0.044 0.47959,0.136 0.22888,0.091 0.38981,0.1378 0.48137,0.1378 0.22888,0 0.34358,-0.2738 0.34358,-0.8232 -0.45777,-0.092 -1.0757,-0.1378 -1.85392,-0.1378 l -1.30454,0 c -0.047,0 -0.0863,0 -0.13242,0 z m 7.68586,-1.3708 c -0.45777,0 -0.77963,0.4348 -0.96274,1.3046 l 0.54937,0 c 0.32044,-0.046 0.6183,-0.4344 0.89296,-1.1668 -0.27469,-0.092 -0.43383,-0.1378 -0.47959,-0.1378 z m -122.75191,0.2058 0.20579,0.4134 0.41337,-0.4134 -0.61916,0 z m -9.20156,1.1685 c -0.32044,0 -0.6165,0.1147 -0.89116,0.3436 -0.22889,0.2289 -0.34358,0.5712 -0.34358,1.029 0,0.5035 0.25161,0.7552 0.75515,0.7552 0.22889,0 0.43427,-0.091 0.61738,-0.2738 l -0.75517,-0.6872 c 0.0458,-0.3204 0.48056,-0.4814 1.30454,-0.4814 0,-0.4578 -0.22939,-0.6854 -0.68716,-0.6854 z m 118.9743,0.3436 c -0.41199,0 -0.70806,0.069 -0.89117,0.2058 0.50355,0 0.79962,-0.068 0.89117,-0.2058 z m -86.28924,0.068 c 0.22888,0.1374 0.34358,0.3668 0.34358,0.6872 0,0.092 -0.0222,0.2285 -0.068,0.4116 l 0,0.3436 c 0,0.3204 0.29784,0.4795 0.89296,0.4795 l 0,-1.9219 -1.16854,0 z m 30.80787,0.068 -0.13779,0.1378 0.13779,0.4814 0.20579,0 -0.20579,-0.6192 z m 68.46054,0.2756 c -0.22889,0 -0.43604,0.1369 -0.61916,0.4116 -0.13732,0.2746 -0.27425,0.5947 -0.41158,0.9609 -0.0915,0.3205 -0.18224,0.6646 -0.2738,1.0308 -0.0458,0.3204 -0.0698,0.5258 -0.0698,0.6174 0.73244,-0.3663 1.19122,-1.3727 1.37432,-3.0207 z m -1.64812,0.2738 -0.41337,0.4134 c 0,0.4577 -0.13692,1.0979 -0.41158,1.9219 -0.27467,0.7782 -0.41158,1.3277 -0.41158,1.6481 0,0.412 0.11469,0.7321 0.34358,0.961 0.0458,-0.2289 0.092,-0.549 0.13779,-0.961 0.0916,-0.4578 0.16004,-0.9148 0.2058,-1.3725 0.0915,-0.5036 0.15997,-0.9846 0.20578,-1.4424 0.0916,-0.5035 0.20626,-0.8938 0.34358,-1.1685 z m -31.65609,0.7552 c -0.77821,0.2746 -1.96783,0.4818 -3.57003,0.6191 -1.73953,0.1373 -2.95317,0.3667 -3.63983,0.6872 l 3.84562,-0.4134 c 0.18311,-0.1373 0.43473,-0.2058 0.75517,-0.2058 0.18311,0 0.48095,0.046 0.89296,0.1378 0.41198,0.091 0.70984,0.1378 0.89295,0.1378 0.45776,0 0.73161,-0.3219 0.82316,-0.9627 z m -34.67496,0.07 c 0.0916,0.046 0.18224,0.1827 0.2738,0.4116 0.0915,0.1831 0.18402,0.4125 0.27558,0.6871 l 0.27379,0.6854 c 0.0915,0.1831 0.20625,0.2978 0.34358,0.3436 -0.27466,-1.0529 -0.6632,-1.7615 -1.16675,-2.1277 z m -0.61916,1.0289 c -0.0916,0.1831 -0.136,0.3441 -0.136,0.4814 0,0.2747 0.25162,0.7316 0.75516,1.3725 0,-0.7324 -0.20716,-1.3503 -0.61917,-1.8539 z m -35.47665,1.6481 c -0.22889,0.092 -0.52674,0.2063 -0.89296,0.3436 -0.32043,0.092 -0.47958,0.2525 -0.47958,0.4814 l 0.96096,-0.2756 c 0.32043,-0.1373 0.64052,-0.252 0.96095,-0.3436 -0.0915,-0.1373 -0.27471,-0.2058 -0.54937,-0.2058 z m 27.16804,0.5494 c -0.27466,0.5493 -0.64097,1.2357 -1.09874,2.0597 -0.45777,0.7782 -1.00724,1.694 -1.64813,2.7469 -0.64087,1.0529 -1.21256,2.0149 -1.71611,2.8846 -0.50356,0.8698 -0.93833,1.6709 -1.30454,2.4033 -0.73244,1.4191 -1.30413,2.9066 -1.71613,4.463 -0.13733,0.1831 -0.27425,0.4588 -0.41158,0.825 -0.13733,0.3204 -0.32048,0.6627 -0.54937,1.0289 -0.18311,0.3205 -0.43652,0.6183 -0.75696,0.893 -0.27466,0.2289 -0.61696,0.2973 -1.02896,0.2058 0,2.884 -0.5957,5.8367 -1.7859,8.858 -0.0458,0.6866 -0.1827,1.397 -0.41159,2.1295 -0.22889,0.7324 -0.57297,1.6704 -1.03074,2.8148 -0.412,1.1445 -0.73208,2.1509 -0.96096,3.0207 -0.22889,0.8698 -0.34358,1.6486 -0.34358,2.3353 0,1.8311 0.91578,3.1816 2.74687,4.0514 0,-0.9156 0.22938,-2.1514 0.68716,-3.7078 0.50355,-1.7853 0.75516,-3.2044 0.75516,-4.2572 -0.22888,0.092 -0.38981,0.3431 -0.48137,0.7551 -0.0915,0.412 -0.2507,0.6858 -0.47958,0.8232 -0.13734,-0.2747 -0.20579,-0.617 -0.20579,-1.029 0,-0.1831 0.0222,-0.4809 0.068,-0.8929 0.0916,-0.412 0.16004,-0.8246 0.20579,-1.2366 0.0916,-0.4577 0.16004,-0.9147 0.20579,-1.3725 0.0915,-0.4578 0.13779,-0.8481 0.13779,-1.1685 0,-1.236 0.18316,-2.3794 0.54937,-3.4323 0.412,-1.0529 0.98369,-2.335 1.71612,-3.8456 0.36622,-0.7782 0.68809,-1.4424 0.96275,-1.9917 0.27466,-0.5951 0.48004,-1.0983 0.61738,-1.5103 0.0915,-0.3205 0.36538,-0.6868 0.82316,-1.0988 0.50355,-0.4578 0.75517,-0.8703 0.75517,-1.2365 0,-0.1831 -0.0685,-0.4107 -0.20579,-0.6854 0.27466,-1.3275 0.8019,-1.9917 1.58012,-1.9917 -0.0458,0 0.11336,0.046 0.47958,0.1378 0,-0.4578 0.0925,-0.8943 0.27558,-1.3063 0.22889,-0.4578 0.4805,-0.8926 0.75516,-1.3046 0.27467,-0.4578 0.50406,-0.8925 0.68717,-1.3045 0.22889,-0.412 0.34358,-0.8228 0.34358,-1.2348 0.54933,-0.3662 0.91564,-0.7787 1.09875,-1.2365 0.1831,-0.4578 0.41071,-1.2126 0.68537,-2.2655 0.27467,-0.9613 0.59652,-1.718 0.96275,-2.2673 l -0.002,0 c -0.13733,-0.1373 -0.20579,-0.4111 -0.20579,-0.8231 l 0,-0.4116 c 0,-0.5494 -0.25161,-0.825 -0.75517,-0.825 z m -69.584357,0.07 c 0,0.2289 -0.0222,0.5027 -0.068,0.8232 l 0,0.6174 c 0,0.5493 0.16094,0.9156 0.48137,1.0987 0.0915,-0.2747 0.136,-0.5485 0.136,-0.8232 0,-0.5035 -0.18315,-1.0752 -0.54938,-1.7161 z m 147.176677,0.4796 c -0.1831,0 -0.45694,0.069 -0.82317,0.2058 -0.36618,0.092 -0.57156,0.1378 -0.61737,0.1378 0.36622,0.1831 0.77698,0.2756 1.23475,0.2756 0.36622,0 0.66408,-0.1388 0.89296,-0.4134 -0.22888,-0.1373 -0.45828,-0.2058 -0.68717,-0.2058 z m -178.075808,0.2756 0,2.5411 0.20579,0 0,-2.5411 -0.20579,0 z m 166.059388,2.8149 c -0.91555,0.6866 -1.78509,1.5339 -2.60908,2.541 -0.82399,0.9613 -1.80824,2.1287 -2.95267,3.5021 -1.14443,1.4648 -2.12866,2.5638 -2.95265,3.2962 -0.0916,0.1373 -0.34317,0.4112 -0.75517,0.8232 -0.36622,0.412 -0.54937,0.732 -0.54937,0.9609 0,0.1374 0.11468,0.3205 0.34357,0.5494 0.0916,0.092 0.20625,0.1378 0.34358,0.1378 0.18311,0 0.4125,-0.092 0.68717,-0.2756 l 0.41158,-0.2738 c 0.22888,-0.3204 0.57118,-0.7552 1.02895,-1.3045 0.45778,-0.5493 1.03126,-1.2135 1.71791,-1.9917 1.4191,-1.648 2.51804,-2.9523 3.29625,-3.9136 l 1.09696,-1.5104 c 0.36622,-0.5493 0.71031,-1.0765 1.03075,-1.5801 0.18311,-0.2289 0.27558,-0.4565 0.27558,-0.6854 0,-0.1831 -0.13871,-0.2755 -0.41336,-0.2755 z m -164.617058,0.2057 0,1.3744 0.20579,0 0,-1.3744 -0.20579,0 z m 30.96892,0.2058 0,0.961 0.2058,-0.2058 c 0,-0.5035 -0.0685,-0.7552 -0.2058,-0.7552 z m 112.843508,0.07 c -0.73243,0 -1.19121,0.2054 -1.37433,0.6174 l 0,7.4157 c 0.73244,0 1.19123,-0.1592 1.37433,-0.4796 l 0,-7.5535 z m -2.33528,0.6174 c -0.91554,0 -1.44279,0.1832 -1.58012,0.5494 0.0915,1.0529 0.16177,2.174 0.20758,3.3642 0.0916,1.1902 0.136,2.4501 0.136,3.7776 0,0.6867 -0.0222,1.3731 -0.068,2.0597 0,0.6867 -0.0222,1.4416 -0.068,2.2655 0,0.7782 -0.0462,1.6718 -0.13779,2.6789 -0.0458,1.0071 -0.092,2.1967 -0.13779,3.57 -0.0916,1.3276 -0.16005,2.471 -0.20579,3.4323 0,0.9155 -0.0222,1.6482 -0.068,2.1975 -0.0457,0.5493 -0.0698,1.145 -0.0698,1.7859 l 0,2.0597 c 0,1.8769 0.0685,3.7991 0.20579,5.7675 1.14443,1.8311 2.45053,2.7469 3.9154,2.7469 0,-0.7325 0.13692,-1.0988 0.41158,-1.0988 0.22889,0.092 0.34358,0.2988 0.34358,0.6192 0.0458,0.2746 0.11425,0.4338 0.2058,0.4796 l 0.75516,-0.6854 0.68717,1.4406 0.54758,-0.4116 c -0.22889,-0.092 -0.34179,-0.2525 -0.34179,-0.4814 0,-0.046 0.0222,-0.1827 0.068,-0.4116 0.0458,-0.2746 0.068,-0.5725 0.068,-0.8929 -0.22888,-1.0071 -0.34179,-2.1745 -0.34179,-3.5021 l 0,-2.1277 c 0,-1.7395 -0.18316,-3.0901 -0.54938,-4.0514 l 0.41159,8.2406 -0.41159,0.136 c -0.0915,-0.6866 -0.16177,-1.4193 -0.20758,-2.1975 -0.0457,-0.7782 -0.068,-1.6237 -0.068,-2.5393 -0.0916,-0.6866 -0.18223,-1.3286 -0.27379,-1.9237 -0.0457,-0.6408 -0.0698,-1.2125 -0.0698,-1.7161 0,-0.824 0.0685,-2.1061 0.20579,-3.8456 0.13733,-1.6938 0.20579,-2.9758 0.20579,-3.8456 0,-1.9684 -0.2276,-3.5021 -0.68537,-4.6008 l -0.54938,0.4814 c -0.18311,-0.2289 -0.4125,-0.7784 -0.68716,-1.6482 -0.18311,-0.8239 -0.48096,-1.3494 -0.89296,-1.5783 0,0.2289 0.0462,0.549 0.13779,0.961 0.0916,0.412 0.18225,0.893 0.27379,1.4423 0.0916,0.5493 0.18404,1.121 0.27558,1.7161 0.0916,0.5494 0.18225,1.0748 0.2738,1.5784 0.13733,1.0528 0.20758,2.0371 0.20758,2.9526 -0.13733,-0.1831 -0.27603,-0.5716 -0.41337,-1.1667 -0.0915,-0.5951 -0.2507,-0.9837 -0.47958,-1.1668 0.18313,1.9684 0.29783,3.7538 0.34358,5.356 0.0916,1.6022 0.136,3.0674 0.136,4.395 0,1.3733 -0.0444,2.8145 -0.136,4.3252 -0.0916,1.5106 -0.23026,3.0665 -0.41338,4.6687 l -0.47956,-0.3436 c 0.27466,-2.7924 0.41157,-5.6527 0.41157,-8.5824 0,-5.2644 -0.41253,-10.9645 -1.23653,-17.0986 0.27466,-0.8698 0.41337,-2.0594 0.41337,-3.57 0,-0.3205 -0.024,-0.6868 -0.0698,-1.0988 0,-0.4578 -0.0222,-1.0072 -0.068,-1.6481 -0.0457,-0.6409 -0.092,-1.1903 -0.13779,-1.6481 l 0,-1.1668 z m -97.17651,0.1933 c -0.28325,0.043 -0.4768,0.2522 -0.5798,0.6299 -0.13736,0.5035 -0.22983,1.077 -0.27559,1.7179 -0.0458,0.6409 -0.13646,1.2588 -0.27379,1.8539 -0.0916,0.5951 -0.34317,0.9374 -0.755158,1.029 0.640878,1.0528 0.960948,2.2442 0.960948,3.5718 0,0.3662 -0.0462,0.8232 -0.13779,1.3725 -0.0458,0.5036 -0.11423,1.0753 -0.20579,1.7161 -0.0915,0.6409 -0.15998,1.2144 -0.20579,1.718 -0.0457,0.4577 -0.068,0.8685 -0.068,1.2347 0,1.1444 0.20538,2.1971 0.61736,3.1584 0.27467,0.3663 0.41159,0.801 0.41159,1.3046 0,0.3662 -0.1147,0.8935 -0.34359,1.5801 -0.1831,0.6867 -0.27379,1.1677 -0.27379,1.4423 0,0.4578 0.22939,0.8464 0.68717,1.1668 0.0915,0.1831 0.18224,0.4347 0.27379,0.7551 0.0915,0.3205 0.18403,0.733 0.27558,1.2366 0.22889,0.9155 0.50273,1.5112 0.82317,1.7859 -0.13733,-0.3204 -0.20579,-0.6183 -0.20579,-0.893 0,-0.2746 0.0907,-0.5725 0.27379,-0.8929 0.18311,-0.3662 0.36627,-0.7103 0.54937,-1.0308 0.22889,-0.3662 0.43606,-0.6863 0.61917,-0.9609 0.1831,-0.3204 0.27379,-0.5721 0.27379,-0.7552 l -0.47959,0.7552 -0.48137,-0.4116 c 0.22888,-0.5493 0.34358,-1.0766 0.34358,-1.5801 0.0916,-0.4578 -0.0231,-0.937 -0.34358,-1.4406 -0.32044,-0.5493 -0.68674,-1.0765 -1.09875,-1.5801 -0.36621,-0.5493 -0.70851,-1.0525 -1.02895,-1.5103 -0.32045,-0.5036 -0.43514,-0.9623 -0.34358,-1.3743 0,-0.4578 0.0907,-0.8686 0.27379,-1.2348 0.41199,-0.412 0.73207,-1.3518 0.96095,-2.8166 0.0916,-0.6867 0.18404,-1.2584 0.27558,-1.7162 0.0916,-0.5035 0.18224,-0.9143 0.2738,-1.2347 0.1831,-0.5951 0.73257,-1.1001 1.64812,-1.5121 0.32044,-1.236 0.48137,-2.6088 0.48137,-4.1195 0,-1.1444 -0.0925,-2.0602 -0.27558,-2.7468 l -0.89117,0.2058 c -0.50354,-0.2747 -0.98455,-0.4116 -1.44233,-0.4116 -0.11444,-0.023 -0.21874,-0.027 -0.31315,-0.012 z m -68.732548,0.081 0.068,1.7179 0.20579,-1.3743 -0.27379,-0.3436 z m 134.460548,0.07 0.41158,2.0597 0.54938,-0.2756 -0.96096,-1.7841 z m -61.91281,0.068 0,3.2962 0.20579,0 0,-3.2962 -0.20579,0 z m -21.404098,0.2058 0.75517,0.2058 -0.20758,-0.2058 -0.54759,0 z m 2.74507,0.4133 0.2058,0.8232 0,-0.8232 -0.2058,0 z m 115.110788,0.2738 -0.1378,5.424 c 0.0916,0.2289 0.2525,0.3898 0.48138,0.4814 0.27466,0.046 0.52628,0.1142 0.75516,0.2058 0.13734,-0.1374 0.2058,-0.2521 0.2058,-0.3436 0,-0.2289 -0.2294,-0.5028 -0.68717,-0.8232 0,-0.2747 -0.0222,-0.5725 -0.068,-0.893 l 0,-0.6871 c 0,-0.5951 0.25162,-0.893 0.75517,-0.893 0,-1.1444 -0.13692,-1.7623 -0.41159,-1.8539 l -0.27558,0.9628 c -0.27466,-0.1374 -0.41158,-0.3908 -0.41158,-0.757 l 0,-0.2738 c 0,-0.2747 -0.0685,-0.4578 -0.20579,-0.5494 z m -153.701148,0.2738 -0.20579,0.6872 c 1.28176,1.2818 2.266,2.0144 2.95266,2.1975 -0.64088,-1.0071 -1.55666,-1.9691 -2.74687,-2.8847 z m 9.88872,2.1975 0,1.7358 c 0.0426,-0.2073 0.068,-0.4373 0.068,-0.705 0,-0.1831 -0.0222,-0.5272 -0.068,-1.0308 z m 0,1.7358 c -0.11037,0.5373 -0.35881,0.879 -0.75516,1.0111 0,1.236 0.25162,1.9001 0.75516,1.9917 l 0,-3.0028 z m 146.901088,-1.3224 0.27558,0.6854 0.13779,-0.2058 -0.41337,-0.4796 z m 15.93185,0.2058 c -0.13734,0.3204 -0.50365,0.4796 -1.09875,0.4796 l -5.90532,6.3867 c 0.36624,0.092 0.57162,0.1378 0.61738,0.1378 0.68665,0 1.62465,-0.5273 2.81486,-1.5802 l -0.89117,-0.8231 c 0.36622,0 0.64006,-0.1147 0.82317,-0.3436 0.18311,-0.2289 0.36627,-0.4805 0.54937,-0.7552 0.18312,-0.3204 0.36627,-0.596 0.54938,-0.8249 0.1831,-0.2289 0.45695,-0.3436 0.82316,-0.3436 -0.13733,-0.1831 -0.20579,-0.3663 -0.20579,-0.5494 -0.0915,-0.2289 -0.0453,-0.3658 0.13779,-0.4116 0.18311,-0.091 0.38849,-0.1378 0.61738,-0.1378 0.27466,-0.046 0.52628,-0.068 0.75517,-0.068 0.22889,-0.046 0.38981,-0.1364 0.48137,-0.2738 0.13732,-0.1373 0.20579,-0.276 0.20579,-0.4133 0,-0.2747 -0.0907,-0.4339 -0.27379,-0.4796 z m -169.768998,0.4116 0.20758,0.7551 c 0.18311,-0.046 0.27379,-0.2289 0.27379,-0.5493 -0.13733,-0.1374 -0.29826,-0.2058 -0.48137,-0.2058 z m 54.090938,0.068 0,0.9627 0.20579,0 0,-0.9627 -0.20579,0 z m 63.90272,0.8929 c 0,0.9156 0.27563,1.4428 0.82495,1.5802 l -0.82495,-1.5802 z m -64.1103,0.7552 0.20758,0.7552 0,-0.4796 -0.20758,-0.2756 z m 98.85684,0.5494 0.20579,1.1685 0,-0.6192 -0.20579,-0.5493 z m -98.44347,1.1685 c -0.22888,0.824 -0.61921,1.3495 -1.16854,1.5783 0.13733,0.1374 0.27604,0.2058 0.41337,0.2058 0.0916,0 0.20447,-0.046 0.3418,-0.1378 0.1831,-0.1373 0.32181,-0.228 0.41337,-0.2738 0.13733,0.5036 0.20579,1.0993 0.20579,1.786 0,0.4964 -0.0185,0.9521 -0.0519,1.3707 l 0.18968,-0.7534 c 0.13736,-0.412 0.22804,-0.8005 0.2738,-1.1667 0.0915,-0.3662 0.13779,-0.6641 0.13779,-0.893 0,-0.6409 -0.25163,-1.2125 -0.75517,-1.7161 z m 0.1539,4.5292 -0.0859,0.3454 c -0.0458,0.3662 -0.068,0.64 -0.068,0.8231 0.0696,-0.3481 0.11957,-0.7379 0.1539,-1.1685 z m 28.61575,-4.5292 c -0.27466,0.046 -0.50226,0.1827 -0.68538,0.4116 -0.1831,0.2289 -0.39028,0.4805 -0.61916,0.7551 -0.15397,0.1925 -0.33261,0.3856 -0.51896,0.5781 0.17318,-0.108 0.34579,-0.2279 0.51896,-0.3723 0.27466,-0.2288 0.52629,-0.4582 0.75517,-0.6871 0.22889,-0.2289 0.41204,-0.4565 0.54937,-0.6854 z m -1.8235,1.7448 c -0.10149,0.063 -0.20271,0.1264 -0.30421,0.1771 -0.27466,0.1374 -0.48004,0.2058 -0.61736,0.2058 0.32042,0 0.59426,-0.091 0.82315,-0.2738 0.0364,-0.036 0.0632,-0.073 0.0984,-0.1091 z m 69.50561,-1.7448 c -0.64087,0 -1.28282,0.2516 -1.92371,0.7552 l 0.48137,0 c 0.13734,-0.1373 0.41119,-0.2298 0.82317,-0.2756 0.41202,-0.046 0.61917,-0.2049 0.61917,-0.4796 z m -32.75484,0.2738 0.48138,1.5801 0,-0.4814 -0.48138,-1.0987 z m -65.55084,0.6872 c -0.54931,0.3662 -0.82495,0.8472 -0.82495,1.4423 0,0.2747 0.0462,0.5023 0.13779,0.6854 l 0.68716,-2.1277 z m 20.66862,0 0.75516,0.4115 0,-0.2058 -0.75516,-0.2057 z m 96.03839,0.4115 c -0.73244,0.2289 -1.28191,0.7784 -1.64812,1.6482 -0.36622,0.824 -0.73074,1.625 -1.09696,2.4033 l 1.16675,-0.5494 c 0,-0.1374 0.0907,-0.3205 0.27379,-0.5494 0.22888,-0.2747 0.43606,-0.5263 0.61917,-0.7552 0.22889,-0.2746 0.43427,-0.5262 0.61737,-0.7551 0.18311,-0.2747 0.2738,-0.5263 0.2738,-0.7552 0,-0.1831 -0.0685,-0.4125 -0.2058,-0.6872 z m -91.43939,0.2058 -0.3418,0.2756 2.1957,0 -1.8539,-0.2756 z m 40.90238,0.7552 0.34358,0.893 0,-0.2738 -0.34358,-0.6192 z m -135.902867,0.1378 0,0.7552 0.13779,0 0,-0.7552 -0.13779,0 z m 89.644537,0.068 -0.2058,0.9609 c 0.412,1.0529 0.61917,2.2665 0.61917,3.6399 0,0.2746 -0.024,0.6187 -0.0698,1.0307 0,0.3662 -0.0222,0.777 -0.068,1.2348 0,0.412 -0.0222,0.8245 -0.068,1.2365 l 0,0.893 c 0,1.6937 0.32008,3.1349 0.96095,4.3251 0.36622,0.2289 0.82323,0.3436 1.37254,0.3436 0.27467,0 0.73345,-0.044 1.37433,-0.136 0.64089,-0.1373 1.12011,-0.2076 1.44055,-0.2076 -0.0458,-0.4577 -0.27338,-1.0294 -0.68539,-1.7161 -0.36624,-0.7324 -0.57342,-1.3281 -0.61916,-1.7859 -0.0916,-0.091 -0.22848,-0.136 -0.41159,-0.136 -0.1831,0 -0.43472,0.1832 -0.75516,0.5494 -0.27467,0.3662 -0.59474,0.5494 -0.96096,0.5494 -0.50355,-0.9156 -0.75517,-1.9923 -0.75517,-3.2283 0,-2.1973 0.6864,-4.3027 2.05971,-6.3169 l -3.22824,-1.2365 z m -92.529197,0.2756 c -0.91555,0.6866 -1.37254,1.7615 -1.37254,3.2264 0,0.2747 0.0222,0.6188 0.068,1.0308 0.0458,0.3662 0.092,0.7325 0.13779,1.0987 0.0458,0.3205 0.092,0.6405 0.13779,0.961 0.0916,0.2746 0.13779,0.4355 0.13779,0.4813 l 0.41159,-0.3435 c 0.18308,0 0.29777,0.091 0.34358,0.2737 0.0458,0.1832 0.11423,0.2756 0.20579,0.2756 0.13733,-0.5951 0.20579,-1.3277 0.20579,-2.1975 0,-0.6866 -0.0462,-1.5339 -0.13779,-2.541 -0.0915,-1.0529 -0.13779,-1.8078 -0.13779,-2.2655 z m 186.303877,0.8231 -0.20579,0.6872 0.20579,0 0.068,-0.6872 -0.068,0 z m -114.71709,0.4116 c -0.0458,0.3662 -0.20671,1.0082 -0.48137,1.9237 -0.22889,0.9156 -0.29735,1.7851 -0.2058,2.6091 0.0458,0.3662 0.25295,0.7325 0.61917,1.0987 0.41199,0.3205 0.75429,0.4814 1.02896,0.4814 0.13733,0 0.20579,-0.07 0.20579,-0.2076 -1.0071,-0.1831 -1.51033,-0.7548 -1.51033,-1.7161 0,-0.3662 0.0685,-0.9157 0.20579,-1.6481 0.1831,-0.7782 0.27558,-1.3499 0.27558,-1.7161 0,-0.3663 -0.0462,-0.6419 -0.13779,-0.825 z m 1.16675,0.5494 0.13779,0.8249 0,-0.4813 -0.13779,-0.3436 z m 110.1861,0 0,0.4814 c 0.68665,0.1373 1.09742,0.2058 1.23474,0.2058 0.50356,0 0.94013,-0.137 1.30633,-0.4116 l -2.54107,-0.2756 z m -128.156167,0.2756 c -0.22889,0.2288 -0.34358,0.4342 -0.34358,0.6173 0,0.2289 0.13692,0.549 0.41159,0.961 0.27465,0.412 0.41157,0.6654 0.41157,0.757 l -0.47958,-2.3353 z m -53.1944,0.2362 c -0.0858,0 -0.18153,0.015 -0.28453,0.038 -0.13734,0.6866 -0.20579,1.1214 -0.20579,1.3045 0,0.4578 0.18315,0.7556 0.54938,0.893 -0.22889,0.5493 -0.34359,1.1228 -0.34359,1.7179 0,0.2746 0.0241,0.641 0.0698,1.0987 0.0916,0.412 0.18224,0.8468 0.2738,1.3046 0.13729,0.4577 0.22977,0.9147 0.27558,1.3725 0.0915,0.4578 0.136,0.8241 0.136,1.0987 0,1.0071 -0.32008,1.8305 -0.96096,2.4713 -0.50355,-0.2746 -0.75516,-0.9148 -0.75516,-1.9219 0,-0.2289 0.024,-0.5952 0.0698,-1.0987 0.0458,-0.5494 0.068,-0.9619 0.068,-1.2366 0,-0.8697 -0.13692,-1.5099 -0.41159,-1.9219 l 0,3.7078 c -0.13733,0.2747 -0.32048,0.4116 -0.54937,0.4116 -0.0916,0 -0.22847,-0.022 -0.41159,-0.068 -0.1831,-0.092 -0.34404,-0.1378 -0.48137,-0.1378 l -0.82495,-7.965 c -0.36622,0.5036 -0.93791,0.7552 -1.71613,0.7552 0,0.5951 0.024,1.213 0.0698,1.8539 0.0915,0.6409 0.18224,1.3513 0.27378,2.1295 0.0916,0.7782 0.16005,1.4646 0.2058,2.0597 0.0915,0.5493 0.13779,1.0063 0.13779,1.3725 0,0.1831 -0.0222,0.4125 -0.068,0.6872 0,0.2747 -0.024,0.6187 -0.0698,1.0307 l 5.83732,0.7552 c -0.22889,-0.092 -0.34358,-0.2525 -0.34358,-0.4814 0,-0.2746 -0.0462,-0.5262 -0.13779,-0.7551 0,-0.092 0.0684,-0.1841 0.20579,-0.2756 0.18311,-0.1373 0.34404,-0.2058 0.48137,-0.2058 0,-0.1373 -0.0462,-0.389 -0.13779,-0.7552 -0.0458,-0.412 -0.11424,-0.8467 -0.20579,-1.3045 -0.0458,-0.5036 -0.11424,-0.9846 -0.20579,-1.4423 -0.0458,-0.4578 -0.068,-0.8241 -0.068,-1.0988 0,-1.0529 0.20538,-1.9224 0.61737,-2.6091 -0.13733,-0.1831 -0.20579,-0.4347 -0.20579,-0.7551 0,-0.3662 -0.024,-0.7085 -0.0698,-1.029 -0.0458,-0.3204 -0.13646,-0.572 -0.27379,-0.7552 -0.103,-0.1716 -0.28294,-0.2537 -0.54043,-0.2451 z m 172.972177,0.1754 c 0,0.8239 0.11469,1.2827 0.34358,1.3743 0,-0.5493 -0.1147,-1.0081 -0.34358,-1.3743 z m -55.06979,0.4115 c -0.64088,0 -1.07565,0.2294 -1.30454,0.6872 -0.18311,0.4578 -0.34225,1.0535 -0.47959,1.7859 l 0.89296,0 c 0.41199,0 0.70806,-0.069 0.89117,-0.2058 l 0,-2.2673 z m 23.89686,0 c 0.0915,0.7782 0.3894,1.1686 0.89295,1.1686 l 0,-0.5494 c -0.22889,-0.412 -0.52674,-0.6192 -0.89295,-0.6192 z m -1.09875,0.2756 1.09875,2.1975 0,-0.5494 -1.09875,-1.6481 z m 39.27574,0 c -0.73243,0 -1.09875,0.1369 -1.09875,0.4116 0,0.092 0.1147,0.2525 0.34359,0.4814 0.27466,0 0.59473,0.022 0.96095,0.068 l 0.75696,0 c 0.5951,0 0.9374,-0.1369 1.02896,-0.4116 -0.13734,-0.1373 -0.2058,-0.252 -0.2058,-0.3436 -0.68666,-0.1373 -1.28235,-0.2058 -1.78591,-0.2058 z m -107.29965,0.1378 -0.75696,3.0887 0.34359,-0.6174 0.41337,-2.4713 z m 66.16999,0.4116 c 0.0916,0.091 0.22848,0.3894 0.41159,0.8929 0.1831,0.5036 0.48096,0.7552 0.89295,0.7552 l -0.41158,-1.0987 c -0.0916,-0.3663 -0.3894,-0.5494 -0.89296,-0.5494 z m -68.02391,0.8231 -0.27558,1.4424 0.48137,0 c 0,-0.1374 0.0685,-0.3205 0.2058,-0.5494 0.1831,-0.2289 0.27379,-0.388 0.27379,-0.4796 0,-0.1373 -0.0685,-0.276 -0.20579,-0.4134 l -0.47959,0 z m 111.90043,0.1378 c -0.5951,0 -1.12055,0.2294 -1.57832,0.6872 l 0.61737,0.7552 c 0.13733,-0.1374 0.34271,-0.3205 0.61737,-0.5494 0.32044,-0.2747 0.66454,-0.4116 1.03075,-0.4116 -0.13733,-0.3204 -0.36672,-0.4814 -0.68717,-0.4814 z m -11.94663,0.1378 c 0,0.6867 -0.024,1.3731 -0.0698,2.0597 l 0,1.1668 c 0,0.5035 0.11469,0.8698 0.34358,1.0987 -0.18311,-0.3204 -0.27379,-0.7312 -0.27379,-1.2347 0,-0.2747 0.0444,-0.641 0.136,-1.0988 0.0916,-0.4577 0.13779,-0.7796 0.13779,-0.9627 0,-0.3662 -0.0907,-0.7085 -0.27379,-1.029 z m 7.55165,0 c 0.5951,1.5565 1.51088,3.0439 2.74687,4.463 1.23598,1.4191 2.61055,2.9991 4.12119,4.7386 1.51065,1.648 2.58557,3.1354 3.22646,4.463 0.68665,0.2747 1.5562,1.0757 2.60907,2.4033 0.54933,0.6409 1.03033,1.1903 1.44233,1.6481 0.412,0.4578 0.77831,0.8463 1.09875,1.1667 0.5951,0.5494 1.51088,0.825 2.74687,0.825 l -0.20579,-0.893 c -0.59511,-0.5035 -1.14457,-0.9845 -1.64813,-1.4423 -0.45777,-0.4578 -0.91655,-0.9388 -1.37432,-1.4423 -0.824,-0.9613 -2.01362,-2.4266 -3.57003,-4.395 -1.51065,-1.9226 -2.83898,-3.5008 -3.98341,-4.7368 -1.09866,-1.2818 -2.26427,-2.4047 -3.50025,-3.366 -0.18311,-0.046 -0.39027,-0.1827 -0.61916,-0.4116 -0.18311,-0.2747 -0.36627,-0.5725 -0.54937,-0.893 -0.18311,-0.3204 -0.36627,-0.6165 -0.54938,-0.8911 -0.18311,-0.3205 -0.34225,-0.5499 -0.47958,-0.6872 -0.27467,-0.3662 -0.77969,-0.5494 -1.51212,-0.5494 z m -124.927917,0.2738 0.27378,2.2673 0,-0.5494 -0.27378,-1.7179 z m 132.275567,0.4134 2.95266,3.8438 -0.47959,-1.7841 -2.47307,-2.0597 z m -131.039037,0.136 -0.20758,4.9444 -0.47958,0.2058 -0.27559,-1.5784 -0.27378,3.0887 1.78591,0 c -0.27467,-0.6867 -0.41338,-1.6931 -0.41338,-3.0207 l 0,-1.5801 c 0,-0.4578 -0.0223,-0.8463 -0.068,-1.1667 0,-0.3663 -0.0222,-0.6641 -0.068,-0.893 z m 0.54938,6.6605 0.75516,0 -0.2058,-3.7078 c 0,1.4648 -0.18315,2.7007 -0.54936,3.7078 z m 39.875217,-6.5227 0.20579,0.6872 0,-0.2756 -0.20579,-0.4116 z m 20.57556,0.4814 c -0.54933,0.412 -0.82317,1.4184 -0.82317,3.0206 0.9613,0 1.46452,-0.022 1.51033,-0.068 0,-0.5035 0.25162,-0.7569 0.75517,-0.7569 l 0.75517,0 c 0.41199,0 0.68582,-0.1129 0.82316,-0.3418 0.13733,0.092 0.50364,0.2507 1.09874,0.4796 0.64089,0.1831 1.03122,0.4125 1.16855,0.6871 0.22889,0 0.63964,-0.068 1.23474,-0.2058 0.5951,-0.1831 1.07611,-0.2755 1.44233,-0.2755 0.68666,0 1.23613,0.2293 1.64813,0.6871 -0.22889,0.2747 -0.54897,0.4116 -0.96096,0.4116 l 6.59248,0.3436 c 0,-0.1831 0.0907,-0.3423 0.27379,-0.4796 0.18311,-0.1831 0.3885,-0.2756 0.61738,-0.2756 l 0.13779,0.2058 c 0.13733,0.1373 0.20579,0.2743 0.20579,0.4116 -0.0916,0.091 -0.27471,0.1378 -0.54937,0.1378 l 1.44233,0.6174 c 0.22888,-0.046 0.4805,-0.068 0.75516,-0.068 0.32044,-0.046 0.66453,-0.068 1.03075,-0.068 0.412,0 0.86899,0.022 1.37253,0.068 0.54933,0.046 1.0988,0.1142 1.64813,0.2057 0.54932,0.046 1.07657,0.092 1.58012,0.1378 0.50355,0.046 0.9143,0.068 1.23475,0.068 0.86977,0 1.71709,-0.1147 2.54108,-0.3436 -0.27467,-0.1373 -0.70943,-0.2057 -1.30453,-0.2057 l -0.61739,0 c -0.77821,0 -1.32767,-0.137 -1.64812,-0.4116 0.59511,0 0.96141,-0.2054 1.09875,-0.6174 0.13733,-0.4578 0.29648,-0.8703 0.47958,-1.2365 0.18311,-0.3205 0.43473,-0.4796 0.75517,-0.4796 0.22889,0 0.59519,0.1591 1.09875,0.4796 0.50354,0.2746 0.91609,0.4115 1.23654,0.4115 0.54933,0 1.18948,0.024 1.92191,0.07 l 1.51212,0 c 2.4262,0 3.84521,-0.801 4.25721,-2.4032 -0.6409,0.046 -1.51045,0.09 -2.60909,0.136 l -3.91541,0 -6.79649,0 0,0 c -1.23598,0.092 -2.5643,0.1822 -3.9834,0.2737 -1.4191,0.046 -2.92879,0.068 -4.531,0.068 -2.05997,0 -4.30407,-0.044 -6.73027,-0.136 -2.38041,-0.1373 -4.96682,-0.3204 -7.75923,-0.5493 z m 37.35383,0.9609 c -0.0458,0.1374 -0.25116,0.3427 -0.61738,0.6174 -0.36621,0.2289 -0.54937,0.412 -0.54937,0.5494 0,0.046 0.0462,0.1142 0.1378,0.2058 l 1.44232,-1.3726 -0.41337,0 z m -128.429957,0.068 0.41158,5.6995 c 0.36622,-0.5951 0.54937,-1.2592 0.54937,-1.9917 0,-0.5035 -0.0907,-1.1437 -0.27379,-1.9219 -0.18311,-0.824 -0.27558,-1.4197 -0.27558,-1.7859 l -0.41158,0 z m -50.0449005,0.4814 c -0.27466,0.4578 -0.61875,0.8925 -1.03074,1.3045 -0.36623,0.412 -0.54938,0.8006 -0.54938,1.1668 0,0.412 0.18315,0.8467 0.54938,1.3045 0.36622,0 0.61963,-0.091 0.75695,-0.2738 l 0.61737,-0.6191 c 0.0916,-0.092 0.18224,-0.136 0.2738,-0.136 0.13733,0 0.32048,0.068 0.54937,0.2057 0.22889,0.092 0.38982,0.136 0.48137,0.136 0,-0.5035 0.0685,-0.7551 0.2058,-0.7551 0.0458,0 0.16046,0.024 0.34358,0.07 l 0.41158,0 c 0.36622,0 0.5956105,-0.1832 0.6871705,-0.5494 -0.4577805,-0.2747 -1.0294705,-0.641 -1.7161305,-1.0988 -0.64087,-0.5035 -1.16812,-0.7551 -1.58012,-0.7551 z m 97.1979775,0.068 c -0.27466,0.1373 -0.41158,0.709 -0.41158,1.7161 l 0.41158,-1.7161 z m 112.79519,0.07 c -0.50356,0 -0.75517,0.1591 -0.75517,0.4796 0.50355,0.5035 1.14371,1.2139 1.92192,2.1295 0.77821,0.9155 1.71621,2.0367 2.81487,3.3642 1.14443,1.2818 2.15267,2.4252 3.02244,3.4323 0.86977,1.007 1.62461,1.9006 2.2655,2.6788 0.64088,0.7324 1.30504,1.4651 1.99171,2.1975 0.73243,0.6867 1.46505,1.3953 2.19749,2.1277 0.32044,-0.092 0.47958,-0.2044 0.47958,-0.3418 0.0458,-0.1831 0.11424,-0.3662 0.20579,-0.5494 l 0.41337,0.136 c 0.36622,0 0.73254,-0.1831 1.09875,-0.5493 0.13733,-0.1374 0.20579,-0.3205 0.20579,-0.5494 0,-0.3204 -0.13692,-0.5258 -0.41158,-0.6174 -0.41199,0 -0.70984,0.2054 -0.89296,0.6174 -0.41199,0 -0.7783,-0.1369 -1.09874,-0.4116 -0.32047,-0.2747 -0.50363,-0.4338 -0.54938,-0.4796 -0.73245,-0.2288 -1.32814,-0.5729 -1.78591,-1.0307 -0.41201,-0.4578 -0.98369,-1.1682 -1.71613,-2.1295 -0.77821,-1.0071 -1.42015,-1.6935 -1.9237,-2.0597 l 0.0698,-0.2738 3.15845,3.0207 -9.61315,-11.1915 0.54938,1.0987 c -0.32044,0 -0.68674,-0.1831 -1.09875,-0.5493 l -0.54936,-0.5494 z m -186.989267,0.4796 0,1.5103 0.2058,0 0,-1.5103 -0.2058,0 z m 95.549867,0.2755 0.13779,0.5494 0.41159,-0.4133 c -0.0916,-0.092 -0.27471,-0.1361 -0.54938,-0.1361 z m 96.17797,0 c 0.21793,0.3814 0.44587,0.7409 0.68001,1.0898 -0.22657,-0.3628 -0.44963,-0.7117 -0.68001,-1.0898 z m 0.68001,1.0898 c 1.52921,2.4488 2.97677,4.5716 4.33235,6.3259 1.6022,2.0142 3.38753,3.6626 5.35595,4.9444 -0.82399,-1.1445 -2.19855,-2.7466 -4.12119,-4.8066 -0.91556,-1.0071 -1.71663,-1.8544 -2.40329,-2.5411 -0.64089,-0.6866 -1.14412,-1.2601 -1.51034,-1.7179 -0.36621,-0.4578 -0.75474,-0.961 -1.16674,-1.5103 -0.16683,-0.2225 -0.32742,-0.4569 -0.48674,-0.6944 z m -37.00488,-0.061 c -0.18311,0 -0.38848,0.137 -0.61737,0.4116 -0.22889,0.2289 -0.38983,0.3436 -0.48138,0.3436 -0.0458,0 -0.18269,-0.1147 -0.41158,-0.3436 0,0.1374 0.0444,0.3205 0.136,0.5494 0.13734,0.1831 0.20758,0.344 0.20758,0.4814 0,0.1831 -0.11469,0.32 -0.34358,0.4116 -0.13733,-0.1374 -0.25203,-0.2058 -0.34358,-0.2058 0,0.2746 0.0907,0.5725 0.27378,0.8929 0.18312,0.2747 0.39029,0.5263 0.61918,0.7552 0.27466,0.2289 0.50226,0.4343 0.68536,0.6174 0.22889,0.1373 0.34359,0.2298 0.34359,0.2755 0,-0.3662 -0.18316,-0.7547 -0.54938,-1.1667 -0.32044,-0.412 -0.47957,-0.7339 -0.47957,-0.9627 l 0.13599,-0.4116 c 0.27466,-0.092 0.55029,-0.321 0.82496,-0.6872 0.27462,-0.412 0.43556,-0.6636 0.48137,-0.7552 -0.22888,-0.1373 -0.38982,-0.2058 -0.48137,-0.2058 z m -126.645847,0.3436 0,1.1668 c 0.22888,0 0.4805,-0.1369 0.75517,-0.4116 -0.13734,-0.5036 -0.38895,-0.7552 -0.75517,-0.7552 z m 89.635597,0.2058 0.41158,0.3436 0,-0.3436 -0.41158,0 z m -64.160407,0.3436 0.2738,1.3725 0.20758,0 -0.20758,-1.3725 -0.2738,0 z m 20.716937,0.3436 c -0.0916,0.2747 -0.13601,0.4338 -0.13601,0.4796 0,0.3204 0.1147,0.6645 0.34359,1.0307 0.0458,-0.1373 0.18269,-0.2058 0.41158,-0.2058 l -0.20579,-1.3045 -0.41337,0 z m 57.72539,0.4116 0.96096,1.3045 0,-0.6174 2.40329,-0.3435 c -0.32045,-0.092 -0.89214,-0.1378 -1.71612,-0.1378 -0.77821,0 -1.32768,-0.069 -1.64813,-0.2058 z m -102.131607,0.2058 -1.30454,0.7551 c 0.0458,0.6867 0.25116,1.1677 0.61738,1.4424 0.412,0.2288 1.02992,0.4342 1.85391,0.6173 0.824,0.2289 1.37346,0.4361 1.64813,0.6192 2.47196,0.046 4.6236,0.1827 6.45469,0.4116 1.83108,0.2289 3.34077,0.5267 4.53099,0.8929 0.5951,-0.412 1.48866,-0.6173 2.67887,-0.6173 0.36621,0 0.9379,0.044 1.71612,0.136 0.82399,0.046 1.41969,0.07 1.7859,0.07 1.69376,0 2.92962,-0.4588 3.70783,-1.3744 0.412,-0.2746 0.893,-0.4116 1.44233,-0.4116 0.91554,0 1.50947,0.3664 1.78412,1.0988 0.27466,0.3204 0.52806,0.4814 0.75695,0.4814 0.32044,0 0.68676,-0.3219 1.09875,-0.9628 0.50356,-0.7324 0.79961,-1.1209 0.89117,-1.1667 l -1.78412,0 c -0.64088,0 -1.35128,-0.022 -2.12949,-0.068 -0.77822,-0.046 -1.41837,-0.07 -1.92192,-0.07 -0.50354,-0.046 -0.9161,-0.068 -1.23654,-0.068 -1.78531,0 -3.31902,0.2053 -4.60077,0.6173 -1.4191,-0.3204 -3.6392,-0.5258 -6.66049,-0.6173 -1.46487,-0.046 -2.7692,-0.068 -3.91362,-0.068 -1.09865,-0.046 -2.03665,-0.1161 -2.81487,-0.2076 -1.55642,-0.2289 -3.09012,-0.7321 -4.60078,-1.5103 z m 116.275747,0 c -0.32044,0 -0.57205,0.1369 -0.75517,0.4115 0.45778,0 0.93879,-0.044 1.44233,-0.136 0.17006,-0.043 0.20504,-0.052 0.34001,-0.086 -0.13017,-0.01 -0.26587,-0.016 -0.4778,-0.052 -0.22888,-0.092 -0.41203,-0.1377 -0.54937,-0.1377 z m 1.02717,0.1896 c 0.0385,0 0.11,0.016 0.14137,0.016 0.18311,0 0.38848,-0.069 0.61737,-0.2057 -0.12642,0.032 -0.45775,0.1144 -0.75874,0.1896 z m -9.26598,0.2219 c 0.27466,0.046 0.5485,0.092 0.82316,0.1378 l 1.03075,0 1.02896,0 c 0.32044,-0.046 0.6423,-0.092 0.96274,-0.1378 l -3.84561,0 z m -162.6146075,0.5494 0.68716,0.5494 0,-0.4116 c -0.0916,-0.092 -0.32094,-0.1378 -0.68716,-0.1378 z m 160.3491075,0.1378 -0.41337,0.2058 1.23654,-0.2058 -0.82317,0 z m -59.57931,0.825 c -0.22889,0 -0.4805,0.022 -0.75516,0.068 -0.22889,0 -0.50273,0.022 -0.82317,0.068 -0.64089,0.1373 -1.03121,0.4129 -1.16854,0.8249 -0.13733,0.3662 -0.29648,1.0304 -0.47959,1.9917 -0.11237,0.7866 -0.28933,1.3461 -0.52431,1.7036 0.0361,-0.019 0.0615,-0.043 0.11094,-0.056 l 0.54938,-0.2756 c 0.1831,-0.092 0.34404,-0.1822 0.48137,-0.2738 0.18311,-0.1373 0.27379,-0.3204 0.27379,-0.5493 l 5.28795,0.2058 c 0.22889,-0.3663 0.41204,-0.5494 0.54937,-0.5494 0.0916,0 0.25249,0.2276 0.48137,0.6854 0.27467,0.412 0.57252,0.6191 0.89296,0.6191 0.0458,-0.4577 0.4103,-0.6871 1.09696,-0.6871 l 0.68716,0 c 0.36622,0 0.54938,-0.2739 0.54938,-0.8232 0.64088,-0.092 1.32727,-0.1618 2.05971,-0.2076 0.77821,-0.046 1.60331,-0.068 2.47307,-0.068 0.91554,0 1.73885,0.022 2.47129,0.068 0.77821,0.046 1.48861,0.1161 2.1295,0.2076 -0.18312,0.3204 -0.93975,0.4796 -2.26729,0.4796 0.27467,0 0.80191,0.024 1.58012,0.07 0.77821,0.046 1.39614,0.068 1.85391,0.068 1.73953,0 3.06608,-0.2054 3.98162,-0.6174 l -3.08866,-0.2076 c 0.27466,-0.2746 0.93883,-0.456 1.9917,-0.5476 0.50355,-0.046 0.93832,-0.092 1.30454,-0.1378 0.36622,-0.046 0.64005,-0.092 0.82317,-0.1377 0.36621,-0.046 0.59561,-0.3899 0.68716,-1.0308 l -4.80657,0.1378 c -0.86977,-0.4578 -1.99093,-0.6872 -3.36424,-0.6872 -0.22889,0 -0.55076,0.024 -0.96275,0.07 -0.41199,0 -0.91522,0.022 -1.51033,0.068 -0.54932,0.046 -1.03033,0.092 -1.44233,0.1378 l -1.09875,0 c -0.68665,0 -1.14365,-0.022 -1.37253,-0.068 -0.22889,0.046 -0.70991,0.068 -1.44234,0.068 -0.45777,0 -0.98322,-0.022 -1.57834,-0.068 -0.5951,-0.046 -1.28328,-0.116 -2.06149,-0.2076 -0.77821,-0.092 -1.4646,-0.16 -2.05971,-0.2057 -0.5951,-0.091 -1.09833,-0.136 -1.51032,-0.136 z m -3.75077,4.6562 c -0.0976,0.052 -0.16285,0.1181 -0.16285,0.2183 0.0582,-0.058 0.11066,-0.1389 0.16285,-0.2183 z m -88.502847,-4.3144 c 0.18312,0.1831 0.27379,0.3902 0.27379,0.6191 0,0.1374 -0.0685,0.3205 -0.20579,0.5494 -0.0916,0.1831 -0.13779,0.32 -0.13779,0.4116 0.32044,0.2289 0.66453,0.3436 1.03075,0.3436 l 0.41158,0 c -0.59511,-0.4578 -0.89295,-1.098 -0.89295,-1.922 l 0,0 -0.47959,0 z m 1.37254,1.9237 0.068,0 c 0.27467,-0.046 0.48183,-0.068 0.61917,-0.068 0.50355,0 0.93832,0.3423 1.30454,1.0289 0.45777,0.1373 0.75561,0.2058 0.89295,0.2058 0.27466,0 0.48004,-0.1369 0.61738,-0.4116 0,-0.5493 -0.0462,-0.8694 -0.1378,-0.9609 l -0.96095,0.9609 -1.64812,-1.5103 -0.75517,0.7552 z m 42.69725,-1.786 -0.13779,0.5494 c 0.41199,0.2747 0.80232,0.5041 1.16854,0.6872 0.41199,0.1373 0.84677,0.2742 1.30454,0.4116 0.45777,0.092 0.98322,0.2062 1.57833,0.3435 0.5951,0.1374 1.3055,0.2983 2.12949,0.4814 1.69376,0.3662 2.92962,0.7085 3.70783,1.029 -0.32044,0.1831 -0.77922,0.2756 -1.37433,0.2756 l -1.44055,0 c 0.86977,0.7782 1.89846,1.2814 3.08867,1.5103 1.1902,0.1831 2.77014,0.2738 4.73857,0.2738 0.5594,0 1.06302,0.016 1.53717,0.039 -0.39308,-0.2904 -0.9474,-0.4895 -1.67496,-0.5888 -1.0071,-0.1373 -1.6028,-0.2964 -1.78592,-0.4795 0.32045,-0.1374 1.28246,-0.2058 2.88466,-0.2058 4.30306,0.6866 7.53141,1.0289 9.68294,1.0289 l 1.30454,0 c 0.36622,0 0.66228,-0.022 0.89116,-0.068 l 0,-0.5494 c -1.32753,-0.1373 -2.44869,-0.2742 -3.36424,-0.4115 -0.86976,-0.1831 -1.55615,-0.3663 -2.0597,-0.5494 0.54932,-0.092 1.12102,-0.1378 1.71612,-0.1378 0.5951,-0.046 1.46465,-0.068 2.60908,-0.068 l 1.44232,0 c 0.412,0 0.73208,-0.024 0.96096,-0.07 l -0.34179,1.2365 0.34179,0 c 0.41201,-0.412 0.61916,-1.0761 0.61916,-1.9917 l -4.39498,0.2058 -6.86628,0 c -3.98261,0 -7.41634,-0.1831 -10.30031,-0.5493 -2.83819,-0.412 -5.49305,-1.2131 -7.96502,-2.4033 z m 16.30047,5.6011 c 0.15103,0.1116 0.28309,0.2343 0.38474,0.3741 l 2.33529,0 c -0.64916,-0.1948 -1.56455,-0.3174 -2.72003,-0.3741 z m 16.31658,-5.6011 -1.30633,1.3046 c -0.54933,1.6022 -0.82317,3.0452 -0.82317,4.327 0,0.8697 0.13692,1.7153 0.41159,2.5393 0.36622,0.3662 0.7103,0.7787 1.03074,1.2365 0.36622,0.4578 0.89168,0.6872 1.57834,0.6872 0.0915,-0.2747 0.13779,-0.5041 0.13779,-0.6872 0,-0.412 -0.32008,-0.7543 -0.96096,-1.029 -0.64085,-0.2746 -0.98494,-0.5725 -1.03075,-0.8929 -0.22888,-1.0071 -0.34358,-1.8544 -0.34358,-2.5411 0,-2.1515 0.43656,-3.7999 1.30633,-4.9444 z m -67.48706,0.4814 -0.54938,1.0988 0.75517,0.4115 c 0.32044,0.092 1.07707,0.297 2.26728,0.6174 1.09865,0.3205 1.94418,0.4814 2.53929,0.4814 1.28176,0 2.10686,-0.6864 2.47307,-2.0597 l -7.48543,-0.5494 z m 68.37823,0.8232 c -0.824,0.3662 -1.23476,1.3967 -1.23476,3.0904 l 0,1.854 c 0,0.2746 0.0685,0.5262 0.2058,0.7551 0.1831,0.1831 0.34225,0.2756 0.47958,0.2756 0.0915,0 0.13779,-0.046 0.13779,-0.1378 -0.41199,-0.8698 -0.61737,-1.7855 -0.61737,-2.7469 0,-1.0986 0.3423,-2.1291 1.02896,-3.0904 z m -58.45193,0.2416 c -0.30041,0 -0.58787,0.1018 -0.86253,0.3078 -0.0626,0.045 -0.1253,0.1039 -0.1879,0.1539 0.0641,-0.026 0.12226,-0.06 0.1879,-0.084 0.39412,-0.1792 0.80721,-0.2671 1.22937,-0.306 -0.0245,-0.013 -0.0336,-0.024 -0.0608,-0.038 -0.103,-0.023 -0.20586,-0.034 -0.306,-0.034 z m 0.36684,0.072 c 0.2042,0.1095 0.31751,0.2043 0.33464,0.2827 0.006,-0.1042 0.0161,-0.201 0.0161,-0.3203 -0.11938,0 -0.23354,0.027 -0.35075,0.038 z m 0.33464,0.2827 c -0.001,0.022 -1.8e-4,0.045 -0.002,0.066 10e-4,-0.01 0.0179,-0.039 0.0179,-0.043 0,-0.01 -0.0145,-0.016 -0.0161,-0.023 z m -0.002,0.066 c -0.0111,0.06 -0.0628,0.1865 -0.18789,0.4366 -0.13734,0.2289 -0.2058,0.4121 -0.2058,0.5494 0.22387,-0.1119 0.35229,-0.4483 0.39369,-0.986 z m -1.75012,0.041 c -0.42754,0.1748 -0.82636,0.3924 -1.18464,0.6711 -0.412,0.3204 -0.75609,0.6867 -1.03075,1.0987 -0.27464,0.3662 -0.43378,0.7325 -0.47959,1.0988 0.36623,-0.2289 0.70852,-0.5508 1.02896,-0.9628 0.32044,-0.412 0.6183,-0.8005 0.89296,-1.1667 0.25783,-0.2947 0.51522,-0.5333 0.77306,-0.7391 z m 25.65056,-0.2219 0,0.4116 0.54937,0 c 0.13733,-0.046 0.20579,-0.1827 0.20579,-0.4116 l -0.75516,0 z m 73.796807,0.1378 0,0.5494 0.34358,0 -0.34358,-0.5494 z m -1.58012,0.7552 c 0,0.046 -0.0685,0.1604 -0.20578,0.3435 -0.13733,0.1832 -0.29648,0.3885 -0.47959,0.6174 l -0.41337,0.6872 c -0.13734,0.2289 -0.20579,0.412 -0.20579,0.5493 0.412,-0.3204 0.84677,-1.053 1.30453,-2.1974 z m -107.498287,0.068 c 0.18311,0.8239 1.07666,1.2365 2.67887,1.2365 -0.54933,-0.824 -1.44288,-1.2365 -2.67887,-1.2365 z m 91.774037,0.2058 0,0.07 2.0597,0 0,-0.07 -2.0597,0 z m 3.02245,0 c 0.22889,0.2288 0.4805,0.3435 0.75516,0.3435 0.18312,0 0.48096,-0.046 0.89296,-0.1378 0.412,-0.1373 0.73207,-0.2057 0.96096,-0.2057 l -2.60908,0 z m -59.309097,0.2755 0,0.068 1.37433,0.4814 0.068,-0.2756 -1.44233,-0.2738 z m 54.638517,0.893 c -0.27466,0 -0.50227,0.022 -0.68538,0.068 l 0,0.6174 c 0.32045,0.3204 1.05307,0.4813 2.1975,0.4813 l 0.41159,0.068 1.16675,0 c 0.27466,-0.3662 0.57251,-0.5493 0.89295,-0.5493 0.13734,0 0.29827,0.092 0.48138,0.2756 0.22889,0.1373 0.43426,0.3204 0.61737,0.5493 l 0.68717,0.5494 c 0.22889,0.1373 0.41204,0.2058 0.54937,0.2058 0.0458,0 0.20492,-0.046 0.47959,-0.1378 0,-0.1373 -0.0685,-0.2983 -0.2058,-0.4814 -0.13733,-0.2289 -0.20579,-0.3658 -0.20579,-0.4116 0.18311,-0.3204 0.48096,-0.4795 0.89296,-0.4795 0.32044,0.046 0.47958,0.1364 0.47958,0.2738 0,0.046 -0.0444,0.1604 -0.136,0.3435 -0.0458,0.1831 -0.0698,0.3663 -0.0698,0.5494 0.0915,-0.2289 0.22847,-0.3436 0.41159,-0.3436 0.22889,-0.046 0.34358,-0.092 0.34358,-0.1378 0,-0.046 -0.0685,-0.1827 -0.20579,-0.4115 l 3.02244,-0.3436 c -0.54932,0 -1.2375,-0.022 -2.06149,-0.068 -0.82399,-0.092 -1.78422,-0.1841 -2.88287,-0.2756 -1.09865,-0.091 -2.0829,-0.16 -2.95266,-0.2058 -0.824,-0.092 -1.5344,-0.136 -2.1295,-0.136 l -1.09875,0 z m -79.276227,0.068 c -1.37333,0 -2.08374,0.2294 -2.12949,0.6871 0.18311,0 0.43651,0.091 0.75695,0.2739 0.36622,0.1373 0.64005,0.2057 0.82317,0.2057 0.13732,0 0.32048,-0.069 0.54937,-0.2057 l 0,-0.961 z m 72.341957,0 c 0,0.4578 0.15913,0.6871 0.47957,0.6871 0,-0.091 0.0462,-0.184 0.1378,-0.2755 0.0915,-0.1374 0.13779,-0.2743 0.13779,-0.4116 l -0.75516,0 z m 21.14821,0 0.48137,0.4116 0,-0.2058 c -0.0916,-0.1374 -0.25249,-0.2058 -0.48137,-0.2058 z m 76.74588,0 0.41159,0.961 0,-0.961 -0.41159,0 z m -73.38165,0.4116 -0.47957,1.1667 c 0.0458,0.1831 0.27516,0.2756 0.68716,0.2756 l -0.41338,-0.2756 c 0,-0.1831 0.024,-0.3885 0.0698,-0.6174 0.0915,-0.2288 0.13599,-0.412 0.13599,-0.5493 z m 45.43338,0 0.34358,0.7551 0,-0.7551 -0.34358,0 z m -110.576217,0.5494 c 0.0915,0.3662 0.41163,0.5493 0.96096,0.5493 l 0,-0.2058 c -0.13732,-0.2289 -0.4574,-0.3435 -0.96096,-0.3435 z m -34.52643,0.2057 -0.54937,0.5494 c 0,0.2289 0.0907,0.4361 0.27379,0.6192 0.18311,0.1831 0.39028,0.3422 0.61916,0.4795 0.27467,0.092 0.50227,0.1841 0.68538,0.2756 l 0.34358,0.068 c 0.36622,-0.3662 0.54938,-0.5956 0.54938,-0.6871 0,-0.091 -0.32008,-0.2063 -0.96096,-0.3436 -0.64089,-0.1373 -0.96096,-0.4574 -0.96096,-0.961 z m 143.867907,0 c -0.412,0 -0.84677,0.2979 -1.30454,0.893 l 0,1.5801 c 0,0.5493 0.0444,1.0063 0.136,1.3726 0.36622,0.5035 0.89346,0.8013 1.58012,0.8929 0.68666,0.046 1.28236,0.1142 1.78592,0.2058 -0.22889,-0.3204 -0.4823,-0.9846 -0.75697,-1.9917 -0.22888,-1.0987 -0.43426,-1.8535 -0.61736,-2.2655 -0.18312,-0.4578 -0.45696,-0.6872 -0.82317,-0.6872 z m -27.67269,1.3046 c -0.22888,0 -0.34358,0.2294 -0.34358,0.6871 l 0.34358,0 0,-0.6871 z m 85.62534,0.2756 0.61917,0.2738 0,-0.136 c -0.0915,-0.092 -0.29873,-0.1378 -0.61917,-0.1378 z m -102.35708,0.4795 0.96276,1.0308 -0.0698,-0.8232 -0.89296,-0.2076 z m -101.181387,0.2076 c 0,0.5951 0.16093,1.1428 0.48137,1.6463 0.32045,0.5036 0.6183,0.9846 0.89296,1.4424 0.45777,-0.1831 0.68716,-0.4107 0.68716,-0.6854 0,-0.1831 -0.34408,-0.5272 -1.03074,-1.0307 -0.68666,-0.5494 -1.03075,-1.0064 -1.03075,-1.3726 z m 1.71791,0.4116 c 0,0.1831 0.0907,0.3663 0.2738,0.5494 0.22888,0.1373 0.4805,0.2058 0.75516,0.2058 -0.0916,-0.046 -0.2507,-0.1827 -0.47958,-0.4116 -0.18311,-0.2289 -0.36627,-0.3436 -0.54938,-0.3436 z m 114.752887,0.4116 0,0.9609 0.82496,-0.9609 -0.82496,0 z m 2.40329,1.4423 0.068,1.3046 c 0.32045,0 0.52761,-0.068 0.61916,-0.2058 -0.0915,-0.046 -0.18402,-0.229 -0.27558,-0.5494 -0.0915,-0.3662 -0.22847,-0.5494 -0.41158,-0.5494 z m -1.30454,0.8232 c -0.91557,0 -1.39658,0.092 -1.44233,0.2756 0.0458,0.1373 0.27517,0.2058 0.68716,0.2058 0.50356,0 0.75517,-0.161 0.75517,-0.4814 z"
         style="font-style:normal;font-variant:normal;font-weight:normal;font-stretch:normal;font-size:medium;line-height:125%;font-family:Logger;-inkscape-font-specification:Logger;letter-spacing:0px;word-spacing:0px;fill:#ffdd55;fill-opacity:1;stroke:none;stroke-width:1px;stroke-linecap:butt;stroke-linejoin:miter;stroke-opacity:1" />
    </g>
    <text
       xml:space="preserve"
       style="font-style:normal;font-weight:normal;font-size:40px;line-height:125%;font-family:sans-serif;letter-spacing:0px;word-spacing:0px;fill:#000000;fill-opacity:1;stroke:none;stroke-width:1px;stroke-linecap:butt;stroke-linejoin:miter;stroke-opacity:1"
       x="98.300003"
       y="974.44543"
       id="text5181"
       sodipodi:linespacing="125%"><tspan
         sodipodi:role="line"
         id="tspan5183"
         x="98.300003"
         y="974.44543" /></text>
  </g>
</svg>
