<?xml version="1.0" encoding="UTF-8" standalone="no"?>
<!-- Created with Inkscape (http://www.inkscape.org/) -->

<svg
   xmlns:dc="http://purl.org/dc/elements/1.1/"
   xmlns:cc="http://creativecommons.org/ns#"
   xmlns:rdf="http://www.w3.org/1999/02/22-rdf-syntax-ns#"
   xmlns:svg="http://www.w3.org/2000/svg"
   xmlns="http://www.w3.org/2000/svg"
   xmlns:sodipodi="http://sodipodi.sourceforge.net/DTD/sodipodi-0.dtd"
   xmlns:inkscape="http://www.inkscape.org/namespaces/inkscape"
   width="250"
   height="55"
   viewBox="0 0 250 55.000001"
   id="svg2"
   version="1.1"
   inkscape:version="0.91 r13725"
   sodipodi:docname="btn_donar.svg">
  <defs
     id="defs4">
    <filter
       style="color-interpolation-filters:sRGB"
       inkscape:label="Drop Shadow"
       id="filter4518">
      <feFlood
         flood-opacity="1"
         flood-color="rgb(255,255,255)"
         result="flood"
         id="feFlood4520" />
      <feComposite
         in="flood"
         in2="SourceGraphic"
         operator="in"
         result="composite1"
         id="feComposite4522" />
      <feGaussianBlur
         in="composite1"
         stdDeviation="2"
         result="blur"
         id="feGaussianBlur4524" />
      <feOffset
         dx="0"
         dy="0"
         result="offset"
         id="feOffset4526" />
      <feComposite
         in="SourceGraphic"
         in2="offset"
         operator="over"
         result="fbSourceGraphic"
         id="feComposite4528" />
      <feColorMatrix
         result="fbSourceGraphicAlpha"
         in="fbSourceGraphic"
         values="0 0 0 -1 0 0 0 0 -1 0 0 0 0 -1 0 0 0 0 1 0"
         id="feColorMatrix4530" />
      <feFlood
         id="feFlood4532"
         flood-opacity="1"
         flood-color="rgb(255,255,255)"
         result="flood"
         in="fbSourceGraphic" />
      <feComposite
         id="feComposite4534"
         in2="fbSourceGraphic"
         in="flood"
         operator="in"
         result="composite1" />
      <feGaussianBlur
         id="feGaussianBlur4536"
         in="composite1"
         stdDeviation="2"
         result="blur" />
      <feOffset
         id="feOffset4538"
         dx="0"
         dy="0"
         result="offset" />
      <feComposite
         id="feComposite4540"
         in2="offset"
         in="fbSourceGraphic"
         operator="over"
         result="composite2" />
    </filter>
    <filter
       style="color-interpolation-filters:sRGB;"
       inkscape:label="Drop Shadow"
       id="filter7212">
      <feFlood
         flood-opacity="1"
         flood-color="rgb(255,255,255)"
         result="flood"
         id="feFlood7214" />
      <feComposite
         in="flood"
         in2="SourceGraphic"
         operator="in"
         result="composite1"
         id="feComposite7216" />
      <feGaussianBlur
         in="composite1"
         stdDeviation="2"
         result="blur"
         id="feGaussianBlur7218" />
      <feOffset
         dx="0"
         dy="0"
         result="offset"
         id="feOffset7220" />
      <feComposite
         in="SourceGraphic"
         in2="offset"
         operator="over"
         result="composite2"
         id="feComposite7222" />
    </filter>
  </defs>
  <sodipodi:namedview
     id="base"
     pagecolor="#333333"
     bordercolor="#666666"
     borderopacity="1.0"
     inkscape:pageopacity="0"
     inkscape:pageshadow="2"
     inkscape:zoom="2.7360068"
     inkscape:cx="216.45899"
     inkscape:cy="65.354292"
     inkscape:document-units="px"
     inkscape:current-layer="layer1"
     showgrid="false"
     units="px"
     inkscape:window-width="1920"
     inkscape:window-height="1017"
     inkscape:window-x="-4"
     inkscape:window-y="-4"
     inkscape:window-maximized="1" />
  <metadata
     id="metadata7">
    <rdf:RDF>
      <cc:Work
         rdf:about="">
        <dc:format>image/svg+xml</dc:format>
        <dc:type
           rdf:resource="http://purl.org/dc/dcmitype/StillImage" />
        <dc:title />
      </cc:Work>
    </rdf:RDF>
  </metadata>
  <g
     inkscape:label="Capa 1"
     inkscape:groupmode="layer"
     id="layer1"
     transform="translate(0,-997.36218)">
    <text
       xml:space="preserve"
       style="font-style:normal;font-weight:normal;font-size:40px;line-height:125%;font-family:sans-serif;letter-spacing:0px;word-spacing:0px;fill:#000000;fill-opacity:1;stroke:none;stroke-width:1px;stroke-linecap:butt;stroke-linejoin:miter;stroke-opacity:1"
       x="98.300003"
       y="974.44543"
       id="text5181"
       sodipodi:linespacing="125%"><tspan
         sodipodi:role="line"
         id="tspan5183"
         x="98.300003"
         y="974.44543" /></text>
    <path
       inkscape:connector-curvature="0"
       style="font-style:normal;font-variant:normal;font-weight:normal;font-stretch:normal;font-size:medium;line-height:125%;font-family:Logger;-inkscape-font-specification:Logger;letter-spacing:0px;word-spacing:0px;fill:#28170b;fill-opacity:1;stroke:none;stroke-width:1px;stroke-linecap:butt;stroke-linejoin:miter;stroke-opacity:1;filter:url(#filter7212)"
       d="m 30.544923,1002.243 c -1.960283,0 -3.581558,0.2822 -4.863281,0.8477 l -0.337891,2.9414 c -0.0754,0.3016 -0.226938,0.4891 -0.453125,0.5644 -0.188489,0.075 -0.546451,0.1512 -1.074219,0.2266 -0.527768,0.038 -0.88573,0.1325 -1.074218,0.2832 -0.791653,0.5655 -1.1875,1.5257 -1.1875,2.8828 l 0,1.4141 c 0.0377,0.6785 0.05664,1.3207 0.05664,1.9238 1.055537,0.1885 1.733575,0.7529 2.035156,1.6953 1.771794,0.1885 2.658204,1.2624 2.658204,3.2227 0,0.4901 -0.05683,1.2079 -0.169922,2.1504 -0.0377,0.49 -0.07559,0.9238 -0.113282,1.3008 l 0,0.8476 0,0.791 c 0.0377,0.1885 0.07559,0.359 0.113282,0.5098 l -0.283203,0.3379 c -0.414676,0 -0.621094,0.4716 -0.621094,1.4141 0.33928,0.9801 0.564642,1.9233 0.677734,2.8281 0.0754,0.49 0.113281,1.0355 0.113281,1.6386 0.0377,0.6032 0.07559,1.2832 0.113282,2.0372 0.0377,1.4702 0.09453,2.6577 0.169922,3.5625 -0.0754,0.4146 -0.376529,0.6211 -0.904297,0.6211 l -1.470703,0 c -0.904746,0.113 -1.490023,0.471 -1.753907,1.0742 -0.263884,0.5654 -0.432416,1.395 -0.507812,2.4883 -0.0377,1.0178 -0.132415,1.7337 -0.283203,2.1484 0.376978,0.2262 0.566406,0.5841 0.566406,1.0742 0,0.1131 -0.01894,0.3215 -0.05664,0.6231 -0.0377,0.3015 -0.05664,0.5269 -0.05664,0.6777 0,0.6408 0.301133,1.0367 0.904297,1.1875 0.226186,0.038 0.885281,0.095 1.978515,0.1699 1.130932,0.038 2.017342,0.1703 2.658203,0.3965 0.640862,0.1885 1.207195,0.5275 1.697266,1.0176 0.452373,0.2262 1.016754,0.3398 1.695312,0.3398 0.603164,0 1.489574,-0.2084 2.658204,-0.623 1.244025,-0.4147 2.111491,-0.6211 2.601562,-0.6211 0.716257,0 1.394294,0.2253 2.035156,0.6777 1.055537,-0.3393 2.525269,-0.5646 4.410157,-0.6777 1.922584,-0.1508 3.562804,-0.3024 4.919921,-0.4531 1.357119,-0.1508 2.582547,-0.4899 3.675782,-1.0176 0.301581,-0.5278 0.6406,-1.132 1.017578,-1.8106 0.376977,-0.6785 0.791768,-1.4513 1.24414,-2.3183 0.490072,-0.8671 0.923804,-1.6777 1.300782,-2.4317 0.376977,-0.7539 0.715996,-1.4699 1.017578,-2.1484 0.603164,-1.3948 1.093726,-2.8646 1.470703,-4.4102 0.376977,-1.5456 0.564453,-3.129 0.564453,-4.75 l 0,-1.0175 c 0,-0.3016 -0.01894,-0.5459 -0.05664,-0.7344 0,-0.7917 0.246257,-1.7539 0.736328,-2.8848 0.263884,-0.6031 0.451359,-1.0937 0.564453,-1.4707 0.113092,-0.4147 0.188864,-0.7537 0.226562,-1.0176 0,-0.4523 -0.320076,-0.6777 -0.960937,-0.6777 -0.565466,0 -0.923428,-0.057 -1.074219,-0.1699 -0.527769,-2.2996 -0.792969,-3.7883 -0.792969,-4.4668 0,-0.5278 0.05683,-1.0752 0.169922,-1.6406 -0.640861,-0.8294 -1.26207,-2.1306 -1.865234,-3.9024 -0.301582,-0.9047 -0.56483,-1.6775 -0.791016,-2.3184 -0.226187,-0.6408 -0.434558,-1.1673 -0.623047,-1.582 -0.414675,-0.9047 -1.073769,-1.6964 -1.978515,-2.375 -0.867048,0.075 -1.677686,0.2061 -2.431641,0.3945 -0.82935,0.1885 -1.810474,0.4727 -2.941406,0.8497 -1.130932,0.3392 -2.034332,0.5835 -2.712891,0.7343 -0.301582,-0.1508 -0.716372,-0.2265 -1.24414,-0.2265 -0.565467,0 -1.300333,0.1326 -2.205079,0.3965 -0.904747,0.2261 -1.60368,0.3398 -2.093751,0.3398 l -0.394531,0 c -0.150791,-0.038 -0.321277,-0.076 -0.509766,-0.1133 -0.113092,-0.2262 -0.169921,-0.4914 -0.169921,-0.793 l 0,-0.6777 c 0,-0.4901 -0.14959,-0.848 -0.451172,-1.0742 l -1.13086,0 c -0.414674,-0.038 -0.924179,-0.076 -1.527343,-0.1133 -0.603164,-0.038 -1.150555,-0.057 -1.640625,-0.057 -0.452373,-0.038 -0.867164,-0.057 -1.244141,-0.057 z m 62.056641,0 -1.640625,2.8282 c -1.130933,0.4146 -2.413189,0.6211 -3.845704,0.6211 l -1.130859,0 c -0.452373,-0.038 -0.978867,-0.076 -1.582031,-0.1133 -0.565466,-0.038 -1.074971,-0.057 -1.527344,-0.057 -0.452373,-0.038 -0.84822,-0.057 -1.1875,-0.057 l -0.847656,0 c -0.226186,0 -0.415615,0.019 -0.566406,0.057 -0.33928,-0.1508 -0.507813,-0.5087 -0.507813,-1.0742 l 0,-0.3379 c 0.0377,-0.1885 0.05664,-0.3211 0.05664,-0.3965 0,-0.2639 -0.05683,-0.4533 -0.169922,-0.5664 -0.640861,-0.1131 -1.337842,-0.1699 -2.091797,-0.1699 -0.904746,0 -1.603679,0.1137 -2.09375,0.3399 -0.452373,0.038 -0.978867,0.076 -1.582031,0.1132 -0.565466,0.038 -1.150742,0.076 -1.753906,0.1133 -0.565467,0.038 -1.110904,0.076 -1.638672,0.1133 -0.527768,0.038 -0.961502,0.057 -1.300782,0.057 0,0.4524 -0.01894,0.8861 -0.05664,1.3008 -0.0377,0.4147 -0.05664,0.6969 -0.05664,0.8477 0,0.377 0.09471,0.716 0.283203,1.0176 -0.414675,0.4146 -1.151494,0.7536 -2.207031,1.0175 -0.527768,0.1508 -0.942559,0.2645 -1.244141,0.3399 -0.263884,0.038 -0.432417,0.076 -0.507812,0.1133 -0.565466,0.3015 -1.093914,0.7353 -1.583984,1.3007 -0.436397,0.5455 -0.656459,1.054 -0.671876,1.5293 l -0.02344,0 c -0.119281,0.4934 0.09247,1.4517 0.130859,1.7012 l 0,1.0664 c 0.263884,0.2639 0.659732,0.8113 1.1875,1.6406 0.490071,0.754 0.997623,1.2615 1.525391,1.5254 0.33928,0.2262 0.699195,0.3399 1.076172,0.3399 0.0754,0 0.658718,-0.1137 1.751953,-0.3399 0.263884,0.7163 0.43437,1.4152 0.509766,2.0938 0.0377,0.3016 0.07559,0.7163 0.113281,1.2441 0.0377,0.4901 0.07363,1.0734 0.111328,1.752 0.0754,1.3571 0.189052,2.3931 0.339844,3.1093 -0.301582,0.2262 -0.716372,0.4157 -1.244141,0.5665 -0.565466,0.1507 -0.980256,0.2833 -1.24414,0.3964 -0.226187,0.1131 -0.39472,0.3385 -0.507813,0.6778 1.997981,2.5634 3.204466,4.9006 3.619141,7.0117 -1.734096,0.2262 -2.902696,0.8114 -3.50586,1.7539 -0.263884,0.2262 -0.396484,0.5841 -0.396484,1.0742 0,0.1885 0.03789,0.4896 0.113281,0.9043 0.0754,0.377 0.113281,0.6592 0.113281,0.8477 0,0.4523 -0.189428,0.8482 -0.566406,1.1875 -0.113093,0.3015 -0.169922,0.5667 -0.169922,0.7929 -0.0754,0.2639 -0.01857,0.5651 0.169922,0.9043 0.188489,0.3016 0.415803,0.6028 0.679688,0.9043 0.263884,0.3016 0.527131,0.5838 0.791015,0.8477 0.301582,0.2262 0.545887,0.4156 0.734375,0.5664 0.33928,0.2639 0.810899,0.4703 1.414063,0.6211 0.678559,0.1508 1.169122,0.3402 1.470703,0.5664 0.301582,0.1885 0.451172,0.5843 0.451172,1.1875 1.16863,0.9047 2.640315,1.3574 4.412109,1.3574 0.829351,0 1.696817,-0.1515 2.601563,-0.4531 l 14.248047,-0.3965 c 0.52777,0.377 1.20776,0.5664 2.03711,0.5664 0.45238,0 1.05464,-0.076 1.8086,-0.2265 0.79165,-0.1508 1.41481,-0.2456 1.86718,-0.2833 0.45238,-0.5654 1.261057,-0.8476 2.429687,-0.8476 0.15079,0 0.37811,0.019 0.67969,0.057 l 0.79101,0 c 0.75396,-2.0356 1.13086,-4.4676 1.13086,-7.2949 0,-0.1885 -0.0189,-0.4707 -0.0566,-0.8476 l 0,-0.961 c -0.30158,-0.3016 -0.65954,-0.4531 -1.07422,-0.4531 -0.22618,0 -0.48943,0.038 -0.79101,0.1133 -0.30158,0.038 -0.54784,0.057 -0.73633,0.057 -0.41467,0 -0.77263,-0.1515 -1.07422,-0.4531 0,-1.8472 0.18943,-3.0348 0.56641,-3.5625 -0.1131,-0.3393 -0.16992,-0.6783 -0.16992,-1.0176 0,-0.4147 0.0947,-0.8484 0.2832,-1.3008 0.18849,-0.4901 0.39491,-0.9597 0.62109,-1.4121 0.22619,-0.4901 0.43456,-0.9617 0.62305,-1.414 0.18849,-0.4524 0.2832,-0.8672 0.2832,-1.2442 0,-0.7162 -0.24625,-1.3753 -0.73633,-1.9785 l -0.45117,-0.1133 c -0.22618,0 -0.47245,0.1686 -0.73633,0.5078 -0.26388,0.3393 -0.489237,0.5477 -0.677727,0.6231 -0.26389,-1.0179 -0.39648,-2.2244 -0.39648,-3.6192 0,-1.8849 0.26324,-3.7883 0.791007,-5.7109 1.43251,-1.1686 2.35681,-2.6214 2.77149,-4.3555 0.41467,-1.7341 0.62304,-3.8629 0.62304,-6.3886 -3.2797,-1.5457 -6.899157,-2.4889 -10.857419,-2.8282 z m 25.052736,0 c -0.67858,0.3393 -1.86612,0.7541 -3.5625,1.2442 -1.58331,0.4146 -2.84467,0.8484 -3.78711,1.3008 -0.94245,0.4146 -1.73414,1.1116 -2.375,2.0918 l 0,1.9218 c 0,1.6587 -0.0568,3.9032 -0.16993,6.7305 -0.11309,2.7896 -0.16992,4.9185 -0.16992,6.3887 0,4.2975 0.35796,7.8601 1.07422,10.6875 -0.49007,1.0178 -0.73437,2.1675 -0.73437,3.4492 0,0.7916 0.1117,1.9981 0.33789,3.6191 0.15079,0.7917 0.24551,1.4887 0.2832,2.0918 0.0754,0.6032 0.11328,1.1127 0.11328,1.5274 0,0.5654 -0.0189,0.9423 -0.0566,1.1308 1.31942,1.998 2.95964,2.9981 4.91992,2.9981 0.22619,-0.3393 0.56521,-0.6045 1.01758,-0.793 0.41468,-0.1508 0.998,-0.3193 1.75195,-0.5078 0.75396,-0.1885 1.33924,-0.3969 1.75391,-0.6231 0.26389,-2.0733 0.45136,-4.0715 0.56445,-5.9941 0.1131,-1.9226 0.16992,-3.7882 0.16992,-5.5976 0,-2.6389 -0.1117,-5.1825 -0.33789,-7.6329 0.41468,0.075 0.73475,0.2819 0.96094,0.6211 0.26389,0.3393 0.50819,0.8299 0.73438,1.4707 0.26388,0.6032 0.45331,0.999 0.5664,1.1875 -0.33928,0.1508 -0.56662,0.3951 -0.67968,0.7344 -0.0754,0.3393 -0.11329,0.9435 -0.11329,1.8106 0.0377,0.6785 0.30293,1.0175 0.79297,1.0175 0.15079,0 0.47087,-0.1136 0.96094,-0.3398 0.49007,-0.2262 0.88591,-0.3399 1.1875,-0.3399 0.86705,0.9048 1.62086,1.848 2.26172,2.8282 0.67856,0.9424 1.47025,2.2057 2.375,3.789 0.45237,0.7917 0.84822,1.4887 1.1875,2.0918 0.37697,0.5655 0.73494,1.1129 1.07422,1.6407 0.37698,0.49 0.73494,0.9597 1.07422,1.4121 0.37697,0.4146 0.79176,0.8484 1.24414,1.3007 l 3.61914,-0.3378 c 0.26388,0.1131 0.54607,0.2816 0.84765,0.5078 0.33928,0.1885 0.6783,0.3968 1.01758,0.623 0.33928,0.1885 0.67831,0.357 1.01758,0.5078 0.37698,0.1131 0.77283,0.132 1.1875,0.057 1.16863,-0.075 2.09292,-0.225 2.77148,-0.4512 0.71626,-0.2262 1.35641,-0.6978 1.92188,-1.4141 0.0377,-0.3392 0.0566,-0.773 0.0566,-1.3007 0.0377,-0.5278 0.0566,-1.151 0.0566,-1.8672 l 0,-1.4688 c 0,-0.867 0.019,-1.6398 0.0566,-2.3183 0.0754,-0.7163 0.15117,-1.3395 0.22656,-1.8672 0.41468,-2.1865 0.62305,-4.5048 0.62305,-6.9551 0,-0.754 -0.0189,-1.6214 -0.0566,-2.6016 -0.0377,-1.0178 -0.0945,-2.1485 -0.16992,-3.3926 -0.0754,-1.2817 -0.13222,-2.3177 -0.16992,-3.1093 -0.0377,-0.7917 -0.0566,-1.377 -0.0566,-1.7539 0,-1.5833 0.11365,-3.7122 0.33984,-6.3887 0.22619,-2.7142 0.33789,-4.7124 0.33789,-5.9941 l 0,-1.0176 c 0,-0.3016 -0.0189,-0.5479 -0.0566,-0.7364 l -9.04688,-0.5078 c -0.18848,0.1131 -0.60328,0.1889 -1.24414,0.2266 -0.67856,0.075 -1.0744,0.3008 -1.1875,0.6777 0.1131,1.2064 0.16993,3.0341 0.16993,5.4844 l 0,2.7715 c 0,1.9226 0.0568,3.6196 0.16992,5.0898 0.11309,1.4325 0.26268,2.6939 0.45117,3.7871 -0.56547,0.9048 -0.84766,2.0923 -0.84766,3.5625 l 0,0.9063 c 0.0377,0.377 0.0755,0.7728 0.11328,1.1875 0.0377,0.377 0.0566,0.7539 0.0566,1.1309 0.0377,0.3769 0.0566,0.6781 0.0566,0.9043 l -0.22657,0.1132 c -0.45237,-1.3194 -1.14935,-2.6206 -2.09179,-3.9023 -0.94245,-1.3194 -1.99739,-2.6945 -3.16602,-4.127 -0.30159,-1.6964 -0.79215,-3.3555 -1.4707,-4.9765 -0.67856,-1.621 -1.41343,-3.1097 -2.20508,-4.4668 -0.75395,-1.3571 -1.77296,-3.0542 -3.05469,-5.0899 -0.64086,-1.0178 -1.1863,-1.9042 -1.63867,-2.6582 -0.45237,-0.7539 -0.82928,-1.3941 -1.13086,-1.9218 l -1.69726,-0.17 z m 51.92578,0 c -2.56345,0 -5.18284,0.9433 -7.85938,2.8282 -0.45237,0.4146 -0.67969,0.8484 -0.67969,1.3007 0,0.3016 0.0758,0.5838 0.22657,0.8477 0.15078,0.2262 0.39704,0.5652 0.73632,1.0176 0.37698,0.4523 0.65917,0.8482 0.84766,1.1875 0.22619,0.3393 0.33984,0.6972 0.33984,1.0742 -1.5833,2.0357 -3.03604,4.4108 -4.35546,7.125 -1.28172,2.6765 -2.52414,5.3528 -3.73047,8.0293 -0.60316,0 -0.99902,0.038 -1.1875,0.1133 -0.1885,0.038 -0.28321,0.1892 -0.28321,0.4531 -0.11309,1.7718 -0.45211,3.6374 -1.01757,5.5977 -0.26388,0.9801 -0.54803,2.0161 -0.84961,3.1093 -0.30158,1.0556 -0.64061,2.1863 -1.01758,3.3926 -0.75396,2.375 -1.20664,4.411 -1.35742,6.1074 l 2.71484,2.7149 c 0.82935,0.2262 1.81047,0.3398 2.94141,0.3398 1.05553,0 2.0347,-0.1136 2.93945,-0.3398 0.82935,-0.3393 1.37674,-0.8109 1.64062,-1.4141 0.30159,-0.6032 0.45118,-1.3759 0.45118,-2.3183 l 0,-1.3575 c 0,-1.3194 0.18943,-2.2986 0.5664,-2.9394 0.1885,-0.038 0.33808,-0.057 0.45117,-0.057 0.15079,-0.038 0.26445,-0.057 0.33985,-0.057 0.45236,0 1.18724,0.1496 2.20508,0.4512 0.49007,0.1508 0.90486,0.2644 1.24414,0.3398 0.33928,0.038 0.60448,0.076 0.79297,0.1133 0.0377,0.038 0.16837,0.1134 0.39453,0.2266 0.26388,0.113 0.60289,0.3005 1.01758,0.5644 0.82934,0.4524 1.49039,0.6797 1.98046,0.6797 0.33928,0 0.6783,-0.1137 1.01758,-0.3398 0,-0.2262 -0.0568,-0.4516 -0.16992,-0.6778 -0.11309,-0.2262 -0.16992,-0.3967 -0.16992,-0.5097 0.67856,-0.2639 1.52709,-0.3965 2.54492,-0.3965 1.01784,0 1.86636,0.1326 2.54492,0.3965 0.22619,0.3769 0.41366,0.8675 0.56446,1.4707 0.15078,0.5654 0.30233,1.1487 0.45312,1.7519 l 0.45117,1.6973 c 0.1508,0.5277 0.32128,0.9615 0.50977,1.3008 0.22618,0.038 0.43455,0.1872 0.62304,0.4511 0.22619,0.2262 0.39472,0.3399 0.50782,0.3399 0.11309,0 0.26464,-0.095 0.45312,-0.2832 0.56547,0.1885 1.14879,0.2832 1.75196,0.2832 1.28172,0 2.80828,-0.5664 4.58007,-1.6973 0.37698,-0.6032 0.56641,-1.2623 0.56641,-1.9785 0,-0.377 -0.0568,-0.7728 -0.16992,-1.1875 -0.1131,-0.4524 -0.26463,-0.9978 -0.45313,-1.6387 -0.18848,-0.6408 -0.30019,-1.0177 -0.33789,-1.1308 0.26389,-0.3393 0.79038,-0.5856 1.58203,-0.7364 0.86705,-0.2262 1.41444,-0.5841 1.64063,-1.0742 0,-0.4901 0.0568,-1.4503 0.16992,-2.8828 0.11309,-1.3948 0.16992,-2.5824 0.16992,-3.5625 -0.33928,-0.6032 -0.88667,-0.9063 -1.64062,-0.9063 -0.26389,0 -0.75445,0.057 -1.47071,0.17 -0.67856,0.1131 -1.24294,0.1699 -1.69531,0.1699 -0.26389,0 -0.47225,-0.1137 -0.62305,-0.3399 -0.15078,-0.2261 -0.28143,-0.4894 -0.39453,-0.791 l -0.22656,-0.9043 c -0.0754,-0.3392 -0.17011,-0.6214 -0.2832,-0.8476 -0.18849,-0.4524 -0.28321,-0.9051 -0.28321,-1.3574 0,-0.2639 0.019,-0.6408 0.0566,-1.1309 0.0754,-0.4901 0.11328,-0.8859 0.11328,-1.1875 0,-0.6409 -0.15154,-1.2072 -0.45313,-1.6973 -0.15079,-0.1508 -0.30038,-0.2265 -0.45117,-0.2265 -0.18849,0 -0.39686,0.1326 -0.62305,0.3965 -0.22618,0.2261 -0.4326,0.3398 -0.62109,0.3398 -0.30158,-1.3948 -0.86792,-2.8097 -1.69727,-4.2422 0,-0.8293 -0.14958,-1.6589 -0.45117,-2.4883 -0.15079,-0.4146 -0.35916,-0.8484 -0.62305,-1.3008 -0.22618,-0.4523 -0.50837,-0.9409 -0.84765,-1.4687 -0.30158,-0.5278 -0.54589,-0.9615 -0.73438,-1.3008 -0.18849,-0.3393 -0.30215,-0.5476 -0.33984,-0.623 -0.18849,-0.3016 -0.2832,-0.6027 -0.2832,-0.9043 0,-0.4524 0.32007,-1.0547 0.96093,-1.8086 0.64086,-0.754 0.97989,-1.3014 1.01758,-1.6406 -0.75395,-0.8671 -1.65736,-1.5451 -2.71289,-2.0352 -0.49007,-0.2262 -0.94275,-0.4346 -1.35742,-0.623 -0.37698,-0.1885 -0.99819,-0.4518 -1.86524,-0.7911 l -0.79296,-1.1875 z m 35.11523,0 c -2.71423,0 -5.95484,0.5095 -9.72461,1.5274 l -0.11328,3.3359 c -0.94244,0.2262 -1.82885,0.9232 -2.6582,2.0918 -0.30158,0.377 -0.45313,0.8486 -0.45313,1.4141 0,0.7162 0.18943,1.4322 0.56641,2.1484 -0.1131,0.3393 -0.16992,0.6404 -0.16992,0.9043 0,0.5278 0.17048,0.9236 0.50976,1.1875 0.1508,0.1508 0.35721,0.3213 0.6211,0.5098 0.30158,0.1508 0.60271,0.3193 0.90429,0.5078 0.30159,0.1508 0.58573,0.3023 0.84961,0.4531 0.26389,0.1508 0.45136,0.2834 0.56446,0.3965 0.33928,2.0357 0.50976,4.4676 0.50976,7.2949 0,0.9802 -0.0379,2.1109 -0.11328,3.3926 -0.0377,1.2817 -0.0945,2.7704 -0.16992,4.4668 -0.0754,1.6964 -0.13222,3.1472 -0.16992,4.3535 -0.0377,1.2063 -0.0566,2.1875 -0.0566,2.9414 0,2.4127 0.11365,4.354 0.33984,5.8242 0.30158,0.6409 0.73531,1.1106 1.30078,1.4121 0.30158,0.1508 0.6406,0.3024 1.01758,0.4532 0.37697,0.1131 0.82965,0.2078 1.35742,0.2832 0.52777,0.075 0.94256,0.1511 1.24414,0.2265 0.30159,0.038 0.52694,0.076 0.67774,0.1133 0.37698,-0.377 1.0929,-0.68 2.14843,-0.9062 1.01784,-0.2262 1.7906,-0.4705 2.31836,-0.7344 0.52778,-0.2639 0.86679,-0.8113 1.01758,-1.6406 l -0.28125,-13.4004 0.28125,-0.057 c 1.09324,1.3195 2.13119,2.6017 3.11133,3.8457 0.98014,1.2441 2.07297,2.6001 3.2793,4.0704 1.20632,1.4325 2.33703,2.7715 3.39257,4.0156 1.05554,1.2063 2.14837,2.3749 3.2793,3.5058 0.71626,0.3393 1.39625,0.5078 2.03711,0.5078 0.86705,0 1.65679,-0.2632 2.37305,-0.791 0.33928,-0.3015 0.69919,-0.6595 1.07617,-1.0742 0.37698,-0.4147 0.77282,-0.8863 1.1875,-1.414 0.90474,-1.131 1.52595,-1.8469 1.86523,-2.1485 -0.11309,-0.7539 -0.45211,-1.3771 -1.01758,-1.8672 -0.52776,-0.5277 -1.15092,-1.0921 -1.86718,-1.6953 -0.30158,-1.2817 -1.01751,-2.5071 -2.14844,-3.6758 -0.56547,-0.6408 -1.11091,-1.2431 -1.63867,-1.8086 -0.49008,-0.5654 -0.94275,-1.1318 -1.35742,-1.6972 -0.37698,-0.5655 -0.69706,-1.1488 -0.96094,-1.752 -0.26389,-0.6031 -0.41543,-1.2642 -0.45313,-1.9804 l 3.39258,-3.7325 5.6543,-9.7812 -1.97852,-2.0938 0.45313,-2.5429 c 0,-0.3393 0.0927,-0.7731 0.28125,-1.3008 0.22618,-0.5655 0.33984,-0.9613 0.33984,-1.1875 0,-0.3016 -0.0758,-0.5289 -0.22656,-0.6797 -0.79165,-0.038 -1.69505,-0.1304 -2.71289,-0.2813 -0.98014,-0.1508 -1.86655,-0.3023 -2.6582,-0.4531 -0.75396,-0.1508 -1.54565,-0.2644 -2.375,-0.3398 -0.79165,-0.1131 -1.5644,-0.1699 -2.31836,-0.1699 -1.20633,0 -2.43176,0.1704 -3.67579,0.5097 -0.41467,-0.6408 -1.03588,-0.9609 -1.86523,-0.9609 -0.15079,0 -0.35916,0.019 -0.62305,0.057 l -0.56445,0 c -0.22619,0 -0.4535,-0.038 -0.67969,-0.1133 l 0.22657,0.2266 c -0.52777,0.754 -1.6206,1.1309 -3.2793,1.1309 -0.30158,-0.3016 -0.45313,-0.7354 -0.45313,-1.3008 0,-0.038 -0.0189,-0.1892 -0.0566,-0.4531 l 0,-1.0176 -0.67773,0 c -0.30158,-0.038 -0.5289,-0.057 -0.67969,-0.057 z m 8.08594,10.9141 c 0.82934,0 1.52828,0.5454 2.09375,1.6387 -0.1131,0.9047 -0.45211,1.7532 -1.01758,2.5449 -0.52777,0.7916 -1.31947,1.7728 -2.375,2.9414 -0.86705,0.9047 -1.67769,1.7533 -2.43164,2.5449 -0.71625,0.7917 -1.45307,1.4508 -2.20703,1.9785 -0.0377,-0.4146 -0.0736,-0.7726 -0.11133,-1.0742 l 0,-0.8476 c 0,-1.3572 0.30113,-2.4141 0.9043,-3.168 -0.41468,-1.1686 -0.62305,-2.9963 -0.62305,-5.4844 0.37698,0.2262 0.79177,0.3399 1.24414,0.3399 0.52777,0 1.30052,-0.2274 2.31836,-0.6797 0.98014,-0.4901 1.715,-0.7344 2.20508,-0.7344 z m -127.417968,1.1875 4.296875,0.1133 c -0.33928,3.4682 -0.507812,7.1236 -0.507812,10.9687 0,3.8075 0.168532,7.4838 0.507812,11.0274 -0.301582,0.1885 -0.545886,0.2832 -0.734375,0.2832 -0.188488,0 -0.415802,-0.1326 -0.679687,-0.3965 -0.263884,-0.3016 -0.489246,-0.508 -0.677734,-0.6211 -1.055538,0 -2.072594,0.1496 -3.052735,0.4512 -0.942443,0.2639 -1.772024,0.3965 -2.488281,0.3965 -0.490071,0 -0.980633,-0.1137 -1.470703,-0.3399 0,-0.4901 -0.03789,-1.0185 -0.113281,-1.584 -0.0754,-0.6031 -0.189053,-1.2812 -0.339844,-2.0351 -0.150791,-0.754 -0.262496,-1.3941 -0.337891,-1.9219 -0.0754,-0.5278 -0.113281,-0.9426 -0.113281,-1.2441 0,-1.2064 0.301133,-2.2424 0.904297,-3.1094 -0.565466,-2.865 -0.847657,-5.3159 -0.847657,-7.3516 0,-1.2817 0.09471,-2.4503 0.283204,-3.5058 0.716257,-0.038 1.676485,-0.2083 2.882812,-0.5098 0.603164,-0.1508 1.112669,-0.2625 1.527344,-0.3379 0.414675,-0.1131 0.734751,-0.2078 0.960937,-0.2832 z m -48.257812,0.2266 c 0.263885,0 0.659732,0.1306 1.1875,0.3945 0.527769,0.2262 0.923616,0.3398 1.1875,0.3398 1.244025,-0.49 2.223196,-0.7343 2.939453,-0.7343 1.16863,0 1.922439,0.5643 2.261719,1.6953 0.0754,0.1508 0.17011,0.397 0.283203,0.7363 0.150791,0.3393 0.340219,0.8089 0.566406,1.4121 0.452373,1.1686 0.772449,2.1876 0.960938,3.0547 0.226186,0.8293 0.33789,1.64 0.33789,2.4316 0,1.0179 -0.187476,1.9592 -0.564453,2.8262 0.226186,0.9801 0.339844,1.9613 0.339844,2.9414 0,2.9781 -0.981124,5.107 -2.941406,6.3887 -1.055537,0.1885 -1.996822,0.34 -2.826172,0.4531 -0.829351,0.075 -1.547228,0.1133 -2.150391,0.1133 -0.904746,0 -1.770259,-0.1137 -2.599609,-0.3398 -0.0377,-0.1885 -0.05664,-0.4139 -0.05664,-0.6778 l 0,-0.9062 c 0,-0.4147 0.01894,-0.998 0.05664,-1.752 0.0377,-0.7539 0.05664,-1.3013 0.05664,-1.6406 0,-1.2063 -0.1326,-2.1855 -0.396484,-2.9395 0,-0.7916 0.168533,-1.5265 0.507813,-2.205 0.376977,-0.7163 0.886481,-1.4891 1.527343,-2.3184 0.716257,-0.9425 1.206819,-1.6584 1.470703,-2.1484 0,-0.754 -0.28219,-1.3961 -0.847656,-1.9239 -0.376978,0 -0.829654,0.2652 -1.357422,0.793 -0.49007,0.4901 -0.772261,0.7344 -0.847656,0.7344 -0.150791,0 -0.245506,-0.1895 -0.283203,-0.5664 l 0.394531,-5.8243 c 0.226187,-0.2261 0.491388,-0.3378 0.792969,-0.3378 z m 130.77929,5.8242 c 1.54561,3.3928 2.8638,6.6523 3.95704,9.7812 -0.64086,0 -1.54426,0.057 -2.7129,0.17 -1.20632,0.113 -2.07379,0.1699 -2.60156,0.1699 -1.20632,0 -2.24428,-0.1895 -3.11133,-0.5664 0.37698,-1.2441 0.94331,-2.657 1.69727,-4.2403 0.75395,-1.5833 1.67825,-3.3541 2.77148,-5.3144 z"
       id="path6768"
       transform="matrix(0.73682571,0,0,0.73682571,31.972313,270.28182)" />
    <path
       style="font-style:normal;font-variant:normal;font-weight:normal;font-stretch:normal;font-size:medium;line-height:125%;font-family:Logger;-inkscape-font-specification:Logger;letter-spacing:0px;word-spacing:0px;fill:#ffcc00;fill-opacity:1;stroke:none;stroke-width:1px;stroke-linecap:butt;stroke-linejoin:miter;stroke-opacity:1"
       d="m 183.2979,1009.0107 c -0.52775,0 -0.90318,0.042 -1.12539,0.1251 -0.22221,0.084 -0.33387,0.2773 -0.33387,0.5829 -0.38888,0.5 -0.93034,0.7496 -1.62477,0.7496 -0.16666,0 -0.37458,-0.013 -0.62457,-0.042 -0.24999,-0.055 -0.51375,-0.1113 -0.79151,-0.167 -0.24999,-0.055 -0.49979,-0.097 -0.74979,-0.1251 -0.24998,-0.055 -0.45791,-0.082 -0.62456,-0.082 -0.33332,0 -0.61248,0.068 -0.83469,0.2072 0.74997,0.3333 1.63894,0.5008 2.66668,0.5008 0.94441,0 1.90316,-0.098 2.87535,-0.2922 0.0277,-0.028 0.0836,-0.084 0.16693,-0.1668 0.0833,-0.084 0.22147,-0.1935 0.4159,-0.3325 0.38887,-0.3056 0.58429,-0.6251 0.58429,-0.9584 z m -63.84335,0.1668 c -0.94441,0.7779 -1.87383,1.3737 -2.79045,1.7903 -0.91664,0.4166 -1.88935,0.6261 -2.91708,0.6261 l -0.41734,0 c -0.16666,-0.028 -0.36063,-0.055 -0.58285,-0.084 -0.30554,0 -0.45763,0.1243 -0.45763,0.3742 0.19443,0 0.52654,0.042 0.99874,0.1253 0.49998,0.055 0.8754,0.083 1.12539,0.083 0.38887,0 0.75033,-0.069 1.08364,-0.2086 0.27777,-0.1945 0.79133,-0.4164 1.5413,-0.6663 0.38887,-0.1389 0.72241,-0.2631 1.00018,-0.3741 0.27777,-0.139 0.51362,-0.2785 0.70804,-0.4174 0.41665,-0.25 0.70832,-0.6114 0.87499,-1.0837 l -0.16693,-0.1655 z m 62.09338,0.1237 c -0.27776,0.1945 -0.72297,0.2922 -1.33406,0.2922 l -0.83324,0 c -0.30554,0 -0.54138,0.042 -0.70804,0.1253 l 0.1252,0.1251 c 0.41665,0.1389 0.79206,0.2087 1.12539,0.2087 0.77774,0 1.31922,-0.2513 1.62475,-0.7513 z m -124.486125,0.2087 c -0.277767,0 -0.915499,0.1954 -1.91546,0.5843 l 0.207233,0 c 0.138884,-0.028 0.348246,-0.069 0.626013,-0.1251 0.583311,-0.139 0.94333,-0.2925 1.082214,-0.4592 z m 1.000183,0.1253 c -0.08333,0.028 -0.221468,0.097 -0.415903,0.2086 -0.166662,0.084 -0.389983,0.1935 -0.66775,0.3325 -0.527755,0.2776 -0.999435,0.4452 -1.416086,0.5008 1.388833,0 2.221973,-0.3475 2.499739,-1.0419 z m 42.266742,0 c -0.30555,0 -0.486993,0.1535 -0.542548,0.459 0,0.1945 0.221878,0.2908 0.666308,0.2908 0.27777,0 0.41734,-0.1242 0.41734,-0.3743 -0.0833,-0.2499 -0.26333,-0.3755 -0.5411,-0.3755 z m 55.5109,0 c -2.13881,0.1388 -3.67947,0.7222 -4.62387,1.7499 0.0555,0.3334 0.16576,0.7367 0.33243,1.2088 0.19444,0.4445 0.44567,0.9441 0.75122,1.4996 0.30555,0.5556 0.55534,1.0273 0.74979,1.4162 0.2222,0.361 0.36034,0.6386 0.41589,0.8331 0.66665,0.8334 1.19415,1.6944 1.58302,2.5832 0.19445,0.4167 0.40381,0.9443 0.62602,1.5831 0.24999,0.6111 0.52771,1.334 0.83323,2.1672 0.30555,0.8335 0.59722,1.5688 0.87499,2.2077 0.30555,0.6111 0.5693,1.126 0.79151,1.5427 0.19444,0.2223 0.40237,0.6381 0.62458,1.2492 0.1111,0.3056 0.20881,0.5833 0.29213,0.8332 0.11111,0.2223 0.19343,0.4037 0.24898,0.5425 0.1111,0.2501 0.38882,0.3743 0.83325,0.3743 0.0556,0 0.22304,-0.029 0.5008,-0.084 0.0277,-0.25 -0.0281,-0.4859 -0.16694,-0.7081 -0.1111,-0.2221 -0.24923,-0.4441 -0.41589,-0.6662 -0.16667,-0.2222 -0.32021,-0.4301 -0.45909,-0.6246 -0.1111,-0.2223 -0.13902,-0.4316 -0.0835,-0.6261 -0.27777,-0.4166 -0.48568,-0.9022 -0.62458,-1.4578 -0.13887,-0.5832 -0.27845,-1.1806 -0.41733,-1.7917 -0.11111,-0.611 -0.24926,-1.2083 -0.41591,-1.7916 -0.13888,-0.5833 -0.33285,-1.1109 -0.58284,-1.5831 0.2222,-0.2223 0.33244,-0.3757 0.33244,-0.4591 0,-0.055 -0.0419,-0.1239 -0.1252,-0.2073 l -0.41592,0.1253 c -0.4722,-0.7222 -0.8197,-1.5554 -1.04192,-2.4997 0,-0.084 -0.0977,-0.2648 -0.29213,-0.5425 -0.16667,-0.2778 -0.24897,-0.5136 -0.24897,-0.7081 0,-0.139 0.0404,-0.2785 0.12377,-0.4174 l 0.3756,0 c 0,-0.5278 0.014,-0.8334 0.0418,-0.9167 -0.38888,0 -0.68054,-0.096 -0.87499,-0.2906 -0.16666,-0.1667 -0.2504,-0.3343 -0.2504,-0.5008 0,-0.1391 0.0698,-0.347 0.20867,-0.6247 0.13889,-0.3056 0.20867,-0.5693 0.20867,-0.7914 l 0.29072,0.4994 c 0,-0.1945 -0.0684,-0.4164 -0.20725,-0.6664 -0.1111,-0.2777 -0.16693,-0.4856 -0.16693,-0.6246 0,-0.028 0.0279,-0.1255 0.0835,-0.2922 l 0.54112,0.9168 c 0,-0.2223 -0.0837,-0.5279 -0.2504,-0.9168 -0.16667,-0.3888 -0.24898,-0.6665 -0.24898,-0.8332 0,-0.084 0.0279,-0.1796 0.0835,-0.2907 0.11111,0.1111 0.24924,0.3609 0.41591,0.7498 0.16665,0.3612 0.29226,0.6249 0.3756,0.7916 0.13889,0.1385 0.29098,0.2209 0.45764,0.2489 -0.0833,-0.3611 -0.23542,-0.7211 -0.45764,-1.0823 -0.22222,-0.3888 -0.43158,-0.7641 -0.626,-1.1253 z m -86.777064,0.042 -1.25059,0.4172 c -0.416649,0.1111 -0.819981,0.2075 -1.208854,0.2908 0.222212,0.055 0.34783,0.084 0.375608,0.084 0.194437,0 0.444235,-0.056 0.749778,-0.1669 0.305543,-0.1111 0.527426,-0.1655 0.666309,-0.1655 0.138884,0 0.250544,0.041 0.333875,0.1237 0.08332,-0.028 0.139158,-0.11 0.166937,-0.2489 0.05555,-0.1666 0.111383,-0.2784 0.166937,-0.3338 z m 21.182299,0.042 c -0.277766,0 -0.485691,0.1117 -0.624575,0.334 -0.111106,0.1947 -0.236724,0.3048 -0.375608,0.3324 -0.277767,-0.028 -0.541522,0.043 -0.791512,0.2086 -0.24999,0.139 -0.499788,0.305 -0.749778,0.4994 -0.222213,0.1944 -0.444096,0.3759 -0.666309,0.5425 -0.194436,0.1669 -0.374445,0.2353 -0.541107,0.2073 -0.361096,0 -0.624851,-0.054 -0.791512,-0.1655 -0.166659,-0.1389 -0.445811,-0.4027 -0.834684,-0.7915 -0.361097,-0.4164 -0.679244,-0.6398 -0.95701,-0.6678 0.16666,0.4722 0.526679,0.9174 1.082213,1.3341 0.583309,0.3886 1.16665,0.5965 1.749961,0.6245 1.999919,-0.611 3.166601,-1.4302 3.499921,-2.458 z m -38.514973,0.1252 c 0.08333,0.028 0.221467,0.084 0.415903,0.167 0.194437,0.084 0.388404,0.1657 0.582842,0.249 0.222212,0.084 0.431577,0.167 0.626013,0.2504 0.194436,0.056 0.360489,0.084 0.499373,0.084 0.05556,0 0.167215,-0.028 0.333873,-0.084 l -2.458004,-0.6664 z m 52.180788,0 c 0.36109,0.2223 0.68068,0.3325 0.95845,0.3325 0.11111,0 0.16694,-0.027 0.16694,-0.082 -0.22222,-0.055 -0.43015,-0.084 -0.62458,-0.084 -0.19444,-0.028 -0.36193,-0.084 -0.50081,-0.167 z m 13.67013,0 c -0.16665,0.056 -0.36207,0.1254 -0.58427,0.2088 -0.22222,0.084 -0.45806,0.1795 -0.70806,0.2906 -0.24999,0.084 -0.48583,0.181 -0.70803,0.2922 -0.22221,0.084 -0.38971,0.1389 -0.50081,0.1669 0.27777,0.055 0.44525,0.083 0.50081,0.083 0.38887,0 0.76427,-0.1256 1.12539,-0.3755 0.36108,-0.2501 0.65276,-0.4719 0.87497,-0.6664 z m -15.04448,0.167 0.5411,0.2907 0,-0.2073 -0.5411,-0.084 z m -16.708101,0.2072 c -0.361097,0 -0.541107,0.098 -0.541107,0.2922 0.08333,0.1389 0.222906,0.291 0.417342,0.4576 0.194438,0.1389 0.430278,0.2087 0.708045,0.2087 0.361096,0 0.652767,-0.166 0.87498,-0.4994 -0.277767,0.055 -0.473173,0.084 -0.58428,0.084 -0.472203,0 -0.763874,-0.1815 -0.87498,-0.5426 z m 101.802831,0.042 -1.58302,0.7498 c -1.11108,0 -2.2094,0.083 -3.29268,0.2504 -1.0833,0.1389 -2.40208,0.3747 -3.95757,0.708 -0.77775,0.1389 -1.44483,0.2646 -2.00037,0.3756 -0.52775,0.1111 -0.97151,0.1934 -1.33262,0.249 l -0.79152,0.626 c 0.52776,0 0.99944,-0.028 1.4161,-0.084 0.41664,-0.084 0.91624,-0.1951 1.49956,-0.334 0.30554,-0.055 0.55534,-0.1113 0.74978,-0.1668 0.22221,-0.055 0.38969,-0.097 0.5008,-0.1252 0.49999,-0.028 1.18103,-0.068 2.0421,-0.1238 0.86108,-0.083 1.9161,-0.1811 3.16606,-0.2922 1.24994,-0.1111 2.3608,-0.1948 3.33298,-0.2504 0.99997,-0.055 1.86102,-0.084 2.58321,-0.084 0.58331,0 1.13873,0.015 1.66648,0.044 0.55554,0.028 1.06909,0.068 1.5413,0.1239 l 0.41734,-0.6663 c 0.19444,-0.1667 0.3884,-0.2504 0.58285,-0.2504 0.41664,0 0.84789,0.3474 1.29232,1.0418 0.16665,0.055 0.38854,0.084 0.66631,0.084 0.61107,0 1.16649,-0.2079 1.66649,-0.6246 -0.25,-0.139 -0.62541,-0.2506 -1.12539,-0.3339 -0.49997,-0.083 -0.83352,-0.1389 -1.00019,-0.1669 l 0,0 c -0.66664,-0.3056 -1.34624,-0.4592 -2.04066,-0.4592 -0.22221,0 -0.48597,0.028 -0.79151,0.084 -0.30554,0.028 -0.667,0.069 -1.08365,0.1252 -0.41665,0.055 -0.77811,0.097 -1.08365,0.1252 -0.30554,0.028 -0.5693,0.04 -0.79151,0.04 -0.88887,0 -1.63824,-0.2219 -2.24934,-0.6663 z m -54.09337,0.042 c 0,0.361 0.13959,0.6666 0.41735,0.9167 0.61109,0.2499 1.26278,0.3755 1.9572,0.3755 0.55552,0 1.07051,-0.083 1.54272,-0.2504 -0.30554,0.4722 -0.80657,0.75 -1.501,0.8333 1.30551,0 2.36196,-0.4997 3.16748,-1.4996 -0.24998,-0.083 -0.47329,-0.1251 -0.66774,-0.1251 -0.16666,0 -0.37458,0.056 -0.62457,0.1669 -0.24999,0.084 -0.49978,0.1796 -0.74977,0.2907 -0.25,0.083 -0.49979,0.181 -0.74978,0.2922 -0.22222,0.083 -0.43014,0.1251 -0.62458,0.1251 l -0.20868,0 c -0.0555,-0.028 -0.15325,-0.055 -0.29213,-0.083 -0.19443,-0.028 -0.3605,-0.098 -0.49938,-0.2088 -0.13889,-0.1111 -0.26449,-0.2213 -0.37561,-0.3323 -0.1111,-0.139 -0.23528,-0.2506 -0.37416,-0.334 -0.11111,-0.111 -0.25069,-0.1668 -0.41735,-0.1668 z m -1.58302,0.1251 c 0.58331,1.1667 1.69416,1.75 3.33299,1.75 -0.38888,0 -0.72242,-0.069 -1.00018,-0.2086 -0.25,-0.1391 -0.54166,-0.347 -0.87499,-0.6247 -0.30553,-0.3056 -0.55534,-0.5135 -0.74977,-0.6245 -0.16666,-0.1389 -0.40251,-0.2366 -0.70805,-0.2922 z m 3.24952,0 0,0.3757 1.54128,-0.1253 c -0.49997,-0.1666 -1.01352,-0.2504 -1.54128,-0.2504 z m 22.96967,0.1253 0.20868,0.6245 c 0.4722,0.9722 1.22159,1.4593 2.24933,1.4593 -0.94442,-0.5556 -1.49983,-1.0427 -1.6665,-1.4593 0.30555,0 0.62513,0.098 0.95846,0.2922 0.36106,0.1667 0.55504,0.2504 0.58283,0.2504 -0.0833,-0.028 -0.41687,-0.2232 -1.00018,-0.5844 -0.58331,-0.3608 -1.02707,-0.5547 -1.33262,-0.5827 z m -106.403672,0.084 c -0.277767,0 -0.485693,0.194 -0.624576,0.583 0.138883,0.3055 0.360767,0.459 0.666309,0.459 0.166661,0 0.444373,-0.069 0.833246,-0.2086 0.388873,-0.1668 0.668025,-0.2504 0.834686,-0.2504 -0.166661,0 -0.458331,-0.096 -0.874981,-0.2908 -0.388873,-0.1945 -0.668025,-0.2922 -0.834684,-0.2922 z m 16.375663,0.1656 c -0.111107,0 -0.236725,0.028 -0.375609,0.084 -0.111105,0.055 -0.180892,0.083 -0.208671,0.083 0.166659,0 0.27832,-0.012 0.333874,-0.04 0.05555,-0.028 0.139299,-0.069 0.250406,-0.1252 l 0,0 z m 37.182359,0 c -1.77771,0 -3.43003,0.069 -4.95775,0.2087 -1.499938,0.1388 -2.917857,0.3468 -4.251136,0.6245 -0.638864,0 -1.388258,-0.042 -2.249334,-0.1252 -0.888853,-0.083 -1.486152,-0.1252 -1.791695,-0.1252 -1.111065,0 -1.972121,0.3057 -2.583207,0.9167 -0.388874,0.1111 -0.888469,0.2088 -1.499556,0.2922 -0.583309,0.056 -1.292269,0.1102 -2.125569,0.1655 -1.638823,0.083 -2.845939,0.167 -3.623685,0.2504 -0.388874,0.028 -0.778248,0.097 -1.167121,0.2086 -0.388874,0.084 -0.778247,0.195 -1.167121,0.334 -0.724495,0.5886 -1.148284,1.1859 -1.282249,1.793 0.04672,0.1211 0.423877,0.6031 0.205793,1.0664 1.517661,-0.037 2.771575,-0.3865 3.743132,-1.0692 0.138883,-0.029 0.332851,-0.068 0.58284,-0.1237 0.249991,-0.055 0.569577,-0.1118 0.95845,-0.1671 0.388872,-0.055 0.736374,-0.1253 1.041917,-0.2086 0.305543,-0.084 0.569299,-0.1671 0.791513,-0.2504 l -0.208672,-0.249 -6.248627,1.3327 c 1.861036,-0.6111 3.818985,-1.0967 5.874457,-1.4578 2.055474,-0.389 4.166955,-0.6946 6.333536,-0.9167 1.08329,-0.1111 2.138312,-0.2088 3.166048,-0.2922 1.055513,-0.084 2.124492,-0.1389 3.207782,-0.1669 1.08329,-0.055 2.208094,-0.096 3.374714,-0.1239 1.1944,-0.055 2.45878,-0.097 3.79206,-0.1251 0,0.1388 -0.0419,0.221 -0.1252,0.249 0.44443,0 0.81984,-0.18 1.12539,-0.5412 0.33332,-0.3888 0.65291,-0.8745 0.95845,-1.4578 l -0.95845,0 c -0.41666,-0.027 -0.72227,-0.042 -0.91671,-0.042 z m 70.76117,0.042 0.1252,1.2909 0.2504,0 c 0.58333,-0.1112 0.87499,-0.3331 0.87499,-0.6664 0,-0.1111 -0.0558,-0.2228 -0.16693,-0.3339 l -0.70806,0.3756 c 0,-0.4444 -0.12562,-0.6662 -0.3756,-0.6662 z m -113.694224,0.084 c -0.833301,0 -1.624566,0.1396 -2.374536,0.4174 -0.138883,-0.029 -0.318893,-0.044 -0.541107,-0.044 l -0.792951,0 c -0.472203,0 -0.915967,0.015 -1.332618,0.044 -0.416649,0.027 -0.860415,0.082 -1.332618,0.1654 -0.472203,0.055 -0.987195,0.1394 -1.542728,0.2504 -0.555535,0.084 -1.193266,0.1811 -1.91546,0.2922 -1.472163,0.25 -2.598412,0.4161 -3.376158,0.4993 -0.388873,0.2223 -0.58284,0.6116 -0.58284,1.1672 l 0,1.3744 c 0.833299,-0.084 1.514344,-0.2775 2.042099,-0.583 -0.138882,0 -0.306374,0.013 -0.50081,0.042 l -0.374169,0 c -0.361097,0 -0.596938,-0.096 -0.708045,-0.2907 0.527759,-0.75 1.790704,-1.1254 3.790624,-1.1254 -0.111107,0.1667 -0.291117,0.291 -0.541106,0.3742 -0.24999,0.055 -0.389565,0.097 -0.417343,0.1252 0.111106,0 0.348385,0.069 0.709482,0.2086 -0.05555,0.084 -0.167213,0.1811 -0.333874,0.2922 -0.138883,0.1111 -0.208671,0.2353 -0.208671,0.3741 0.166661,0.084 0.334151,0.1253 0.500811,0.1253 0.138884,0 0.346808,-0.042 0.624575,-0.1253 0.305542,-0.083 0.485553,-0.1251 0.541107,-0.1251 l -0.332436,-0.708 c 0.277767,-0.1945 0.609871,-0.2908 0.998745,-0.2908 0.277766,0 0.639225,0.054 1.083652,0.1655 0.444426,0.1111 0.791928,0.167 1.041917,0.167 0.08333,0 0.26334,-0.029 0.541107,-0.084 l -0.165498,0.042 c -0.527757,0.055 -0.945046,0.237 -1.250589,0.5426 -0.277767,0.2777 -0.527565,0.5275 -0.749778,0.7497 l 0.332435,0.1252 c 0.111106,-0.1945 0.26464,-0.2922 0.459077,-0.2922 0.138883,0 0.318893,0.056 0.541106,0.167 0.222214,0.084 0.375746,0.1252 0.459078,0.1252 0.166659,0 0.290839,-0.098 0.374169,-0.2922 0.111106,0.028 0.250682,0.042 0.417343,0.042 l 0.624574,0 c 0.333319,0 0.778524,-0.013 1.334058,-0.042 0.555533,-0.055 1.235139,-0.1393 2.040661,-0.2504 0.805525,-0.1108 1.528441,-0.1792 2.167304,-0.2072 0.66664,-0.055 1.277897,-0.084 1.833429,-0.084 l -0.08347,-0.042 c -0.611087,0 -0.916715,-0.1815 -0.916715,-0.5426 0.361096,0 0.666725,0.013 0.916715,0.042 l 0.415903,0 c 0.583311,0 1.028515,0.1257 1.334058,0.3755 0.444427,-0.055 0.832361,-0.2494 1.165681,-0.5827 0.33332,-0.3612 0.764567,-0.8901 1.292324,-1.5845 l -0.333874,0 c -0.527758,-0.028 -1.139014,-0.098 -1.83343,-0.2087 -0.694417,-0.1389 -1.318192,-0.263 -1.873724,-0.3741 -0.555534,-0.1111 -1.098441,-0.2088 -1.626199,-0.2922 -0.499979,-0.083 -1.013533,-0.1251 -1.541289,-0.1251 z m 21.058537,0.1252 c -0.08333,0.1667 -0.125203,0.3202 -0.125203,0.459 0,0.2501 0.111661,0.5557 0.333874,0.9167 0.277766,0 0.527564,-0.083 0.749778,-0.2504 0,-0.1111 -0.05583,-0.2226 -0.166937,-0.3338 -0.08333,-0.1389 -0.179595,-0.2631 -0.290701,-0.3742 -0.111107,-0.1111 -0.222768,-0.1948 -0.333874,-0.2504 -0.111107,-0.083 -0.166937,-0.1389 -0.166937,-0.1669 z m 48.083637,0.1669 c 0,0.4167 -0.014,0.9038 -0.0418,1.4592 0,0.5278 -0.0139,1.1237 -0.0418,1.7903 -0.0278,0.6389 -0.0542,1.2096 -0.082,1.7096 l 0,1.291 c 0,1.9166 0.19398,3.6247 0.58285,5.1247 -0.38887,0.8332 -0.58285,1.8339 -0.58285,3.0005 l 0,0.7498 c 0.0277,0.3056 0.0542,0.6531 0.082,1.0419 0.0277,0.3889 0.0418,0.7489 0.0418,1.0823 0.0278,0.3332 0.0418,0.6249 0.0418,0.8749 0.47219,0.8055 0.95928,1.2089 1.45925,1.2089 l 0,-18.2077 -1.45925,-1.1254 z m -23.91805,0.2921 c -0.24999,0.1667 -0.45792,0.3188 -0.62458,0.4577 -0.13888,0.1389 -0.27846,0.3204 -0.41734,0.5426 -0.13888,0.1944 -0.29098,0.4442 -0.45764,0.7498 -0.13889,0.2777 -0.3189,0.6392 -0.54111,1.0836 -0.16666,0.5556 -0.2504,1.0272 -0.2504,1.4161 0,0.75 0.22188,1.2915 0.6663,1.6247 0.41668,0 0.63856,-0.056 0.6663,-0.1669 -0.0277,-0.1666 -0.0556,-0.3047 -0.0835,-0.4159 l 0,-0.3339 c 0,-0.4444 0.15354,-1.0975 0.45909,-1.9587 0.16666,-0.4166 0.29083,-0.7487 0.37417,-0.9986 0.11113,-0.2501 0.18091,-0.4315 0.20866,-0.5426 l -0.5411,0.2922 -0.0835,-0.2504 c 0,-0.139 0.12418,-0.319 0.37417,-0.5412 0.24999,-0.25 0.37561,-0.4594 0.37561,-0.626 0,-0.084 -0.0419,-0.1936 -0.1252,-0.3325 z m 91.38653,0.042 c -1.24995,0.3332 -2.09704,1.013 -2.54148,2.0406 -0.27776,0.4723 -0.41734,0.9314 -0.41734,1.3758 0,0.3611 0.13958,0.6808 0.41734,0.9584 -0.0278,-0.1664 -0.0556,-0.3061 -0.0835,-0.4172 l 0,-0.249 c 0,-0.5 0.12417,-0.973 0.37417,-1.4176 0.24998,-0.4722 0.52769,-0.9717 0.83323,-1.4994 0.0833,-0.1112 0.33313,-0.195 0.74979,-0.2504 0.41666,-0.084 0.63999,-0.2634 0.66774,-0.5412 z m -10.70844,0.7081 c -5.99977,0 -10.83253,0.6251 -14.49905,1.8751 l 0,0.4159 c 0.52776,0 1.01338,-0.027 1.45782,-0.083 0.44442,-0.084 1.0138,-0.1936 1.70822,-0.3325 0.7222,-0.1667 1.26366,-0.2783 1.62476,-0.3339 0.38888,-0.084 0.7922,-0.1251 1.20886,-0.1251 0.1111,0 0.23528,0.013 0.37417,0.042 0.16665,0 0.36206,0.015 0.58427,0.043 -0.0277,0.028 -0.13944,0.082 -0.33386,0.1655 -0.19448,0.055 -0.30613,0.1672 -0.33389,0.3339 l 4.20941,-0.3756 c -0.3611,0.2777 -1.00027,0.4592 -1.91689,0.5425 -0.88887,0.055 -1.47221,0.1379 -1.74998,0.249 1.9166,-0.084 3.58287,-0.1796 4.99949,-0.2907 1.4166,-0.1389 2.74934,-0.3608 3.9993,-0.6664 -0.33333,-0.1665 -0.67939,-0.2504 -1.04048,-0.2504 -0.16667,0 -0.36208,0.028 -0.58429,0.084 -0.22221,0.028 -0.45805,0.069 -0.70804,0.1252 l -0.66631,0.1654 c -0.19444,0.028 -0.36192,0.043 -0.5008,0.043 l -0.37417,-0.2921 c 0.55553,-0.1665 1.13886,-0.2922 1.74995,-0.3756 0.63886,-0.1111 1.472,-0.2213 2.49974,-0.3324 0.52776,-0.055 0.94504,-0.097 1.25058,-0.1252 0.33333,-0.028 0.56918,-0.055 0.70806,-0.084 l 0.16693,0.2504 c -0.13889,0.1668 -0.39013,0.3048 -0.75122,0.416 l 2.0234,-0.1152 c -0.47222,-0.031 -0.87829,-0.093 -1.14841,-0.2172 0.3333,-0.1388 0.6529,-0.2087 0.95844,-0.2087 0.22222,0 0.55575,0.042 1.00018,0.1251 0.44444,0.055 0.77797,0.084 1.0002,0.084 l 0.20866,0 c 0.1111,-0.028 0.23528,-0.055 0.37417,-0.084 0.30554,0 0.45908,-0.1394 0.45908,-0.4172 -0.13888,-0.028 -0.25055,-0.042 -0.33388,-0.042 -0.0556,-0.028 -0.11139,-0.042 -0.16693,-0.042 -0.22222,0 -0.47202,0.042 -0.74979,0.1253 -0.27777,0.084 -0.47173,0.1251 -0.58283,0.1251 -0.25,0 -0.48583,-0.1115 -0.70805,-0.3338 -1.24995,-0.028 -2.32036,-0.042 -3.20923,-0.042 -0.88884,-0.028 -1.62429,-0.042 -2.20759,-0.042 z m 5.10598,0.9684 c 0.12979,0.01 0.24493,0.024 0.39,0.026 -0.0573,-0.021 -0.1234,-0.036 -0.20436,-0.036 l -0.18564,0.011 z m 0.39,0.026 c 0.13944,0.052 0.21154,0.1625 0.21154,0.3397 -0.24999,0.1666 -0.54166,0.2504 -0.87497,0.2504 -0.27776,0 -0.63779,-0.084 -1.08222,-0.2504 -0.16666,0.1111 -0.36207,0.1948 -0.58428,0.2504 -0.22222,0.028 -0.45806,0.055 -0.70805,0.083 -0.22221,0.028 -0.43013,0.069 -0.62457,0.1238 -0.19444,0.029 -0.36192,0.097 -0.5008,0.2087 l 5.08438,-0.2504 c 0.0556,-0.2223 0.15182,-0.3325 0.29069,-0.3325 0.0833,0 0.18103,0.028 0.29214,0.084 0.13888,0.055 0.2366,0.083 0.29215,0.083 0.13888,0 0.20723,-0.1675 0.20723,-0.5008 -0.27778,-0.055 -0.65175,-0.084 -1.12395,-0.084 l -0.79152,0 c -0.0334,0 -0.0551,-0.01 -0.0878,-0.01 z m 4.66992,-0.8275 c -0.27777,0 -0.47175,0.2638 -0.58285,0.7915 l 0.33388,0 c 0.19443,-0.027 0.37445,-0.2635 0.54111,-0.708 -0.16669,-0.055 -0.26439,-0.083 -0.29214,-0.083 z m -83.03968,0.074 c -0.10416,-0.02 -0.21895,-0.018 -0.34395,0.011 0.0277,0.8054 0.47299,1.6246 1.33404,2.4579 0.0834,-0.083 0.19357,-0.153 0.33245,-0.2087 0.13889,-0.084 0.20867,-0.1935 0.20867,-0.3323 -0.16666,-0.139 -0.31875,-0.3204 -0.45764,-0.5426 -0.1111,-0.25 -0.23672,-0.4859 -0.37561,-0.708 -0.1111,-0.2222 -0.24923,-0.4022 -0.4159,-0.5412 -0.0833,-0.069 -0.1779,-0.1144 -0.28206,-0.1352 z m -1.92697,0.052 c -0.22222,0 -0.4441,0.028 -0.66631,0.083 0.36109,1.1667 0.97235,2.3599 1.83342,3.582 0.86108,1.1944 1.7361,2.4029 2.62494,3.6251 0.44444,0.3333 0.75005,0.8344 0.91671,1.501 0.19444,0.6389 0.34654,1.3046 0.45766,1.999 0.13887,0.6944 0.30636,1.3615 0.5008,2.0003 0.22221,0.6111 0.59618,1.0549 1.12394,1.3326 0.16666,0.4445 0.40394,0.8059 0.7095,1.0837 0.3333,0.2778 0.70728,0.4173 1.12393,0.4173 0.27776,0 0.5834,-0.083 0.91671,-0.2504 0.22223,0 0.47202,0.042 0.74979,0.1253 0.27777,0.083 0.45921,0.1251 0.54253,0.1251 0.19444,0 0.31863,-0.1256 0.37418,-0.3755 l 0.0835,0.1251 c 0.0555,0.055 0.12534,0.084 0.20867,0.084 -0.0555,-0.139 -0.16721,-0.3887 -0.33387,-0.7498 -0.16667,-0.3612 -0.40251,-0.8342 -0.70805,-1.4175 -0.27776,-0.611 -0.5136,-1.1386 -0.70804,-1.583 -0.19444,-0.4722 -0.34796,-0.8881 -0.45908,-1.2492 0.19444,0.2222 0.38984,0.4999 0.58428,0.8332 0.19444,0.3056 0.40236,0.6936 0.62458,1.1657 0.44442,0.9167 0.81985,1.5838 1.12538,2.0004 -0.13888,-0.5 -0.3468,-0.9856 -0.62456,-1.4579 -0.25,-0.5 -0.37561,-0.973 -0.37561,-1.4175 0.19443,0.4445 0.51401,1.0975 0.95844,1.9587 0.44443,0.8332 1.01381,1.8744 1.70822,3.1243 -0.0556,-0.139 -0.23699,-0.5129 -0.54254,-1.124 -0.27777,-0.6111 -0.69362,-1.4861 -1.24915,-2.6249 -0.55552,-1.1389 -1.01326,-2.1115 -1.37435,-2.9171 -0.36109,-0.8054 -0.64025,-1.4446 -0.83469,-1.9169 l -0.2907,0.2922 1.41609,2.7501 -0.1252,0.1253 c -0.11111,-0.1668 -0.27716,-0.4166 -0.49938,-0.7499 -0.19442,-0.3611 -0.44423,-0.8062 -0.74977,-1.334 -0.30554,-0.5278 -0.58327,-0.9855 -0.83326,-1.3744 -0.24998,-0.3888 -0.48582,-0.7085 -0.70802,-0.9584 0.0277,0.1389 0.19382,0.4864 0.49936,1.0419 0.30553,0.5277 0.45763,0.9575 0.45763,1.2909 -0.49997,-0.8056 -0.9577,-1.5689 -1.37435,-2.2912 -0.41664,-0.7221 -0.73624,-1.4311 -0.95844,-2.1255 0.0833,0.055 0.16708,0.1672 0.2504,0.3339 0.0833,0.1667 0.18103,0.2769 0.29214,0.3324 l 0.1655,-0.2489 0.66776,0.7914 c 0,-0.6944 -0.22334,-1.3894 -0.66776,-2.0837 -0.44442,-0.6945 -0.90215,-1.1801 -1.37435,-1.4579 0.0277,0.084 0.0975,0.2494 0.20867,0.4994 0.13888,0.25 0.20722,0.4873 0.20722,0.7094 l -2.08239,-2.75 c 0.0277,0.1666 0.0976,0.3326 0.20868,0.4994 0.11111,0.1388 0.22132,0.2923 0.33243,0.459 0.1111,0.1388 0.20881,0.2909 0.29214,0.4577 0.11112,0.1388 0.16694,0.2784 0.16694,0.4173 l -0.20868,0 c 0.0833,0.1388 0.1252,0.263 0.1252,0.3741 0,0.3611 -0.26375,0.5969 -0.79151,0.708 0.0277,0.056 0.0837,0.1534 0.16694,0.2922 0.0833,0.1389 0.17959,0.305 0.29071,0.4994 0.11111,0.1945 0.2088,0.3899 0.29213,0.5843 0.11112,0.1944 0.20738,0.3604 0.2907,0.4993 0.13889,0.3334 0.20869,0.625 0.20869,0.8751 l -2.24936,-3.2496 c -0.24998,-0.25 -0.52768,-0.6813 -0.83323,-1.2923 -0.3611,-0.6944 -0.66673,-1.194 -0.91672,-1.4996 -0.30554,-0.3333 -0.69492,-0.4993 -1.16711,-0.4993 z m -42.892764,0.1251 -0.292141,0.3743 c 0.277766,0 0.417342,-0.042 0.417342,-0.1253 0,-0.084 -0.04188,-0.1656 -0.125201,-0.249 z m 64.226154,0.082 c 0,0.8888 -0.0419,2.209 -0.1252,3.9589 -0.0278,0.8611 -0.0556,1.6105 -0.0835,2.2494 l 0,1.5413 0,1.0001 c 0.0278,0.389 0.0556,0.8342 0.0835,1.3341 0,-0.3889 0.0419,-1.4174 0.1252,-3.084 0.0834,-1.6666 0.12377,-2.9435 0.12377,-3.8324 0,-1.0277 -0.0404,-2.0841 -0.12377,-3.1674 z m -22.95816,0.084 c -0.16666,2.0555 -0.2504,4.0972 -0.2504,6.1249 0,1.7776 0.0558,3.6394 0.16694,5.5838 0.13888,1.9166 0.34681,3.9163 0.62457,5.9996 -0.22222,0.8333 -0.33244,1.6804 -0.33244,2.5414 0,0.5278 0.0419,1.3052 0.1252,2.3328 0.0556,0.5 0.0975,0.9592 0.12522,1.3758 0.0278,0.4168 0.0418,0.7767 0.0418,1.0823 0,0.1388 -0.014,0.3343 -0.0418,0.5843 0,0.2222 -0.014,0.4999 -0.0418,0.8332 0.24999,0.5 0.59605,0.9578 1.04048,1.3744 0.4722,0.4166 0.95927,0.6943 1.45924,0.8332 l -0.0418,-3.333 c 0.19443,-0.1944 0.2907,-0.4163 0.2907,-0.6663 0,-0.055 -0.0125,-0.2231 -0.0404,-0.5008 -0.0278,-0.2777 -0.0418,-0.5415 -0.0418,-0.7915 l -0.33387,0.084 -0.0835,-0.2489 c 0,-0.1294 0.0668,-0.2327 0.1871,-0.3137 0.0206,0.02 0.093,0.053 0.23024,0.105 l 0,-5.5003 c 0,-0.3055 0.11024,-0.4576 0.33244,-0.4576 l 0,-0.8749 c -0.16666,0.083 -0.44436,0.3609 -0.83324,0.8331 -0.3611,0.4445 -0.72256,0.6663 -1.08366,0.6663 l -0.4159,-0.084 c -0.38887,-0.3056 -0.58284,-0.6671 -0.58284,-1.0837 0,-0.1388 0.0265,-0.3608 0.082,-0.6663 0.0556,-0.3333 0.0835,-0.5831 0.0835,-0.7498 0.16664,-1.0277 0.5002,-1.6669 1.00016,-1.9169 -0.44441,1.0555 -0.66631,1.9445 -0.66631,2.6667 0,0.4723 0.0837,0.9174 0.25042,1.3341 l 0.58284,0 c 0.0833,-0.1112 0.2229,-0.2647 0.41734,-0.4592 0.19444,-0.2221 0.40236,-0.4579 0.62458,-0.708 0.2222,-0.2499 0.43013,-0.4998 0.62457,-0.7497 0.19443,-0.25 0.36048,-0.4858 0.49937,-0.708 0.27776,-0.4167 0.45921,-0.9177 0.54255,-1.501 l 0.0835,-0.4159 c 0,-0.1945 -0.0558,-0.362 -0.16693,-0.5008 -0.1111,-0.139 -0.25068,-0.2771 -0.41733,-0.4159 -0.13889,-0.1667 -0.26307,-0.3202 -0.37418,-0.4592 -0.1111,-0.1665 -0.16694,-0.3606 -0.16694,-0.5828 -0.19444,0.9444 -0.84757,1.7357 -1.95864,2.3746 0.0556,-0.2222 0.12536,-0.3605 0.20868,-0.4159 -0.1111,-0.639 -0.16693,-1.472 -0.16693,-2.4998 l 0,-0.7915 c 0,-0.3055 0.014,-0.667 0.0418,-1.0837 0.0277,-0.4444 0.0418,-0.8199 0.0418,-1.1254 l 0,-0.7498 c 0,-2.8888 -0.55542,-5.0142 -1.66649,-6.3752 z m -12.626774,0.167 c -0.166659,0.083 -0.472287,0.1389 -0.916715,0.1669 -0.444426,0.028 -0.777969,0.084 -1.000183,0.1669 -0.194436,0.028 -0.29214,0.1938 -0.29214,0.4993 l 4.374902,-0.1668 0,-0.4994 -2.165864,-0.1669 z m 34.376094,0 c -0.24999,2.0555 -0.37562,4.4865 -0.37562,7.292 l 0,2.291 c 0.0278,0.8611 0.0556,1.8757 0.0835,3.0423 0.0833,2.3054 0.12521,3.7638 0.12521,4.3749 0,0.6666 0.22187,1.0407 0.6663,1.1239 l 0,-0.3742 -0.1655,0 c -0.13887,-0.1388 -0.20867,-0.3342 -0.20867,-0.5842 0,-0.1111 0.13812,-0.1655 0.41589,-0.1655 l 0.12522,-15.292 -0.16694,-0.7081 c 0,0.7222 -0.0823,1.1395 -0.24897,1.2506 l -0.2504,-2.2507 z m -28.87581,0.2504 0.29071,0.5827 c 0.0556,-0.055 0.0835,-0.2075 0.0835,-0.4576 -0.0556,0 -0.12535,-0.013 -0.20868,-0.042 -0.0833,-0.055 -0.13769,-0.084 -0.16549,-0.084 z m -34.849548,0.1251 -0.417342,0.249 c -0.138885,0.1944 -0.208672,0.4317 -0.208672,0.7095 0,0.3333 0.06979,0.5413 0.208672,0.6246 0,-0.5278 0.139576,-1.0553 0.417342,-1.5831 z m 120.692628,0.084 c -0.24999,0 -0.43,0.041 -0.5411,0.1237 0.30554,0 0.48554,-0.041 0.5411,-0.1237 z m -95.551329,0.084 0,0.4993 c 0.138882,0 0.27702,-0.028 0.415903,-0.084 0.138882,-0.084 0.222628,-0.1253 0.250407,-0.1253 -0.08333,-0.084 -0.125204,-0.1794 -0.125204,-0.2906 l -0.541106,0 z m 61.886169,0 -0.0835,0.082 0.0835,0.2922 0.1252,0 -0.1252,-0.3742 z m 41.53999,0.1655 c -0.13889,0 -0.26307,0.083 -0.37417,0.2504 -0.0833,0.1665 -0.16708,0.3606 -0.2504,0.5828 -0.0557,0.1944 -0.1114,0.4037 -0.16694,0.6261 -0.0277,0.1944 -0.0418,0.3185 -0.0418,0.3741 0.44442,-0.2221 0.72214,-0.8334 0.83324,-1.8334 z m -1.00019,0.1669 -0.24897,0.2504 c 0,0.2778 -0.0837,0.6672 -0.2504,1.1671 -0.16667,0.4723 -0.25041,0.8044 -0.25041,0.9988 0,0.2499 0.0698,0.4454 0.20867,0.5842 0.0277,-0.1388 0.0556,-0.3343 0.0835,-0.5842 0.0555,-0.2778 0.0974,-0.5555 0.1252,-0.8333 0.0556,-0.3055 0.0974,-0.5972 0.1252,-0.8749 0.0556,-0.3056 0.12391,-0.5414 0.20723,-0.7081 z m -94.09351,0.1669 c -0.19443,0 -0.29214,0.056 -0.29214,0.1671 l 0.29214,0 0,-0.1671 z m -2.62494,0.084 -0.29214,0.3741 1.501,-0.2906 -1.20886,-0.084 z m -13.208175,0.042 c -0.388873,0 -0.734935,0.1101 -1.040479,0.3323 0.249991,0.2779 0.568137,0.4174 0.957011,0.4174 0.111107,0 0.278597,-0.028 0.500811,-0.084 0.222213,-0.056 0.47201,-0.1253 0.749778,-0.2087 0.277766,-0.084 0.541522,-0.1517 0.791512,-0.2072 0.01762,0 0.03011,0 0.04748,-0.01 -0.246029,-0.01 -0.573843,-0.044 -1.005941,-0.1195 -0.472202,-0.084 -0.805746,-0.1251 -1.000183,-0.1251 z m 2.006123,0.2446 c 0.02284,5e-4 0.05648,0.01 0.07772,0.01 l 0.250406,0 c 0.111106,-0.028 0.235286,-0.056 0.374169,-0.084 -0.208123,0 -0.445432,0.029 -0.702287,0.077 z m 88.714102,-0.077 c -0.4722,0.1666 -1.19511,0.2908 -2.1673,0.3741 -1.05552,0.083 -1.79095,0.2229 -2.20761,0.4173 l 2.33281,-0.2504 c 0.1111,-0.083 0.2632,-0.1252 0.45764,-0.1252 0.11111,0 0.29256,0.028 0.54255,0.083 0.24998,0.055 0.43,0.084 0.5411,0.084 0.27777,0 0.44525,-0.1941 0.50081,-0.5829 z m -21.04126,0.042 c 0.0556,0.029 0.11138,0.1102 0.16693,0.249 0.0556,0.1111 0.10994,0.2508 0.16549,0.4173 0.0556,0.1391 0.11139,0.2771 0.16696,0.416 0.0556,0.1109 0.12534,0.1807 0.20865,0.2087 -0.16665,-0.639 -0.40249,-1.0688 -0.70803,-1.291 z m -88.737134,0.1238 c -0.05556,0.056 -0.08347,0.1254 -0.08347,0.2088 0,0.055 0.04187,0.1392 0.125202,0.2504 0.08333,0.1111 0.153119,0.1947 0.208672,0.2504 0,-0.4723 -0.08374,-0.7096 -0.250405,-0.7096 z m 88.361524,0.5008 c -0.0556,0.1112 -0.0835,0.2089 -0.0835,0.2921 0,0.1668 0.15353,0.4445 0.45908,0.8334 0,-0.4445 -0.12562,-0.8199 -0.37561,-1.1255 z m -91.360636,0.2088 c 0.111107,0.028 0.235287,0.1379 0.37417,0.3323 0.138884,0.1668 0.292417,0.2504 0.459078,0.2504 -0.111108,-0.1111 -0.236727,-0.2367 -0.375609,-0.3755 -0.111107,-0.139 -0.263202,-0.2072 -0.457639,-0.2072 z m 19.933152,0 c -0.999961,0 -1.653091,0.152 -1.958633,0.4576 0.99996,0 1.653089,-0.1521 1.958633,-0.4576 z m -35.6828,0.3323 c -0.555534,0 -0.972823,0.084 -1.25059,0.2504 0.694417,0 1.111706,-0.084 1.25059,-0.2504 z m 19.540272,0.7916 0.125202,0.3338 c 0.05556,-0.055 0.08347,-0.1672 0.08347,-0.3338 l -0.208671,0 z m 82.528792,0 c -0.16666,0.3332 -0.38853,0.7505 -0.6663,1.2506 -0.27778,0.4721 -0.61132,1.0276 -1.00019,1.6664 -0.38887,0.639 -0.73636,1.2223 -1.04192,1.75 -0.30554,0.5277 -0.5693,1.0134 -0.79151,1.4579 -0.44443,0.861 -0.79192,1.764 -1.04191,2.7083 -0.0833,0.1111 -0.16564,0.2786 -0.24897,0.5008 -0.0833,0.1945 -0.19499,0.4024 -0.33387,0.6246 -0.11112,0.1944 -0.2632,0.3744 -0.45764,0.5411 -0.16667,0.1389 -0.37603,0.1808 -0.62602,0.1252 0,1.75 -0.36002,3.5418 -1.08221,5.3752 -0.0277,0.4166 -0.11152,0.8464 -0.25041,1.2908 -0.13888,0.4445 -0.34681,1.0139 -0.62457,1.7083 -0.24999,0.6944 -0.44539,1.3057 -0.58427,1.8334 -0.13889,0.5277 -0.20724,1.0009 -0.20724,1.4175 0,1.111 0.55542,1.9302 1.66649,2.458 0,-0.5555 0.13814,-1.3064 0.4159,-2.2508 0.30556,-1.0833 0.45909,-1.9443 0.45909,-2.5832 -0.13888,0.055 -0.23659,0.2092 -0.29216,0.459 -0.0555,0.2501 -0.15324,0.4161 -0.29213,0.4995 -0.0833,-0.1668 -0.1252,-0.3747 -0.1252,-0.6246 0,-0.1111 0.014,-0.2911 0.0418,-0.5411 0.0556,-0.25 0.0974,-0.5012 0.1252,-0.7513 0.0556,-0.2777 0.0974,-0.5554 0.1252,-0.8331 0.0556,-0.2778 0.0835,-0.5136 0.0835,-0.7081 0,-0.7501 0.11166,-1.4436 0.33387,-2.0824 0.24999,-0.639 0.59606,-1.4176 1.04048,-2.3343 0.22221,-0.4721 0.41762,-0.8741 0.58429,-1.2073 0.16665,-0.3612 0.29083,-0.6669 0.37416,-0.9167 0.0556,-0.1945 0.22305,-0.4164 0.50082,-0.6664 0.30554,-0.2777 0.45763,-0.529 0.45763,-0.7512 0,-0.1111 -0.0419,-0.2493 -0.1252,-0.4159 0.16667,-0.8056 0.48625,-1.2089 0.95845,-1.2089 -0.0277,0 0.07,0.028 0.29214,0.083 0,-0.2778 0.0558,-0.5415 0.16694,-0.7914 0.13887,-0.2778 0.29097,-0.5416 0.45763,-0.7915 0.16666,-0.2779 0.30623,-0.5415 0.41735,-0.7916 0.13888,-0.2499 0.20722,-0.4998 0.20722,-0.7497 0.33333,-0.2223 0.55664,-0.472 0.66776,-0.7498 0.1111,-0.2777 0.24924,-0.7369 0.4159,-1.3758 0.16666,-0.5833 0.36063,-1.041 0.58284,-1.3744 -0.0833,-0.083 -0.12377,-0.2508 -0.12377,-0.5008 l 0,-0.2489 c 0,-0.3334 -0.15353,-0.5008 -0.45907,-0.5008 z m 47.08202,0.3338 c -0.1111,0 -0.27861,0.042 -0.50081,0.1253 -0.22224,0.055 -0.34643,0.084 -0.37417,0.084 0.22221,0.1112 0.47201,0.1671 0.74978,0.1671 0.2222,0 0.40221,-0.084 0.5411,-0.2504 -0.13889,-0.084 -0.27701,-0.1253 -0.4159,-0.1253 z m -133.484904,1.4161 c 0,0.4999 0.0698,0.9731 0.208671,1.4175 0.138884,0.4167 0.374725,1.028 0.708045,1.8335 0.194435,0.3889 0.34653,0.7489 0.457636,1.0822 0.111108,0.3055 0.194853,0.5692 0.250406,0.7915 -0.08333,0.4722 -0.125202,1.1114 -0.125202,1.9168 l 0,0.7081 c 0.02778,0.2778 0.04173,0.5834 0.04173,0.9167 l 0,0.9168 c 0.02778,0.2777 0.04173,0.4997 0.04173,0.6663 0,1.0555 -0.125619,2.0143 -0.375608,2.8753 -0.05556,0.3056 -0.235563,0.681 -0.541106,1.1255 -0.305544,0.4721 -0.457639,0.8196 -0.457639,1.0418 0.527757,-0.056 1.055268,-0.1253 1.583024,-0.2087 0.555533,-0.083 0.915553,-0.3051 1.082213,-0.6662 -0.08333,0 -0.165637,-0.042 -0.248966,-0.1252 l -0.125203,-0.167 -0.333874,0.3339 0,-1.1254 c 0,-1.9999 0.347501,-3.3062 1.041917,-3.9173 l 0.250406,1.042 0,-4.2079 c 0,0.1387 -0.0977,0.3886 -0.29214,0.7497 -0.194437,0.3333 -0.29214,0.6669 -0.29214,1.0001 -0.222211,0 -0.346391,-0.042 -0.374169,-0.1251 0,-0.8612 0.124179,-1.3328 0.374169,-1.4161 0,-0.1944 0.01396,-0.5141 0.04173,-0.9585 0.05556,-0.4722 0.08347,-0.8337 0.08347,-1.0836 0,-0.8334 -0.12418,-1.4865 -0.37417,-1.9586 0,0.3055 -0.08374,0.5009 -0.250405,0.5842 -0.361096,-0.6112 -0.541107,-1.334 -0.541107,-2.1673 l 0.207232,0 c 0.194436,0.1945 0.29214,0.348 0.29214,0.4591 l 0.417344,-0.3339 c 0,0.2222 0.110221,0.4037 0.332434,0.5426 0.222214,0.1111 0.333874,0.2212 0.333874,0.3323 0,0.055 -0.02791,0.1394 -0.08347,0.2504 -0.111107,0.2223 -0.166937,0.4861 -0.166937,0.7916 0,0.3333 0.153534,0.833 0.459077,1.4996 0.272116,0.5936 0.414915,1.059 0.444686,1.4103 0.0052,-0.024 0.0073,-0.053 0.01295,-0.076 0.08333,-0.2221 0.167077,-0.3338 0.250406,-0.3338 l -0.333875,-0.167 c 0,-0.5555 0.06979,-0.8751 0.208672,-0.9584 0,-0.7777 -0.139576,-1.2215 -0.417343,-1.3326 -0.194437,-0.4166 -0.290701,-0.7921 -0.290701,-1.1253 0,-0.3612 0.09626,-0.6389 0.290701,-0.8333 l 0.08347,0.1252 0.333874,-0.3756 c -0.888852,0 -1.55594,-0.054 -2.000366,-0.1656 -0.222214,-0.055 -0.527843,-0.1253 -0.916716,-0.2086 -0.361096,-0.1111 -0.790904,-0.2367 -1.290883,-0.3756 z m 4.069812,5.827 c -0.0448,0.2097 -0.07053,0.4577 -0.07053,0.7569 0.02778,-0.1388 0.04173,-0.2505 0.04173,-0.3337 0.02778,-0.1112 0.04173,-0.2088 0.04173,-0.2922 0,-0.039 -0.0093,-0.088 -0.01295,-0.131 z m 66.156002,-5.5349 0.16551,1.1254 0.0418,-0.3755 -0.20723,-0.7499 z m 55.96711,0.167 c -0.55554,0.4167 -1.08304,0.9303 -1.58303,1.5413 -0.49998,0.5834 -1.09728,1.2923 -1.79169,2.1256 -0.69441,0.8889 -1.29173,1.5545 -1.7917,1.9988 -0.0556,0.084 -0.20765,0.251 -0.45765,0.5009 -0.2222,0.25 -0.33386,0.4439 -0.33386,0.5829 0,0.083 0.0698,0.195 0.20866,0.3338 0.0556,0.055 0.12536,0.084 0.20868,0.084 0.1111,0 0.24924,-0.056 0.4159,-0.1669 l 0.25041,-0.1671 c 0.13888,-0.1944 0.34681,-0.4581 0.62458,-0.7913 0.27777,-0.3335 0.62526,-0.7368 1.04191,-1.2089 0.86108,-1 1.52816,-1.7912 2.00036,-2.3746 l 0.66632,-0.9167 c 0.22221,-0.3334 0.43014,-0.6529 0.62456,-0.9584 0.11112,-0.139 0.16696,-0.2771 0.16696,-0.4159 0,-0.1111 -0.0837,-0.1671 -0.25041,-0.1671 z m -12.62391,0.2907 c -0.44441,0 -0.72214,0.1256 -0.83324,0.3756 l 0,4.5001 c 0.44444,0 0.72214,-0.098 0.83324,-0.2921 l 0,-4.5836 z m -64.88528,0.1252 c -0.16664,0.5 -0.24896,1.0274 -0.24896,1.5831 0,0.1666 0.014,0.4039 0.0418,0.7094 0.0277,0.3055 0.0556,0.6516 0.0835,1.0404 0.0278,0.3612 0.0556,0.7645 0.0835,1.2089 0.0277,0.4167 0.0418,0.8061 0.0418,1.1671 0.0277,0.084 0.0821,0.1253 0.1655,0.1253 0.0556,0 0.13929,-0.069 0.2504,-0.2086 0.13885,-0.1392 0.2226,-0.2231 0.25041,-0.2504 -0.0556,-0.2223 -0.0835,-0.4442 -0.0835,-0.6664 0,-0.2778 0.0977,-0.5834 0.29215,-0.9167 0.19443,-0.3611 0.2907,-0.6667 0.2907,-0.9168 0,-0.1944 -0.0279,-0.3744 -0.0835,-0.541 -0.27777,-0.028 -0.44382,-0.1255 -0.49938,-0.2922 -0.0556,-0.1944 -0.0974,-0.4023 -0.1252,-0.6245 0,-0.2501 -0.0279,-0.5013 -0.0835,-0.7512 -0.0277,-0.2778 -0.1534,-0.4998 -0.37562,-0.6664 z m 63.46776,0.2504 c -0.55552,0 -0.87512,0.1117 -0.95845,0.3338 0.0556,0.639 0.0975,1.3185 0.1252,2.0407 0.0556,0.7223 0.0835,1.4871 0.0835,2.2926 0,0.4166 -0.014,0.8324 -0.0418,1.249 0,0.4168 -0.014,0.8759 -0.0418,1.3759 0,0.4721 -0.0279,1.0137 -0.0835,1.6248 -0.0277,0.6111 -0.0557,1.3325 -0.0835,2.1658 -0.0556,0.8055 -0.096,1.5006 -0.12376,2.0839 0,0.5554 -0.014,0.9992 -0.0418,1.3326 -0.0277,0.3333 -0.0418,0.6947 -0.0418,1.0836 l 0,1.2506 c 0,1.1388 0.0419,2.3055 0.1252,3.4999 0.69441,1.111 1.48568,1.6665 2.37455,1.6665 0,-0.4444 0.0837,-0.6677 0.2504,-0.6677 0.13888,0.055 0.20722,0.1811 0.20722,0.3756 0.0277,0.1669 0.0697,0.2646 0.1252,0.2921 l 0.45909,-0.4173 0.4159,0.875 0.33387,-0.2504 c -0.13888,-0.055 -0.20866,-0.1518 -0.20866,-0.2908 0,-0.028 0.0139,-0.1114 0.0418,-0.2504 0.0278,-0.1666 0.0418,-0.3466 0.0418,-0.541 -0.13888,-0.6112 -0.20867,-1.3201 -0.20867,-2.1256 l 0,-1.2909 c 0,-1.0555 -0.11022,-1.8762 -0.33243,-2.4595 l 0.24896,5.0009 -0.24896,0.084 c -0.0556,-0.4166 -0.0975,-0.8619 -0.12521,-1.334 -0.0277,-0.4722 -0.0418,-0.9858 -0.0418,-1.5414 -0.0556,-0.4166 -0.11139,-0.8059 -0.16693,-1.1671 -0.0277,-0.3889 -0.0418,-0.7363 -0.0418,-1.0419 0,-0.5 0.0419,-1.2773 0.1252,-2.3328 0.0833,-1.0277 0.1252,-1.805 0.1252,-2.3328 0,-1.1944 -0.13958,-2.1252 -0.41735,-2.7919 l -0.33242,0.2922 c -0.11111,-0.1389 -0.25069,-0.4724 -0.41735,-1.0003 -0.11111,-0.5 -0.29112,-0.8194 -0.54111,-0.9584 0,0.139 0.0279,0.3329 0.0835,0.5829 0.0555,0.25 0.10995,0.5417 0.1655,0.875 0.0556,0.3333 0.11138,0.6808 0.16694,1.042 0.0556,0.3332 0.11138,0.6529 0.16694,0.9584 0.0833,0.6388 0.12521,1.2361 0.12521,1.7916 -0.0833,-0.1111 -0.16709,-0.3469 -0.25041,-0.708 -0.0556,-0.3611 -0.15183,-0.597 -0.29071,-0.7081 0.11113,1.1944 0.17948,2.2774 0.20723,3.2495 0.0556,0.9722 0.0835,1.8612 0.0835,2.6668 0,0.8332 -0.0279,1.7083 -0.0835,2.6249 -0.0555,0.9167 -0.13786,1.8601 -0.24897,2.8322 l -0.29213,-0.2072 c 0.16667,-1.6944 0.2504,-3.4304 0.2504,-5.2082 0,-3.1942 -0.25124,-6.6525 -0.75122,-10.3746 0.16667,-0.5277 0.25042,-1.2507 0.25042,-2.1673 0,-0.1944 -0.014,-0.4163 -0.0418,-0.6663 0,-0.2778 -0.0139,-0.6113 -0.0418,-1.0002 -0.0277,-0.3889 -0.0556,-0.7224 -0.0835,-1.0002 l 0,-0.708 z m -19.08264,0.2087 0.25041,1.2491 0.33387,-0.1669 -0.58428,-1.0822 z m -36.21815,0.2073 0.41735,0.7094 0,-0.1669 -0.41735,-0.5425 z m -23.16827,0.083 c -0.166661,0 -0.332714,0.084 -0.499373,0.2504 -0.24999,1.8889 -0.375608,3.8063 -0.375608,5.7508 0,1.8888 0.125618,3.8049 0.375608,5.7492 0.05556,0.1667 0.08347,0.4025 0.08347,0.708 0.02778,0.3055 0.0682,0.6112 0.123764,0.9167 0.08333,0.2778 0.208948,0.5136 0.375608,0.7081 0.16666,0.1667 0.416457,0.2225 0.749777,0.167 l -0.374168,-4.5836 0.374168,-0.4577 c 0.138884,0.6389 0.208674,1.3743 0.208674,2.2077 l 0,1.334 0,0.8749 c 0.0278,0.2501 0.0557,0.458 0.0835,0.6247 l 1.00018,0 -0.1252,-2.3745 c -0.27779,0 -0.43132,-0.042 -0.45908,-0.1253 0,-1.5 -0.40189,-2.7363 -1.207413,-3.7086 -0.02778,-0.3055 -0.05569,-0.5692 -0.08347,-0.7916 l 0,-0.6663 c 0,-0.3609 0.01396,-0.7783 0.04173,-1.2505 0.02778,-0.4722 0.06964,-0.9578 0.125202,-1.4578 0.05556,-0.5 0.09599,-0.9997 0.123764,-1.4996 0.05555,-0.5277 0.111384,-1.0009 0.166937,-1.4175 0,-0.6388 -0.23584,-0.9585 -0.708043,-0.9585 z m 80.34422,0.2922 -0.0835,3.2913 c 0.0556,0.1387 0.15327,0.2365 0.29215,0.2921 0.16665,0.028 0.31875,0.069 0.45763,0.1251 0.0833,-0.083 0.1252,-0.153 0.1252,-0.2086 0,-0.1388 -0.13813,-0.305 -0.41589,-0.4994 0,-0.1666 -0.014,-0.3481 -0.0418,-0.5425 l 0,-0.416 c 0,-0.361 0.1521,-0.5424 0.45763,-0.5424 0,-0.6944 -0.0823,-1.0685 -0.24896,-1.124 l -0.16694,0.5829 c -0.16666,-0.084 -0.25041,-0.2356 -0.25041,-0.4577 l 0,-0.1669 c 0,-0.1667 -0.0419,-0.2783 -0.1252,-0.3339 z m -127.52697,0.2086 -0.165498,4.3333 c 0,0.7221 -0.195406,1.0836 -0.58428,1.0836 0.138883,0.3889 0.236587,0.7629 0.29214,1.1239 0.08332,0.3334 0.139159,0.6529 0.166937,0.9584 0.02778,0.3056 0.05569,0.709 0.08347,1.2089 0.02778,0.5 0.05425,1.0973 0.08203,1.7917 0.02778,0.6944 0.06965,1.3057 0.125202,1.8335 0.05556,0.5 0.111385,0.9297 0.166938,1.2908 l 1.666492,0 -0.248967,-1.3325 c -0.555533,-0.1668 -0.834685,-0.6678 -0.834685,-1.5011 0,-0.1388 0.01396,-0.305 0.04173,-0.4994 0.02778,-0.2222 0.04173,-0.4441 0.04173,-0.6663 0.02778,-0.2499 0.05569,-0.4718 0.08347,-0.6663 0.02778,-0.2222 0.04173,-0.3897 0.04173,-0.5008 0.305542,-0.055 0.459077,-0.2774 0.459077,-0.6663 -0.138884,0.084 -0.264502,0.1252 -0.375609,0.1252 -0.138883,0 -0.360766,-0.1116 -0.666309,-0.3338 -0.02778,-0.139 -0.04173,-0.4166 -0.04173,-0.8334 0,-0.8332 0.18001,-1.6245 0.541106,-2.3744 0.361097,-0.75 0.876089,-1.3334 1.542729,-1.75 -0.138883,-0.1388 -0.208671,-0.3063 -0.208671,-0.5008 0,-0.1388 0.04188,-0.3188 0.125202,-0.5412 0.111106,-0.2499 0.179455,-0.4299 0.207233,-0.541 l -0.541106,0 c 0,-0.4445 -0.207925,-0.7082 -0.624576,-0.7916 -0.388873,-0.083 -0.848035,-0.167 -1.375792,-0.2504 z m 33.642138,0.8334 0,0.292 0.290701,0 0,-0.1669 c -0.05556,-0.083 -0.151818,-0.1251 -0.290701,-0.1251 z m 49.666662,0 c 0,0.8608 0.0977,1.3046 0.29213,1.3326 0.0833,-0.1111 0.1252,-0.2354 0.1252,-0.3742 0,-0.1389 -0.0558,-0.2925 -0.16693,-0.4592 -0.1111,-0.1944 -0.19484,-0.3604 -0.2504,-0.4992 z m -50.33441,0.1669 c -0.777748,0 -1.221512,0.096 -1.332619,0.2907 0,1.1944 0.125619,2.4727 0.375609,3.8337 l 0,-0.4591 c 0.02778,-0.2499 0.04173,-0.5138 0.04173,-0.7914 0.02778,-0.3056 0.05425,-0.5973 0.08203,-0.8751 0.02778,-0.3055 0.06964,-0.5692 0.125202,-0.7914 0.111106,-0.4445 0.346947,-0.8463 0.708044,-1.2074 z m 15.45895,0.1251 c -0.30555,0.9167 -0.459078,2.0554 -0.459078,3.4165 l 0,0.6245 c 0.02778,0.2501 0.04173,0.5278 0.04173,0.8334 l 0,0.7914 c 0.02778,0.2501 0.04173,0.458 0.04173,0.6246 l 0.125208,-0.1252 c 0.13888,0 0.23658,0.098 0.29213,0.2922 0.0833,0.1666 0.13773,0.2504 0.1655,0.2504 0,-0.3889 0.0558,-0.6526 0.16694,-0.7916 0.11111,-0.1666 0.30652,-0.4164 0.58428,-0.7498 l 0.082,-0.3338 c 0,-0.1667 -0.12418,-0.3062 -0.37417,-0.4174 -0.22222,-0.1111 -0.37575,-0.2072 -0.45908,-0.2906 l 0,-2.6668 0,-1.4578 -0.20723,0 z m -30.142218,0.1656 c -0.08333,0.1666 -0.125202,0.348 -0.125202,0.5424 0,0.4168 0.125618,0.8048 0.375608,1.1657 0,-0.9165 -0.08374,-1.4859 -0.250406,-1.7081 z m 4.708777,0 c 0,0.1388 0.04188,0.2784 0.125203,0.4173 0.111107,0.111 0.207372,0.1669 0.2907,0.1669 0.08333,-0.083 0.125204,-0.1671 0.125204,-0.2504 l -0.166937,-0.1669 c -0.111108,-0.1111 -0.235286,-0.1669 -0.37417,-0.1669 z m 106.402231,0.2504 0.16695,0.4173 0.0835,-0.1253 -0.25041,-0.292 z m 9.66653,0.1251 c -0.0833,0.1945 -0.30522,0.2922 -0.66631,0.2922 l -3.58339,3.874 c 0.22223,0.056 0.34641,0.084 0.37417,0.084 0.41665,0 0.98604,-0.3197 1.70822,-0.9585 l -0.5411,-0.4994 c 0.22221,0 0.38827,-0.069 0.49937,-0.2086 0.11111,-0.1389 0.22276,-0.291 0.33387,-0.4577 0.11112,-0.1944 0.22278,-0.3619 0.33388,-0.5008 0.1111,-0.1389 0.27716,-0.2072 0.49937,-0.2072 -0.0833,-0.1111 -0.1252,-0.2227 -0.1252,-0.3339 -0.0556,-0.1386 -0.0276,-0.2224 0.0835,-0.2504 0.1111,-0.055 0.23672,-0.083 0.3756,-0.083 0.16666,-0.029 0.31876,-0.042 0.45764,-0.042 0.13889,-0.028 0.23659,-0.083 0.29214,-0.1669 0.0828,-0.083 0.1252,-0.166 0.1252,-0.249 0,-0.1669 -0.0558,-0.2646 -0.16693,-0.2922 z m -104.344309,0.5829 0.125203,0.3756 c 0.02778,-0.028 0.04173,-0.1116 0.04173,-0.2504 -0.05556,-0.084 -0.111384,-0.1252 -0.166937,-0.1252 z m -0.541107,0.2087 -0.250405,1.2505 0.375608,-0.7928 -0.125203,-0.4577 z m 73.469586,0.042 c 0,0.5555 0.16748,0.8752 0.50082,0.9585 l -0.50082,-0.9585 z m -74.927407,0.2922 0,0.7915 0.125203,0 0,-0.7915 -0.125203,0 z m 50.042267,0.1238 0,0.5425 0.0418,0 0,-0.5425 -0.0418,0 z m 1.5413,0.3755 c -0.13889,0.2501 -0.36078,0.458 -0.66631,0.6246 -0.30556,0.1389 -0.59723,0.2645 -0.87499,0.3756 l 0,0.8749 c 0,0.3334 -0.014,0.7353 -0.0418,1.2075 l 0,2.0421 0,1.583 c 0.0278,0.4167 0.0556,0.7782 0.0835,1.0837 0.1111,-0.1389 0.16693,-0.4724 0.16693,-1.0002 0,-0.5277 0.0684,-0.8892 0.20724,-1.0836 0,-1 -0.12418,-1.6935 -0.37417,-2.0824 0.4722,-0.2501 0.70803,-0.6952 0.70803,-1.3341 l 0,-0.6246 c 0,-0.3611 0.0698,-0.7086 0.20868,-1.0419 0.13889,0.056 0.26306,0.2091 0.37417,0.4591 0.11111,0.2222 0.20881,0.3324 0.29214,0.3324 0.0833,-0.1945 0.1252,-0.3466 0.1252,-0.4576 0,-0.1389 -0.0419,-0.305 -0.1252,-0.4994 -0.0555,-0.2222 -0.0835,-0.3758 -0.0835,-0.4591 z m 44.42683,0 0.12521,0.708 0,-0.3741 -0.12521,-0.3339 z m -107.736288,0.708 -0.333874,0.7081 0.292141,-0.249 0.04173,-0.4591 z m 106.527438,0 c -0.38887,0 -0.77681,0.1536 -1.16568,0.4591 l 0.2907,0 c 0.0833,-0.083 0.25082,-0.1389 0.50081,-0.1669 0.24999,-0.029 0.37417,-0.1254 0.37417,-0.2922 z m -19.87414,0.167 0.29213,0.9585 0,-0.2922 -0.29213,-0.6663 z m -73.594788,0.2921 c -0.222214,0.7222 -0.332435,1.4576 -0.332435,2.2077 0,0.3055 0.01396,0.6948 0.04173,1.1671 0.05556,0.4722 0.13786,1.0276 0.248965,1.6665 0.111106,0.6387 0.180895,1.2082 0.208672,1.7082 0.05556,0.4999 0.08347,0.9437 0.08347,1.3327 l 0.208672,0 0,-0.3742 c 0.02778,-0.1945 0.04173,-0.348 0.04173,-0.4592 0,-0.7498 -0.08374,-1.9445 -0.250406,-3.5833 -0.166659,-1.6111 -0.250404,-2.8321 -0.250404,-3.6655 z m 104.635008,0.3742 c -0.44444,0.1389 -0.77796,0.4724 -1.00019,1.0002 -0.2222,0.5 -0.44409,0.9856 -0.66631,1.4578 l 0.70806,-0.3324 c 0,-0.083 0.0558,-0.195 0.16693,-0.3339 0.13889,-0.1667 0.26451,-0.3187 0.37561,-0.4576 0.13889,-0.1667 0.26306,-0.3202 0.37417,-0.4591 0.1111,-0.1666 0.16693,-0.3188 0.16693,-0.4576 0,-0.1111 -0.0419,-0.2508 -0.1252,-0.4174 z m -106.009362,0.1252 c 0,0.25 0.138138,0.3756 0.415905,0.3756 0,-0.055 0.01396,-0.097 0.04173,-0.1252 0.02778,-0.028 0.04173,-0.056 0.04173,-0.084 l -0.499373,-0.167 z M 69.395,1025.3914 c 0,0.7778 0.0698,1.2077 0.208672,1.291 0,-0.7777 -0.06979,-1.2076 -0.208672,-1.291 z m 90.52883,0.2505 0.20866,0.5411 0,-0.1669 -0.20866,-0.3742 z m -106.361948,0.2072 -0.08203,0.1253 0.415904,0.1251 0,-0.1251 -0.333874,-0.1253 z m 30.516386,0.167 c 0,0.361 0.181448,0.8481 0.542545,1.4592 0.194436,0.3056 0.346531,0.5415 0.457638,0.7081 0.111105,0.1666 0.180893,0.2768 0.208671,0.3324 -0.05556,-0.1111 -0.08347,-0.2772 -0.08347,-0.4994 l 0,-0.5008 c 0.02778,-0.2222 0.04173,-0.3882 0.04173,-0.4994 0,-0.3332 -0.08374,-0.5831 -0.250406,-0.7497 -0.138883,-0.1667 -0.444513,-0.2504 -0.916714,-0.2504 z m -31.224429,0.084 -0.248967,0.2922 c 0.08333,0.083 0.123765,0.1935 0.123765,0.3324 0,0.055 -0.01396,0.1253 -0.04173,0.2087 l 0,0.1669 c 0,0.2222 0.125619,0.3339 0.375609,0.3339 0,-0.028 0.04188,-0.098 0.125203,-0.2087 0.08332,-0.1111 0.125203,-0.2367 0.125203,-0.3756 -0.222213,0 -0.361789,-0.042 -0.417343,-0.1252 -0.02778,-0.083 -0.04173,-0.2912 -0.04173,-0.6246 z m 18.16592,0.2922 c 0,0.3056 -0.110222,0.5553 -0.332435,0.7497 -0.194437,0.1944 -0.403801,0.3187 -0.626014,0.3742 0,0.25 0.11166,0.4314 0.333874,0.5426 l 0.333873,0.1669 c 0.02778,-0.4166 0.305491,-0.7921 0.833247,-1.1254 0,-0.1944 -0.0977,-0.3479 -0.29214,-0.4591 -0.16666,-0.1387 -0.250405,-0.2209 -0.250405,-0.2489 z m 117.735251,0.042 -0.12376,0.416 0.12376,0 0.0418,-0.416 -0.0418,0 z m -102.259034,0.084 0,0.5828 c 0.138885,0 0.235149,-0.042 0.290702,-0.1252 0,-0.055 -0.01396,-0.1393 -0.04173,-0.2504 -0.02778,-0.1389 -0.110083,-0.2072 -0.248967,-0.2072 z m 100.218374,0.4994 0,0.2921 c 0.41665,0.084 0.66645,0.1252 0.74978,0.1252 0.30555,0 0.56931,-0.084 0.79151,-0.2504 l -1.54129,-0.1669 z m -61.42565,0.1669 0,0.084 0.16549,0.4159 0.12522,-0.042 -0.29071,-0.4576 z m -43.042422,0.2086 c 1.222172,2.4166 1.999481,4.1108 2.3328,5.083 l 0.499373,0.083 c -0.05556,-0.2777 -0.125341,-0.529 -0.208671,-0.7512 -0.05556,-0.2222 -0.13786,-0.4442 -0.248967,-0.6663 -0.08333,-0.25 -0.208949,-0.4997 -0.375608,-0.7498 -0.138884,-0.2777 -0.332852,-0.6113 -0.582841,-1.0001 -0.472204,-0.7777 -0.805747,-1.4434 -1.000183,-1.999 l -0.415903,0 z m 99.385122,0.042 c 0,0.5 0.0684,0.7777 0.20724,0.8333 0,-0.3334 -0.0684,-0.6111 -0.20724,-0.8333 z m -128.027784,0.082 -0.123763,0.4173 0.248967,0 c 0,-0.2222 -0.04188,-0.3618 -0.125204,-0.4173 z m 94.611584,0.1669 c -0.38888,0 -0.65263,0.1395 -0.79151,0.4174 -0.11111,0.2777 -0.20737,0.6377 -0.2907,1.0821 l 0.5411,0 c 0.24999,0 0.43001,-0.041 0.54111,-0.1237 l 0,-1.3758 z m 14.5005,0 c 0.0556,0.4722 0.23558,0.708 0.5411,0.708 l 0,-0.3324 c -0.13888,-0.25 -0.31888,-0.3756 -0.5411,-0.3756 z m -61.51199,0.167 c -0.13888,0.055 -0.20867,0.3472 -0.20867,0.8749 l 0.20867,0 c 0.1111,-0.028 0.1655,-0.1255 0.1655,-0.2921 0,-0.084 -0.0265,-0.1657 -0.082,-0.249 -0.0278,-0.1111 -0.0557,-0.2228 -0.0835,-0.3338 z m 60.84425,0 0.66774,1.3325 0,-0.3324 -0.66774,-1.0001 z m 23.83315,0 c -0.44443,0 -0.66631,0.083 -0.66631,0.2504 0,0.055 0.0684,0.1518 0.20722,0.2906 0.16667,0 0.36207,0.013 0.58429,0.042 l 0.45763,0 c 0.3611,0 0.56902,-0.083 0.62458,-0.249 -0.0833,-0.083 -0.12377,-0.1531 -0.12377,-0.2086 -0.41665,-0.084 -0.77811,-0.1252 -1.08364,-0.1252 z m -131.568011,0.083 c 0.01835,0.1285 0.08239,0.2309 0.185646,0.3108 l -0.185646,-0.3108 z m 0.185646,0.3108 0.06332,0.1051 c 0,0.7222 -0.180009,1.3613 -0.541106,1.9169 -0.444425,0 -0.680265,-0.056 -0.708043,-0.1669 l 0,1.334 c 0.277766,0 0.443819,0.098 0.499371,0.2922 0.05555,0.1666 0.125342,0.2908 0.208672,0.3741 l 0,-0.5828 c 0.05555,-0.1389 0.111384,-0.3204 0.166937,-0.5426 0.08333,-0.2221 0.179594,-0.4859 0.290701,-0.7915 0.111106,-0.3056 0.20881,-0.5693 0.292139,-0.7914 0.111107,-0.2501 0.194853,-0.444 0.250407,-0.583 0,-0.2221 -0.111662,-0.3756 -0.333875,-0.459 -0.07538,-0.028 -0.135518,-0.064 -0.188523,-0.1051 z m 61.539335,-0.1439 c -0.19442,0 -0.2907,0.194 -0.2907,0.5829 0.0834,-0.055 0.13774,-0.1393 0.1655,-0.2504 0.0277,-0.1389 0.0697,-0.2492 0.1252,-0.3325 z m 44.88593,0.084 c 0.0556,0.055 0.13786,0.2356 0.24896,0.5411 0.11111,0.3056 0.29255,0.4576 0.54255,0.4576 -0.0833,-0.2223 -0.16708,-0.444 -0.2504,-0.6663 -0.0556,-0.2222 -0.23557,-0.3324 -0.54111,-0.3324 z m 26.62359,0.5828 c -0.36111,0 -0.68068,0.1396 -0.95845,0.4174 l 0.3756,0.4577 c 0.0833,-0.084 0.20751,-0.1951 0.37418,-0.334 0.19443,-0.1667 0.40235,-0.249 0.62457,-0.249 -0.0833,-0.1944 -0.22147,-0.2921 -0.4159,-0.2921 z m -7.25025,0.083 c 0,0.4166 -0.014,0.8325 -0.0418,1.2492 l 0,0.7095 c 0,0.3055 0.0698,0.5274 0.20867,0.6663 -0.11111,-0.1945 -0.16694,-0.4443 -0.16694,-0.7499 0,-0.1666 0.0279,-0.3899 0.0835,-0.6676 0.0555,-0.2778 0.0835,-0.4718 0.0835,-0.583 0,-0.2222 -0.0558,-0.4301 -0.16695,-0.6245 z m 4.58357,0 c 0.36109,0.9444 0.91652,1.8474 1.6665,2.7084 0.74996,0.8611 1.5831,1.8184 2.49972,2.8739 0.91664,0.9999 1.56977,1.9029 1.95864,2.7085 0.41665,0.1665 0.94415,0.6537 1.58302,1.4592 0.33333,0.3889 0.62499,0.7209 0.87499,0.9987 0.24998,0.2778 0.47188,0.515 0.6663,0.7095 0.36111,0.3334 0.91653,0.4994 1.6665,0.4994 l -0.12521,-0.5411 c -0.36109,-0.3056 -0.6932,-0.5972 -0.99874,-0.875 -0.27776,-0.2778 -0.55548,-0.5694 -0.83325,-0.875 -0.49996,-0.5833 -1.22289,-1.4723 -2.16731,-2.6667 -0.91662,-1.1666 -1.72184,-2.1253 -2.41625,-2.8753 -0.66664,-0.7777 -1.3756,-1.4588 -2.12559,-2.0421 -0.1111,-0.027 -0.23528,-0.11 -0.37416,-0.249 -0.11111,-0.1666 -0.22277,-0.3481 -0.33387,-0.5425 -0.11111,-0.1944 -0.22133,-0.3745 -0.33245,-0.5411 -0.11109,-0.1944 -0.2088,-0.3326 -0.29213,-0.4159 -0.16666,-0.2223 -0.47228,-0.3339 -0.91671,-0.3339 z m 4.45836,0.4159 1.7917,2.3342 -0.29213,-1.0836 -1.49957,-1.2506 z m -67.21807,0.4173 c -0.19443,0 -0.2907,0.083 -0.2907,0.2504 0,0.1666 0.0405,0.3048 0.12376,0.416 0.30556,-0.2777 0.63909,-0.416 1.0002,-0.416 0.33331,0 0.62498,0.083 0.87497,0.249 0.27776,0.1667 0.62527,0.4165 1.04192,0.7498 0.41664,0.3333 0.72227,0.5427 0.91672,0.626 l -1.00019,-1.4175 c -0.33333,-0.1112 -0.72125,-0.1935 -1.16568,-0.2489 -0.44443,-0.084 -0.94547,-0.1532 -1.501,-0.2088 z m 24.71964,0.04 c -0.33333,0.25 -0.50081,0.8613 -0.50081,1.8335 0.58333,0 0.88896,-0.013 0.91672,-0.042 0,-0.3055 0.15352,-0.4576 0.45908,-0.4576 l 0.45763,0 c 0.24999,0 0.41749,-0.069 0.50082,-0.2087 0.0833,0.056 0.30522,0.1532 0.6663,0.2921 0.38888,0.1111 0.62471,0.2493 0.70805,0.4159 0.13888,0 0.38867,-0.042 0.74977,-0.1252 0.3611,-0.1111 0.65278,-0.1669 0.87498,-0.1669 0.41665,0 0.7502,0.1396 1.00019,0.4173 -0.13888,0.1667 -0.33286,0.2504 -0.58285,0.2504 l 3.9993,0.2072 c 0,-0.111 0.0558,-0.2073 0.16693,-0.2906 0.11112,-0.1111 0.23673,-0.167 0.37561,-0.167 l 0.082,0.1252 c 0.0833,0.084 0.1252,0.1657 0.1252,0.249 -0.0556,0.055 -0.16578,0.084 -0.33245,0.084 l 0.87499,0.3757 c 0.13888,-0.028 0.29098,-0.042 0.45764,-0.042 0.19444,-0.028 0.40236,-0.042 0.62457,-0.042 0.25,0 0.52771,0.013 0.83325,0.042 0.33332,0.027 0.66686,0.069 1.00019,0.1252 0.33332,0.028 0.65289,0.055 0.95845,0.084 0.30554,0.028 0.55534,0.042 0.74978,0.042 0.52776,0 1.04274,-0.069 1.54272,-0.2087 -0.16666,-0.084 -0.43184,-0.1238 -0.79295,-0.1238 l -0.37417,0 c -0.47221,0 -0.80575,-0.083 -1.00018,-0.2505 0.36109,0 0.58298,-0.1256 0.66631,-0.3755 0.0833,-0.2778 0.18103,-0.5276 0.29213,-0.7498 0.11111,-0.1944 0.2632,-0.2922 0.45764,-0.2922 0.13889,0 0.3622,0.098 0.66775,0.2922 0.30555,0.1667 0.55534,0.2504 0.74978,0.2504 0.33332,0 0.72125,0.013 1.16568,0.042 l 0.91672,0 c 1.47216,0 2.33321,-0.4857 2.58321,-1.4579 -0.38888,0.028 -0.91639,0.055 -1.58303,0.084 l -2.37454,0 -4.1245,0 0,0 c -0.74997,0.056 -1.5552,0.1114 -2.41626,0.1669 -0.86109,0.028 -1.77798,0.042 -2.75015,0.042 -1.24994,0 -2.61203,-0.029 -4.0842,-0.084 -1.44438,-0.083 -3.01297,-0.1949 -4.70734,-0.3338 z m -20.67717,0.2504 -0.0418,0.042 0,0 0.54111,0.7484 0.0835,-0.084 -0.58283,-0.708 z m -0.70949,0.167 c 0.0833,0.3333 0.36105,0.8483 0.83325,1.5427 0.52774,0.6944 0.80544,1.194 0.83325,1.4995 l -0.74978,-0.5008 c 0.0277,0.1389 0.13944,0.3204 0.33389,0.5426 0.22221,0.2222 0.33385,0.4022 0.33385,0.5411 0,0.1389 -0.0279,0.2366 -0.0835,0.2921 -0.38887,-0.3056 -0.77824,-0.8609 -1.16712,-1.6665 -0.13888,0 -0.30495,-0.069 -0.49938,-0.2087 -0.16666,-0.1388 -0.30623,-0.2086 -0.41733,-0.2086 -0.0834,0 -0.18104,0.042 -0.29216,0.1252 0.13888,0.361 0.26451,0.7087 0.37561,1.0419 0.13889,0.3333 0.34682,0.5413 0.62459,0.6246 0.55553,1.5555 1.792,3.6671 3.70859,6.3335 0.30554,-0.1386 0.77722,-0.2224 1.41609,-0.2504 0.66664,-0.029 1.16768,-0.1115 1.50098,-0.2504 0.3611,-0.1111 0.58299,-0.4293 0.66631,-0.957 -0.41665,-0.055 -0.81998,-0.2789 -1.20884,-0.6677 -0.38887,-0.3889 -0.6666,-0.7908 -0.83325,-1.2074 0.16665,-0.029 0.2504,-0.1116 0.2504,-0.2504 0,-0.028 -0.0279,-0.1116 -0.0835,-0.2504 -0.0277,-0.1667 -0.0418,-0.3048 -0.0418,-0.4159 -0.41665,-0.2501 -0.81998,-0.6534 -1.20886,-1.2089 -0.44442,-0.6667 -0.73609,-1.0546 -0.87498,-1.1657 0.11111,0.2778 0.26464,0.5554 0.45908,0.8332 0.22222,0.2501 0.33387,0.5138 0.33387,0.7916 l -0.20867,0 c 0.0277,0.1388 0.16591,0.3747 0.4159,0.708 0.25,0.3333 0.37562,0.625 0.37562,0.8749 -0.36111,-0.3055 -0.66673,-0.6111 -0.91672,-0.9166 -0.22221,-0.3333 -0.51388,-0.7786 -0.87498,-1.3341 -0.36109,-0.6389 -0.66672,-1.0826 -0.91672,-1.3327 l 0,-0.5827 c 0.0556,0 0.1393,0.054 0.25041,0.1654 -0.16665,-0.1944 -0.25041,-0.5001 -0.25041,-0.9167 l 0,-0.2907 c 0.0277,-0.1389 0.0556,-0.2924 0.0835,-0.4591 0,0.1389 -0.0558,0.2925 -0.16694,0.4591 -0.0834,0.1389 -0.15312,0.2087 -0.20868,0.2087 l 0.0835,0.708 c -0.66664,-0.6665 -1.29186,-1.4175 -1.87518,-2.2507 z m -4.5404,0.042 0.20724,0.3755 0,-0.2087 c -0.0277,-0.1111 -0.0961,-0.1668 -0.20724,-0.1668 z m -52.767939,0.083 0,1.1672 0.123763,0 0,-1.1672 -0.123763,0 z m 0.582841,0 0.125202,0.5008 0.04173,-0.083 c 0,-0.2778 -0.05583,-0.4175 -0.166937,-0.4175 z m 100.778188,0.042 c -0.0277,0.084 -0.1534,0.2089 -0.3756,0.3756 -0.22223,0.1389 -0.33389,0.2491 -0.33389,0.3324 0,0.028 0.0279,0.069 0.0835,0.1252 l 0.87498,-0.8332 -0.24897,0 z m -84.6371,0.2087 c 0,0.4444 0.223322,1.1659 0.667748,2.1658 l 0.207232,-0.2072 c -0.08333,-0.084 -0.123763,-0.2369 -0.123763,-0.4591 l 0,-0.4158 c 0.02778,-0.1945 0.04173,-0.3481 0.04173,-0.4592 0,-0.4166 -0.265195,-0.6245 -0.792951,-0.6245 z m 103.76147,0.2086 c -0.30555,0 -0.45909,0.096 -0.45909,0.2907 0.30555,0.3056 0.69493,0.7368 1.16712,1.2924 0.47222,0.5555 1.0416,1.2366 1.70824,2.042 0.69441,0.7779 1.30568,1.4714 1.83343,2.0824 0.52776,0.6112 0.98548,1.1526 1.37434,1.6248 0.38887,0.4444 0.79222,0.8896 1.20887,1.3341 0.44442,0.4167 0.88818,0.8465 1.33261,1.2909 0.19443,-0.056 0.29214,-0.1254 0.29214,-0.2087 0.0277,-0.1111 0.0697,-0.2213 0.1252,-0.3324 l 0.24897,0.084 c 0.22221,0 0.44553,-0.1116 0.66775,-0.3338 0.0833,-0.084 0.12376,-0.1936 0.12376,-0.3325 0,-0.1945 -0.0823,-0.3201 -0.24896,-0.3756 -0.24999,0 -0.43145,0.1257 -0.54255,0.3756 -0.24999,0 -0.47188,-0.084 -0.66631,-0.2504 -0.1944,-0.1664 -0.30463,-0.2642 -0.33244,-0.2922 -0.44441,-0.1389 -0.80587,-0.3468 -1.08364,-0.6246 -0.24999,-0.2777 -0.59749,-0.7089 -1.04192,-1.2922 -0.47221,-0.6111 -0.86158,-1.027 -1.16712,-1.2492 l 0.0418,-0.1669 1.91689,1.8334 -5.83272,-6.7912 0.33243,0.6663 c -0.19443,0 -0.41632,-0.1116 -0.66631,-0.3338 l -0.33243,-0.3325 z m 2.8739,0.4577 c 0.16946,0.2966 0.34975,0.5719 0.53535,0.8361 -0.18026,-0.2863 -0.35106,-0.5337 -0.53535,-0.8361 z m 0.53535,0.8361 c 0.87942,1.3969 1.72318,2.6497 2.50694,3.664 0.97218,1.2222 2.05512,2.2228 3.24952,3.0005 -0.5,-0.6944 -1.33312,-1.6671 -2.49975,-2.917 -0.55553,-0.6111 -1.04116,-1.1246 -1.45782,-1.5414 -0.38887,-0.4166 -0.6945,-0.764 -0.91671,-1.0419 -0.2222,-0.2777 -0.45948,-0.5833 -0.70948,-0.9167 -0.0594,-0.079 -0.1149,-0.1652 -0.1727,-0.2475 z m -89.75458,-0.7943 c 0.0833,0.3055 0.1252,0.7088 0.1252,1.2088 0,0.5 0.0419,0.8739 0.12521,1.124 l -0.12521,-2.3328 -0.1252,0 z m 13.87736,0.2086 0,0.9585 0.1252,-0.042 c 0,-0.5555 -0.0419,-0.8612 -0.1252,-0.9167 z m 53.30186,0.3742 c -0.11111,0 -0.23673,0.083 -0.37561,0.2504 -0.13888,0.1389 -0.23657,0.2086 -0.29214,0.2086 -0.0277,0 -0.11007,-0.069 -0.24897,-0.2086 0,0.083 0.0279,0.195 0.0835,0.3339 0.0833,0.111 0.1252,0.2073 0.1252,0.2906 0,0.1111 -0.0698,0.1949 -0.20868,0.2504 -0.0833,-0.084 -0.15312,-0.1252 -0.20865,-0.1252 0,0.1667 0.0558,0.3482 0.16693,0.5426 0.1111,0.1667 0.23528,0.3188 0.37417,0.4577 0.16666,0.1388 0.30624,0.2644 0.41734,0.3756 0.13888,0.083 0.20867,0.1394 0.20867,0.1668 0,-0.2221 -0.11167,-0.4594 -0.33387,-0.7094 -0.19444,-0.25 -0.29214,-0.444 -0.29214,-0.5829 l 0.0835,-0.2504 c 0.16666,-0.055 0.33416,-0.1937 0.50081,-0.4158 0.16669,-0.25 0.26295,-0.4035 0.29071,-0.4591 -0.13888,-0.084 -0.23515,-0.1252 -0.29071,-0.1252 z m -22.45735,0.3338 0.24897,0.2087 0,-0.2087 -0.24897,0 z m -64.345609,0.6246 c -0.722193,0.1389 -1.083653,0.7223 -1.083653,1.75 l 2.416271,0.9167 c 0.138884,0.055 0.292417,0.084 0.459077,0.084 0.16666,0 0.318755,0.013 0.457637,0.042 0.138885,0 0.250545,0.042 0.333875,0.1253 0.111106,0.056 0.166938,0.1672 0.166938,0.3339 -0.599749,0 -0.98963,-0.028 -1.208856,-0.076 l 0.542546,0.2404 c 0.194437,0.083 0.444234,0.1252 0.749777,0.1252 0.499981,0 0.749778,-0.2219 0.749778,-0.6664 -0.24999,-0.1388 -0.54166,-0.2644 -0.874981,-0.3756 -0.305543,-0.1111 -0.625128,-0.2072 -0.958448,-0.2906 -0.33332,-0.1111 -0.638949,-0.2088 -0.916715,-0.2922 -0.277766,-0.084 -0.471734,-0.1935 -0.582841,-0.3324 1.6666,0.4722 3.193301,0.874 4.582135,1.2074 1.41661,0.3334 2.834529,0.5413 4.251139,0.6246 -0.05556,-0.25 -0.01512,-0.458 0.123764,-0.6246 0.16666,-0.1666 0.362065,-0.3048 0.584279,-0.4159 0.222214,-0.1389 0.458055,-0.2645 0.708044,-0.3756 0.24999,-0.1111 0.443958,-0.2367 0.582841,-0.3756 -0.277767,0.055 -0.569438,0.097 -0.874981,0.1252 -0.305543,0.028 -0.625129,0.042 -0.958449,0.042 -0.944407,0 -1.679842,-0.056 -2.207599,-0.1669 -0.305543,-0.055 -0.736789,-0.1517 -1.292323,-0.2907 -0.555533,-0.1388 -1.235139,-0.3203 -2.040662,-0.5425 -0.805523,-0.2223 -1.52844,-0.3883 -2.167304,-0.4994 -0.611087,-0.1389 -1.12464,-0.2366 -1.541289,-0.2921 z m 1.541289,3.1761 -0.208671,-0.092 c 0.0096,0.038 0.09284,0.068 0.208671,0.092 z m 71.47066,-3.1344 0.58283,0.7915 0,-0.3741 1.45784,-0.2087 c -0.19444,-0.055 -0.54195,-0.083 -1.04193,-0.083 -0.47221,0 -0.80431,-0.042 -0.99874,-0.1252 z m 8.58286,0.1252 c -0.19443,0 -0.34797,0.083 -0.45907,0.2504 0.27776,0 0.56944,-0.029 0.87498,-0.084 0.10297,-0.026 0.12402,-0.031 0.20579,-0.052 -0.0788,-0.01 -0.16093,-0.011 -0.28925,-0.032 -0.13888,-0.055 -0.24912,-0.084 -0.33245,-0.084 z m 0.6217,0.1151 c 0.0236,0 0.0672,0.011 0.0863,0.011 0.1111,0 0.23528,-0.042 0.37416,-0.1252 -0.0768,0.02 -0.27761,0.069 -0.46052,0.1151 z m -63.30081,-0.032 0,0.8332 c 0.13885,0 0.2226,-0.042 0.2504,-0.1252 0.0277,-0.084 0.0417,-0.3192 0.0417,-0.708 l -0.29214,0 z m 57.67964,0.1669 c 0.16665,0.028 0.33271,0.055 0.49936,0.084 l 0.62458,0 0.62458,0 c 0.19444,-0.028 0.38984,-0.055 0.58428,-0.084 l -2.3328,0 z m -1.37579,0.4159 -0.25041,0.1252 0.75122,-0.1252 -0.50081,0 z m -62.261779,0.2504 c -0.24999,0 -0.54166,0.084 -0.874981,0.2504 0.08333,0.029 0.222908,0.084 0.417344,0.167 0.222213,0.083 0.374308,0.1238 0.457637,0.1238 0.277766,0 0.431299,-0.1381 0.459077,-0.416 -0.166659,-0.084 -0.320193,-0.1252 -0.459077,-0.1252 z m -29.182327,0.1238 c -2.777666,0.4722 -5.570193,0.7095 -8.375636,0.7095 -2.41657,0 -5.30536,-0.1675 -8.666337,-0.5008 l -0.666309,0.5843 c 0.08333,0.1667 0.125202,0.3327 0.125202,0.4993 0,0.3334 -0.139576,0.7227 -0.417342,1.1671 -0.277766,0.4444 -0.415904,0.778 -0.415904,1.0003 0,0.3333 0.235841,0.6514 0.708044,0.9569 0,-0.055 0.207925,-0.1238 0.624576,-0.2072 0.444425,-0.111 0.667747,-0.2925 0.667747,-0.5425 l -0.834685,-0.1252 c 0.194435,-0.6944 0.514022,-1.0405 0.958449,-1.0405 0.24999,0 0.639363,0.1382 1.167121,0.4159 0.527756,0.25 0.931088,0.3756 1.208854,0.3756 0.138883,0 0.318893,-0.069 0.541106,-0.2086 l -0.791512,-0.2504 c 0.416649,-0.1667 0.999992,-0.2491 1.749961,-0.2491 0.138884,0 0.360767,0.013 0.66631,0.042 l 0.708042,0 0.459078,0 c 0.194436,-0.028 0.402362,-0.055 0.624576,-0.084 l 0.125202,-0.5008 0.624575,0 c 0.249989,-0.028 0.417481,-0.042 0.50081,-0.042 0.333321,0 0.611034,0.084 0.833247,0.2504 -0.166659,0.1666 -0.430416,0.2504 -0.791512,0.2504 l -0.292139,0.042 -0.582841,0 0.415903,0.2907 c 0.361097,0.1389 0.666725,0.2087 0.916716,0.2087 0.555532,0 0.999297,-0.1661 1.332617,-0.4994 0.138884,-0.028 0.418036,-0.069 0.834686,-0.1252 0.41665,-0.055 0.734797,-0.084 0.95701,-0.084 0.611087,0 1.070248,0.2079 1.375792,0.6246 0.555533,-0.3056 1.318884,-0.4576 2.291066,-0.4576 l 0.58428,0 c 0.194437,0 0.346532,0.013 0.457638,0.042 0,-0.2778 0.05583,-0.6811 0.166937,-1.2089 0.138884,-0.5277 0.208672,-0.9715 0.208672,-1.3326 l 0,0 z m 1.123947,0 c -0.02778,0.084 -0.08361,0.209 -0.166937,0.3756 -0.05556,0.1667 -0.151818,0.3746 -0.2907,0.6246 -0.277768,0.4722 -0.417344,0.8336 -0.417344,1.0836 0,0.3889 0.18145,0.6806 0.542546,0.8751 0,-0.3611 0.02791,-0.7784 0.08347,-1.2507 0.05555,-0.4999 0.137859,-1.0693 0.248966,-1.7082 z m 35.807999,0.3742 c -0.49998,0.1389 -1.06936,0.2087 -1.70822,0.2087 l -0.62458,0 c -0.22221,-0.028 -0.45805,-0.042 -0.70804,-0.042 -0.24999,-0.028 -0.501228,-0.042 -0.751219,-0.042 -0.222213,-0.028 -0.402222,-0.042 -0.541106,-0.042 -0.91663,0 -1.721853,0.18 -2.416271,0.541 l 0.624576,0.4591 c 0.08333,0.1389 0.125202,0.2631 0.125202,0.3742 0,0.1111 -0.08374,0.2786 -0.250405,0.5008 -0.138883,0.2222 -0.207232,0.4022 -0.207232,0.5411 l 4.665605,0 0,-0.2504 -1.9169,0 c -0.05556,-0.055 -0.08347,-0.1099 -0.08347,-0.1656 0,-0.083 0.02791,-0.1251 0.08347,-0.1251 -0.138884,-0.028 -0.45703,-0.042 -0.957011,-0.042 -0.361096,0 -0.62629,-0.028 -0.792951,-0.084 l 0.333875,-0.3324 c 1.999917,-0.25 4.111397,-0.3756 6.333537,-0.3756 0.16666,0 0.44437,0.013 0.83325,0.042 l 0.83324,0 0.83325,-1.0001 -3.7086,-0.167 z m -35.223719,0.042 -0.125203,1.0001 0.332435,-0.2906 c 0,-0.4723 -0.06836,-0.7095 -0.207232,-0.7095 z m 26.348715,0.3755 -0.290701,0.1253 0.833246,0 -0.542545,-0.1253 z m 13.249914,0.1253 c -1.02775,0.6111 -1.56921,1.6242 -1.62476,3.0408 0,0.5 0.0977,0.9592 0.29213,1.3758 0.22223,0.4166 0.52785,0.6944 0.91672,0.8332 l 0.29071,-0.8749 -0.70805,-0.4591 c -0.16666,-0.4166 -0.25042,-0.8465 -0.25042,-1.2909 0,-0.9444 0.36147,-1.8194 1.08367,-2.6249 z m -25.832077,0.1669 0,0.3741 1.54129,0.2087 -1.54129,-0.5828 z m 14.166625,0.5828 0,0.3757 0.415904,0 c 0.111106,-0.1111 0.166938,-0.2368 0.166938,-0.3757 l -0.582842,0 z m -28.183583,0.167 c -0.05556,0.1667 -0.08347,0.3328 -0.08347,0.4993 -0.03506,0.1052 -0.01647,0.2253 0.0259,0.3527 l 0.05756,-0.852 z m -0.05756,0.852 -0.06764,0.9814 1.125386,1.0419 -0.166937,0.1656 c -0.388873,0 -0.666587,-0.069 -0.833247,-0.2073 -0.138883,-0.1389 -0.360766,-0.3343 -0.666309,-0.5843 0,0.4444 0.180011,0.75 0.541107,0.9167 0.388873,0.1389 0.764289,0.2785 1.125386,0.4174 0.138883,-0.1945 0.207232,-0.4039 0.207232,-0.6261 0.02778,-0.1666 -0.02661,-0.3466 -0.165497,-0.541 -0.138885,-0.2223 -0.306375,-0.4441 -0.500813,-0.6664 -0.166659,-0.2499 -0.332711,-0.4719 -0.499371,-0.6663 -0.05123,-0.082 -0.07452,-0.1572 -0.0993,-0.2316 z m 0.765608,-0.7269 0.125204,0.416 0,-0.249 -0.125204,-0.167 z m 33.807637,0.084 -0.45764,0.1654 1.66649,-0.1654 -1.20885,0 z m 2.16731,0 1.00017,0.1654 0,-0.1654 -1.00017,0 z m 3.04084,0 -0.0418,0.708 c 0.19444,-0.1944 0.29213,-0.3479 0.29213,-0.459 0,-0.084 -0.0419,-0.1656 -0.1252,-0.249 l -0.1252,0 z m 7.7525,0.2072 0,3.9589 0.1252,0 c 0.0834,-0.361 0.1252,-0.7504 0.1252,-1.1671 0,-0.1944 -0.014,-0.4163 -0.0418,-0.6662 -0.0278,-0.2779 -0.0556,-0.5416 -0.0835,-0.7916 -0.0277,-0.2778 -0.0556,-0.5275 -0.0835,-0.7498 -0.0277,-0.2499 -0.0418,-0.4454 -0.0418,-0.5842 z m -31.834614,0.085 c 0.04477,0.01 0.101908,0.016 0.149667,0.021 -0.04797,-0.013 -0.09773,-0.021 -0.149667,-0.021 z m 0.149667,0.021 c 0.131621,0.038 0.247921,0.1265 0.349705,0.269 0.16666,0.1944 0.306236,0.4023 0.417343,0.6247 0.111106,0.1944 0.208809,0.3759 0.292139,0.5424 0.111107,0.1391 0.235286,0.1669 0.374169,0.084 0.08333,0 0.291256,-0.069 0.624576,-0.2086 l 0,-0.4994 3.250956,0.4994 c 0,-0.3889 0.263753,-0.5829 0.791512,-0.5829 0.138881,0 0.222625,0.068 0.250405,0.2072 0.02778,0.139 0.09613,0.2646 0.207232,0.3757 0.888853,0 1.79178,-0.1661 2.708411,-0.4994 -0.305544,0 -0.653046,-0.015 -1.041919,-0.044 -0.388872,-0.055 -0.832638,-0.1099 -1.332618,-0.1654 -0.472203,-0.055 -0.903449,-0.097 -1.292324,-0.1253 -0.361096,-0.055 -0.652766,-0.084 -0.874979,-0.084 l 0.417342,0.6663 c -0.277766,-0.028 -0.639225,-0.083 -1.083653,-0.1669 -0.416649,-0.1112 -0.916245,-0.2353 -1.499554,-0.3742 -0.583311,-0.1389 -1.110821,-0.2505 -1.583023,-0.3338 -0.379298,-0.095 -0.697583,-0.1515 -0.97572,-0.1857 z m 19.933147,0.1857 0,0.083 0.83325,0 0,-0.083 -0.83325,0 z m -34.891283,0.042 0.125201,0.3757 0.04173,-0.084 -0.04173,-0.2921 -0.125201,0 z m -2.416271,0.3757 -0.333874,0.2072 c 0.138882,0.055 0.208671,0.1393 0.208671,0.2504 0,0.2778 -0.0977,0.4717 -0.292141,0.5828 l 0.417344,0 0,-1.0404 z m 114.444004,0 0.24896,0.5827 0,-0.5827 -0.24896,0 z m -16.9585,0.249 0.20867,0.459 0,-0.459 -0.20867,0 z m -59.30297,0.042 c -0.38887,0 -0.68054,0.098 -0.87498,0.2922 l 1.7917,0 c -0.19444,-0.1944 -0.50006,-0.2922 -0.91672,-0.2922 z m -4.833975,0.042 -1.957194,0.3756 3.499919,-0.2504 -1.542725,-0.1252 z m -48.515369,0.1252 -0.250405,0.2921 0.667749,0 -0.417344,-0.2921 z m 111.902544,0.2504 c -0.25,0 -0.51375,0.18 -0.79152,0.5411 l 0,0.9585 c 0,0.3333 0.0279,0.6109 0.0835,0.8332 0.22222,0.3055 0.54181,0.4855 0.95845,0.5411 0.41666,0.028 0.77811,0.069 1.08365,0.1252 -0.13887,-0.1944 -0.29242,-0.5963 -0.45907,-1.2074 -0.13888,-0.6667 -0.26306,-1.1258 -0.37417,-1.3758 -0.11111,-0.2777 -0.2786,-0.4159 -0.50081,-0.4159 z m -55.71959,0.042 c -0.0556,0.055 -0.0835,0.1519 -0.0835,0.2908 0,0.1944 0.11022,0.4037 0.33244,0.626 l -0.24897,-0.9168 z m -43.350385,0.084 c -0.138884,0 -0.318894,0.068 -0.541106,0.2073 0.166659,0.055 0.278321,0.083 0.333873,0.083 0.24999,0 0.416042,-0.068 0.499372,-0.2072 -0.05555,-0.055 -0.153256,-0.084 -0.292139,-0.084 z m 30.599854,0.2908 0,0.1251 0.459076,0 0,-0.1251 -0.459076,0 z m 51.679981,0.3755 c -0.13889,0 -0.20866,0.1381 -0.20866,0.4159 l 0.20866,0 0,-0.4159 z m 51.95629,0.1669 0.37417,0.1656 0,-0.082 c -0.0556,-0.055 -0.17974,-0.084 -0.37417,-0.084 z m -52.83127,0.9168 0,0.5828 0.49937,-0.5828 -0.49937,0 z m 1.45782,0.875 0.0418,0.7914 c 0.19443,0 0.31861,-0.042 0.37417,-0.1251 -0.0556,-0.028 -0.10995,-0.1395 -0.1655,-0.334 -0.0556,-0.2221 -0.13931,-0.3323 -0.25041,-0.3323 z m -30.55237,0.4576 0.1252,0.2087 0.29215,-0.084 c -0.0555,-0.083 -0.19512,-0.1251 -0.41735,-0.1251 z m 29.76087,0.042 c -0.55551,0 -0.84719,0.056 -0.87499,0.1669 0.0277,0.083 0.16591,0.1252 0.4159,0.1252 0.30555,0 0.45909,-0.098 0.45909,-0.2921 z m -30.42718,0.2921 -0.2504,0.3324 c 0.0556,-0.028 0.15326,-0.042 0.29214,-0.042 0.13808,0 0.20643,-0.042 0.20723,-0.1238 l -0.24897,-0.1669 z"
       id="path6766"
       inkscape:connector-curvature="0" />
  </g>
</svg>
