<?xml version="1.0" encoding="UTF-8" standalone="no"?>
<!-- Created with Inkscape (http://www.inkscape.org/) -->

<svg
   xmlns:dc="http://purl.org/dc/elements/1.1/"
   xmlns:cc="http://creativecommons.org/ns#"
   xmlns:rdf="http://www.w3.org/1999/02/22-rdf-syntax-ns#"
   xmlns:svg="http://www.w3.org/2000/svg"
   xmlns="http://www.w3.org/2000/svg"
   xmlns:sodipodi="http://sodipodi.sourceforge.net/DTD/sodipodi-0.dtd"
   xmlns:inkscape="http://www.inkscape.org/namespaces/inkscape"
   width="100"
   height="100"
   viewBox="0 0 100 100"
   id="svg2"
   version="1.1"
   inkscape:version="0.91 r"
   sodipodi:docname="btn_menu.svg">
  <defs
     id="defs4" />
  <sodipodi:namedview
     id="base"
     pagecolor="#ffffff"
     bordercolor="#666666"
     borderopacity="1.0"
     inkscape:pageopacity="0.0"
     inkscape:pageshadow="2"
     inkscape:zoom="3.2938333"
     inkscape:cx="31.138879"
     inkscape:cy="41.719746"
     inkscape:document-units="px"
     inkscape:current-layer="layer1"
     showgrid="false"
     units="px"
     inkscape:window-width="1366"
     inkscape:window-height="710"
     inkscape:window-x="0"
     inkscape:window-y="0"
     inkscape:window-maximized="1"
     showguides="false" />
  <metadata
     id="metadata7">
    <rdf:RDF>
      <cc:Work
         rdf:about="">
        <dc:format>image/svg+xml</dc:format>
        <dc:type
           rdf:resource="http://purl.org/dc/dcmitype/StillImage" />
        <dc:title></dc:title>
      </cc:Work>
    </rdf:RDF>
  </metadata>
  <g
     inkscape:label="Capa 1"
     inkscape:groupmode="layer"
     id="layer1"
     transform="translate(0,-952.36216)">
    <path
       style="font-style:normal;font-variant:normal;font-weight:normal;font-stretch:normal;font-size:medium;line-height:100%;font-family:Logger;-inkscape-font-specification:Logger;text-align:justify;letter-spacing:0px;word-spacing:0px;writing-mode:lr-tb;text-anchor:start;fill:#2b1100;fill-opacity:1;stroke:none;stroke-width:1px;stroke-linecap:butt;stroke-linejoin:miter;stroke-opacity:1"
       d="M 48.773438 2.5605469 C 43.100034 4.8746969 44.606745 6.6330406 37.962891 6.9316406 C 36.24594 6.6330406 34.268798 6.4824219 32.029297 6.4824219 C 30.013746 6.4824219 27.065397 6.7063969 23.183594 7.1542969 C 19.227142 7.6021969 16.091495 7.8261719 13.777344 7.8261719 C 13.254793 7.8261719 12.619547 7.7895238 11.873047 7.7148438 C 11.126546 7.7148438 10.230648 7.6762325 9.1855469 7.6015625 C 7.9911462 8.4227125 6.7979163 9.3186125 5.6035156 10.289062 C 4.4837649 11.259513 3.9238281 12.491375 3.9238281 13.984375 C 3.9238281 20.553575 5.6769948 25.369037 9.1855469 28.429688 C 10.006698 28.354987 11.126571 28.24305 12.544922 28.09375 C 13.963273 28.01905 15.643083 27.870434 17.583984 27.646484 C 21.615087 27.198584 24.750733 26.974609 26.990234 26.974609 C 34.855273 26.776709 38.69937 26.102455 53.976562 26.078125 C 55.842813 26.078125 57.634611 26.114773 59.351562 26.189453 C 61.143163 26.264153 62.859652 26.376091 64.501953 26.525391 C 66.144254 26.674691 68.084718 26.898666 70.324219 27.197266 C 72.63837 27.495866 75.21408 27.831828 78.050781 28.205078 C 80.962133 28.578328 83.537843 28.877612 85.777344 29.101562 C 88.016845 29.325512 89.957308 29.512809 91.599609 29.662109 C 92.04751 29.512809 92.458781 29.250203 92.832031 28.876953 C 93.205281 28.503703 93.390625 28.094394 93.390625 27.646484 C 93.315975 24.660484 93.203987 21.972784 93.054688 19.583984 C 92.905388 17.195184 92.756722 15.1041 92.607422 13.3125 C 92.234172 9.65465 91.413582 6.2216687 90.144531 3.0117188 C 80.887925 4.4300688 63.069691 4.9867844 52.021484 5.5839844 C 51.872184 4.8374844 51.460912 4.1655594 50.789062 3.5683594 C 50.191862 3.0458094 49.519939 2.7098469 48.773438 2.5605469 z M 56.439453 35.330078 C 50.76605 37.644231 44.606745 38.9514 37.962891 39.25 C 36.24594 38.9514 34.268798 38.800781 32.029297 38.800781 C 30.013746 38.800781 27.065396 39.024756 23.183594 39.472656 C 19.227142 39.920556 16.091495 40.144531 13.777344 40.144531 C 13.254793 40.144531 12.619547 40.107856 11.873047 40.033203 C 11.126546 40.033203 10.230647 39.996522 9.1855469 39.921875 C 7.9911461 40.743022 6.7979164 41.638922 5.6035156 42.609375 C 4.483765 43.579828 3.9238281 44.809734 3.9238281 46.302734 C 3.9238281 52.871961 5.6769947 57.687447 9.1855469 60.748047 C 10.006697 60.673447 11.126571 60.561443 12.544922 60.412109 C 13.963273 60.337443 15.643083 60.188777 17.583984 59.964844 C 21.615087 59.516977 24.750733 59.292969 26.990234 59.292969 C 31.991787 59.292969 36.283986 60.300873 39.867188 62.316406 C 40.539038 62.167073 41.322949 62.354353 42.21875 62.876953 C 43.114551 63.399486 44.01045 63.996102 44.90625 64.667969 C 45.876701 65.339769 46.809277 65.936384 47.705078 66.458984 C 48.600879 67.056184 49.384791 67.316854 50.056641 67.242188 C 51.251042 67.242188 52.407593 66.645572 53.527344 65.451172 C 53.378043 64.256772 52.968725 63.360872 52.296875 62.763672 C 51.923624 62.465072 51.437044 62.129126 50.839844 61.755859 C 50.242643 61.382593 49.646028 61.009919 49.048828 60.636719 C 48.451627 60.263452 47.891691 59.890845 47.369141 59.517578 C 46.84659 59.218978 46.47395 58.956355 46.25 58.732422 C 48.713451 58.508489 51.289161 58.396484 53.976562 58.396484 C 55.842814 58.396484 57.634612 58.435166 59.351562 58.509766 C 61.143164 58.584432 62.859652 58.69637 64.501953 58.845703 C 66.144254 58.99497 68.084717 59.218978 70.324219 59.517578 C 72.63837 59.816178 75.21408 60.152124 78.050781 60.525391 C 80.962133 60.898657 83.537842 61.195989 85.777344 61.419922 C 88.016845 61.643855 89.957309 61.831135 91.599609 61.980469 C 92.04751 61.831135 92.458781 61.570532 92.832031 61.197266 C 93.205281 60.824066 93.390625 60.412777 93.390625 59.964844 C 93.315975 56.978844 93.203987 54.291144 93.054688 51.902344 C 92.905388 49.513544 92.756722 47.424406 92.607422 45.632812 C 92.234172 41.974959 91.413582 38.540031 90.144531 35.330078 C 80.887925 36.748431 70.735707 37.756316 59.6875 38.353516 C 59.5382 37.607016 59.126928 36.935091 58.455078 36.337891 C 57.857877 35.815337 57.185954 35.479378 56.439453 35.330078 z M 90.144531 71.785156 C 80.887925 73.203456 63.51891 74.662566 52.470703 75.259766 C 52.321403 74.513266 51.912084 73.841341 51.240234 73.244141 C 50.643033 72.721541 49.97111 72.385628 49.224609 72.236328 C 43.551206 74.550428 44.606745 75.406478 37.962891 75.705078 C 36.24594 75.406478 34.268798 75.255859 32.029297 75.255859 C 30.013746 75.255859 27.065397 75.479834 23.183594 75.927734 C 19.227142 76.375634 16.091495 76.599609 13.777344 76.599609 C 13.254793 76.599609 12.619547 76.563281 11.873047 76.488281 C 11.126546 76.488281 10.230648 76.451853 9.1855469 76.376953 C 7.9911462 77.198053 6.7979163 78.093953 5.6035156 79.064453 C 4.4837649 80.034853 3.9238281 81.266766 3.9238281 82.759766 C 3.9238281 89.328966 5.6769948 94.142525 9.1855469 97.203125 C 10.006698 97.128125 11.126571 97.016488 12.544922 96.867188 C 13.963273 96.792187 15.643083 96.643822 17.583984 96.419922 C 21.615087 95.972022 24.750733 95.748047 26.990234 95.748047 C 34.855273 95.550147 38.69937 94.875963 53.976562 94.851562 C 55.842813 94.851562 57.634611 94.889844 59.351562 94.964844 C 61.143163 95.039844 62.859652 95.151481 64.501953 95.300781 C 66.144254 95.450081 68.084718 95.674056 70.324219 95.972656 C 72.63837 96.271256 75.21408 96.607169 78.050781 96.980469 C 80.962133 97.353669 83.537843 97.651 85.777344 97.875 C 88.016845 98.0989 89.957308 98.286247 91.599609 98.435547 C 92.04751 98.286247 92.458781 98.025644 92.832031 97.652344 C 93.205281 97.279144 93.390625 96.867822 93.390625 96.419922 C 93.315975 93.433922 93.203987 90.746222 93.054688 88.357422 C 92.905388 85.968622 92.756722 83.879491 92.607422 82.087891 C 92.234172 78.429991 91.413582 74.995056 90.144531 71.785156 z "
       transform="translate(0,952.36216)"
       id="path4186" />
    <path
       style="font-style:normal;font-variant:normal;font-weight:normal;font-stretch:normal;font-size:medium;line-height:100%;font-family:Logger;-inkscape-font-specification:Logger;text-align:justify;letter-spacing:0px;word-spacing:0px;writing-mode:lr-tb;text-anchor:start;fill:#c8ab37;fill-opacity:1;stroke:none;stroke-width:1px;stroke-linecap:butt;stroke-linejoin:miter;stroke-opacity:1"
       d="M 49.298828 4.5820312 C 48.701628 5.0299314 47.805729 5.4025719 46.611328 5.7011719 C 45.416928 5.9997719 44.44572 6.2990563 43.699219 6.5976562 C 40.339967 7.7920562 43.413003 7.9375 38.1875 7.9375 C 37.441 7.9375 36.321126 7.9008719 34.828125 7.8261719 L 31.580078 7.8261719 C 27.922226 7.8261719 24.937198 8.0501469 22.623047 8.4980469 C 21.652596 9.0205969 20.345426 9.28125 18.703125 9.28125 C 18.329874 9.28125 17.808569 9.2446219 17.136719 9.1699219 C 16.539518 9.1699219 15.904272 9.1332937 15.232422 9.0585938 L 13.216797 8.8339844 L 11.873047 8.8339844 C 10.156096 8.8339844 8.7755694 9.206625 7.7304688 9.953125 C 6.7600181 10.699625 6.1634032 12.118774 5.9394531 14.208984 L 16.240234 13.761719 C 16.389534 12.716619 17.210124 12.193359 18.703125 12.193359 C 19.225675 12.193359 19.860921 12.268669 20.607422 12.417969 C 21.353923 12.567219 21.801872 12.640625 21.951172 12.640625 C 21.577921 13.088525 20.942676 13.3125 20.046875 13.3125 L 22.847656 13.3125 C 24.564607 13.3125 25.757838 13.536475 26.429688 13.984375 L 25.871094 14.544922 L 5.6035156 15.552734 C 5.6035156 17.344334 5.715503 18.427531 5.9394531 18.800781 C 6.4620034 18.800781 7.0219403 18.688794 7.6191406 18.464844 C 8.2909911 18.240894 8.7003092 18.128906 8.8496094 18.128906 C 8.7003092 17.979606 8.5149658 17.755631 8.2910156 17.457031 C 8.0670655 17.158431 7.9550781 16.859147 7.9550781 16.560547 C 7.9550781 16.261947 8.1790528 16.001294 8.6269531 15.777344 C 9.2988033 15.777344 10.082716 15.665356 10.978516 15.441406 C 11.948967 15.292156 12.618937 15.216797 12.992188 15.216797 C 13.738689 15.216797 14.410613 15.516081 15.007812 16.113281 C 14.783864 16.337231 14.559888 16.449219 14.335938 16.449219 C 16.052889 16.449219 17.248072 16.373909 17.919922 16.224609 C 18.591773 16.075309 19.115031 15.739347 19.488281 15.216797 C 20.085482 15.366147 20.458122 15.441406 20.607422 15.441406 C 20.980672 15.441406 21.465299 15.366097 22.0625 15.216797 C 22.73435 15.067447 23.22093 14.992188 23.519531 14.992188 C 24.266031 14.992188 24.787336 15.254794 25.085938 15.777344 C 25.907088 16.075944 27.026961 16.224609 28.445312 16.224609 C 29.938313 16.224609 30.9462 16.075944 31.46875 15.777344 L 69.427734 15.552734 L 70.884766 16.113281 C 70.884766 16.411881 70.772778 16.672534 70.548828 16.896484 C 70.996728 16.971154 71.369369 17.007812 71.667969 17.007812 C 72.04122 17.082493 72.340503 17.121094 72.564453 17.121094 C 73.982804 17.121094 75.774602 16.858488 77.939453 16.335938 C 80.253604 15.813387 82.342733 15.552734 84.208984 15.552734 L 84.544922 12.417969 C 83.051921 12.417969 82.082667 12.491325 81.634766 12.640625 C 82.008017 12.640625 82.380656 12.715934 82.753906 12.865234 C 83.201806 13.089184 83.499137 13.388469 83.648438 13.761719 C 83.349835 14.060319 82.791853 14.208984 81.970703 14.208984 C 81.074902 14.208984 80.028385 14.284294 78.833984 14.433594 C 77.639583 14.582944 76.743685 14.65625 76.146484 14.65625 C 75.176033 14.65625 74.355444 14.432275 73.683594 13.984375 C 74.877995 13.312525 75.849203 12.976562 76.595703 12.976562 L 75.251953 12.417969 C 76.147753 11.895419 77.788932 11.520825 80.177734 11.296875 C 82.641185 11.072925 84.209009 10.812272 84.880859 10.513672 L 86.449219 5.0273438 C 85.404118 5.1020238 84.432909 5.1386719 83.537109 5.1386719 C 82.715958 5.2133219 81.932048 5.2885813 81.185547 5.3632812 C 80.513697 5.4379313 79.617798 5.5499187 78.498047 5.6992188 C 77.378296 5.8485188 76.073079 5.9971844 74.580078 6.1464844 C 71.594077 6.5943844 69.018367 6.8936687 66.853516 7.0429688 C 64.763315 7.2669187 55.455664 7.8300781 53.664062 7.8300781 C 52.917563 7.8300781 52.023617 7.7914969 50.978516 7.7167969 C 50.008066 7.6421469 48.888193 7.5301594 47.619141 7.3808594 L 49.634766 4.9179688 L 49.298828 4.5820312 z M 89.023438 5.3632812 C 86.858586 8.1999812 85.777344 11.820256 85.777344 16.224609 C 85.777344 18.240156 86.001319 20.33124 86.449219 22.496094 C 87.568969 24.436994 88.389559 25.742209 88.912109 26.414062 C 89.509309 27.085909 90.405209 27.497184 91.599609 27.646484 C 91.82356 26.825338 91.935547 25.892756 91.935547 24.847656 C 91.935547 23.578603 91.711573 22.719384 91.263672 22.271484 L 90.927734 22.496094 C 90.927734 22.720047 91.003044 23.017378 91.152344 23.390625 C 91.376294 23.838525 91.488281 24.174484 91.488281 24.398438 C 91.488281 24.697038 91.300984 24.957694 90.927734 25.181641 C 89.434734 23.688641 88.090885 21.226869 86.896484 17.792969 C 86.597884 16.971815 86.449219 16.075915 86.449219 15.105469 C 86.449219 14.060369 86.858537 12.417241 87.679688 10.177734 C 88.500838 8.0128877 88.948788 6.4083812 89.023438 5.3632812 z M 72.302734 9.0585938 L 58.021484 11.011719 L 39.382812 11.914062 L 37.578125 11.3125 L 33.970703 12.666016 L 30.363281 11.3125 L 35.324219 11.613281 L 37.279297 9.6601562 L 40.435547 10.412109 L 44.644531 10.5625 L 47.800781 10.412109 L 59.074219 9.8105469 L 72.302734 9.0585938 z M 90.144531 9.28125 L 88.6875 10.849609 C 88.239599 12.417263 88.015625 13.909772 88.015625 15.328125 C 88.015625 17.194372 88.426896 18.538222 89.248047 19.359375 C 89.173397 18.986122 89.098088 18.538172 89.023438 18.015625 L 89.023438 16.113281 C 89.023438 13.351235 89.398031 11.072857 90.144531 9.28125 z M 56.664062 36.449219 C 56.066862 36.897119 55.170963 37.271712 53.976562 37.570312 C 52.782162 37.868913 51.810954 38.166244 51.064453 38.464844 C 47.705201 39.659244 43.413003 40.257812 38.1875 40.257812 C 37.441 40.257812 36.321126 40.219178 34.828125 40.144531 L 31.580078 40.144531 C 27.922226 40.144531 24.937198 40.368506 22.623047 40.816406 C 21.652596 41.338953 20.345426 41.601562 18.703125 41.601562 C 18.329874 41.601562 17.808569 41.562928 17.136719 41.488281 C 16.539518 41.488281 15.904272 41.451606 15.232422 41.376953 L 13.216797 41.152344 L 11.873047 41.152344 C 10.156096 41.152344 8.7755693 41.526938 7.7304688 42.273438 C 6.7600181 43.019937 6.1634033 44.437137 5.9394531 46.527344 L 16.240234 46.080078 C 16.389534 45.034978 17.210124 44.511719 18.703125 44.511719 C 19.225675 44.511719 19.860921 44.587028 20.607422 44.736328 C 21.353923 44.885628 21.801872 44.960938 21.951172 44.960938 C 21.577921 45.408837 20.942676 45.632812 20.046875 45.632812 L 22.847656 45.632812 C 24.564608 45.632812 25.757838 45.854834 26.429688 46.302734 L 25.871094 46.863281 L 5.6035156 47.871094 C 5.6035156 49.662694 5.715503 50.745874 5.9394531 51.119141 C 6.4620035 51.119141 7.0219403 51.007136 7.6191406 50.783203 C 8.2909911 50.559203 8.7003092 50.447266 8.8496094 50.447266 C 8.7003092 50.297999 8.5149658 50.073991 8.2910156 49.775391 C 8.0670655 49.476791 7.9550781 49.177506 7.9550781 48.878906 C 7.9550781 48.580306 8.1790528 48.319636 8.6269531 48.095703 C 9.2988033 48.095703 10.082715 47.983766 10.978516 47.759766 C 11.948966 47.610486 12.618937 47.535156 12.992188 47.535156 C 13.738688 47.535156 14.410613 47.834427 15.007812 48.431641 C 14.783862 48.655574 14.559888 48.767578 14.335938 48.767578 C 16.052889 48.767578 17.248072 48.692235 17.919922 48.542969 C 18.591773 48.393635 19.115031 48.057703 19.488281 47.535156 C 20.085482 47.684436 20.458122 47.759766 20.607422 47.759766 C 20.980672 47.759766 21.465299 47.684436 22.0625 47.535156 C 22.73435 47.385856 23.220931 47.310547 23.519531 47.310547 C 24.266031 47.310547 24.787337 47.573123 25.085938 48.095703 C 25.907088 48.394303 27.026961 48.542969 28.445312 48.542969 C 29.938313 48.542969 30.9462 48.394303 31.46875 48.095703 L 69.427734 47.871094 L 70.884766 48.431641 C 70.884766 48.730241 70.772778 48.99091 70.548828 49.214844 C 70.996728 49.28951 71.369369 49.326172 71.667969 49.326172 C 72.041219 49.400839 72.340503 49.439453 72.564453 49.439453 C 73.982804 49.439453 75.774602 49.176897 77.939453 48.654297 C 80.253604 48.131764 82.342733 47.871094 84.208984 47.871094 L 84.544922 44.736328 C 83.051921 44.736328 82.082666 44.811638 81.634766 44.960938 C 82.008016 44.960938 82.380656 45.034294 82.753906 45.183594 C 83.201806 45.40754 83.499137 45.706825 83.648438 46.080078 C 83.349837 46.378678 82.791853 46.527344 81.970703 46.527344 C 81.074902 46.527344 80.028385 46.602653 78.833984 46.751953 C 77.639584 46.901253 76.743685 46.974609 76.146484 46.974609 C 75.176034 46.974609 74.355444 46.750634 73.683594 46.302734 C 74.877994 45.630881 75.849203 45.296875 76.595703 45.296875 L 75.251953 44.736328 C 76.147753 44.213775 77.788932 43.841141 80.177734 43.617188 C 82.641186 43.393241 84.209009 43.130631 84.880859 42.832031 L 86.449219 37.345703 C 85.404118 37.420356 84.432909 37.457031 83.537109 37.457031 C 82.715959 37.531678 81.932048 37.606987 81.185547 37.681641 C 80.513697 37.756287 79.617798 37.868278 78.498047 38.017578 C 77.378296 38.166878 76.073079 38.315544 74.580078 38.464844 C 71.594077 38.912744 69.018367 39.212028 66.853516 39.361328 C 64.763314 39.585281 62.822851 39.697266 61.03125 39.697266 C 60.284749 39.697266 59.388851 39.660591 58.34375 39.585938 C 57.3733 39.511291 56.253426 39.3993 54.984375 39.25 L 57 36.785156 L 56.664062 36.449219 z M 89.023438 37.681641 C 86.858586 40.518341 85.777344 44.138589 85.777344 48.542969 C 85.777344 50.558502 86.001319 52.649586 86.449219 54.814453 C 87.568969 56.75532 88.389559 58.060555 88.912109 58.732422 C 89.509309 59.404289 90.405209 59.815577 91.599609 59.964844 C 91.82356 59.14371 91.935547 58.211149 91.935547 57.166016 C 91.935547 55.897016 91.711573 55.037777 91.263672 54.589844 L 90.927734 54.814453 C 90.927734 55.038386 91.003044 55.335718 91.152344 55.708984 C 91.376294 56.156851 91.488281 56.492864 91.488281 56.716797 C 91.488281 57.015397 91.300984 57.277953 90.927734 57.501953 C 89.434734 56.008953 88.090885 53.545261 86.896484 50.111328 C 86.597884 49.290195 86.449219 48.394288 86.449219 47.423828 C 86.449219 46.378728 86.858537 44.7356 87.679688 42.496094 C 88.500838 40.331247 88.948788 38.726741 89.023438 37.681641 z M 90.144531 41.601562 L 88.6875 43.167969 C 88.239599 44.735622 88.015625 46.228104 88.015625 47.646484 C 88.015625 49.512684 88.426896 50.856534 89.248047 51.677734 C 89.173397 51.304468 89.098088 50.856518 89.023438 50.333984 L 89.023438 48.431641 C 89.023438 45.669581 89.398031 43.393169 90.144531 41.601562 z M 86.449219 73.800781 C 85.404118 73.875781 84.432909 73.912109 83.537109 73.912109 C 82.715958 73.986809 81.932048 74.061719 81.185547 74.136719 C 80.513697 74.211319 79.617798 74.323356 78.498047 74.472656 C 77.378296 74.621956 76.073079 74.770622 74.580078 74.919922 C 71.594077 75.367822 69.018367 75.667106 66.853516 75.816406 C 64.763315 76.040306 62.822851 76.152344 61.03125 76.152344 C 60.284749 76.152344 52.623225 77.467578 51.578125 77.392578 C 50.607675 77.317978 49.487801 77.206041 48.21875 77.056641 L 50.234375 74.59375 L 49.898438 74.257812 C 49.301237 74.705812 48.405338 75.078353 47.210938 75.376953 C 46.016537 75.675553 45.047281 75.974836 44.300781 76.273438 C 40.941529 77.467837 43.413003 76.712891 38.1875 76.712891 C 37.441 76.712891 36.321126 76.674609 34.828125 76.599609 L 31.580078 76.599609 C 27.922226 76.599609 24.937198 76.823584 22.623047 77.271484 C 21.652596 77.793984 20.345426 78.056641 18.703125 78.056641 C 18.329874 78.056641 17.808569 78.018359 17.136719 77.943359 C 16.539518 77.943359 15.904272 77.907031 15.232422 77.832031 C 14.560571 77.757431 13.888648 77.682422 13.216797 77.607422 L 11.873047 77.607422 C 10.156096 77.607422 8.7755694 77.982016 7.7304688 78.728516 C 6.7600181 79.475016 6.1634032 80.892222 5.9394531 82.982422 L 16.240234 82.535156 C 16.389534 81.490056 17.210124 80.966797 18.703125 80.966797 C 19.225675 80.966797 19.860921 81.042106 20.607422 81.191406 C 21.353923 81.340306 21.801872 81.416016 21.951172 81.416016 C 21.577921 81.863916 20.942676 82.087891 20.046875 82.087891 L 22.847656 82.087891 C 24.564607 82.087891 25.757838 82.311866 26.429688 82.759766 L 25.871094 83.318359 L 5.6035156 84.326172 C 5.6035156 86.117772 5.715503 87.200919 5.9394531 87.574219 C 6.4620034 87.574219 7.0219403 87.462281 7.6191406 87.238281 C 8.2909911 87.014381 8.7003092 86.902344 8.8496094 86.902344 C 8.7003092 86.753044 8.5149658 86.529069 8.2910156 86.230469 C 8.0670655 85.931869 7.9550781 85.632584 7.9550781 85.333984 C 7.9550781 85.035384 8.1790528 84.774781 8.6269531 84.550781 C 9.2988033 84.550781 10.082716 84.438744 10.978516 84.214844 C 11.948967 84.065944 12.618937 83.990234 12.992188 83.990234 C 13.738689 83.990234 14.410613 84.289519 15.007812 84.886719 C 14.783864 85.110619 14.559888 85.222656 14.335938 85.222656 C 16.052889 85.222656 17.248072 85.147347 17.919922 84.998047 C 18.591773 84.848747 19.115031 84.512734 19.488281 83.990234 C 20.085482 84.139134 20.458122 84.214844 20.607422 84.214844 C 20.980672 84.214844 21.465299 84.139534 22.0625 83.990234 C 22.73435 83.841234 23.22093 83.767578 23.519531 83.767578 C 24.266031 83.767578 24.787336 84.028281 25.085938 84.550781 C 25.907088 84.849381 27.026961 84.998047 28.445312 84.998047 C 29.938313 84.998047 30.9462 84.849381 31.46875 84.550781 L 69.427734 84.326172 L 70.884766 84.886719 C 70.884766 85.185319 70.772778 85.446022 70.548828 85.669922 C 70.996728 85.744922 71.369369 85.783203 71.667969 85.783203 C 72.04122 85.858103 72.340503 85.894531 72.564453 85.894531 C 73.982804 85.894531 75.774602 85.633828 77.939453 85.111328 C 80.253604 84.588828 82.342733 84.326172 84.208984 84.326172 L 84.544922 81.191406 C 83.051921 81.191406 82.082667 81.266716 81.634766 81.416016 C 82.008017 81.416016 82.380656 81.489372 82.753906 81.638672 C 83.201806 81.862572 83.499137 82.161856 83.648438 82.535156 C 83.349835 82.833756 82.791853 82.982422 81.970703 82.982422 C 81.074902 82.982422 80.028385 83.057731 78.833984 83.207031 C 77.639583 83.356031 76.743685 83.431641 76.146484 83.431641 C 75.176033 83.431641 74.355444 83.207666 73.683594 82.759766 C 74.877995 82.087966 75.849203 81.751953 76.595703 81.751953 L 75.251953 81.191406 C 76.147753 80.668906 77.788932 80.296266 80.177734 80.072266 C 82.641185 79.848366 84.209009 79.585709 84.880859 79.287109 L 86.449219 73.800781 z M 89.023438 74.136719 C 86.858586 76.973385 85.777344 80.593714 85.777344 84.998047 C 85.777344 87.013647 86.001319 89.104731 86.449219 91.269531 C 87.568969 93.210465 88.389559 94.515633 88.912109 95.1875 C 89.509309 95.8593 90.405209 96.270589 91.599609 96.419922 C 91.82356 95.598789 91.935547 94.666227 91.935547 93.621094 C 91.935547 92.352027 91.711573 91.492789 91.263672 91.044922 L 90.927734 91.269531 C 90.927734 91.493531 91.003044 91.790863 91.152344 92.164062 C 91.376294 92.611996 91.488281 92.947942 91.488281 93.171875 C 91.488281 93.470475 91.300984 93.733098 90.927734 93.957031 C 89.434734 92.464031 88.090885 90.000273 86.896484 86.566406 C 86.597884 85.745273 86.449219 84.849373 86.449219 83.878906 C 86.449219 82.833773 86.858537 81.190639 87.679688 78.951172 C 88.500838 76.786305 88.948788 75.181785 89.023438 74.136719 z M 73.503906 77.603516 L 54.113281 81.361328 L 46.146484 81.361328 L 36.164062 79.785156 L 35.474609 79.857422 L 34.722656 79.556641 L 36.164062 79.785156 L 45.396484 78.804688 L 56.21875 79.707031 L 73.503906 77.603516 z M 90.144531 78.056641 L 88.6875 79.623047 C 88.239599 81.190714 88.015625 82.685182 88.015625 84.103516 C 88.015625 85.969782 88.426896 87.313632 89.248047 88.134766 C 89.173397 87.761566 89.098088 87.313616 89.023438 86.791016 L 89.023438 84.886719 C 89.023438 82.124652 89.398031 79.848241 90.144531 78.056641 z "
       transform="translate(0,952.36216)"
       id="path4184" />
  </g>
</svg>
