<?xml version="1.0" encoding="UTF-8"?>
<!DOCTYPE svg PUBLIC "-//W3C//DTD SVG 1.1//EN" "http://www.w3.org/Graphics/SVG/1.1/DTD/svg11.dtd">
<!-- Creator: CorelDRAW X8 -->
<svg xmlns="http://www.w3.org/2000/svg" xml:space="preserve" width="100px" height="100px" version="1.1" style="shape-rendering:geometricPrecision; text-rendering:geometricPrecision; image-rendering:optimizeQuality; fill-rule:evenodd; clip-rule:evenodd"
viewBox="0 0 100 100"
 xmlns:xlink="http://www.w3.org/1999/xlink">
 <defs>
  <style type="text/css">
   <![CDATA[
    .fil0 {fill:#663300}
   ]]>
  </style>
 </defs>
 <g id="Capa_x0020_1">
  <metadata id="CorelCorpID_0Corel-Layer"/>
  <path class="fil0" d="M54 2c1,0 1,1 1,1 0,1 -1,1 -1,1 -2,0 -3,0 -4,0 -1,0 -1,0 -1,-1 0,0 0,-1 0,-1l1 0c1,0 3,0 4,0zm6 1c1,0 3,1 4,1 0,0 1,1 0,1 0,1 0,1 -1,1 -1,0 -2,-1 -3,-1 -1,0 -1,0 -1,-1 0,-1 0,-1 1,-1zm9 3c2,1 3,1 4,2 1,0 1,1 0,1 0,1 0,1 -1,1 -1,-1 -2,-1 -3,-2 -1,0 -1,-1 -1,-1 0,-1 1,-1 1,-1zm9 5c1,1 2,2 3,3 1,0 1,1 0,1 0,1 -1,1 -1,0 -1,-1 -2,-1 -3,-2 -1,0 -1,-1 0,-1 0,-1 1,-1 1,-1zm7 7c1,1 2,2 3,3 0,1 0,1 0,1 -1,1 -1,1 -2,0 0,-1 -1,-2 -2,-3 0,0 0,-1 0,-1 0,0 1,0 1,0zm6 8c1,1 2,2 2,4 0,0 0,1 0,1 -1,0 -1,0 -2,-1 0,-1 -1,-2 -1,-3 -1,0 0,-1 0,-1 0,-1 1,0 1,0zm4 9c1,1 1,3 2,4 0,1 -1,1 -1,1 -1,0 -1,0 -1,-1 -1,-1 -1,-2 -1,-3 -1,-1 0,-1 0,-1 1,-1 1,0 1,0zm3 10c0,1 0,3 0,4 0,0 -1,1 -1,1 -1,0 -1,-1 -1,-1 0,-1 0,-3 0,-4 -1,0 0,-1 0,-1 1,0 1,0 2,1zm0 10c-1,1 -1,3 -1,4 0,0 -1,1 -1,1 -1,0 -1,-1 -1,-2 0,-1 0,-2 1,-3 0,-1 0,-1 1,-1 0,0 1,0 1,1zm-2 10c-1,1 -1,2 -2,3 0,1 -1,1 -1,1 -1,0 -1,-1 -1,-1 1,-2 1,-3 2,-4 0,0 0,-1 1,-1 0,1 1,1 1,2zm-5 9c0,1 -1,2 -2,3 0,1 -1,1 -1,0 0,0 -1,-1 0,-1 0,-1 1,-2 2,-3 0,-1 1,-1 1,-1 1,1 1,1 0,2zm-5 8c-1,1 -2,2 -3,3 -1,0 -1,0 -2,0 0,-1 0,-1 0,-2 1,-1 2,-2 3,-2 1,-1 1,-1 2,-1 0,1 0,1 0,2zm-8 7c-1,0 -2,1 -3,2 -1,0 -1,0 -1,-1 -1,0 -1,-1 0,-1 1,-1 2,-1 3,-2 1,0 1,0 1,0 1,1 1,1 0,2zm-8 5c-2,0 -3,1 -4,1 -1,0 -1,0 -1,-1 -1,0 0,-1 0,-1 1,0 3,-1 4,-1 0,0 1,0 1,0 0,1 0,1 0,2zm-10 3c-1,0 -2,0 -4,0 0,0 -1,0 -1,0 0,-1 0,-2 1,-2 1,0 2,0 4,0 0,0 1,0 1,1 0,0 0,1 -1,1zm-10 1l0 0c-1,0 -3,0 -4,0 0,0 -1,-1 -1,-1 0,-1 1,-1 1,-1 2,0 3,0 4,0 1,0 1,0 1,1 0,0 0,1 -1,1zm-10 -1c-1,0 -2,-1 -4,-1 0,0 0,-1 0,-1 0,-1 0,-1 1,-1 1,0 2,1 4,1 0,0 1,1 0,1 0,1 0,1 -1,1zm-9 -3c-1,-1 -3,-1 -4,-2 0,0 0,-1 0,-1 0,-1 1,-1 1,-1 1,1 2,1 4,2 0,0 0,1 0,1 0,1 -1,1 -1,1zm-9 -5c-1,-1 -2,-2 -3,-3 0,0 0,-1 0,-1 0,0 1,-1 1,0 1,1 2,1 3,2 1,1 1,1 1,2 -1,0 -1,0 -2,0zm-7 -7c-1,-1 -2,-2 -3,-3 0,0 0,-1 0,-1 1,-1 1,-1 2,0 0,1 1,2 2,3 1,0 0,1 0,1 0,1 -1,1 -1,0zm-6 -8c-1,-1 -2,-2 -2,-3 0,-1 0,-1 0,-2 1,0 1,0 2,1 0,1 1,2 1,3 1,1 1,1 0,2 0,0 -1,0 -1,-1zm-4 -9c-1,-1 -1,-2 -1,-4 -1,0 0,-1 0,-1 1,0 1,0 1,1 1,1 1,2 2,3 0,1 -1,2 -1,2 -1,0 -1,0 -1,-1zm-3 -10c0,-1 0,-2 0,-4 0,0 1,-1 1,-1 1,0 1,1 1,1 0,2 0,3 0,4 1,1 0,1 0,1 -1,0 -1,0 -2,-1zm0 -10c1,-1 1,-2 1,-4 0,0 1,-1 1,0 1,0 1,0 1,1 0,1 0,2 -1,4 0,0 0,0 -1,0 0,0 -1,0 -1,-1zm2 -9c1,-2 1,-3 2,-4 0,-1 1,-1 1,-1 1,0 1,1 1,2 -1,1 -1,2 -2,3 0,1 0,1 -1,1 0,0 -1,-1 -1,-1zm4 -10c1,-1 2,-2 3,-3 0,0 0,-1 1,0 0,0 0,1 0,1 -1,1 -1,2 -2,3 0,1 -1,1 -1,1 -1,0 -1,-1 -1,-2zm6 -8c1,-1 2,-2 3,-3 0,0 1,0 1,0 1,1 1,1 0,2 -1,1 -1,2 -2,3 -1,0 -1,0 -2,0 0,-1 0,-1 0,-2zm8 -6c1,-1 2,-2 3,-3 0,0 1,0 1,1 1,0 0,1 0,1 -1,1 -2,1 -3,2 -1,0 -1,0 -2,0 0,0 0,-1 1,-1zm8 -5c1,-1 3,-2 4,-2 0,0 1,0 1,1 0,0 0,1 0,1 -2,0 -3,1 -4,1 -1,1 -1,0 -1,0 -1,-1 0,-1 0,-1zm10 -4c1,0 2,0 4,0 0,0 1,0 1,0 0,1 -1,2 -1,2 -1,0 -3,0 -4,0 0,0 -1,0 -1,0 0,-1 0,-2 1,-2z"/>
 </g>
</svg>
