<?xml version="1.0" encoding="UTF-8"?>
<!DOCTYPE svg PUBLIC "-//W3C//DTD SVG 1.1//EN" "http://www.w3.org/Graphics/SVG/1.1/DTD/svg11.dtd">
<!-- Creator: CorelDRAW X8 -->
<svg xmlns="http://www.w3.org/2000/svg" xml:space="preserve" width="100px" height="100px" version="1.1" style="shape-rendering:geometricPrecision; text-rendering:geometricPrecision; image-rendering:optimizeQuality; fill-rule:evenodd; clip-rule:evenodd"
viewBox="0 0 100 100"
 xmlns:xlink="http://www.w3.org/1999/xlink">
 <defs>
  <style type="text/css">
   <![CDATA[
    .fil2 {fill:#007025}
    .fil3 {fill:#009933}
    .fil0 {fill:#00CF00}
    .fil1 {fill:lime}
    .fil4 {fill:#FFCC00}
   ]]>
  </style>
 </defs>
 <g id="Capa_x0020_1">
  <metadata id="CorelCorpID_0Corel-Layer"/>
  <circle class="fil0" cx="50" cy="50" r="49"/>
  <path class="fil1" d="M50 1c13,0 25,5 34,14 8,8 13,20 13,33 0,28 -21,49 -48,49 -14,0 -26,-5 -34,-13 -9,-9 -14,-21 -14,-34 0,-27 22,-49 49,-49z"/>
  <circle class="fil2" cx="50" cy="50" r="42"/>
  <path class="fil3" d="M70 13c13,7 22,21 22,37 0,23 -19,42 -42,42 -6,0 -12,-2 -18,-4 -13,-7 -22,-21 -22,-37 0,-23 19,-42 42,-42 6,0 12,2 18,4z"/>
  <path class="fil4" d="M52 18l8 18 20 2c1,0 2,2 1,3l-15 13 4 20c1,2 -1,3 -3,2l-17 -10 -17 10c-3,1 -3,-1 -3,-2l4 -20 -15 -13c-1,-1 -1,-3 1,-3l20 -2 8 -18c1,-2 3,-2 4,0z"/>
 </g>
</svg>
