<?xml version="1.0" encoding="UTF-8" standalone="no"?>
<!-- Created with Inkscape (http://www.inkscape.org/) -->

<svg
   xmlns:dc="http://purl.org/dc/elements/1.1/"
   xmlns:cc="http://creativecommons.org/ns#"
   xmlns:rdf="http://www.w3.org/1999/02/22-rdf-syntax-ns#"
   xmlns:svg="http://www.w3.org/2000/svg"
   xmlns="http://www.w3.org/2000/svg"
   xmlns:xlink="http://www.w3.org/1999/xlink"
   xmlns:sodipodi="http://sodipodi.sourceforge.net/DTD/sodipodi-0.dtd"
   xmlns:inkscape="http://www.inkscape.org/namespaces/inkscape"
   width="470"
   height="600"
   viewBox="0 0 470 600.00001"
   id="svg2"
   version="1.1"
   inkscape:version="0.91 r13725"
   sodipodi:docname="fondo.svg"
   inkscape:export-filename="D:\Brand1\Dropbox\Webjuego\image\fondo.png"
   inkscape:export-xdpi="90"
   inkscape:export-ydpi="90">
  <defs
     id="defs4">
    <linearGradient
       inkscape:collect="always"
       id="linearGradient4195">
      <stop
         style="stop-color:#e5d5ff;stop-opacity:1;"
         offset="0"
         id="stop4197" />
      <stop
         style="stop-color:#e5d5ff;stop-opacity:0;"
         offset="1"
         id="stop4199" />
    </linearGradient>
    <linearGradient
       inkscape:collect="always"
       xlink:href="#linearGradient4195"
       id="linearGradient4201"
       x1="225.43407"
       y1="-877.92792"
       x2="225.43407"
       y2="-754.25201"
       gradientUnits="userSpaceOnUse"
       gradientTransform="matrix(1,0,0,2.2317024,0,1015.3606)" />
  </defs>
  <sodipodi:namedview
     id="base"
     pagecolor="#ffffff"
     bordercolor="#666666"
     borderopacity="1.0"
     inkscape:pageopacity="0.0"
     inkscape:pageshadow="2"
     inkscape:zoom="0.99657345"
     inkscape:cx="354.02259"
     inkscape:cy="267.54308"
     inkscape:document-units="px"
     inkscape:current-layer="layer1"
     showgrid="false"
     units="px"
     inkscape:window-width="1920"
     inkscape:window-height="1017"
     inkscape:window-x="-4"
     inkscape:window-y="-4"
     inkscape:window-maximized="1"
     showguides="true"
     inkscape:guide-bbox="true">
    <sodipodi:guide
       position="225.43407,186.53564"
       orientation="1,0"
       id="guide4203" />
  </sodipodi:namedview>
  <metadata
     id="metadata7">
    <rdf:RDF>
      <cc:Work
         rdf:about="">
        <dc:format>image/svg+xml</dc:format>
        <dc:type
           rdf:resource="http://purl.org/dc/dcmitype/StillImage" />
        <dc:title />
      </cc:Work>
    </rdf:RDF>
  </metadata>
  <g
     inkscape:label="Capa 1"
     inkscape:groupmode="layer"
     id="layer1"
     transform="translate(0,-452.36216)">
    <rect
       y="-945.17358"
       x="0"
       height="286.72324"
       width="470"
       id="rect4177"
       style="fill:url(#linearGradient4201);fill-opacity:1"
       transform="scale(1,-1)" />
    <path
       style="fill:#0b2817;fill-opacity:1;stroke-width:0;stroke-miterlimit:4;stroke-dasharray:none"
       d="m 216.1543,824.14341 a 14.312118,12.240033 0 0 0 -14.24805,11.13086 14.312118,12.240033 0 0 0 -0.0644,-0.002 14.312118,12.240033 0 0 0 -14.3125,12.23828 14.312118,12.240033 0 0 0 6.13086,10.03711 19.191251,16.412772 0 0 0 -3.80274,0.45507 20.167076,17.24732 0 0 0 -9.69726,-4.05468 17.239598,14.743677 0 0 0 -17.02344,-12.53321 17.239598,14.743677 0 0 0 -11.08984,3.47461 14.312118,12.240033 0 0 0 -13.95508,-9.59375 14.312118,12.240033 0 0 0 -14.2461,11.13086 14.312118,12.240033 0 0 0 -0.0664,-0.004 14.312118,12.240033 0 0 0 -14.31055,12.24023 14.312118,12.240033 0 0 0 0.23437,2.14063 23.094556,19.750963 0 0 0 -5.22656,-5.09571 17.239598,14.743677 0 0 0 0.88086,-4.61718 17.239598,14.743677 0 0 0 -17.240232,-14.74414 17.239598,14.743677 0 0 0 -11.089844,3.4746 14.312118,12.240033 0 0 0 -13.955078,-9.59375 14.312118,12.240033 0 0 0 -14.248047,11.12891 14.312118,12.240033 0 0 0 -0.06445,-0.002 14.312118,12.240033 0 0 0 -14.3125,12.24023 14.312118,12.240033 0 0 0 6.130859,10.03516 19.191251,16.412772 0 0 0 -3.802734,0.45508 20.167076,17.24732 0 0 0 -13.386719,-4.3711 20.167076,17.24732 0 0 0 -20.1679689,17.2461 20.167076,17.24732 0 0 0 2.5332031,8.34765 l 72.8671878,0 a 20.167076,17.24732 0 0 0 2.154297,5.06836 l 135.863276,0 a 26.997861,23.089154 0 0 0 -5.09961,-11.15234 l 83.16211,0 a 26.997861,23.089154 0 0 0 -26.83008,-20.58594 26.997861,23.089154 0 0 0 -2.83984,0.1543 23.094556,19.750963 0 0 0 -7.47266,-9.16797 17.239598,14.743677 0 0 0 0.88086,-4.61719 17.239598,14.743677 0 0 0 -17.24023,-14.74219 17.239598,14.743677 0 0 0 -11.08984,3.47461 14.312118,12.240033 0 0 0 -13.95508,-9.5957 z"
       id="path4277"
       inkscape:connector-curvature="0" />
    <path
       style="fill:#2d5016;fill-opacity:1"
       d="m 0,874.86945 c 158.43478,12.37677 313.33333,-8.84055 470,0 l 0,161.49275 -470,0 z"
       id="rect4160"
       inkscape:connector-curvature="0"
       sodipodi:nodetypes="ccccc" />
    <path
       style="fill:#447821;fill-opacity:1"
       d="m 0,950.89819 c 169.04344,-57.46359 281.50735,72.49251 470,0 l 0,85.46401 -470,0 z"
       id="rect4205"
       inkscape:connector-curvature="0"
       sodipodi:nodetypes="ccccc" />
    <g
       id="g4164"
       transform="matrix(0.9826695,0,0,0.9826695,5.3895395,36.832402)">
      <path
         sodipodi:nodetypes="cccc"
         inkscape:connector-curvature="0"
         id="path4162"
         d="m 263.48867,957.03115 53.76044,-100.33199 24.6923,100.33199 z"
         style="fill:#000000;fill-rule:evenodd;stroke:#000000;stroke-width:1px;stroke-linecap:butt;stroke-linejoin:miter;stroke-opacity:1" />
      <g
         transform="matrix(0.49217408,0,0,0.47549778,255.53222,499.26186)"
         id="g4155">
        <path
           style="fill:#161650"
           d="M 312.60519,962.90878 C 303.4716,948.4867 140.5025,655.53774 140.53337,653.59703 c 0.0357,-2.23926 2.09367,-2.31388 54.50988,-1.97643 l 54.47286,0.35068 3.27622,3.75 c 4.86891,5.57301 170.85002,273.90529 170.81438,276.14594 -0.0168,1.05679 -1.30888,2.71929 -2.87127,3.69444 -3.65999,2.28436 -98.76408,32.03462 -102.40662,32.03462 -1.80922,0 -3.77412,-1.6092 -5.72363,-4.6875 z"
           id="path4147"
           inkscape:connector-curvature="0" />
        <path
           inkscape:connector-curvature="0"
           style="fill:#2c2ca0"
           d="m -35.086679,967.9841 c -2.666373,-2.66636 0.599255,-10.34217 18.024004,-42.36518 10.3715345,-19.06069 19.1555795,-36.49365 19.5200983,-38.73992 1.36625,-8.41921 -16.7235163,-36.84231 -39.3149363,-61.77262 -10.080796,-11.12447 -11.229809,-13.05505 -9.355859,-15.71988 0.505098,-0.71826 12.168359,-6.96346 25.918359,-13.87822 29.1849888,-14.67688 102.043088,-54.33051 107.5,-58.50778 2.4219,-1.85397 11.961837,-17.2012 26.936763,-43.33412 12.75271,-22.25492 24.06325,-40.63229 25.13451,-40.83859 1.4136,-0.27224 25.82128,41.93898 89.00074,153.92008 47.87915,84.86236 87.05299,155.36942 87.05299,156.68238 0,5.45704 1.17072,5.38719 -90.29015,5.38719 -93.84914,0 -93.15988,0.0451 -97.67149,-6.39609 -1.83896,-2.6255 -2.03836,-11.7725 -2.03836,-93.50705 0,-57.95742 -0.43285,-90.16401 -1.20145,-89.39541 -0.6608,0.6608 -20.29333,41.97643 -43.627841,91.8125 -23.334512,49.83607 -43.822818,92.15793 -45.529578,94.04855 l -3.1032,3.4375 -33.060634,0 c -18.183349,0 -33.435634,-0.375 -33.893966,-0.83334 z"
           id="path4153" />
        <path
           inkscape:connector-curvature="0"
           style="fill:#161650"
           d="M 60.039212,865.60173 C 110.71681,766.029 120.62764,746.19842 120.01842,745.5892 c -0.35415,-0.35413 -9.56955,4.36543 -20.47867,10.48793 -10.909113,6.1225 -39.803513,21.7054 -64.209763,34.62865 -24.40625,12.92326 -45.1387925,24.19406 -46.072316,25.04621 -1.400228,1.27817 -0.138175,3.2309 7.2103323,11.15628 15.3316937,16.53526 29.8549497,44.72983 36.7199797,71.28597 1.51132,5.84627 3.314664,10.4467 4.00743,10.22317 0.692765,-0.22351 10.972478,-19.49057 22.843799,-42.81568 z"
           id="path4151" />
      </g>
    </g>
    <path
       style="fill:#165016;fill-opacity:1;stroke-width:0;stroke-miterlimit:4;stroke-dasharray:none"
       d="m 408.58609,973.42489 a 11.499865,14.07349 11.137722 0 0 -12.33057,12.7177 11.499865,14.07349 11.137722 0 0 -0.0523,0 11.499865,14.07349 11.137722 0 0 -12.46374,13.98591 11.499865,14.07349 11.137722 0 0 4.2249,11.4677 15.420275,18.871273 11.137726 0 0 -3.1068,0.5197 16.204355,19.83083 11.137727 0 0 -10.50614,-4.9944 16.204355,19.83083 11.137727 0 0 -17.56279,19.7066 16.204355,19.83083 11.137727 0 0 1.44056,9.5365 l 109.85108,0 a 21.692927,26.547724 11.137731 0 0 -20.19219,-23.5226 21.692927,26.547724 11.137731 0 0 -2.30752,0.177 18.556601,22.709498 11.137729 0 0 -5.37466,-10.4762 13.852111,16.95216 11.137727 0 0 1.04876,-5.2752 13.852111,16.95216 11.137727 0 0 -12.8646,-16.84693 13.852111,16.95216 11.137727 0 0 -9.21969,3.97051 11.499865,14.07349 11.137722 0 0 -10.58449,-10.96348 z"
       id="path4209"
       inkscape:connector-curvature="0" />
    <g
       id="g4307"
       transform="matrix(1.0284474,0,0,1,-3.8763497,-16)">
      <path
         sodipodi:nodetypes="cccccccccccccccccc"
         style="fill:#241c1c;fill-rule:evenodd;stroke:#000000;stroke-width:0;stroke-linecap:butt;stroke-linejoin:miter;stroke-miterlimit:4;stroke-dasharray:none;stroke-opacity:1"
         d="m 192.17258,838.31541 -3.08378,16.30499 -2.84968,9.23487 -3.6554,15.01366 6.3551,17.47332 -7.12257,2.18558 -6.97587,-3.01013 -0.52861,-16.65576 0.0787,-14.67685 -15.54247,-21.51919 11.80567,8.94698 0.1372,-15.29732 3.46241,17.05543 6.43649,6.03175 4.94944,-5.60688 -7.04921,-15.5014 8.84902,9.11886 z"
         id="path4286"
         inkscape:connector-curvature="0" />
      <path
         id="path4288"
         transform="translate(0,452.36216)"
         d="m 161.73828,355.93945 a 8.7164516,8.7164516 0 0 0 -8.7168,8.7168 8.7164516,8.7164516 0 0 0 0.01,0.26367 6.6345884,7.2948105 0 0 0 -2.35352,-0.48828 6.6345884,7.2948105 0 0 0 -6.63476,7.29492 6.6345884,7.2948105 0 0 0 0.76367,3.38477 7.3209252,8.0494462 0 0 0 -1.22266,-0.11524 7.3209252,8.0494462 0 0 0 -7.32031,8.05079 7.3209252,8.0494462 0 0 0 7.32031,8.04882 7.3209252,8.0494462 0 0 0 4.59766,-1.79297 6.1770306,6.7917203 0 0 0 6.15625,6.32032 6.1770306,6.7917203 0 0 0 6.17773,-6.79102 6.1770306,6.7917203 0 0 0 -0.0566,-0.86133 10.066272,11.067988 0 0 0 3.25782,0.60938 10.066272,11.067988 0 0 0 3.61718,-0.75196 9.3799353,10.313353 0 0 0 8.9668,7.29297 9.3799353,10.313353 0 0 0 6.18164,-2.57421 8.0964622,5.0038886 0 0 0 5.75391,1.48632 8.0964622,5.0038886 0 0 0 7.73828,-3.53711 6.863367,7.5463554 0 0 0 6.63672,5.63086 6.863367,7.5463554 0 0 0 6.86133,-7.54687 6.863367,7.5463554 0 0 0 -3.6836,-6.6836 4.8043571,5.2824491 0 0 0 0.93946,-3.12695 4.8043571,5.2824491 0 0 0 -4.22852,-5.24023 9.1411667,5.6495519 0 0 0 0.76562,-2.25586 9.1411667,5.6495519 0 0 0 -9.14257,-5.64844 9.1411667,5.6495519 0 0 0 -1.72266,0.10547 8.4648198,9.3071722 0 0 0 -7.40625,-4.82031 8.4648198,9.3071722 0 0 0 -5.62109,2.36132 7.3209252,8.0494462 0 0 0 -6.50391,-4.37304 7.3209252,8.0494462 0 0 0 -3.74414,1.13672 8.7164516,8.7164516 0 0 0 -7.38672,-4.09571 z m 23.86914,27.64649 a 7.3209252,8.0494462 0 0 0 0.24414,0.66797 8.0964622,5.0038886 0 0 0 -0.19531,0.0391 9.3799353,10.313353 0 0 0 -0.0488,-0.70703 z"
         style="fill:#005522;fill-opacity:1;stroke-width:0;stroke-miterlimit:4;stroke-dasharray:none"
         inkscape:connector-curvature="0" />
    </g>
    <g
       id="g4303"
       transform="matrix(1.3266685,0,0,1,-50.023426,-16)">
      <path
         inkscape:connector-curvature="0"
         id="path4299"
         d="m 105.97657,850.58301 6.28703,15.65932 6.42668,8.26638 2.86034,15.01366 -4.97285,17.47332 5.57339,2.18558 5.4586,-3.01013 0.41364,-16.65576 -0.0616,-14.67685 7.15137,-10.61078 5.01057,-16.39655 -8.59224,15.72645 -6.24116,-16.58865 2.77881,17.05543 -4.06805,9.26007 -8.39256,-10.12653 1.64201,-16.14706 -4.34168,14.92983 z"
         style="fill:#241c1c;fill-rule:evenodd;stroke:#000000;stroke-width:0;stroke-linecap:butt;stroke-linejoin:miter;stroke-miterlimit:4;stroke-dasharray:none;stroke-opacity:1"
         sodipodi:nodetypes="ccccccccccccccccccc" />
      <path
         inkscape:connector-curvature="0"
         style="fill:#16502d;fill-opacity:1;stroke-width:0;stroke-miterlimit:4;stroke-dasharray:none"
         d="m 135.10543,815.72673 a 8.3496375,8.7164516 0 0 1 8.34998,8.7168 8.3496375,8.7164516 0 0 1 -0.01,0.26367 6.3553853,7.2948105 0 0 1 2.25447,-0.48828 6.3553853,7.2948105 0 0 1 6.35555,7.29492 6.3553853,7.2948105 0 0 1 -0.73153,3.38477 7.012839,8.0494462 0 0 1 1.17121,-0.11524 7.012839,8.0494462 0 0 1 7.01224,8.05079 7.012839,8.0494462 0 0 1 -7.01224,8.04882 7.012839,8.0494462 0 0 1 -4.40418,-1.79297 5.9170829,6.7917203 0 0 1 -5.89718,6.32032 5.9170829,6.7917203 0 0 1 -5.91775,-6.79102 5.9170829,6.7917203 0 0 1 0.0542,-0.86133 9.6426535,11.067988 0 0 1 -3.12072,0.60938 9.6426535,11.067988 0 0 1 -3.46496,-0.75196 8.9851999,10.313353 0 0 1 -8.58945,7.29297 8.9851999,10.313353 0 0 1 -5.9215,-2.57421 7.7557391,5.0038886 0 0 1 -5.51177,1.48632 7.7557391,5.0038886 0 0 1 -7.41263,-3.53711 6.5745362,7.5463554 0 0 1 -6.357434,5.63086 6.5745362,7.5463554 0 0 1 -6.57258,-7.54687 6.5745362,7.5463554 0 0 1 3.52858,-6.6836 4.6021755,5.2824491 0 0 1 -0.89992,-3.12695 4.6021755,5.2824491 0 0 1 4.05057,-5.24023 8.7564794,5.6495519 0 0 1 -0.7334,-2.25586 8.7564794,5.6495519 0 0 1 8.757824,-5.64844 8.7564794,5.6495519 0 0 1 1.65017,0.10547 8.1085952,9.3071722 0 0 1 7.09457,-4.82031 8.1085952,9.3071722 0 0 1 5.38454,2.36132 7.012839,8.0494462 0 0 1 6.23021,-4.37304 7.012839,8.0494462 0 0 1 3.58657,1.13672 8.3496375,8.7164516 0 0 1 7.07587,-4.09571 z m -22.86465,27.64649 a 7.012839,8.0494462 0 0 1 -0.23387,0.66797 7.7557391,5.0038886 0 0 1 0.18709,0.0391 8.9851999,10.313353 0 0 1 0.0468,-0.70703 z"
         id="path4301" />
    </g>
    <g
       id="g4334"
       transform="translate(0,-16)">
      <path
         inkscape:connector-curvature="0"
         id="path4271"
         d="m 31.148314,839.00049 11.78452,20.09703 4.071016,12.10144 1.071322,20.09703 -4.928071,22.4741 10.175196,2.864 9.965624,-3.94449 -3.856756,-21.82581 4.499543,-19.23264 26.354481,-23.12238 -23.783307,14.2624 2.571165,-27.66042 -7.713504,26.57994 -6.427922,3.67365 -7.070709,-7.3473 10.070403,-20.31313 -12.641576,14.9107 z"
         style="fill:#241c1c;fill-rule:evenodd;stroke:#000000;stroke-width:0;stroke-linecap:butt;stroke-linejoin:miter;stroke-miterlimit:4;stroke-dasharray:none;stroke-opacity:1"
         sodipodi:nodetypes="cccccccccccccccccc" />
      <path
         id="path4240"
         d="m 66.105469,802.27818 a 10.458569,10.548044 0 0 0 -9.292969,5.73046 12.09272,12.196176 0 0 0 -8.029297,-3.09375 12.09272,12.196176 0 0 0 -11.794922,9.56836 7.289124,6.7684722 0 0 0 -3.666015,-0.92578 7.289124,6.7684722 0 0 0 -7.289063,6.76758 7.289124,6.7684722 0 0 0 0.132813,1.26367 6.8634358,6.9221538 0 0 0 -1.570313,-0.19336 6.8634358,6.9221538 0 0 0 -6.861328,6.92383 6.8634358,6.9221538 0 0 0 1.341797,4.0957 9.8049078,9.8887906 0 0 0 -5.263672,8.75977 9.8049078,9.8887906 0 0 0 9.802734,9.88867 9.8049078,9.8887906 0 0 0 9.806641,-9.88867 9.8049078,9.8887906 0 0 0 -0.01563,-0.42578 10.458569,10.548044 0 0 0 4.589844,1.08398 10.458569,10.548044 0 0 0 0.222656,-0.0117 7.8097754,7.289124 0 0 0 7.425781,5.05664 7.8097754,7.289124 0 0 0 5.302735,-1.94921 13.400041,13.514681 0 0 0 10.253906,4.8164 13.400041,13.514681 0 0 0 11.527344,-6.6582 6.7684722,6.0742698 0 0 0 5.890625,3.09766 6.7684722,6.0742698 0 0 0 5.425781,-2.45704 8.8244175,8.899912 0 0 0 8.533203,6.67579 8.8244175,8.899912 0 0 0 8.79296,-8.28125 10.458569,10.548044 0 0 0 6.56836,2.34961 10.458569,10.548044 0 0 0 10.45899,-10.54883 10.458569,10.548044 0 0 0 -10.45899,-10.54883 10.458569,10.548044 0 0 0 -1.74414,0.15039 9.4780779,9.5591646 0 0 0 1.08985,-4.43555 9.4780779,9.5591646 0 0 0 -9.478514,-9.55859 9.4780779,9.5591646 0 0 0 -5.72461,1.96484 8.5039778,7.4626746 0 0 0 -5.480469,-1.75586 8.5039778,7.4626746 0 0 0 -1.785156,0.17383 6.9420228,6.5949216 0 0 0 -6.371094,-3.99219 6.9420228,6.5949216 0 0 0 -3.689453,1.01172 10.458569,10.548044 0 0 0 -8.65039,-4.65429 z"
         style="fill:#005522;fill-opacity:1;stroke-width:0;stroke-miterlimit:4;stroke-dasharray:none"
         inkscape:connector-curvature="0" />
    </g>
  </g>
</svg>
