<?xml version="1.0" encoding="UTF-8" standalone="no"?>
<!-- Created with Inkscape (http://www.inkscape.org/) -->

<svg
   xmlns:dc="http://purl.org/dc/elements/1.1/"
   xmlns:cc="http://creativecommons.org/ns#"
   xmlns:rdf="http://www.w3.org/1999/02/22-rdf-syntax-ns#"
   xmlns:svg="http://www.w3.org/2000/svg"
   xmlns="http://www.w3.org/2000/svg"
   xmlns:sodipodi="http://sodipodi.sourceforge.net/DTD/sodipodi-0.dtd"
   xmlns:inkscape="http://www.inkscape.org/namespaces/inkscape"
   width="255"
   height="130"
   viewBox="0 0 255 130"
   id="svg4663"
   version="1.1"
   inkscape:version="0.91 r13725"
   sodipodi:docname="logo.svg">
  <defs
     id="defs4665">
    <filter
       style="color-interpolation-filters:sRGB"
       inkscape:label="Drop Shadow"
       id="filter4638">
      <feFlood
         flood-opacity="0.498039"
         flood-color="rgb(0,0,0)"
         result="flood"
         id="feFlood4640" />
      <feComposite
         in="flood"
         in2="SourceGraphic"
         operator="in"
         result="composite1"
         id="feComposite4642" />
      <feGaussianBlur
         in="composite1"
         stdDeviation="1.6"
         result="blur"
         id="feGaussianBlur4644" />
      <feOffset
         dx="2.4"
         dy="2.6"
         result="offset"
         id="feOffset4646" />
      <feComposite
         in="SourceGraphic"
         in2="offset"
         operator="over"
         result="fbSourceGraphic"
         id="feComposite4648" />
      <feColorMatrix
         result="fbSourceGraphicAlpha"
         in="fbSourceGraphic"
         values="0 0 0 -1 0 0 0 0 -1 0 0 0 0 -1 0 0 0 0 1 0"
         id="feColorMatrix4650" />
      <feFlood
         id="feFlood4652"
         flood-opacity="0.498039"
         flood-color="rgb(0,0,0)"
         result="flood"
         in="fbSourceGraphic" />
      <feComposite
         id="feComposite4654"
         in2="fbSourceGraphic"
         in="flood"
         operator="in"
         result="composite1" />
      <feGaussianBlur
         id="feGaussianBlur4656"
         in="composite1"
         stdDeviation="1.6"
         result="blur" />
      <feOffset
         id="feOffset4658"
         dx="2.4"
         dy="2.6"
         result="offset" />
      <feComposite
         id="feComposite4660"
         in2="offset"
         in="fbSourceGraphic"
         operator="over"
         result="composite2" />
    </filter>
    <filter
       style="color-interpolation-filters:sRGB"
       inkscape:label="Drop Shadow"
       id="filter4936">
      <feFlood
         flood-opacity="1"
         flood-color="rgb(255,255,255)"
         result="flood"
         id="feFlood4938" />
      <feComposite
         in="flood"
         in2="SourceGraphic"
         operator="in"
         result="composite1"
         id="feComposite4940" />
      <feGaussianBlur
         in="composite1"
         stdDeviation="1.5"
         result="blur"
         id="feGaussianBlur4942" />
      <feOffset
         dx="0"
         dy="0"
         result="offset"
         id="feOffset4944" />
      <feComposite
         in="SourceGraphic"
         in2="offset"
         operator="over"
         result="fbSourceGraphic"
         id="feComposite4946" />
      <feColorMatrix
         result="fbSourceGraphicAlpha"
         in="fbSourceGraphic"
         values="0 0 0 -1 0 0 0 0 -1 0 0 0 0 -1 0 0 0 0 1 0"
         id="feColorMatrix4948" />
      <feFlood
         id="feFlood4950"
         flood-opacity="1"
         flood-color="rgb(255,255,255)"
         result="flood"
         in="fbSourceGraphic" />
      <feComposite
         id="feComposite4952"
         in2="fbSourceGraphic"
         in="flood"
         operator="in"
         result="composite1" />
      <feGaussianBlur
         id="feGaussianBlur4954"
         in="composite1"
         stdDeviation="1.5"
         result="blur" />
      <feOffset
         id="feOffset4956"
         dx="0"
         dy="0"
         result="offset" />
      <feComposite
         id="feComposite4958"
         in2="offset"
         in="fbSourceGraphic"
         operator="over"
         result="composite2" />
    </filter>
    <filter
       style="color-interpolation-filters:sRGB"
       inkscape:label="Drop Shadow"
       id="filter4960">
      <feFlood
         flood-opacity="1"
         flood-color="rgb(255,255,255)"
         result="flood"
         id="feFlood4962" />
      <feComposite
         in="flood"
         in2="SourceGraphic"
         operator="in"
         result="composite1"
         id="feComposite4964" />
      <feGaussianBlur
         in="composite1"
         stdDeviation="2"
         result="blur"
         id="feGaussianBlur4966" />
      <feOffset
         dx="0"
         dy="0"
         result="offset"
         id="feOffset4968" />
      <feComposite
         in="SourceGraphic"
         in2="offset"
         operator="over"
         result="fbSourceGraphic"
         id="feComposite4970" />
      <feColorMatrix
         result="fbSourceGraphicAlpha"
         in="fbSourceGraphic"
         values="0 0 0 -1 0 0 0 0 -1 0 0 0 0 -1 0 0 0 0 1 0"
         id="feColorMatrix4972" />
      <feFlood
         id="feFlood4974"
         flood-opacity="1"
         flood-color="rgb(255,255,255)"
         result="flood"
         in="fbSourceGraphic" />
      <feComposite
         id="feComposite4976"
         in2="fbSourceGraphic"
         in="flood"
         operator="in"
         result="composite1" />
      <feGaussianBlur
         id="feGaussianBlur4978"
         in="composite1"
         stdDeviation="2"
         result="blur" />
      <feOffset
         id="feOffset4980"
         dx="0"
         dy="0"
         result="offset" />
      <feComposite
         id="feComposite4982"
         in2="offset"
         in="fbSourceGraphic"
         operator="over"
         result="composite2" />
    </filter>
    <filter
       style="color-interpolation-filters:sRGB;"
       inkscape:label="Drop Shadow"
       id="filter5061">
      <feFlood
         flood-opacity="1"
         flood-color="rgb(255,255,255)"
         result="flood"
         id="feFlood5063" />
      <feComposite
         in="flood"
         in2="SourceGraphic"
         operator="in"
         result="composite1"
         id="feComposite5065" />
      <feGaussianBlur
         in="composite1"
         stdDeviation="2"
         result="blur"
         id="feGaussianBlur5067" />
      <feOffset
         dx="0"
         dy="0"
         result="offset"
         id="feOffset5069" />
      <feComposite
         in="SourceGraphic"
         in2="offset"
         operator="over"
         result="composite2"
         id="feComposite5071" />
    </filter>
  </defs>
  <sodipodi:namedview
     id="base"
     pagecolor="#646464"
     bordercolor="#ffffff"
     borderopacity="1"
     inkscape:pageopacity="0"
     inkscape:pageshadow="2"
     inkscape:zoom="4.5212142"
     inkscape:cx="139.13783"
     inkscape:cy="88.898974"
     inkscape:document-units="px"
     inkscape:current-layer="layer1"
     showgrid="false"
     units="px"
     inkscape:window-width="1920"
     inkscape:window-height="1017"
     inkscape:window-x="-4"
     inkscape:window-y="-4"
     inkscape:window-maximized="1"
     inkscape:showpageshadow="false" />
  <metadata
     id="metadata4668">
    <rdf:RDF>
      <cc:Work
         rdf:about="">
        <dc:format>image/svg+xml</dc:format>
        <dc:type
           rdf:resource="http://purl.org/dc/dcmitype/StillImage" />
        <dc:title></dc:title>
      </cc:Work>
    </rdf:RDF>
  </metadata>
  <g
     inkscape:label="Capa 1"
     inkscape:groupmode="layer"
     id="layer1"
     transform="translate(0,-922.36218)">
    <g
       style="font-style:normal;font-weight:normal;font-size:18.9069519px;line-height:125%;font-family:sans-serif;letter-spacing:0px;word-spacing:0px;fill:#333333;fill-opacity:1;stroke:none;stroke-width:1px;stroke-linecap:butt;stroke-linejoin:miter;stroke-opacity:1"
       id="text4174" />
    <path
       style="fill:#ffffff;filter:url(#filter5061)"
       d="m 229.11463,935.53733 c -11.76129,-0.4803 -21.71411,11.3611 -18.97657,22.83008 0.78654,7.17127 8.33226,12.96544 13.78126,14.32032 -3.5542,0.20478 -4.52871,4.61911 -8.51563,3.36328 -5.01182,0.26262 -13.11553,1.54121 -12.5293,8.23437 -0.21751,3.86127 0.0875,9.67997 5.20313,9.87305 3.14975,0.52374 6.75715,1.0461 9.67969,-0.44141 1.40067,13.57728 -0.29333,27.34548 1.15429,40.86908 3.82927,7.9912 17.27917,5.0413 18.13477,-3.582 -0.12101,-7.4178 -1.77525,-14.7781 -1.19244,-22.2636 -0.42627,-3.6645 2.39272,-7.0599 0.34088,-10.56254 -1.07115,-3.29384 1.86362,-5.93526 4.7832,-4.13672 4.19519,0.76612 11.15279,1.3832 12.04687,-4.24219 0.76591,-3.95752 3.0013,-9.22575 0.13672,-12.68164 -7.28707,-0.89054 -14.98483,-0.24725 -21.66797,-3.84375 11.96743,0.39268 22.31922,-12.58239 18.26953,-24.26562 -2.57801,-8.93131 -11.57376,-14.24503 -20.64843,-13.47071 z M 98.3783,935.76194 c -8.347767,-0.36828 -14.489569,9.35225 -10.404297,16.69727 1.28462,2.6054 3.551207,4.58239 6.125,5.86328 -8.650632,-2.6285 -7.29379,4.75048 -7.066406,11 -1.588881,6.21072 9.369871,2.88972 11.84961,2.94141 5.814413,2.26973 13.308223,0.46356 16.509763,-5.15821 -2.60445,8.82776 7.6285,4.81812 13,5.66993 -1.27523,0.43065 -2.23501,4.81377 -4.97461,3.79687 -6.04664,1.37768 -8.29368,-1.83722 -11.80497,-3.05756 -4.46785,1.09944 -10.59945,-0.89791 -14.253621,2.07319 -0.614122,2.22117 0.08007,4.6412 -2.992187,4.73632 -8.372921,2.91571 -5.207565,16.28946 2.669921,17.07032 -0.0953,2.91034 2.529896,7.75494 -1.363281,8.69914 -3.584016,3.4568 2.053392,7.5046 2.40625,10.8985 -3.830848,0.765 -4.594251,4.9397 -4.654297,7.9668 -2.135709,4.9641 3.854126,8.5465 7.253905,10.7578 4.11548,6.1046 12.22032,1.8696 17.99219,2.8242 8.23222,-0.5328 17.36765,1.0767 24.90429,-2.6445 2.49798,-4.1474 2.52578,-9.787 1.79297,-14.4473 -1.20757,-2.3804 -5.34427,-0.6772 -3.83398,-4.2851 -0.12636,-4.4389 5.03376,-11.1154 -0.32227,-14.2481 -2.73584,-0.5474 -0.49506,-5.27377 -0.34765,-7.53316 3.4277,-5.26574 4.68896,-11.5765 4.60664,-17.87454 -3.47985,-2.70772 -8.63512,-3.81366 -13.16524,-4.78562 2.53742,-5.38853 -4.72985,-13.63402 2.17969,-11.19726 1.48018,-1.73548 -3.17905,9.25137 0.30469,11.25 5.1617,0.72883 13.75178,-1.41377 16.92026,0.98449 -1.43169,6.64248 -1.39953,13.75009 -4.90073,19.68347 -0.90213,5.05067 4.60637,8.64682 3.36719,13.95502 0.61921,6.4139 2.45796,12.6349 2.3789,19.1329 1.41746,5.4743 4.11794,13.2955 11.19336,12.5039 4.20038,-0.6403 8.23389,-1.9015 12.50391,-0.8223 7.10357,-0.1034 14.66032,0.7906 21.48633,-1.3652 3.16772,-4.9879 0.9838,-11.7783 2.01758,-17.3907 -0.22565,-5.4122 3.16852,-10.623 0.70898,-15.9726 -2.24983,-6.39919 0.94125,-13.18578 0.30664,-19.81445 0.19966,-5.78186 -1.57746,-13.60193 6.85352,-10.89453 4.38618,-1.77864 1.94354,-12.79608 -0.97657,-13.80469 -1.88206,-8.20498 2.59459,-10.05125 2.97657,-15.99219 2.82981,-9.09804 -5.91117,-6.62529 -12,-6.80469 -15.05209,0 -30.10417,0 -45.15625,0 -1.30985,7.42443 1.02883,11.20034 3.53906,14.80469 0.96047,4.481 -0.0999,14.556 -4.88626,8.11461 -3.09239,-6.85035 -3.83508,-10.27159 -2.31687,-16.11461 2.82982,-9.09804 -5.91117,-6.62529 -12,-6.80469 -4.72195,1.42389 -15.47949,-3.18782 -15.4375,3 -1.04337,7.54503 3.15533,9.52868 -0.92973,16.33205 -0.21372,3.34317 -3.8739,8.22828 -3.9355,2.72655 -1.0232,-4.01566 -4.19956,-7.14236 -7.92578,-8.77735 8.63291,2.62706 7.22238,-4.78934 7.01758,-11 0.29098,-4.4042 -9.10526,-1.8596 -11.5586,-1.8125 -1.79684,-0.69115 -3.74038,-0.94466 -5.6582,-0.88086 z m -89.064453,2.41211 c -1.9448475,8.06464 3.247854,8.99173 2.554688,15.80469 1.317493,7.49979 -4.4921059,7.87248 -2.554688,15.99219 -2.0556989,4.90817 8.76601,1.82377 1.179688,3.36719 -3.1707628,0.3649 -8.0577144,1.29037 -7.0175786,5.58007 1.03963,3.8902 -3.51109864,6.36571 -2.94531252,10.39649 -0.17092298,4.73275 4.48745682,7.411 8.14257812,9.00781 4.637621,7.55871 10.445955,15.16061 14.953125,22.24611 -5.974262,0.3701 -11.603422,-1.8689 -17.2558593,-3.0762 -5.88020621,1.7935 -7.8820113,11.0835 -3.8144531,15.4805 9.9340754,6.9902 24.1567364,8.786 34.5390624,1.6601 5.921066,-2.3567 11.147604,-9.5175 8.726563,-15.9062 -3.008645,-2.6171 -3.457486,-7.1673 -7.626953,-8.7579 -3.60158,-3.3319 -5.359011,-8.3368 -8.707032,-12.02922 -1.041969,-1.78724 -4.83522,-6.16412 -0.640625,-4.81445 4.89023,1.49659 9.928516,2.43777 15.085938,2.35351 0.97364,-5.47619 4.850659,-11.9749 2.097656,-17.42383 -4.217074,-3.27775 -10.49219,-0.63196 -14.884765,-3.80468 -3.381824,-0.71818 -8.090494,3.02618 -10.001954,-1.15235 -0.128279,-0.86514 5.763464,-0.0626 7.97056,-0.349 8.440355,0.72128 17.973932,-3.11691 20.400534,-11.92248 3.765712,-10.29124 -3.17379,-23.12814 -14.466797,-24.13086 -8.529284,-1.07612 -17.164652,-0.26852 -25.734375,-0.52149 l 0,1 0,1 z m 41.671875,0 c -1.959371,8.08698 3.272301,8.98291 2.578125,15.80469 1.311052,7.48553 -4.453224,7.89573 -2.53125,15.99219 -1.858439,4.02091 4.489019,1.69469 0.964844,3.88476 -1.109317,2.43171 -2.285051,4.64649 -4.896484,5.99024 1.347143,7.57472 0.197206,15.02325 -0.339844,22.65427 0.414354,11.3668 0.09678,23.7745 6.261719,33.7695 3.260213,4.788 9.969001,2.914 13.322265,-0.7558 3.592108,-1.0998 7.67484,1.0467 11.527344,0.3554 4.554778,0.8845 7.622769,-3.1867 7.785156,-7.3691 0.339643,-3.2652 2.692462,-9.8718 -2.185547,-10.4531 -6.025222,1.2688 -13.288989,2.4301 -18.644531,-1.0918 -2.422109,-5.9262 0.264267,-11.6892 2.689453,-16.96097 0.700768,-3.44045 -5.03229,-3.61795 -2.197265,-6.99215 4.769646,-2.5638 11.173655,-0.97992 16.51328,-1.83705 3.603763,0.61249 6.263354,-1.06173 6.148829,-4.8485 0.729281,-3.81758 2.449826,-10.1788 -1.582031,-11.95898 -7.519885,-0.53424 -15.037465,-1.10011 -22.560547,-1.58203 7.43164,0 14.863281,0 22.294922,0 -1.417036,-4.7262 3.527459,-15.81392 -4,-14.42969 -7.067295,4.07978 -8.296195,-10.23908 -1.515625,-7.74219 8.492925,2.51116 4.743916,-7.21962 5.515625,-12.42969 -1.89378,-4.43955 -11.834581,-0.83208 -17,-2 -6.049479,0 -12.098959,0 -18.148438,0 l 0,1 0,1 z m 50.835938,7.44727 c 1.87018,0.10349 2.83425,2.46929 0.34961,0.55664 -0.42402,-0.3414 -1.57144,-0.65586 -0.34961,-0.55664 z m 128.48633,1.54297 c 3.5401,1.62334 1.60755,7.47491 1.94531,10.66601 1.22146,2.76378 -3.09938,5.64338 -3.80469,2.17774 -0.1683,-3.89292 -1.8954,-9.78875 1.20899,-12.79492 0.21207,-0.0517 0.43305,-0.0589 0.65039,-0.0488 z m -156.728518,0.81445 c -1.005746,3.58551 -6.796259,-1.42589 0,0 z m 102.328128,0 c -0.66064,3.66018 -6.76991,-1.4139 0,0 z m 13.13281,0 c 2.24129,3.94211 1.49762,13.46461 -2,14.99219 2.38522,8.26914 -2.58309,9.33939 -6.13672,11.76758 -0.091,14.79273 0.38231,29.58419 0.23242,44.37499 -3.52398,-0.9179 -10.68496,2.2962 -10.23242,-3.2031 -1.56887,-4.8771 -3.66743,-9.8889 -1.58789,-15.0137 -0.54385,-8.10711 -0.009,-16.0392 0.62695,-24.14062 -1.33011,-7.12879 10.41781,-1.20157 6.44922,-10.98046 -0.15272,-7.33101 -6.55641,-4.65556 1.85156,-7.14844 -2.37419,-8.05909 2.64467,-8.72513 9.33594,-7.71875 2.42029,1.08093 -0.1389,-3.22257 1.46094,-2.92969 z m -160.544922,0.0644 c 5.581703,0.30635 5.247804,9.51696 2.328125,12.37891 -4.859768,2.16561 -1.233824,-6.88412 -2.345703,-9.47852 0.0068,-0.96341 -0.01595,-1.96432 0.01758,-2.90039 z m 104.941402,5.42774 c -0.87116,0.45238 0.16978,-1.47296 0,0 z m -59.857418,6.15625 c -0.50128,4.00479 -6.79239,-1.1888 -0.40625,0 l 0.40625,0 z m 25.84375,1.27148 c 1.299368,0.3117 4.136998,2.35515 0.878908,1.53125 -0.709712,0.0281 -2.896183,-2.96343 -0.878908,-1.53125 z m 23.232418,32.46875 c 1.05982,7.59754 0.29933,17.30174 0.31836,25.63664 -2.55819,-1.1931 -7.67738,3.1402 -7.47461,-1.2461 -1.46326,-5.6388 1.01602,-11.1887 -0.55078,-16.8457 -0.0677,-3.02298 -1.44887,-7.73392 3.36719,-7.0546 1.42181,-0.31877 2.88416,-0.46515 4.33984,-0.49024 z"
       id="path5429"
       inkscape:connector-curvature="0" />
    <path
       id="path5035"
       d="m 167.94407,974.30801 -7.17979,0.15729 -7.17673,0.15728 -0.65774,3.68522 c -0.36271,2.02609 -0.93662,5.54397 -1.27552,7.81601 -0.43514,2.91697 -1.00752,4.62803 -1.94249,5.82739 -1.48483,1.90455 -1.4094,4.12004 0.20593,6.15622 1.31259,1.65469 2.25268,5.48358 2.26214,9.19918 0.005,1.7647 0.47722,4.8225 1.05114,6.7986 0.66409,2.2866 1.04644,5.2073 1.05116,8.0282 0.007,3.943 0.22432,4.9225 1.97629,8.8887 1.61663,3.6596 2.29927,4.6144 3.80811,5.3387 l 0,0 c 2.00922,0.9645 4.75409,0.865 8.25555,-0.2981 1.76157,-0.5854 3.0044,-0.6022 6.03949,-0.076 3.89081,0.6734 20.16725,0.1713 22.01583,-0.6792 0.73954,-0.3403 0.91039,-1.9176 1.19253,-10.9879 0.23851,-7.6684 0.5442,-11.0309 1.10649,-12.1928 1.06916,-2.2094 0.97062,-4.6322 -0.35348,-8.8641 -1.02283,-3.26911 -1.06731,-3.91933 -0.47947,-7.05061 0.35629,-1.89782 0.7781,-7.58281 0.93436,-12.63241 l 0.28278,-9.1806 -8.07421,0.15019 -8.07728,0.15365 0.0583,13.84626 c 0.0317,7.61513 0.11229,15.88592 0.18135,18.37972 0.0689,2.494 0.0894,6.7001 0.0429,9.3497 l -0.086,4.8193 -6.52511,-0.042 c -3.58988,-0.023 -6.6764,-0.2016 -6.85707,-0.3964 -0.1807,-0.1951 -0.43839,-1.5807 -0.57169,-3.0767 -0.13323,-1.496 -0.81285,-3.8999 -1.51218,-5.3448 -1.41455,-2.9232 -1.61633,-6.6213 -0.56554,-10.3825 0.44619,-1.5969 0.48081,-3.18921 0.11998,-5.54465 -0.34662,-2.26198 -0.30681,-5.48691 0.12598,-10.22872 0.34765,-3.80924 0.63014,-8.01604 0.627,-9.34969 l -0.003,-2.42506 z m -149.795336,0.0301 c -3.084712,0 -12.1522491,1.707 -12.5246924,2.35739 -0.1838277,0.32087 -0.2155257,1.71742 -0.070675,3.10426 0.2110554,2.02097 0.049827,2.77136 -0.8206335,3.77444 -1.3639884,1.57164 -2.2067964,3.93151 -2.2067964,6.18076 0,2.2058 2.9496513,5.3551 5.4954967,5.87051 1.5268606,0.30921 2.1906119,1.03311 4.5365519,4.93002 1.511434,2.5107 5.425685,8.2756 8.69813,12.8137 5.065435,7.0245 5.818715,8.3313 5.074412,8.781 -1.664643,1.0055 -12.308407,-0.064 -16.139172,-1.6197 -3.2394575,-1.3162 -3.588949,-1.3551 -4.7486315,-0.5349 -2.6111675,1.8466 -3.8717044,8.1622 -2.1576237,10.8035 0.9607304,1.4805 5.9341985,3.9022 10.8957042,5.3049 4.671984,1.3211 10.885529,1.4462 14.374983,0.2889 1.424328,-0.4724 4.835526,-2.0648 7.579352,-3.5406 3.732986,-2.0081 5.188553,-3.1137 5.781345,-4.386 0.435716,-0.9352 1.202849,-2.3304 1.705812,-3.1012 0.502963,-0.7708 0.912847,-2.3475 0.912847,-3.5038 0,-1.6771 -0.309206,-2.3413 -1.533698,-3.2825 -0.844416,-0.6488 -1.69028,-1.9331 -1.877942,-2.8554 -0.257332,-1.2646 -1.091374,-2.1709 -3.396269,-3.6821 -1.815695,-1.1905 -3.180266,-2.5183 -3.362451,-3.2733 -0.168738,-0.699 -2.118469,-3.6958 -4.330636,-6.6573 -4.307722,-5.7668 -6.433294,-9.93437 -5.553893,-10.88338 0.694089,-0.74916 5.615309,-0.25814 8.24017,0.82374 1.1553,0.476 3.8211,0.96825 5.922731,1.09105 l 3.820413,0.22122 1.078811,-3.70041 c 0.59387,-2.03705 1.209792,-5.14643 1.367734,-6.90625 0.358467,-3.99459 0.04134,-4.22004 -6.411419,-4.5766 -3.313295,-0.18307 -5.217953,-0.57425 -6.365302,-1.30928 -1.4732,-0.9437 -1.918086,-0.97709 -4.4628,-0.32282 -3.901584,1.00307 -6.365728,0.67532 -7.019973,-0.93432 -0.40582,-0.99848 -0.950465,-1.27553 -2.501867,-1.27553 z m 38.019756,0.083 c -1.590397,0.0211 -2.108344,0.18658 -2.425025,0.47018 -0.442112,0.39613 -0.805278,1.16685 -0.805278,1.71511 0,0.54827 -0.844612,1.6941 -1.877925,2.54487 l -1.877943,1.54602 0.319649,4.04778 c 0.469498,5.91679 0.3993,9.60377 -0.218229,11.3567 -0.684812,1.94375 -0.71128,12.67097 -0.04293,17.75907 0.277137,2.1098 0.748402,6.0052 1.04501,8.655 0.64785,5.7873 3.418903,12.5241 5.701429,13.8617 2.117655,1.2407 4.443983,1.0523 6.457517,-0.5195 3.844353,-3.0009 4.622085,-3.29 7.069144,-2.6247 1.248239,0.339 4.371983,0.6177 6.943148,0.6177 4.023886,0 4.810259,-0.1608 5.636865,-1.1464 1.55787,-1.8581 3.104661,-11.8878 1.951711,-12.6569 -0.221181,-0.1468 -1.698568,0.1112 -3.282551,0.5747 -3.71159,1.0858 -11.326404,0.6962 -14.958942,-0.7652 -2.475488,-0.996 -2.664686,-1.2188 -3.310204,-3.8758 -1.088317,-4.4793 -0.439319,-10.2084 1.484527,-13.1118 0.86007,-1.2977 1.564424,-2.7337 1.564424,-3.19026 0,-1.22622 -1.308667,-2.17805 -2.381982,-1.7335 -0.843904,0.34967 -0.903378,0.12371 -0.602424,-2.24678 0.428402,-3.37318 1.272712,-4.795 3.242586,-5.46464 0.868799,-0.29543 5.58278,-0.68274 10.474635,-0.86066 4.891874,-0.17793 8.96617,-0.3988 9.054674,-0.49473 0.08852,-0.0955 0.563073,-2.25138 1.057291,-4.78863 0.648608,-3.32989 0.757308,-5.05121 0.387267,-6.19014 l -0.513282,-1.57677 -9.177596,-0.66083 c -12.636429,-0.908 -18.264814,-1.2764 -20.915472,-1.24159 z m 74.08779,0 c -1.25649,0 -1.5819,0.78043 -2.96291,3.02439 -0.63118,1.02568 -1.29449,1.12463 -7.45948,1.13117 l -6.76795,0.0177 -0.16908,-1.58596 -0.16592,-1.58297 -6.66037,0.3843 c -3.66208,0.21168 -6.76842,0.4942 -6.906256,0.6269 -0.137818,0.13254 -0.252029,1.21315 -0.252029,2.40049 0,2.10102 -0.06644,2.17629 -2.498794,2.8493 -1.653617,0.45728 -2.96458,1.29001 -3.875751,2.4588 -1.194471,1.53226 -1.33381,2.10474 -1.051141,4.33049 0.453456,3.57088 2.7049,6.49951 5.175847,6.72815 2.285405,0.21115 2.506621,0.72743 2.873763,6.74012 0.282881,4.6332 0.281078,4.6447 -1.078811,5.0131 -2.183721,0.5915 -2.547135,1.5055 -1.355437,3.4023 1.333563,2.1224 2.862508,5.2871 3.307129,6.8418 0.28622,1.0007 0.0806,1.2601 -1.229422,1.5428 -2.485841,0.5366 -3.868099,2.3799 -3.476167,4.6349 0.187573,1.079 0.09453,2.0404 -0.215154,2.2467 -1.871953,1.2487 1.019337,5.6048 4.843903,7.2998 1.08309,0.4799 1.97016,1.143 1.97016,1.4752 0,0.3323 0.76713,1.123 1.70581,1.755 1.39119,0.9368 2.19031,1.0764 4.33061,0.7623 1.44411,-0.2121 8.41755,-0.422 15.49375,-0.4672 9.00239,-0.058 13.2097,-0.2887 14.01229,-0.7714 0.63087,-0.3794 1.87665,-0.6886 2.76925,-0.6886 2.08704,0 2.62529,-1.4363 3.02745,-8.0772 0.32453,-5.3586 0.4903,-5.0448 -2.74467,-5.1789 l -1.57367,-0.064 0.16908,-3.8696 c 0.094,-2.1775 0.60937,-4.9862 1.18025,-6.4237 0.55792,-1.4047 1.01427,-3.2688 1.01427,-4.14 0,-1.8807 -1.02646,-3.0043 -2.09308,-2.2929 -1.19642,0.7981 -1.58287,0.1201 -1.58287,-2.7846 0,-4.12943 0.94218,-8.63484 2.08078,-9.94286 1.65212,-1.89801 2.72133,-5.33425 3.03052,-9.74636 l 0.28891,-4.13083 -2.4865,-1.15255 c -1.36784,-0.63271 -4.50511,-1.57641 -6.9708,-2.09923 -1.85511,-0.39331 -2.94357,-0.66542 -3.69747,-0.66083 l 0,0 z m 95.73167,0.0495 c -2.43974,0.0441 -4.33734,0.75164 -4.73633,2.10844 -0.25901,0.88098 -1.1214,1.09759 -5.67068,1.43541 -5.69445,0.42283 -9.36866,1.67715 -10.24107,3.49457 -0.84967,1.77024 -0.49877,8.52296 0.49795,9.59882 1.26845,1.369 8.61995,2.08087 10.5238,1.02038 0.77993,-0.43447 1.86831,-0.78998 2.41887,-0.78998 0.9345,0 1.02357,0.68962 1.37079,10.3455 0.20478,5.6892 0.33654,10.9802 0.292,11.7594 -0.25677,4.4999 -0.13669,18.653 0.16905,19.9227 0.19883,0.8253 1.13095,2.0332 2.07155,2.6832 2.04586,1.4142 6.04882,1.5952 8.24019,0.3719 0.81774,-0.4564 2.105,-1.6237 2.86146,-2.5941 1.51438,-1.9425 1.80784,-4.9279 0.83293,-8.4829 -0.29863,-1.0891 -0.62306,-6.0602 -0.71919,-11.0463 -0.14068,-7.2954 -0.0156,-9.4245 0.6362,-10.9019 0.68366,-1.547 0.70153,-2.0542 0.11991,-3.2271 -0.94767,-1.91124 -0.42892,-6.53661 0.84521,-7.54251 1.54577,-1.22022 3.36093,-1.50327 5.1574,-0.80216 1.82713,0.71312 5.52913,0.84775 8.08955,0.29506 1.48274,-0.32015 1.74223,-0.70604 2.69245,-4.02639 1.03365,-3.61206 1.42683,-9.18678 0.65467,-9.25763 -0.21662,-0.0194 -3.70181,-0.24313 -7.74535,-0.49473 -6.36634,-0.39632 -7.75673,-0.66311 -10.37012,-1.98865 -2.57088,-1.30396 -5.55147,-1.92432 -7.99122,-1.88103 z m -103.36944,16.86764 2.52646,0 0,15.3063 c 0,8.4169 -0.17902,15.3031 -0.39956,15.3031 -0.22055,0 -0.86034,-0.3113 -1.41998,-0.6885 -0.79618,-0.5368 -1.68664,-0.5368 -4.09397,0 -3.61379,0.8055 -4.69248,0.8539 -5.0529,0.2244 -0.14542,-0.2539 -0.56239,-2.6771 -0.92513,-5.3848 -0.51735,-3.8622 -0.52438,-5.3316 -0.0277,-6.814 0.46146,-1.3775 0.48929,-2.7035 0.1046,-4.893 -0.29036,-1.6526 -0.52558,-4.87809 -0.52558,-7.16762 0,-4.08417 0.0246,-4.16668 1.44148,-4.48737 0.79427,-0.17988 2.43732,-0.56984 3.6483,-0.86366 1.21099,-0.29366 3.33561,-0.53485 4.72404,-0.53485 z"
       style="fill:#2b1100"
       inkscape:connector-curvature="0" />
    <path
       id="path5037"
       d="m 160.32782,975.47276 c -1.06209,0 -0.99318,0.31486 0.36268,1.67818 0.63208,0.63555 1.63598,1.13436 2.2314,1.10962 0.88435,-0.037 0.8171,-0.14673 -0.36268,-0.61169 -0.79426,-0.31292 -1.44149,-0.93204 -1.44149,-1.37394 0,-0.44155 -0.35666,-0.80217 -0.78991,-0.80217 z m 35.49022,0 c -0.84241,0 -1.63057,0.31733 -1.75191,0.70692 -0.17651,0.56683 -0.58636,0.56683 -2.05006,0 -2.3891,-0.92513 -3.0674,-0.89085 -3.0674,0.14483 0,1.09636 -1.25936,1.09636 -2.1023,0 -0.76008,-0.98841 -2.09924,-1.13594 -2.09924,-0.23058 0,0.34154 0.48734,1.35803 1.08188,2.25915 2.1322,3.232 7.53095,3.50286 10.07818,0.5041 1.90461,-2.24237 1.87346,-3.38415 -0.0891,-3.38415 z m 28.25202,0 c -0.28883,0 -0.37827,0.2539 -0.19979,0.56557 0.17851,0.31168 0.55945,0.56859 0.84831,0.56859 0.28881,0 0.38135,-0.25691 0.20285,-0.56859 -0.17851,-0.31167 -0.56255,-0.56557 -0.85137,-0.56557 z m 3.44545,0 c -0.41618,0 -0.7561,0.2539 -0.7561,0.56557 0,0.31168 0.48414,0.56859 1.07882,0.56859 0.5947,0 0.93768,-0.25691 0.75918,-0.56859 -0.1785,-0.31167 -0.66569,-0.56557 -1.0819,-0.56557 z m -61.13896,0.0177 c -0.48939,0 -1.06434,0.43854 -1.53368,1.26316 -0.72382,1.27162 -0.72211,1.27338 0.40262,0.19365 0.62034,-0.59563 1.30349,-0.89317 1.51835,-0.66083 0.59362,0.64226 -2.39146,3.15957 -3.74666,3.15957 -0.65512,0 -2.35556,-0.8944 -3.77739,-1.98547 -2.91999,-2.24077 -4.02795,-2.57489 -2.53875,-0.76842 1.12214,1.36139 4.70466,3.28819 6.1471,3.3071 0.5198,0 1.61405,-0.36151 2.43117,-0.81755 1.53427,-0.8564 2.36368,-2.28529 1.8472,-3.18729 -0.19288,-0.33678 -0.45632,-0.50145 -0.74996,-0.50392 z m 65.10689,0.55322 c -0.2888,0 -0.52556,0.27228 -0.52556,0.60233 0,0.33022 0.23676,0.44172 0.52556,0.24895 0.28884,-0.1926 0.52559,-0.46169 0.52559,-0.59933 0,-0.136 -0.23675,-0.25195 -0.52559,-0.25195 z m -101.87568,0.0583 c -0.19256,0 -0.38503,0.13254 -0.63008,0.3965 -0.49012,0.52919 -0.3502,0.67937 0.63008,0.67937 0.98023,0 1.12021,-0.15018 0.63007,-0.67937 -0.24507,-0.26451 -0.43754,-0.3965 -0.63007,-0.3965 z M 10.99045,976.6829 c -0.28553,0 -0.55067,0.0458 -0.72842,0.12372 -0.3555346,0.15555 0.06166,0.27281 0.928202,0.26132 0.866485,-0.0177 1.156379,-0.13963 0.645446,-0.28269 -0.255475,-0.0725 -0.559681,-0.10607 -0.845228,-0.10244 z m 61.489325,0.31045 c -13.089868,0.0742 -20.299409,1.44726 -21.62237,4.11545 -0.957974,1.93192 -0.644599,2.38971 1.005044,1.46917 0.852136,-0.47566 1.975915,-0.8847 2.495718,-0.90678 l 0,0 c 0.851042,-0.037 0.840458,-0.0848 -0.07987,-0.47335 -0.946666,-0.39985 -0.925517,-0.45868 0.264327,-0.80216 1.868472,-0.53943 2.445133,-0.45268 1.545996,0.23058 -0.574276,0.43624 -0.07632,0.49773 1.837976,0.23357 1.444116,-0.1993 2.864999,-0.69085 3.156517,-1.09423 0.581186,-0.80429 3.934148,-0.54243 3.934148,0.30743 0,0.27635 -0.220897,0.50393 -0.491763,0.50393 -0.270881,0 -0.456671,0.52282 -0.411861,1.16492 0.06219,0.89104 0.334931,1.09051 1.149505,0.83609 0.587084,-0.18341 2.367123,-0.61825 3.955648,-0.96509 2.677268,-0.58449 4.746,-1.60451 3.254883,-1.60451 -0.346577,0 -0.630074,-0.25373 -0.630074,-0.5654 0,-0.84599 5.118847,-0.71153 5.384853,0.14136 0.173686,0.55676 0.403276,0.54791 1.06959,-0.046 0.466354,-0.41522 1.302199,-0.59969 1.859495,-0.40868 0.98522,0.33747 2.077724,-1.12905 1.392311,-1.86885 -0.16237,-0.17491 -4.243423,-0.29754 -9.070026,-0.27034 z m 38.554545,0.12544 c -0.52537,-0.15191 -3.34853,1.44832 -4.51196,2.65864 -1.13995,1.18594 -0.0383,0.9559 2.30209,-0.48252 1.13284,-0.69634 2.1614,-1.59375 2.28364,-1.99466 0.0304,-0.099 0.001,-0.15901 -0.0737,-0.18146 z m -7.32733,0.10417 c -0.25773,0 -0.24681,0.26397 0.16909,0.80517 0.35956,0.46752 1.02531,0.85146 1.47837,0.85146 0.65946,0 0.61934,-0.16611 -0.1967,-0.83291 -0.66681,-0.54438 -1.19297,-0.82019 -1.45071,-0.82372 z m -95.8853577,0.0247 c -0.1824317,0 -0.3399678,0.06 -0.427217,0.15365 -0.174569,0.18836 0.1348135,0.32282 0.6884699,0.29808 0.611769,-0.0265 0.7354868,-0.16248 0.3165742,-0.34419 l 0,0 c -0.1895347,-0.0813 -0.3953953,-0.11835 -0.5778271,-0.11126 z m 21.0384137,0.11662 c -3.632715,-0.0282 -9.809348,1.04124 -13.990771,2.60953 -5.6477687,2.1185 -9.1929864,3.90695 -9.1929864,4.6411 0,0.31963 0.4118804,0.30018 1.0173592,-0.0495 1.3387396,-0.77337 1.6074487,-0.73997 1.6074487,0.19365 0,0.42865 -0.647213,0.92178 -1.4414844,1.09723 -0.7942715,0.17493 -1.8982438,0.68132 -2.4526949,1.12481 -0.8763611,0.70092 -0.9124236,0.92285 -0.2643271,1.68137 0.666525,0.77973 0.7644815,0.75606 0.915922,-0.21838 0.111138,-0.7156 1.3263535,-1.6577 3.5407299,-2.74152 2.371631,-1.16048 3.285998,-1.89021 3.08277,-2.46199 -0.387498,-1.08963 1.07957,-1.44638 3.9833,-0.96807 1.724436,0.28411 2.106473,0.50302 1.432279,0.82372 -1.117983,0.53166 -1.241418,1.54727 -0.132159,1.08805 1.257992,-0.52106 0.909808,0.69244 -0.393417,1.37077 -1.061602,0.55267 -0.960889,0.61717 0.971244,0.65162 1.468783,0.0265 2.431474,-0.29807 3.039727,-1.02356 0.791656,-0.94405 3.924799,-1.88968 6.097918,-1.84092 0.433207,0.0176 3.011068,0.41627 5.726006,0.90359 2.714973,0.48712 5.035664,0.77655 5.157419,0.64544 0.121743,-0.13254 -0.445256,-0.37564 -1.260166,-0.54403 -0.814926,-0.16784 -2.308533,-0.49703 -3.319425,-0.72849 l -1.837976,-0.42105 1.573649,-0.3903 c 1.692806,-0.42283 -3.789226,-0.75888 -10.241054,-0.62707 -2.977779,0.0618 -3.212335,-1.7e-4 -1.837976,-0.51947 1.521897,-0.56912 12.986893,-0.32529 17.067392,0.36274 1.337556,0.22528 2.329614,-0.023 3.645225,-0.90977 2.361698,-1.59215 1.628774,-2.00649 -4.216903,-2.37895 -2.481107,-0.15901 -5.028737,-0.58731 -5.661461,-0.95271 -0.477785,-0.27598 -1.404681,-0.40833 -2.615585,-0.41804 z m 125.480514,0.0654 c -0.53715,0.35832 -1.41547,5.57915 -1.92404,11.44276 -0.31747,3.65993 -0.23573,4.20856 0.86061,5.809 1.37948,2.01392 1.88287,2.18866 2.22524,0.77444 0.13198,-0.54544 0.26768,-0.0865 0.3012,1.02056 0.0576,1.90524 0.81664,3.37477 1.7427,3.37477 0.23106,0 0.418,-0.33255 0.418,-0.73769 0,-0.4055 -0.22146,-0.97957 -0.49484,-1.27552 -0.52851,-0.57265 -0.64975,-3.27899 -0.35039,-7.90825 0.2306,-3.56578 0.23293,-3.57055 0.84523,-2.54804 0.37341,0.62389 0.50372,0.24613 0.48255,-1.41688 -0.0208,-1.63526 -0.14046,-1.96142 -0.42721,-1.17109 -0.27567,0.75977 -0.51544,0.88681 -0.78376,0.41805 -0.4944,-0.86348 0.13411,-3.03623 1.10031,-3.79882 0.60214,-0.47529 0.33753,-0.94 -1.39231,-2.44043 -1.17579,-1.01968 -2.34677,-1.71407 -2.60329,-1.54286 z m -53.35366,0.0301 1.00199,1.27554 c 0.94011,1.19848 1.36158,1.53559 1.36158,1.08186 0,-0.1078 -0.5304,-0.68149 -1.18025,-1.27552 l -1.18332,-1.08188 z m 129.70971,0.73468 -8.7934,0.3903 c -9.91601,0.44261 -16.13848,1.63156 -14.99888,2.8615 0.15261,0.16438 6.62054,0.29595 14.37188,0.29506 12.14659,-0.001 14.22215,0.12372 15.01734,0.90058 0.71364,0.69688 1.75851,0.8506 4.61953,0.6762 2.76798,-0.16957 3.70055,-0.0424 3.70055,0.50092 0,1.12797 0.94681,0.8587 1.59825,-0.45498 0.57483,-1.15909 0.50024,-1.18312 -3.78661,-1.0787 -2.40648,0.0583 -4.6135,0.0495 -4.9023,-0.0211 -0.98929,-0.24047 4.20023,-1.03434 7.09066,-1.08504 3.58349,-0.0637 5.23052,-0.94017 2.58792,-1.37694 -5.17342,-0.85484 -5.7383,-0.85871 -5.7383,-0.0495 0,1.27517 -2.35051,1.62501 -9.94908,1.47836 l -4.4351,-0.0865 1.81029,-1.47534 1.80725,-1.47519 z m -91.35188,0.19366 c -3.33844,-0.0566 -10.43189,0.45143 -13.67419,1.10643 -1.79817,0.36379 -4.95436,0.48766 -7.35192,0.28889 -3.7732,-0.31293 -4.48773,-0.20392 -7.01075,1.07267 -2.46196,1.24567 -3.51889,1.42306 -8.5506,1.42306 -3.722012,0 -6.357173,0.27757 -7.493303,0.78998 -1.91252,0.86242 -3.463887,2.85177 -3.463887,4.43808 0,1.38118 2.756634,1.31986 5.510867,-0.12372 l 2.102303,-1.10043 -2.102303,0.27052 -2.099228,0.27051 2.099228,-0.8884 c 1.155302,-0.48784 5.527533,-1.54161 9.715473,-2.34502 6.2879,-1.20608 9.76579,-1.50663 19.95653,-1.72112 11.86951,-0.25037 12.37431,-0.30709 13.24698,-1.48455 0.49902,-0.67355 0.91254,-1.45486 0.91898,-1.73667 0.003,-0.15901 -0.69135,-0.24243 -1.80418,-0.26115 z m 44.24367,0.31025 0.31965,12.13751 c 0.17528,6.67584 0.45584,13.86817 0.62392,15.98247 0.16888,2.1254 0.0654,4.5919 -0.23357,5.5169 -0.37734,1.1685 -0.361,2.7094 0.0523,5.1083 0.51419,2.984 0.73314,3.4125 1.67507,3.2671 1.03302,-0.1591 1.08498,-0.5213 1.08498,-7.6254 l 0,0 c 0,-4.1016 0.17199,-7.1626 0.38419,-6.8016 0.21218,0.3608 0.39205,0.4348 0.39648,0.1625 0.005,-0.2719 0.33936,-0.196 0.74687,0.1695 0.56664,0.5079 0.83113,0.5061 1.12491,0 0.26034,-0.4546 0.60834,-0.2367 1.07882,0.6794 l 0.69461,1.3524 0.0183,-1.5031 c 0.0121,-1.1207 -0.43711,-1.7934 -1.77649,-2.6463 -1.0049,-0.6399 -1.89805,-1.7257 -2.02853,-2.465 -0.17147,-0.9709 -0.26109,-0.7938 -0.33808,0.664 -0.0863,1.6362 -0.17954,1.7814 -0.53482,0.8359 -0.88159,-2.3462 -0.90926,-21.24119 -0.0308,-21.24119 0.31511,0 0.5256,2.26694 0.5256,5.66768 0,4.66035 0.14223,5.66748 0.78989,5.66748 0.59735,0 0.80988,-0.78645 0.88516,-3.25797 l 0.1014,-3.2578 0.18747,3.2578 c 0.24951,4.29124 1.18639,4.20944 1.18639,-0.10417 0,-3.90712 -0.68571,-6.27318 -1.8226,-6.27318 -0.44042,0 -0.80219,-0.36061 -0.80219,-0.80216 0,-0.44138 -0.96983,-1.63031 -2.15457,-2.64328 l -2.15457,-1.84092 z m -83.781733,0.36276 c -0.187733,0.0512 -0.097,0.38641 0.187485,1.18646 0.393678,1.10731 1.257078,1.18135 1.257078,0.10779 0,-0.43411 -0.3536,-0.93627 -0.78682,-1.11579 -0.33023,-0.136 -0.545103,-0.20865 -0.657743,-0.17827 z m -90.4544106,0.3843 c -0.2888164,0 -0.52558,0.39613 -0.52558,0.88203 0,0.48607 0.2367636,0.72743 0.52558,0.53483 0.2888341,-0.19276 0.52558,-0.5919 0.52558,-0.88522 0,-0.2933 -0.2367459,-0.53164 -0.52558,-0.53164 z m 229.7781836,0 c -0.45031,0 -0.82066,0.25372 -0.82066,0.5654 0,0.31185 0.22309,0.56859 0.49486,0.56859 0.27176,0 0.64213,-0.25674 0.82063,-0.56859 0.17851,-0.31168 -0.0446,-0.5654 -0.49483,-0.5654 z M 7.0532459,979.6329 c -0.2461635,-0.13081 -0.3257973,0.15365 -0.3257973,0.94654 0,1.05801 0.1399386,1.20838 0.6300739,0.67936 0.4901362,-0.52918 0.4901362,-0.83274 0,-1.36156 -0.1226219,-0.13254 -0.222222,-0.22068 -0.3042766,-0.26434 z m 134.6765641,0.37795 c -0.64812,0 -2.61928,3.50234 -3.19956,5.68603 -0.55488,2.08812 0.14825,4.51812 1.30626,4.51812 0.5318,0 0.79911,-0.54703 0.79911,-1.62889 0,-0.89599 0.34693,-2.69381 0.77147,-3.99248 0.42454,-1.29884 0.54445,-2.20632 0.26432,-2.01938 -0.28012,0.18676 -0.51021,0.0848 -0.51021,-0.2274 0,-0.31185 0.23677,-0.7262 0.52558,-0.91914 0.65853,-0.43906 0.68832,-1.41686 0.0429,-1.41686 z m -61.390982,0.62088 c -0.105478,-0.0177 -0.23452,0 -0.384176,0.0336 -0.514784,0.1078 -1.04162,0.53942 -1.171026,0.95889 -0.150535,0.48767 0.102121,0.69085 0.700768,0.56558 0.514765,-0.1078 1.041618,-0.53661 1.171024,-0.9559 0.112901,-0.36592 -6.9e-5,-0.57493 -0.31659,-0.6025 z m -36.734996,0 c -0.249362,-0.0177 -0.993771,0.5177 -2.102303,1.61053 -1.449878,1.4294 -1.690457,2.05366 -1.690457,4.34902 0,1.69798 0.316027,3.0592 0.866749,3.71596 1.222337,1.45768 1.767423,1.29 1.696589,-0.52248 -0.03746,-0.95906 -0.153373,-1.17569 -0.301203,-0.56557 -0.131986,0.54561 -0.433295,0.99282 -0.670022,0.99282 -0.695539,0 -1.008914,-1.45452 -0.501003,-2.32065 0.257683,-0.43925 0.471989,-1.481 0.476407,-2.31427 0.0035,-0.83344 0.619985,-2.29908 1.367734,-3.25797 0.863534,-1.10768 1.106888,-1.67219 0.857509,-1.68739 z m 206.883338,0.58696 c -0.25285,0.0318 -0.65571,0.30957 -1.02964,0.7315 -0.86658,0.97939 -0.85289,0.99334 0.31965,0.34436 0.67461,-0.37352 1.08271,-0.83345 0.90671,-1.02355 -0.0439,-0.0478 -0.11247,-0.0637 -0.19672,-0.053 z m -168.491687,0.81772 c -0.06608,-0.0654 -0.09824,0.17316 -0.119787,0.70074 -0.053,1.29372 0.770259,3.50695 1.306246,3.50695 0.151244,0 0.106015,-0.29827 -0.101412,-0.66083 -0.207556,-0.36239 -0.552119,-1.44426 -0.765311,-2.40667 -0.155483,-0.70235 -0.253585,-1.07481 -0.319649,-1.14019 z m 46.754747,0.31027 c -1.33618,0 -2.91269,0.16438 -3.86958,0.4949 -0.93358,0.32264 -0.21162,0.47017 2.49571,0.51028 2.22295,0.0336 3.80812,-0.17933 3.80812,-0.51028 0,-0.33076 -1.09807,-0.4949 -2.43425,-0.4949 z m 88.83772,0.046 c -3.87751,0 -10.98493,0.79968 -11.20613,1.52147 -0.18462,0.6025 0.11697,0.70392 1.27245,0.42723 0.83194,-0.19913 4.06425,-0.53025 7.18287,-0.73449 3.52848,-0.23112 5.48224,-0.57001 5.17585,-0.9006 -0.2004,-0.21627 -1.13252,-0.31114 -2.42504,-0.31361 z m 14.42108,0.51946 c -0.33313,0 -0.66626,0.0353 -0.91901,0.1078 -0.50543,0.14309 -0.0921,0.25831 0.91901,0.25831 1.0109,0 1.42441,-0.11489 0.91899,-0.25831 -0.25272,-0.0725 -0.58586,-0.1078 -0.91899,-0.1078 z m -195.348329,0 c -0.237947,0 -0.47722,0.0407 -0.657742,0.12008 -0.36103,0.15729 -0.06432,0.28571 0.657742,0.28571 0.722059,0 1.015681,-0.12891 0.654652,-0.28571 -0.180523,-0.0796 -0.416703,-0.12008 -0.654652,-0.12008 z m 188.226919,0.4949 c -0.76215,0 -1.20142,0.24402 -1.01735,0.5654 0.18483,0.32282 -0.26832,0.56877 -1.05113,0.56877 -0.7828,0 -1.23598,0.24277 -1.05117,0.5654 0.40913,0.71454 0.30765,0.72549 2.56335,-0.29188 2.24384,-1.01191 2.39932,-1.40769 0.5563,-1.40769 z m -181.723303,0.21495 c -0.06272,0 -0.130568,0.0194 -0.202857,0.0671 -0.288816,0.19277 -0.52558,0.5889 -0.52558,0.88222 0,0.2933 0.236764,0.53483 0.52558,0.53483 0.288815,0 0.525579,-0.39932 0.525579,-0.88521 0,-0.3647 -0.13446,-0.59033 -0.322722,-0.59934 z m 170.981263,0.67319 c -0.74847,0 -1.36437,0.0813 -1.70274,0.22739 -0.83838,0.36381 0.0336,0.50305 3.02438,0.47953 l 4.20153,-0.0336 -3.02438,-0.47635 c -0.86876,-0.13791 -1.75031,-0.2025 -2.49879,-0.19667 z m -107.2175,0.2735 c -0.54242,0 -1.00897,0.17971 -1.21405,0.53785 -0.19498,0.34048 0.47358,0.56471 1.67506,0.5594 1.48485,0 1.79879,-0.15192 1.21405,-0.5594 -0.51349,-0.35814 -1.13266,-0.53785 -1.67506,-0.53785 z m -3.58376,0.63928 c -0.40234,0 -1.19535,0.15364 -2.09309,0.46416 -1.05539,0.36487 -1.10862,0.45692 -0.26433,0.47017 0.57765,0.0177 1.52467,-0.20213 2.10232,-0.47017 0.66907,-0.31027 0.65742,-0.46416 0.2551,-0.46416 z m -91.729927,0.47335 c -0.632813,0 -1.296812,0.24771 -1.475304,0.5594 -0.413223,0.72177 0.80339,0.72177 1.837976,0 0.640376,-0.44667 0.572703,-0.55234 -0.362672,-0.5594 z m 3.104271,0.86684 c -0.214147,0.0211 -0.578957,0.12198 -1.04501,0.29807 -0.932072,0.35054 -1.696589,0.75728 -1.696589,0.90358 0,0.39154 2.278869,-0.41627 2.876838,-1.02037 l 0,0 c 0.141174,-0.14309 0.07899,-0.19985 -0.13517,-0.17829 z m 233.626256,0.25814 c -0.31974,0 -0.58091,0.33235 -0.58091,0.73767 0,0.71966 0.99879,2.09607 1.52141,2.09607 0.14448,0 -6.9e-4,-0.28659 -0.3258,-0.63626 -0.32403,-0.34967 -0.46314,-0.98716 -0.31043,-1.41688 0.15279,-0.42953 0.0156,-0.7806 -0.30427,-0.7806 z m -238.04294,1.13716 c -0.8334973,0 -4.6256914,2.12081 -4.6256914,2.59098 0,0.22387 1.9343767,-0.63731 4.2015478,-1.87166 0.9060636,-0.4935 1.0376796,-0.71702 0.4241436,-0.71932 z m 180.94568,1.80419 c -0.10745,0.0424 -0.17386,0.34171 -0.15676,0.78998 0.0251,0.66027 0.14898,0.79633 0.31657,0.34419 0.15158,-0.40922 0.13445,-0.89972 -0.04,-1.08806 -0.0436,-0.0478 -0.0841,-0.06 -0.11991,-0.046 z m -40.65068,2.75088 c -0.0735,-0.037 -0.28311,0.12717 -0.6731,0.47017 -0.9687,0.8504 -1.19712,2.339 -0.3596,2.339 0.28882,0 0.52558,-0.23323 0.52558,-0.51947 0,-0.28624 0.16114,-0.98716 0.3596,-1.55823 0.15884,-0.45709 0.22104,-0.69509 0.14737,-0.73147 z m -99.588983,1.80716 c -0.153891,0.0407 -0.277297,0.37706 -0.49791,1.03893 -0.602245,1.80666 -0.343627,19.39166 0.36882,25.12606 0.856625,6.8949 3.848153,14.168 5.569265,13.539 0.34147,-0.1237 0.880143,0.2981 1.198678,0.9405 0.589417,1.1886 2.342582,1.5877 2.876838,0.6546 0.161851,-0.2825 -0.142403,-0.3933 -0.676174,-0.2427 -0.701951,0.198 -1.150494,-0.1898 -1.616689,-1.4047 -0.461353,-1.202 -0.914684,-1.6037 -1.598243,-1.4107 -0.726616,0.2051 -1.109025,-0.2274 -1.592094,-1.8072 -0.349209,-1.1421 -0.524166,-2.6931 -0.390341,-3.4486 0.133751,-0.7557 -0.06025,-1.8206 -0.430293,-2.3666 -0.466547,-0.6882 -0.581448,-2.1519 -0.378043,-4.7733 l 0.291979,-3.7803 -1.515253,-0.1875 c -1.725071,-0.2125 -1.769773,-0.6101 -0.995821,-9.3159 0.288923,-3.2501 0.234909,-4.7095 -0.187485,-4.9915 -0.69612,-0.4643 -0.789466,-4.23154 -0.13216,-5.35103 0.296732,-0.50516 0.575123,0.31555 0.817559,2.40968 0.366667,3.16755 1.34314,4.44555 1.34314,1.75805 0,-0.77919 -0.236747,-1.41687 -0.52558,-1.41687 -0.288818,0 -0.525581,-0.71648 -0.525581,-1.59214 0,-0.87549 -0.322564,-2.0701 -0.719195,-2.65547 -0.345552,-0.51009 -0.531553,-0.76348 -0.685413,-0.72231 z m 174.325293,0.81455 c -0.10381,0.0265 -0.24057,0.19047 -0.418,0.43942 -1.02505,1.43861 -1.13716,10.17232 -0.12596,9.81082 0.45065,-0.1607 0.69619,-1.9073 0.78375,-5.5724 0.0867,-3.62425 0.0718,-4.75842 -0.23973,-4.67784 z m -98.11061,0.29807 c -0.49349,0.06 -0.71883,0.79263 -0.94665,2.83992 -1.02494,9.21095 0.29309,23.69075 2.15763,23.69075 0.15036,0 0.14594,-2.0428 -0.0123,-4.5364 -0.15832,-2.4938 -0.0747,-4.675 0.18749,-4.8499 0.27586,-0.1841 0.23052,-0.8151 -0.10761,-1.4969 -0.37216,-0.7504 -0.51696,-3.7713 -0.39649,-8.317 0.1645,-6.20514 0.0813,-7.16156 -0.65158,-7.3151 -0.0821,-0.0177 -0.16008,-0.0247 -0.23052,-0.0177 z m 22.60286,0.74069 1.00195,1.27551 c 0.94011,1.19848 1.3616,1.53243 1.3616,1.07887 0,-0.1078 -0.5304,-0.68185 -1.18025,-1.27553 l -1.1833,-1.07885 z m 72.45264,0.85145 c -1.34936,0 -1.47164,1.49267 -0.77761,9.49423 0.53397,6.1557 0.53508,8.4408 0.0121,11.4274 -0.53033,3.0335 -0.51732,4.8414 0.0645,9.6417 l 0.71615,5.9072 2.31438,1.3187 c 2.43173,1.3857 4.25071,1.7052 4.25071,0.7498 0,-0.3117 -0.45739,-0.5656 -1.01736,-0.5656 -0.8,0 -1.09344,-0.5314 -1.36464,-2.4833 -0.41323,-2.9744 -0.14638,-4.6531 0.70693,-4.4597 0.34387,0.078 0.6239,-0.1131 0.6239,-0.4242 0,-0.3117 -0.47041,-0.5686 -1.04807,-0.5686 -1.30276,0 -1.39461,-1.5884 -0.14742,-2.5726 0.79978,-0.6311 0.82227,-0.8834 0.17827,-2.1821 -0.57386,-1.1575 -0.60148,-1.7755 -0.1199,-2.9168 0.33629,-0.7968 0.61163,-2.6543 0.61163,-4.1247 0,-2.688 1.47779,-7.9247 2.73853,-9.7123 0.37246,-0.5283 -0.17905,0.018 -1.22328,1.1925 -2.06323,2.3399 -2.65736,4.6017 -2.19144,8.3509 0.30053,2.4181 -0.0971,2.8395 -1.53677,1.6227 -1.25391,-1.0598 -1.98552,-5.9387 -1.98552,-13.207 0,-5.45035 -0.12995,-6.48823 -0.80526,-6.48823 z m -121.29128,1.13099 c -0.58023,0 -0.7792,0.63538 -0.76224,2.40974 l 0.0216,2.4096 0.75611,-2.2683 c 0.41621,-1.24689 0.76096,-2.33159 0.76531,-2.40968 0.003,-0.0777 -0.34746,-0.14136 -0.78068,-0.14136 z m 28.78989,0.54722 c -0.27385,-0.0424 -0.62841,2.37802 -0.65774,6.01782 -0.0408,5.0548 0.26659,5.9322 1.4415,4.1217 0.61308,-0.9448 0.65191,-1.4374 0.17826,-2.256 -0.33327,-0.5758 -0.62205,-2.7723 -0.64237,-4.8807 -0.02,-2.06814 -0.15531,-2.97792 -0.31965,-3.00282 z m -111.837045,0.80517 c -0.119095,-0.0637 -0.153891,0.16611 -0.162906,0.66085 -0.01228,0.639 0.25756,1.4628 0.599329,1.8319 0.990343,1.0688 1.105669,0.3629 0.227453,-1.3863 -0.343467,-0.68398 -0.544787,-1.04214 -0.663893,-1.10645 z m 210.159745,0.14846 c -0.0772,-0.037 -0.13133,0.78189 -0.12891,2.18529 0.003,1.8704 0.10122,2.5678 0.21821,1.549 0.11696,-1.0187 0.11454,-2.5508 -0.007,-3.40246 -0.0299,-0.21291 -0.0573,-0.31946 -0.0829,-0.33183 z M 14.703292,1000.484 c -0.150362,-0.048 -0.08923,0.431 0.227453,1.3217 0.180081,0.5065 0.43955,0.8007 0.574753,0.6548 0.13517,-0.1468 -0.0071,-0.7314 -0.313501,-1.3003 -0.232152,-0.4308 -0.398469,-0.6476 -0.488705,-0.6762 z m 143.457688,0.6395 c -0.25758,-0.039 -0.63775,0.1095 -0.9651,0.4024 -0.46478,0.4165 -1.34755,0.5603 -2.13303,0.3474 -1.31628,-0.3564 -1.32708,-0.3352 -0.59012,1.211 1.0574,2.2184 2.96903,9.0879 2.96903,10.6714 0,1.0493 -0.23632,1.2764 -1.12798,1.091 -1.10387,-0.2293 -1.11869,-0.1237 -0.84214,5.2927 0.20648,4.0444 0.62857,6.4317 1.57365,8.9101 0.70999,1.8621 1.44719,3.8666 1.64127,4.4566 0.53881,1.6385 1.00122,0.6539 0.60548,-1.2909 -0.19226,-0.9447 -0.39383,-8.2121 -0.44565,-16.1483 -0.0518,-7.9359 -0.26369,-14.6127 -0.47333,-14.839 -0.0525,-0.057 -0.12616,-0.092 -0.21208,-0.1042 z m 2.14841,0.1325 c -0.0908,0.018 -0.14948,0.4359 -0.14134,1.1372 0.009,0.935 0.12809,1.2491 0.26125,0.6977 0.13323,-0.5515 0.12562,-1.316 -0.0184,-1.6998 -0.0359,-0.095 -0.0712,-0.1377 -0.10124,-0.1342 z m -141.505986,3.1226 c -0.288818,0 -0.522507,0.2693 -0.522507,0.5993 0,0.3303 0.233689,0.4418 0.522507,0.249 0.288816,-0.1928 0.525579,-0.4617 0.525579,-0.5993 0,-0.136 -0.236763,-0.249 -0.525579,-0.249 z m 1.435353,1.4293 c -0.185152,0.018 -0.370006,0.2438 -0.666968,0.6823 -0.518158,0.7649 -0.531604,1.2733 -0.06149,2.2406 0.51217,1.0538 9.291419,12.5334 9.654002,12.623 0.06644,0.018 1.082806,-0.3847 2.255987,-0.8914 l 0,0 c 2.054332,-0.8872 2.097515,-0.9614 1.223274,-2.0039 -0.499253,-0.5953 -1.187582,-0.9657 -1.530625,-0.8238 -0.834963,0.346 -3.85771,-3.1473 -6.196263,-7.1614 -1.044288,-1.7925 -2.226428,-3.2579 -2.627884,-3.2579 -0.401456,0 -1.02704,-0.3863 -1.389253,-0.8575 -0.291626,-0.3792 -0.475666,-0.5658 -0.660802,-0.547 z m 83.907753,1.337 c -0.0841,0 -0.14259,0.5491 -0.13835,1.4845 0.005,1.2469 0.11414,1.6884 0.23973,0.9835 0.12562,-0.7052 0.12174,-1.7233 -0.009,-2.2652 -0.0328,-0.136 -0.0641,-0.2002 -0.0922,-0.2028 z m -2.16377,0.067 c -0.95269,0 -0.92285,0.5836 0.1106,2.1761 1.02723,1.583 1.42758,1.2973 0.96509,-0.6916 -0.18976,-0.8161 -0.67382,-1.4845 -1.07573,-1.4845 z m -3.835786,2.4251 c -0.0295,-0.019 -0.04611,-0.018 -0.04611,0.03 0,0.2212 0.946861,2.4369 2.105378,4.9239 2.05168,4.4043 3.06734,5.8245 2.32361,3.2487 -0.37731,-1.3068 -3.939063,-7.9189 -4.38289,-8.2032 z m 6.525136,2.0407 c -0.0841,0 -0.14259,0.5492 -0.13835,1.4846 0.005,1.2469 0.11414,1.6916 0.23973,0.9866 0.12562,-0.7052 0.12174,-1.7264 -0.009,-2.2683 l -0.003,0 c -0.0328,-0.136 -0.0611,-0.2002 -0.0892,-0.2029 z m -49.401075,0.2859 c -0.210596,0.078 -0.515068,0.462 -0.774535,1.0082 -0.601345,1.2654 -0.587669,1.2824 0.319648,0.3472 0.522012,-0.5382 0.803035,-1.1345 0.627001,-1.3246 -0.044,-0.048 -0.101949,-0.057 -0.172095,-0.03 z m 73.906435,0.6331 -0.0461,4.6748 c -0.0383,3.8013 0.10036,4.678 0.74074,4.678 0.54067,0 0.78455,-0.5797 0.77761,-1.8441 -0.005,-1.0132 -0.33889,-3.1162 -0.74074,-4.6748 l -0.73149,-2.8339 z m 62.20241,1.0359 c -0.12008,0.1024 -0.28773,1.3224 -0.47334,3.6389 -0.26875,3.3541 -0.22319,3.5401 0.84831,3.4977 0.62247,-0.025 0.8374,-0.1715 0.47638,-0.3288 -0.42416,-0.1848 -0.65773,-1.5063 -0.65773,-3.7343 0,-2.1588 -0.0734,-3.1758 -0.19362,-3.0735 z m -31.59299,1.7764 c -0.0951,-0.039 -0.1629,0.2854 -0.1629,0.8699 0,0.7794 0.11873,1.0997 0.26432,0.7099 0.14578,-0.3896 0.14578,-1.0272 0,-1.4168 -0.0364,-0.097 -0.0698,-0.1502 -0.10141,-0.1627 z m -56.52246,0.2398 c -0.31156,0.078 -0.37655,0.9441 -0.0769,2.1238 l 0.41492,1.6258 0.17527,-1.6104 c 0.0975,-0.8859 0.0433,-1.7572 -0.12297,-1.9364 -0.1546,-0.1661 -0.28648,-0.2288 -0.39032,-0.2028 z m 57.04806,2.594 c -0.0951,-0.039 -0.16291,0.2853 -0.16291,0.8698 0,0.7793 0.11873,1.0997 0.26433,0.7099 0.14578,-0.3896 0.14578,-1.0272 0,-1.4168 -0.0366,-0.097 -0.0698,-0.1502 -0.1016,-0.1625 z m -61.79977,1.4507 c -0.835617,-0.018 -1.988585,1.5356 -1.988585,2.6709 0,0.5662 4.534835,2.4231 5.907355,2.4188 0.50542,-9e-4 0.919,0.2539 0.919,0.5656 0,0.6857 0.88384,0.752 1.26015,0.096 0.14842,-0.2594 -1.04234,-0.9182 -2.64326,-1.463 -4.437442,-1.5098 -3.134464,-1.535 2.04699,-0.041 6.74361,1.9453 10.12874,2.3194 10.53918,1.1649 0.17969,-0.5055 0.86516,-1.1508 1.52142,-1.4353 0.96534,-0.4185 0.69202,-0.5231 -1.43228,-0.5534 -1.44412,-0.021 -5.46278,-0.797 -8.92864,-1.7241 -3.46589,-0.9273 -6.706053,-1.6925 -7.20133,-1.6997 z m 64.33236,0.6239 c -0.53227,0.03 -0.67926,0.3735 -0.67926,1.0419 0,1.4104 2.06809,2.0327 9.41427,2.8338 3.01061,0.3283 5.56696,0.6984 5.68297,0.8237 0.11593,0.1255 0.87177,0.025 1.67817,-0.2242 0.8064,-0.2498 2.55095,-0.3242 3.87574,-0.1625 1.82023,0.2214 2.93107,9e-4 4.54885,-0.9098 2.58048,-1.4516 2.83933,-1.47 3.96488,-0.2551 0.64074,0.6916 1.10697,0.7962 1.71197,0.3841 2.22696,-1.516 0.88289,-1.7148 -11.82395,-1.761 -10.37017,-0.037 -13.49371,-0.2269 -15.37693,-0.9344 -1.54672,-0.5813 -2.46443,-0.8661 -2.99671,-0.8361 z m -156.4403345,0.4364 c -0.364881,0.018 -0.5827212,0.1537 -0.7714608,0.3997 -1.6409136,2.1341 1.8447953,3.482 10.2840773,3.9771 6.813458,0.3997 8.144634,0.6755 7.806805,1.6259 -0.160086,0.4502 -1.241366,0.9057 -2.471124,1.0389 -1.202282,0.1308 -0.414265,0.1854 1.75191,0.122 2.789342,-0.079 4.630267,-0.4717 6.30385,-1.34 l 0,0 2.360481,-1.2264 -2.099228,0.335 c -2.678857,0.4249 -2.080976,-0.2283 1.426113,-1.5612 2.700307,-1.0264 4.556781,-2.426 4.007914,-3.0182 -0.154428,-0.1661 -1.321513,0.1166 -2.594081,0.63 -1.635153,0.6598 -4.704618,1.0135 -10.465414,1.2049 -7.688529,0.2551 -8.366716,0.1913 -11.931494,-1.1465 -1.9818174,-0.7439 -3.0002016,-1.0639 -3.6083485,-1.0388 z m 114.3204845,1.2634 c -0.18243,0 -0.33998,0.062 -0.42723,0.1572 -0.17457,0.1884 0.1348,0.3227 0.68849,0.2981 0.61175,-0.027 0.73548,-0.1625 0.31657,-0.3442 -0.18955,-0.081 -0.3954,-0.1183 -0.57783,-0.1112 z m -47.323363,0.3717 c -2.725981,-0.055 -5.423461,5e-4 -5.544671,0.2122 -0.15159,0.2649 0.210579,0.4794 0.805263,0.4794 1.456449,0 1.37874,0.9924 -0.101412,1.3002 -0.836517,0.1732 -0.673344,0.2679 0.559381,0.3226 0.957691,0.042 2.173313,-0.1714 2.701649,-0.4763 0.697835,-0.403 1.139222,-0.3264 1.607467,0.2827 0.386437,0.5027 1.550573,0.8391 2.907581,0.8391 1.829601,0 2.329825,-0.2263 2.609436,-1.1771 0.190261,-0.647 0.26454,-1.2529 0.165917,-1.3462 -0.230791,-0.2189 -2.98467,-0.3818 -5.710651,-0.4366 z m 59.814243,0.7317 c -4.43992,0.021 -8.54463,0.2606 -9.12228,0.5284 -0.57765,0.2679 -0.72736,0.5038 -0.33502,0.5257 0.49477,0.028 0.60965,0.4741 0.38112,1.4568 -0.31836,1.3692 -0.24369,1.416 2.17607,1.3524 1.37742,-0.037 2.03145,-0.1787 1.4538,-0.3165 -4.06076,-0.9698 -0.95591,-1.8052 6.89396,-1.8534 4.05899,-0.025 5.47297,-0.2333 5.97188,-0.8821 0.57651,-0.7498 -0.30086,-0.8465 -7.41953,-0.8113 z m 28.20899,0.071 c -0.28201,0 -0.009,0.2611 1.00505,0.7622 0.86646,0.4283 1.93033,0.7688 2.36355,0.7592 0.43326,-0.018 -0.0401,-0.3604 -1.05114,-0.7806 -1.1988,-0.4984 -2.03545,-0.7451 -2.31746,-0.7408 z m -156.5878536,1.0758 c -0.4100429,0.076 -0.7487562,0.488 -0.931294,1.2232 -0.46335,1.8662 -0.3841226,2.529 0.1844106,1.5583 0.2738685,-0.4676 0.7425898,-0.88 1.0419369,-0.919 0.2993469,-0.039 0.8099438,-0.1061 1.1341333,-0.1448 0.4125872,-0.049 0.3930806,-0.3241 -0.064491,-0.9192 -0.4720079,-0.6138 -0.954617,-0.8749 -1.3646424,-0.799 z m 162.0987236,0.584 c -0.18243,0 -0.33999,0.06 -0.42722,0.1536 -0.17457,0.1884 0.13799,0.3228 0.69155,0.2981 0.61175,-0.026 0.73548,-0.1607 0.31655,-0.341 -0.18953,-0.081 -0.39845,-0.1184 -0.58088,-0.1113 z m 1.26937,0.4855 2.1023,0.7962 2.09925,0.799 -1.83799,0.1043 -1.83798,0.1042 1.57672,0.7776 c 0.86649,0.4283 2.63751,0.773 3.9372,0.7654 1.88191,-0.018 2.14882,-0.1237 1.31242,-0.5502 -0.71516,-0.3654 0.20715,-0.4419 2.88913,-0.2398 2.16619,0.1625 5.82815,0.4144 8.13874,0.5594 l 4.20154,0.2643 -2.88913,-0.7438 c -2.45379,-0.6338 -2.68904,-0.8022 -1.57364,-1.1126 0.72203,-0.2009 2.49308,-0.4502 3.93719,-0.5532 1.44413,-0.1042 -1.77084,-0.2327 -7.14598,-0.2889 -5.37515,-0.057 -10.92807,-0.2345 -12.34029,-0.3935 l -2.56948,-0.2889 z m -66.48999,1.1773 c -0.46842,-0.065 -0.39541,0.1857 0.0184,1.0204 0.71035,1.4324 1.39843,1.5333 2.48035,0.3657 0.60652,-0.6546 0.62963,-0.8516 0.0952,-0.8575 -0.38165,0 -1.2537,-0.1713 -1.93632,-0.3689 -0.28385,-0.081 -0.5016,-0.1379 -0.65774,-0.159 z m -61.615336,0.034 c -0.202573,-0 -0.413488,0.018 -0.620851,0.037 l -1.506046,0.1936 1.573666,0.9344 c 1.142738,0.6779 1.677806,0.7525 1.948618,0.2797 0.205188,-0.3584 0.174038,-0.8642 -0.06767,-1.125 -0.181194,-0.1956 -0.720062,-0.3161 -1.327766,-0.3196 z m -28.645435,0.049 c -2.18911,0 -2.5717837,0.1078 -1.5767226,0.4518 0.7220416,0.2495 2.6130056,0.4548 4.2015316,0.4548 2.189127,0 2.568691,-0.1112 1.573647,-0.4548 -0.722059,-0.2496 -2.609931,-0.4518 -4.198456,-0.4518 z m 98.900511,0.504 c -0.78082,-0.021 -1.22532,0.1041 -1.22327,0.3751 0.001,0.2337 1.47915,0.4656 3.28255,0.5163 3.00241,0.083 3.10056,0.05 1.17716,-0.3935 -1.3392,-0.3087 -2.45561,-0.476 -3.23644,-0.4979 z m 83.48975,0.332 c -0.042,0.069 -0.0699,0.4604 -0.0984,1.2018 -0.0858,2.244 1.22741,5.2157 2.30519,5.2157 0.42579,0 0.77451,-0.238 0.77451,-0.5287 0,-0.2908 -0.47417,-0.6905 -1.05116,-0.8882 -0.99909,-0.3422 -1.28145,-1.0269 -1.7519,-4.2508 -0.082,-0.5617 -0.13618,-0.8182 -0.17827,-0.7498 z m -53.56879,0.3196 c -0.0403,0.023 -0.0578,0.4108 -0.0922,1.1773 -0.0864,1.9296 0.82829,3.9548 1.56443,3.4638 0.33659,-0.2246 0.24604,-0.7001 -0.24281,-1.2909 -0.42571,-0.5145 -0.87979,-1.5748 -1.01119,-2.3544 -0.11467,-0.6804 -0.17788,-1.0191 -0.21823,-0.9958 z m 55.17012,1.1034 c -0.10745,0.042 -0.17061,0.3417 -0.15365,0.79 0.0251,0.6603 0.14915,0.7963 0.31659,0.3442 0.15175,-0.4092 0.13133,-0.8997 -0.0429,-1.0881 -0.0436,-0.048 -0.0841,-0.06 -0.11991,-0.046 z m 32.10622,0.9405 c -0.086,-0.053 -0.14742,0.402 -0.14742,1.2202 0,1.0911 0.10762,1.5383 0.23975,0.9927 0.13202,-0.5453 0.13202,-1.4399 0,-1.9855 -0.0331,-0.136 -0.0637,-0.2095 -0.0922,-0.2274 z"
       style="fill:#aa8800"
       inkscape:connector-curvature="0" />
    <g
       transform="scale(0.99670765,1.0033032)"
       style="font-style:normal;font-weight:normal;font-size:47.49563599px;line-height:125%;font-family:sans-serif;letter-spacing:0px;word-spacing:0px;fill:#241c1c;fill-opacity:1;stroke:none;stroke-width:1px;stroke-linecap:butt;stroke-linejoin:miter;stroke-opacity:1"
       id="text7298">
      <path
         d="m 27.935877,942.56756 0,16.81364 1.182752,0 q 4.406334,0 5.728234,-2.34231 1.298709,-2.34232 1.298709,-5.89057 0,-2.1336 -0.55659,-4.22081 -0.579781,-2.08721 -2.040828,-3.22358 -1.437856,-1.13637 -5.148453,-1.13637 l -0.463824,0 z m 0,24.53632 -15.004725,0 0,-7.72268 2.527844,0 0,-16.81364 -2.527844,0 0,-7.72268 15.445358,0 q 5.2876,0 8.627137,0.64936 3.362728,0.64935 6.331205,2.66699 2.945286,2.04083 4.638246,5.51951 0.834884,1.66977 1.275518,3.57145 0.440633,1.90168 0.440633,3.98889 0,4.19761 -1.785725,7.65311 -1.762533,3.4323 -4.475907,5.26441 -2.6438,1.8321 -5.797807,2.38869 -3.130816,0.55659 -9.693933,0.55659 z"
         style="font-style:normal;font-variant:normal;font-weight:800;font-stretch:normal;font-family:'Rockwell Extra Bold';-inkscape-font-specification:'Rockwell Extra Bold, Ultra-Bold';fill:#241c1c"
         id="path7303" />
      <path
         d="m 84.986299,967.10388 -30.77476,0 0,-7.72268 2.504652,0 0,-16.81364 -2.551035,0 0,-7.72268 30.821143,0 0,10.3201 -8.464799,0 0,-2.59742 -7.328428,0 0,4.96292 6.377588,0 0,6.56312 -6.377588,0 0,5.2876 7.328428,0 0,-2.59741 8.464799,0 0,10.32009 z"
         style="font-style:normal;font-variant:normal;font-weight:800;font-stretch:normal;font-family:'Rockwell Extra Bold';-inkscape-font-specification:'Rockwell Extra Bold, Ultra-Bold';fill:#241c1c"
         id="path7305" />
      <path
         d="m 97.092116,967.10388 -7.258854,0 0,-10.34329 7.258854,0 q 1.298709,4.22081 4.893354,4.22081 2.59741,0 2.59741,-2.08721 0,-1.08999 -0.90445,-1.80892 -0.97404,-0.7885 -4.104852,-2.17997 -3.942509,-1.78573 -5.797807,-3.08444 -1.739343,-1.18275 -2.968478,-3.26996 -1.229135,-2.06402 -1.229135,-4.56867 0,-4.4991 2.922095,-7.02695 2.898904,-2.52784 7.142898,-2.52784 4.243999,0 7.189279,2.41189 l 0,-1.99445 7.30524,0 0,9.18373 -7.21247,0 q -1.3219,-3.80336 -4.68463,-3.80336 -2.365506,0 -2.365506,2.01763 0,0.97404 0.672546,1.46105 0.64935,0.51021 4.19761,2.24955 4.7542,2.36551 6.3544,3.45549 0.81169,0.5334 1.64658,1.50743 0.85807,0.95084 1.41466,1.97126 1.27552,2.27274 1.27552,4.91654 0,4.05846 -3.01486,6.8646 -3.01486,2.85252 -7.60672,2.85252 -4.26719,0 -7.722684,-2.52784 l 0,2.1104 z"
         style="font-style:normal;font-variant:normal;font-weight:800;font-stretch:normal;font-family:'Rockwell Extra Bold';-inkscape-font-specification:'Rockwell Extra Bold, Ultra-Bold';fill:#241c1c"
         id="path7307" />
      <path
         d="m 133.71107,943.03139 -3.03805,8.92862 5.77461,0 -2.73656,-8.92862 z m -3.03805,24.07249 -12.77837,0 0,-7.72268 2.45827,0 6.05291,-16.81364 -2.59741,0 0,-7.72268 23.19122,0 0,7.72268 -2.59741,0 6.16886,16.81364 2.36551,0 0,7.72268 -16.83683,0 0,-7.07332 2.82933,0 -1.22914,-4.05847 -8.25608,0 -1.41466,4.05847 2.6438,0 0,7.07332 z"
         style="font-style:normal;font-variant:normal;font-weight:800;font-stretch:normal;font-family:'Rockwell Extra Bold';-inkscape-font-specification:'Rockwell Extra Bold, Ultra-Bold';fill:#241c1c"
         id="path7309" />
      <path
         d="m 174.29572,967.10388 -19.59659,0 0,-7.72268 3.38592,0 0,-16.81364 -3.50188,0 0,-7.72268 31.77199,0 0,10.62159 -8.58076,0 0,-2.89891 -7.21247,0 0,4.96292 5.56589,0 0,6.56312 -5.56589,0 0,5.2876 3.73379,0 0,7.72268 z"
         style="font-style:normal;font-variant:normal;font-weight:800;font-stretch:normal;font-family:'Rockwell Extra Bold';-inkscape-font-specification:'Rockwell Extra Bold, Ultra-Bold';fill:#241c1c"
         id="path7311" />
      <path
         d="m 207.18088,967.10388 -18.39065,0 0,-7.72268 2.96848,0 0,-16.81364 -2.96848,0 0,-7.72268 18.39065,0 0,7.72268 -2.94529,0 0,16.81364 2.94529,0 0,7.72268 z"
         style="font-style:normal;font-variant:normal;font-weight:800;font-stretch:normal;font-family:'Rockwell Extra Bold';-inkscape-font-specification:'Rockwell Extra Bold, Ultra-Bold';fill:#241c1c"
         id="path7313" />
      <path
         d="m 225.29323,950.89321 q 0,5.38037 1.0436,7.25886 0.99723,1.90168 3.13082,1.90168 2.1104,0 3.15401,-1.83211 1.0436,-1.8553 1.0436,-7.32843 0,-5.31079 -1.02041,-7.23566 -0.99722,-1.90168 -3.1772,-1.90168 -2.08721,0 -3.13082,1.83211 -1.0436,1.8321 -1.0436,7.30523 z m -14.0075,0 q 0,-4.03527 1.97125,-7.81544 1.94806,-3.75698 6.05291,-6.33121 1.46105,-0.90445 2.99167,-1.43785 1.55381,-0.5334 3.36273,-0.8117 1.80891,-0.30148 3.80336,-0.30148 8.67352,0 13.42772,5.07888 2.36551,2.50465 3.57145,5.42675 1.20594,2.92209 1.20594,6.19205 0,6.74865 -4.91654,11.73476 -4.91654,4.98612 -13.28857,4.98612 -8.09374,0 -13.12624,-4.68463 -5.05568,-4.66144 -5.05568,-12.03625 z"
         style="font-style:normal;font-variant:normal;font-weight:800;font-stretch:normal;font-family:'Rockwell Extra Bold';-inkscape-font-specification:'Rockwell Extra Bold, Ultra-Bold';fill:#241c1c"
         id="path7315" />
    </g>
  </g>
</svg>
