<?xml version="1.0" encoding="UTF-8" standalone="no"?>
<!-- Created with Inkscape (http://www.inkscape.org/) -->

<svg
   xmlns:dc="http://purl.org/dc/elements/1.1/"
   xmlns:cc="http://creativecommons.org/ns#"
   xmlns:rdf="http://www.w3.org/1999/02/22-rdf-syntax-ns#"
   xmlns:svg="http://www.w3.org/2000/svg"
   xmlns="http://www.w3.org/2000/svg"
   xmlns:sodipodi="http://sodipodi.sourceforge.net/DTD/sodipodi-0.dtd"
   xmlns:inkscape="http://www.inkscape.org/namespaces/inkscape"
   width="200"
   height="46"
   viewBox="0 0 200 46.000001"
   id="svg4166"
   version="1.1"
   inkscape:version="0.91 r13725"
   sodipodi:docname="nivel1.svg">
  <defs
     id="defs4168">
    <filter
       style="color-interpolation-filters:sRGB"
       inkscape:label="Drop Shadow"
       id="filter4947">
      <feFlood
         flood-opacity="1"
         flood-color="rgb(255,255,255)"
         result="flood"
         id="feFlood4949" />
      <feComposite
         in="flood"
         in2="SourceGraphic"
         operator="in"
         result="composite1"
         id="feComposite4951" />
      <feGaussianBlur
         in="composite1"
         stdDeviation="2"
         result="blur"
         id="feGaussianBlur4953" />
      <feOffset
         dx="0"
         dy="0"
         result="offset"
         id="feOffset4955" />
      <feComposite
         in="SourceGraphic"
         in2="offset"
         operator="over"
         result="composite2"
         id="feComposite4957" />
    </filter>
  </defs>
  <sodipodi:namedview
     id="base"
     pagecolor="#333333"
     bordercolor="#666666"
     borderopacity="1.0"
     inkscape:pageopacity="0"
     inkscape:pageshadow="2"
     inkscape:zoom="3.3949548"
     inkscape:cx="107.90557"
     inkscape:cy="32.711614"
     inkscape:document-units="px"
     inkscape:current-layer="layer1"
     showgrid="false"
     units="px"
     inkscape:window-width="1920"
     inkscape:window-height="1017"
     inkscape:window-x="-4"
     inkscape:window-y="-4"
     inkscape:window-maximized="1" />
  <metadata
     id="metadata4171">
    <rdf:RDF>
      <cc:Work
         rdf:about="">
        <dc:format>image/svg+xml</dc:format>
        <dc:type
           rdf:resource="http://purl.org/dc/dcmitype/StillImage" />
        <dc:title></dc:title>
      </cc:Work>
    </rdf:RDF>
  </metadata>
  <g
     inkscape:label="Capa 1"
     inkscape:groupmode="layer"
     id="layer1"
     transform="translate(0,-1006.3622)">
    <g
       id="g4943"
       style="filter:url(#filter4947)"
       transform="translate(0,-4)">
      <path
         id="path4915"
         transform="translate(0,1015.3622)"
         d="m 27.173828,0.5 c -1.2,0.03 -2.280234,0.0747656 -3.240234,0.13476562 -0.96,0.06 -1.799532,0.11968751 -2.519532,0.1796875 -1.469999,0.15000001 -2.850625,0.48023438 -4.140624,0.99023438 0.569999,3.72 0.974843,7.8002344 1.214843,12.2402345 -0.3,0.06 -0.568593,0.224141 -0.808593,0.49414 -0.210001,0.24 -0.34625,0.510547 -0.40625,0.810547 0.929999,2.28 1.456171,4.755782 1.576171,7.425782 -0.12,0.69 -0.179687,1.484765 -0.179687,2.384765 0,0.81 0.08953,1.994688 0.269531,3.554688 0.18,1.59 0.269531,2.849297 0.269531,3.779297 0,0.21 -0.01492,0.465625 -0.04492,0.765625 0,0.3 -0.01492,0.660078 -0.04492,1.080078 0.33,0.48 0.690078,0.959453 1.080078,1.439453 0.39,0.45 0.884375,0.675781 1.484375,0.675781 2.64,0 4.574687,-0.705234 5.804687,-2.115234 -0.03,-0.33 -0.07476,-0.77961 -0.134765,-1.34961 -0.03,-0.57 -0.08969,-1.24539 -0.179688,-2.02539 -0.18,-1.62 -0.269531,-2.879297 -0.269531,-3.779297 0,-2.01 0.404844,-3.735781 1.214844,-5.175781 -0.06,-0.27 0.01461,-0.585313 0.224609,-0.945313 0.21,-0.36 0.450703,-0.720078 0.720703,-1.080078 0.27,-0.39 0.50875,-0.765 0.71875,-1.125 0.24,-0.36 0.346406,-0.675313 0.316406,-0.945313 0,-0.48 -0.240703,-0.944531 -0.720703,-1.394531 -0.48,0.06 -0.840078,0.226094 -1.080078,0.496094 -0.12,0.15 -0.254297,0.343984 -0.404297,0.583984 l -0.451172,0.720703 c -0.15,0.240001 -0.299218,0.463829 -0.449218,0.673829 -0.12,0.21 -0.224453,0.361171 -0.314453,0.451171 -0.09,-0.989999 -0.134766,-2.025468 -0.134766,-3.105468 0,-0.75 0.01492,-1.470156 0.04492,-2.160156 0.03,-0.72 0.07476,-1.410313 0.134765,-2.070313 0.06,-0.66 0.149532,-1.439844 0.269532,-2.3398438 0.12,-0.9299999 0.254296,-1.9654687 0.404297,-3.1054687 0.15,-1.17 0.271328,-2.2035156 0.361328,-3.1035156 0.09,-0.9 0.164609,-1.6798438 0.224609,-2.3398438 -0.06,-0.18 -0.164453,-0.34609372 -0.314453,-0.49609372 C 27.519922,0.57460937 27.353828,0.5 27.173828,0.5 Z m 29.789063,0 c -0.54,0.27 -1.483985,0.6002344 -2.833985,0.9902344 -1.26,0.33 -2.265625,0.6751562 -3.015625,1.0351562 -0.75,0.33 -1.380625,0.8840625 -1.890625,1.6640625 l 0,1.53125 c 0,1.32 -0.04476,3.1035157 -0.134765,5.3535159 -0.09,2.22 -0.134766,3.915937 -0.134766,5.085937 0,3.42 0.285469,6.253906 0.855469,8.503906 -0.39,0.81 -0.585938,1.726094 -0.585938,2.746094 0,0.63 0.09148,1.588906 0.271485,2.878906 0.12,0.63 0.194609,1.186016 0.224609,1.666016 0.06,0.48 0.08984,0.884844 0.08984,1.214844 0,0.45 -0.01492,0.75039 -0.04492,0.90039 1.05,1.59 2.354062,2.384766 3.914062,2.384766 0.18,-0.27 0.450547,-0.480859 0.810547,-0.630859 0.33,-0.12 0.794531,-0.254297 1.394531,-0.404297 0.6,-0.15 1.066485,-0.314141 1.396485,-0.494141 0.21,-1.65 0.359219,-3.241484 0.449219,-4.771484 0.09,-1.53 0.134765,-3.015078 0.134765,-4.455078 0,-2.1 -0.08953,-4.124219 -0.269531,-6.074219 0.33,0.06 0.585625,0.224141 0.765625,0.494141 0.21,0.27 0.403984,0.659921 0.583984,1.169921 0.21,0.48 0.359219,0.795313 0.449219,0.945313 -0.27,0.12 -0.449062,0.315938 -0.539062,0.585937 -0.06,0.27 -0.08984,0.749454 -0.08984,1.439454 0.03,0.54 0.238906,0.810546 0.628906,0.810546 0.12,0 0.375625,-0.08953 0.765625,-0.269531 0.39,-0.18 0.705313,-0.271484 0.945313,-0.271484 0.69,0.72 1.290781,1.47 1.800781,2.25 0.54,0.75 1.168672,1.755625 1.888672,3.015625 0.36,0.63 0.675312,1.186015 0.945312,1.666016 0.3,0.449999 0.585469,0.884687 0.855469,1.304687 0.3,0.39 0.585469,0.765 0.855469,1.125 0.3,0.33 0.628281,0.675156 0.988281,1.035156 l 2.880859,-0.271484 c 0.21,0.09 0.435782,0.22625 0.675782,0.40625 0.27,0.15 0.538593,0.314141 0.808593,0.494141 0.27,0.149999 0.540547,0.286249 0.810547,0.40625 0.3,0.09 0.615313,0.104921 0.945313,0.04492 0.93,-0.06 1.665078,-0.181328 2.205078,-0.361328 0.57,-0.18 1.079297,-0.555 1.529297,-1.125 0.03,-0.27 0.04492,-0.615156 0.04492,-1.035156 0.03,-0.42 0.04492,-0.914375 0.04492,-1.484375 l 0,-1.169922 c 0,-0.69 0.01492,-1.305703 0.04492,-1.845703 0.06,-0.57 0.121641,-1.064375 0.181641,-1.484375 0.33,-1.74 0.494141,-3.585156 0.494141,-5.535156 0,-0.6 -0.01492,-1.290313 -0.04492,-2.070313 -0.03,-0.81 -0.07477,-1.709218 -0.134766,-2.699219 -0.06,-1.019999 -0.104765,-1.844609 -0.134766,-2.474609 -0.03,-0.63 -0.04492,-1.096484 -0.04492,-1.396484 0,-1.26 0.08953,-2.953985 0.269531,-5.0839846 0.18,-2.16 0.269531,-3.7495313 0.269531,-4.7695313 l 0,-0.8105469 c 0,-0.24 -0.01492,-0.4359374 -0.04492,-0.5859374 L 72.039062,1.6699219 c -0.15,0.09 -0.480234,0.1496875 -0.990234,0.1796875 -0.54,0.06 -0.855312,0.2410156 -0.945312,0.5410156 0.09,0.96 0.134765,2.4152344 0.134765,4.3652344 l 0,2.2050781 c 0,1.5299995 0.04477,2.8788285 0.134766,4.0488285 0.09,1.14 0.211328,2.145625 0.361328,3.015625 -0.45,0.72 -0.675781,1.663984 -0.675781,2.833984 l 0,0.720703 c 0.03,0.3 0.05984,0.615313 0.08984,0.945313 0.03,0.3 0.04492,0.60039 0.04492,0.90039 0.03,0.3 0.04492,0.53875 0.04492,0.71875 l -0.179687,0.08984 c -0.36,-1.05 -0.916016,-2.083516 -1.666016,-3.103516 -0.75,-1.05 -1.589531,-2.145156 -2.519531,-3.285156 -0.24,-1.35 -0.629922,-2.670937 -1.169922,-3.960937 -0.54,-1.29 -1.123906,-2.4746879 -1.753906,-3.5546879 -0.6,-1.08 -1.411641,-2.4307812 -2.431641,-4.0507812 -0.51,-0.81 -0.944687,-1.5152344 -1.304687,-2.1152344 -0.36,-0.6 -0.660391,-1.1092969 -0.900391,-1.52929688 L 56.962891,0.5 Z m 35.33789,0 c -1.2,0.03 -2.280234,0.0747656 -3.240234,0.13476562 -0.96,0.06 -1.799531,0.11968751 -2.519531,0.1796875 -1.47,0.15000001 -2.850625,0.48023438 -4.140625,0.99023438 0.57,3.72 0.974843,7.8002344 1.214843,12.2402345 -0.3,0.06 -0.568593,0.224141 -0.808593,0.49414 -0.21,0.24 -0.34625,0.510547 -0.40625,0.810547 0.93,2.28 1.456171,4.755782 1.576171,7.425782 -0.12,0.69 -0.179687,1.484765 -0.179687,2.384765 0,0.81 0.08953,1.994688 0.269531,3.554688 0.18,1.59 0.269532,2.849297 0.269532,3.779297 0,0.21 -0.01492,0.465625 -0.04492,0.765625 0,0.3 -0.01492,0.660078 -0.04492,1.080078 0.33,0.48 0.690078,0.959453 1.080078,1.439453 0.39,0.45 0.884375,0.675781 1.484375,0.675781 2.64,0 4.574687,-0.705234 5.804687,-2.115234 -0.03,-0.33 -0.07476,-0.77961 -0.134765,-1.34961 -0.03,-0.57 -0.08969,-1.24539 -0.179688,-2.02539 -0.18,-1.62 -0.269531,-2.879297 -0.269531,-3.779297 0,-2.01 0.404844,-3.735781 1.214844,-5.175781 -0.06,-0.27 0.01461,-0.585313 0.224609,-0.945313 0.21,-0.36 0.450703,-0.720078 0.720703,-1.080078 0.27,-0.39 0.510703,-0.765 0.720703,-1.125 0.24,-0.36 0.344454,-0.675313 0.314453,-0.945313 0,-0.48 -0.240703,-0.944531 -0.720703,-1.394531 -0.48,0.06 -0.840078,0.226094 -1.080078,0.496094 -0.12,0.15 -0.254297,0.343984 -0.404297,0.583984 l -0.451172,0.720703 c -0.15,0.240001 -0.299218,0.463829 -0.449218,0.673829 -0.12,0.21 -0.224453,0.361172 -0.314453,0.451171 -0.09,-0.99 -0.134766,-2.025468 -0.134766,-3.105468 0,-0.75 0.01492,-1.470157 0.04492,-2.160156 0.03,-0.72 0.07477,-1.410313 0.134765,-2.070313 0.06,-0.66 0.149532,-1.439844 0.269532,-2.3398438 0.12,-0.9299999 0.254297,-1.9654687 0.404297,-3.1054687 0.15,-1.17 0.271328,-2.2035156 0.361328,-3.1035156 0.09,-0.9 0.164609,-1.6798438 0.224609,-2.3398438 -0.06,-0.18 -0.164453,-0.34609372 -0.314453,-0.49609372 C 92.646875,0.57460937 92.480781,0.5 92.300781,0.5 Z m 30.048829,0 c -0.87,2.85 -1.59016,5.1 -2.16016,6.75 -0.3,0.84 -0.63023,1.6795312 -0.99023,2.5195312 -0.33,0.8099998 -0.705,1.6495308 -1.125,2.5195308 -0.06,0.510001 -0.14953,1.02125 -0.26953,1.53125 -0.09,0.510001 -0.20938,1.019297 -0.35938,1.529297 -0.15,0.51 -0.30117,0.974532 -0.45117,1.394532 -0.12,0.42 -0.2543,0.809922 -0.4043,1.169921 -0.15,0.36 -0.34593,0.826485 -0.58593,1.396485 -0.24,0.54 -0.52352,1.198515 -0.85352,1.978515 l -0.36133,0 c -0.42,-0.57 -0.86961,-1.439375 -1.34961,-2.609374 -0.24,-0.63 -0.4489,-1.169141 -0.6289,-1.619141 -0.18,-0.45 -0.37594,-0.839922 -0.58594,-1.169922 -0.18,-0.36 -0.40383,-0.660391 -0.67383,-0.900391 -0.24,-0.27 -0.54039,-0.525625 -0.90039,-0.765625 L 110.875,9.6347656 c -0.12,-0.33 -0.28609,-0.705 -0.49609,-1.125 -0.21,-0.42 -0.4786,-0.914375 -0.8086,-1.484375 -0.6,-1.11 -1.0814,-2.0260937 -1.4414,-2.7460937 -0.33,-0.75 -0.56875,-1.5447656 -0.71875,-2.3847657 -1.05,-0.09 -2.08547,-0.1347656 -3.10547,-0.1347656 -2.52,0 -4.680473,0.3302344 -6.480471,0.9902344 0.03,0.18 0.05984,0.435625 0.08984,0.765625 0.03,0.3 0.0618,0.6153125 0.0918,0.9453125 0.06,0.3 0.13461,0.5835156 0.22461,0.8535156 0.09,0.27 0.209375,0.4659375 0.359375,0.5859375 1.079998,0.33 1.619136,0.94375 1.619136,1.84375 0,0.24 -0.0448,0.615 -0.13476,1.125 -0.06,0.48 -0.08984,0.8400782 -0.08984,1.0800782 0,0.8100002 0.37501,1.3958592 1.12501,1.7558592 -0.42001,0.09 -0.75024,0.300859 -0.99024,0.63086 -0.210004,0.359999 -0.374145,0.854375 -0.494145,1.484374 -0.12,0.570001 -0.179688,0.900235 -0.179688,0.990235 1.650003,1.14 3.013753,2.50375 4.093753,4.09375 1.08,1.56 2.07071,3.420078 2.97071,5.580078 0.93,2.1 1.82921,4.156016 2.69921,6.166016 0.87,2.01 1.77118,3.703984 2.70118,5.083984 1.44,0.51 2.53515,0.765625 3.28515,0.765625 0.48,0 0.97438,-0.08953 1.48438,-0.269531 1.86,-1.23 2.79101,-2.700156 2.79101,-4.410157 0.39,-0.21 0.70336,-0.495468 0.94336,-0.855468 0.24,-0.39 0.43594,-0.809766 0.58594,-1.259766 0.15,-0.45 0.26936,-0.944375 0.35938,-1.484375 0.11999,-0.54 0.24132,-1.096016 0.36132,-1.666015 0.06,-0.390001 0.26891,-0.869454 0.62891,-1.439454 0.42,-0.69 0.63086,-1.246015 0.63086,-1.666015 0.3,-0.33 0.50891,-0.839297 0.62891,-1.529297 0.18,-0.72 0.33117,-1.229297 0.45117,-1.529297 0.15,-0.33 0.51008,-0.570703 1.08007,-0.720703 1.44001,-0.75 2.16016,-2.085859 2.16016,-4.00586 0,-0.359999 -0.0616,-0.839453 -0.18164,-1.439453 0,-1.29 0.15117,-2.293671 0.45117,-3.013671 0.15,-0.390001 0.37383,-0.90125 0.67383,-1.5312505 0.3,-0.66 0.66008,-1.4398438 1.08008,-2.3398437 0.42,-0.93 0.76515,-1.7546094 1.03516,-2.4746094 0.27,-0.72 0.43609,-1.3357031 0.49609,-1.8457032 -1.62,-0.66 -3.13492,-1.1842187 -4.54492,-1.5742187 C 124.93055,1.0253125 123.60961,0.71 122.34961,0.5 Z m 19.19727,0 c -0.39001,0 -0.72024,0.0149219 -0.99024,0.0449219 -0.27,0 -0.49578,0.0149219 -0.67578,0.0449219 -0.3,-0.06 -0.56859,-3.125e-4 -0.80859,0.1796875 -0.24,0.15 -0.46579,0.3459374 -0.67579,0.5859375 -0.18,0.24 -0.35906,0.4936718 -0.53906,0.7636718 -0.14478,0.1931 -0.29077,0.337725 -0.43554,0.453125 -0.75906,-0.2006 -1.6024,0.6634094 -1.6875,0.7246094 -0.17568,0.1485 -0.30989,0.3266031 -0.39844,0.5332031 -0.09,0.18 -0.16461,0.435625 -0.22461,0.765625 -0.03,0.3 -0.0599,0.6133595 -0.0899,0.9433595 -0.03,0.3 -0.0598,0.5854688 -0.0898,0.8554687 -0.03,0.27 -0.0598,0.4808594 -0.0898,0.6308594 0.21,1.11 0.97492,2.0241407 2.29492,2.7441406 0.03,0.1500001 0.0449,0.4653127 0.0449,0.9453127 0,0.81 -0.0895,1.815625 -0.26953,3.015625 -0.15,1.23 -0.24147,2.129219 -0.27149,2.699219 -0.53998,0.15 -0.80859,0.405625 -0.80859,0.765624 0,0.150001 0.0448,0.405626 0.13477,0.765626 0.09,0.329999 0.13476,0.613515 0.13476,0.853515 0,0.27 -0.0597,0.48086 -0.17968,0.630859 0.44999,0.420001 0.67382,0.914375 0.67382,1.484376 0,0.24 -0.0448,0.570234 -0.13476,0.990234 -0.06,0.42 -0.0898,0.750234 -0.0898,0.990234 0,0.48 0.12133,0.884844 0.36133,1.214844 0.12,0.27 0.17969,0.600234 0.17969,0.990234 0,0.48 -0.16609,0.869922 -0.49609,1.169922 -0.3,0.27 -0.76454,0.555469 -1.39454,0.855469 0.03,0.15 0.0449,0.254453 0.0449,0.314453 0.03,0.06 0.0449,0.104766 0.0449,0.134766 0.03,0.18 -0.0297,0.405781 -0.17969,0.675781 -0.15,0.24 -0.31414,0.493672 -0.49414,0.763672 -0.18,0.24 -0.34609,0.465781 -0.49609,0.675781 -0.15,0.21 -0.19477,0.374141 -0.13477,0.494141 0,0.24 0.0895,0.510547 0.26953,0.810547 0.9,0.72 1.62016,1.785312 2.16016,3.195312 3.18,1.53 6.76586,2.294922 10.75586,2.294922 0.75,0 1.51492,-0.02984 2.29492,-0.08984 0.78,-0.06 1.58969,-0.149531 2.42969,-0.269531 0.3,-0.09 0.64515,-0.181484 1.03515,-0.271484 0.42,-0.12 0.91438,-0.239375 1.48438,-0.359375 1.14,-0.24 2.08594,-0.463828 2.83594,-0.673828 0.75,-0.240001 1.45523,-0.555313 2.11523,-0.945313 0,-0.54 -0.0766,-1.021406 -0.22656,-1.441406 -0.15,-0.42 -0.37383,-0.884531 -0.67383,-1.394531 -0.3,-0.51 -0.52578,-0.914844 -0.67578,-1.214844 -0.12,-0.33 -0.19461,-0.690078 -0.22461,-1.080078 -0.33,-0.45 -0.79453,-0.673828 -1.39453,-0.673828 -0.33,0 -0.8711,0.08993 -1.6211,0.269531 -0.78,0.18 -1.37882,0.269531 -1.79882,0.269531 l -0.13477,-0.269531 c 0.27,-0.18 0.52367,-0.346094 0.76367,-0.496094 0.27,-0.18 0.40625,-0.478437 0.40625,-0.898437 -0.21,-0.3 -0.59992,-0.451172 -1.16992,-0.451172 -0.15,0.06 -0.3907,0.164453 -0.7207,0.314453 -0.3,0.12 -0.675,0.286093 -1.125,0.496093 -0.9,0.390001 -1.66493,0.675469 -2.29492,0.855469 -0.63,0.18 -1.29047,0.269531 -1.98047,0.269531 l -0.44922,0 c -0.15,-0.03 -0.34594,-0.05984 -0.58594,-0.08984 -0.24,0.06 -0.43398,0.03016 -0.58398,-0.08984 -0.15,-0.15 -0.28625,-0.316094 -0.40625,-0.496094 -0.12,-0.21 -0.22446,-0.418906 -0.31446,-0.628906 -0.06,-0.21 -0.11968,-0.361172 -0.17968,-0.451172 0.23999,-0.66 0.43398,-1.243906 0.58398,-1.753906 0.18,-0.54 0.27148,-1.110938 0.27148,-1.710938 0,-0.33 -0.0467,-0.660234 -0.13672,-0.990234 0.57,-0.48 1.53086,-0.71875 2.88086,-0.71875 l 1.80079,0 c 0.36,-0.09 0.74992,-0.134766 1.16992,-0.134766 0.3,0 0.73468,0.02984 1.30469,0.08984 0.59998,0.03 1.03468,0.04492 1.30468,0.04492 0.78,0 1.44047,-0.13625 1.98047,-0.40625 0,0.39 0.30039,0.585937 0.90039,0.585937 0,-0.21 -0.13625,-0.465625 -0.40625,-0.765624 -0.24,-0.33 -0.35937,-0.585626 -0.35937,-0.765626 0.18,0 0.37398,0.151172 0.58398,0.451172 0.24,0.3 0.40608,0.464141 0.4961,0.494141 0.09,-0.57 0.22429,-1.094219 0.40429,-1.574219 0.18,-0.54 0.45055,-1.260156 0.81055,-2.160156 0.21,-0.45 0.35922,-0.810078 0.44922,-1.080078 l 0.27148,-0.675781 -0.27148,-0.404297 c -0.96,-0.21 -1.94875,-0.344297 -2.96875,-0.404297 -1.05,-0.03 -2.40078,-0.07497 -4.05078,-0.134766 -0.84,-0.03 -1.59,-0.05984 -2.25,-0.08984 -0.63,-0.03 -1.18407,-0.07702 -1.66407,-0.136719 -0.45,0.09 -0.825,0.136719 -1.125,0.136719 -0.66,0 -0.99023,-0.270547 -0.99023,-0.810547 0,-0.09 0.0149,-0.241172 0.0449,-0.451172 0.06,-0.21 0.10477,-0.433828 0.13477,-0.673828 0.06,-0.27 0.10476,-0.525625 0.13476,-0.765625 0.06,-0.24 0.0898,-0.448907 0.0898,-0.628907 0,-0.42 -0.11938,-0.780078 -0.35938,-1.080078 0.15,-0.4499997 0.45039,-0.7205465 0.90039,-0.8105465 0.45,-0.12 1.12344,-0.1796875 2.02344,-0.1796875 0.48,-0.18 0.91664,-0.2714844 1.30664,-0.2714844 0.42,-0.03 0.88453,0.076006 1.39453,0.3164063 0.51,0.24 1.0193,0.5085937 1.5293,0.8085931 0.54,0.3 1.0493,0.570547 1.52929,0.810547 0.48001,0.24 0.90172,0.329532 1.26172,0.269532 0.45,0 0.86977,-0.104453 1.25977,-0.314453 l -0.58594,-1.3945317 c 0.21,-0.09 0.4507,-0.1347656 0.72071,-0.1347656 0.18,0 0.45054,0.029844 0.81054,0.089844 0.36,0.03 0.61367,0.044922 0.76367,0.044922 0.42,0 0.795,-0.1193749 1.125,-0.359375 0,-0.18 0.0149,-0.4207031 0.0449,-0.7207031 0.03,-0.3 0.0748,-0.6600781 0.13476,-1.0800781 0.06,-0.42 0.10672,-0.8099219 0.13672,-1.1699219 0.03,-0.36 0.0449,-0.6603906 0.0449,-0.9003906 0,-1.02 -0.25562,-1.8595313 -0.76562,-2.5195313 -0.87,0.09 -1.72446,0.1347657 -2.56446,0.1347657 -1.77,0 -3.19539,-0.1939844 -4.27539,-0.5839844 l 0.17969,-0.7207031 c -0.15,-0.03 -0.29922,-0.044922 -0.44922,-0.044922 -0.12,-0.03 -0.24133,-0.044922 -0.36133,-0.044922 -0.24,0 -0.54039,0.029844 -0.90039,0.089844 -0.33,0.06 -0.73484,0.1495312 -1.21484,0.2695312 -0.87,0.21 -1.57524,0.3144532 -2.11524,0.3144532 -0.12,-0.1200001 -0.17968,-0.2542969 -0.17968,-0.4042969 l 0,-0.2695313 c 0.03,-0.12 0.0449,-0.2095312 0.0449,-0.2695312 0,-0.18000007 -0.0448,-0.31625007 -0.13477,-0.40625007 l -1.03515,0 c -0.39,-0.03 -0.83961,-0.0598437 -1.34961,-0.0898438 C 143.06146,0.54476562 142.20687,0.5 141.54688,0.5 Z m 26.55468,0 c -2.07,0 -3.87039,0.33023438 -5.40039,0.9902344 -0.18,2.13 -0.26953,3.8707031 -0.26953,5.2207031 0,1.2951 0.0683,2.3263531 0.19922,3.1269531 -0.21038,0.9853004 -0.0601,2.4647374 0.0781,3.5859374 0.25945,0.8427 0.39649,1.752028 0.39649,2.736328 0,0.63 -0.0448,1.484453 -0.13477,2.564453 -0.09,1.05 -0.13476,1.844766 -0.13476,2.384766 0,1.02 0.0895,1.846563 0.26953,2.476563 -0.18,0.72 -0.26953,1.663984 -0.26953,2.833984 l 0,0.449219 c 0,1.92 -0.27055,3.330468 -0.81055,4.230468 -0.3,0.48 -0.44922,0.914688 -0.44922,1.304688 0,0.36 0.10446,0.675312 0.31445,0.945312 0.24002,0.24 0.61502,0.540391 1.125,0.900391 0.51,0.33 0.885,0.600547 1.125,0.810547 0.27001,0.21 0.46594,0.478594 0.58594,0.808594 0.99,0.42 2.15977,0.630859 3.50977,0.630859 0.9,0 2.59398,-0.179063 5.08398,-0.539062 0.87,-0.6 2.06961,-0.900391 3.59961,-0.900391 0.24,0 0.60008,0.01492 1.08008,0.04492 l 1.08008,0 c 1.35,0 2.44515,-0.21086 3.28515,-0.63086 0,-0.42 0.0149,-0.869609 0.0449,-1.349609 0.03,-0.48 0.0748,-1.004219 0.13476,-1.574219 0.06,-0.57 0.10672,-1.036484 0.13672,-1.396484 0.03,-0.36 0.0449,-0.628594 0.0449,-0.808594 0,-1.26 -0.375,-2.265625 -1.125,-3.015625 -1.77,0.51 -3.25508,0.765625 -4.45508,0.765625 -0.39,0 -0.75007,-0.01492 -1.08007,-0.04492 l -0.90039,-0.18164 c -0.54,0.36 -0.94485,0.615625 -1.21485,0.765625 -0.27,0.12 -0.645,0.179687 -1.125,0.179687 -0.93,-0.12 -1.39453,-0.65914 -1.39453,-1.619141 0,-0.269999 0.0448,-0.689765 0.13477,-1.259765 0.09,-0.6 0.13476,-1.04961 0.13476,-1.349609 0,-0.3 -0.0448,-0.585469 -0.13476,-0.855469 0,-0.27 -0.0597,-0.615156 -0.17969,-1.035157 -0.09,-0.45 -0.13672,-0.780234 -0.13672,-0.990234 0,-0.24 0.0467,-0.480703 0.13672,-0.720703 -0.54,-0.39 -0.81055,-0.854531 -0.81055,-1.394531 0,-0.27 0.1343,-0.749453 0.4043,-1.439453 0.27,-0.66 0.40625,-1.216016 0.40625,-1.666016 -0.12,-1.59 -0.21149,-2.998516 -0.27149,-4.228516 -0.03,-1.23 -0.0449,-2.2803903 -0.0449,-3.1503902 0,-1.14 0.0298,-2.265 0.0898,-3.375 0.06,-1.1100001 0.15148,-2.1902344 0.27148,-3.2402344 L 171.11523,0.76953125 C 170.15523,0.58953125 169.15156,0.5 168.10156,0.5 Z"
         style="font-style:normal;font-variant:normal;font-weight:normal;font-stretch:normal;font-size:medium;line-height:125%;font-family:Logger;-inkscape-font-specification:Logger;letter-spacing:0px;word-spacing:0px;fill:#4f2d16;fill-opacity:1;stroke:#1a1a1a;stroke-width:0.60000002;stroke-linecap:butt;stroke-linejoin:miter;stroke-miterlimit:4;stroke-dasharray:none;stroke-opacity:1"
         inkscape:connector-curvature="0" />
      <path
         id="path4913"
         transform="translate(0,1015.3622)"
         d="m 57.818359,0.94921875 c -1.02,0.83999995 -2.025625,1.48554685 -3.015625,1.93554685 -0.99,0.45 -2.038437,0.6757813 -3.148437,0.6757813 l -0.451172,0 c -0.18,-0.03 -0.388906,-0.059844 -0.628906,-0.089844 -0.33,0 -0.496094,0.1342969 -0.496094,0.4042969 0.21,0 0.570078,0.044766 1.080078,0.1347656 0.54,0.06 0.944844,0.089844 1.214844,0.089844 0.42,0 0.809922,-0.074609 1.169922,-0.2246094 0.3,-0.21 0.856015,-0.4507031 1.666015,-0.7207031 0.42,-0.15 0.780078,-0.2842969 1.080078,-0.4042969 0.3,-0.15 0.553672,-0.2992188 0.763672,-0.4492188 0.45,-0.2699999 0.765313,-0.6599218 0.945313,-1.1699218 L 57.818359,0.94921875 Z M 26.048828,1.0859375 c -0.51,0 -0.855156,0.089531 -1.035156,0.2695313 l 0.08984,0.1347656 c 0.09,0 0.211328,-0.029844 0.361328,-0.089844 0.18,-0.09 0.314297,-0.1347656 0.404297,-0.1347656 0.12,0 0.224453,0.074609 0.314453,0.2246094 -0.6,0.6 -1.58875,1.1391406 -2.96875,1.6191406 -0.33,0.12 -0.690078,0.1796875 -1.080078,0.1796875 -0.42,0 -1.080469,-0.1641406 -1.980469,-0.4941406 -0.87,-0.33 -1.515547,-0.5090625 -1.935547,-0.5390625 1.14,0.87 2.595234,1.3046875 4.365234,1.3046875 0.81,0 1.649532,-0.091484 2.519532,-0.2714844 0.78,-0.45 1.306172,-0.7782812 1.576172,-0.9882813 0.27,-0.24 0.43414,-0.6000781 0.49414,-1.0800781 -0.33,-0.09 -0.705,-0.1347656 -1.125,-0.1347656 z m 65.126953,0 c -0.51,0 -0.855156,0.089531 -1.035156,0.2695313 l 0.08984,0.1347656 c 0.09,0 0.211328,-0.029844 0.361328,-0.089844 0.18,-0.09 0.314297,-0.1347656 0.404297,-0.1347656 0.12,0 0.224453,0.074609 0.314453,0.2246094 -0.6,0.6 -1.58875,1.1391406 -2.96875,1.6191406 -0.33,0.12 -0.690078,0.1796875 -1.080078,0.1796875 -0.42,0 -1.080469,-0.1641406 -1.980469,-0.4941406 -0.87,-0.33 -1.515547,-0.5090625 -1.935547,-0.5390625 1.14,0.87 2.595234,1.3046875 4.365235,1.3046875 0.809999,0 1.649531,-0.091484 2.519531,-0.2714844 0.78,-0.45 1.306172,-0.7782812 1.576172,-0.9882813 0.27,-0.24 0.43414,-0.6000781 0.49414,-1.0800781 -0.33,-0.09 -0.705,-0.1347656 -1.125,-0.1347656 z m 32.029299,0 c -0.15,0 -0.26938,0.059687 -0.35938,0.1796875 0.18,0.48 0.46352,0.9594531 0.85352,1.4394531 0.39,0.45 0.82469,0.8100782 1.30469,1.0800781 1.29,0.45 2.32546,0.6757813 3.10547,0.6757813 0.83999,0 1.56015,-0.2257813 2.16015,-0.6757813 -0.15,-0.7799999 -0.64437,-1.1699218 -1.48437,-1.1699218 -0.18,0 -0.48039,0.029844 -0.90039,0.089844 -0.39,0.03 -0.69039,0.044922 -0.90039,0.044922 -1.02001,0 -1.63376,-0.4197656 -1.84376,-1.2597656 -0.12,0.03 -0.18164,0.089687 -0.18164,0.1796875 0,0.03 0.0318,0.089687 0.0918,0.1796875 0.06,0.09 0.0898,0.1795312 0.0898,0.2695312 0.21,0.48 0.57008,0.7953125 1.08008,0.9453125 0.54,0.15 1.34969,0.2246094 2.42969,0.2246094 -0.72,0.24 -1.51476,0.3613281 -2.38477,0.3613281 -0.41999,-0.03 -0.75023,-0.1513281 -0.99023,-0.3613281 -0.24,-0.21 -0.4807,-0.5532031 -0.7207,-1.0332031 -0.12,-0.24 -0.22446,-0.4210156 -0.31446,-0.5410156 -0.06,-0.1500001 -0.10476,-0.2544532 -0.13476,-0.3144532 -0.33,-0.21 -0.63039,-0.3144531 -0.90039,-0.3144531 z m 44.13086,0.1347656 c -0.21,0 -0.31446,0.089531 -0.31446,0.2695313 l 0.22461,0 c 0.06,-0.06 0.0898,-0.1495313 0.0898,-0.2695313 z m -27.67969,0.089844 c 0.57,0.42 1.11109,0.6289062 1.62109,0.6289062 0.18,0 0.3143,-0.044766 0.4043,-0.1347656 l -2.02539,-0.4941406 z m 26.10547,0.044922 0.0449,0.7636718 c 0.21,0.3 0.52336,0.4511719 0.94336,0.4511719 0.3,0 0.61531,-0.1044531 0.94531,-0.3144531 0.33,-0.21 0.52594,-0.4357813 0.58594,-0.6757813 -0.36,0.45 -0.76484,0.6757813 -1.21484,0.6757813 -0.54,0 -0.97469,-0.3003906 -1.30469,-0.9003906 z m -20.66016,0.1796874 c -0.12,0 -0.29906,0.074609 -0.53906,0.2246094 -0.21,0.1197 -0.40594,0.1796875 -0.58594,0.1796875 0.84,0 1.31946,-0.1044531 1.43946,-0.3144531 -0.18,-0.06 -0.28446,-0.089844 -0.31446,-0.089844 z m 18.63477,0.044922 c 0,0.66 0.49437,1.0499219 1.48437,1.1699219 -0.33,-0.78 -0.82437,-1.1699219 -1.48437,-1.1699219 z m 5.98437,0 c -0.66,0.48 -1.16929,0.855 -1.52929,1.125 l -0.72071,0.5390625 1.25977,0 c 0,-0.33 0.16609,-0.6284375 0.49609,-0.8984375 0.33,-0.3 0.49414,-0.555625 0.49414,-0.765625 z M 55.792969,1.6699219 c -0.18,0.06 -0.388907,0.1346094 -0.628907,0.2246093 -0.239999,0.09 -0.495625,0.1964063 -0.765624,0.3164063 -0.270001,0.09 -0.525625,0.1944531 -0.765626,0.3144531 -0.239999,0.09 -0.419062,0.1496875 -0.539062,0.1796875 0.3,0.06 0.479062,0.089844 0.539062,0.089844 0.42,0 0.824844,-0.1342969 1.214844,-0.4042969 0.39,-0.27 0.705313,-0.5107031 0.945313,-0.7207031 z M 19.794922,1.8046875 20.423828,2.390625 c 0.63,0.18 1.230781,0.2695312 1.800781,0.2695312 0.75,0 1.289141,-0.1660937 1.619141,-0.4960937 -0.15,0.03 -0.329062,0.061797 -0.539062,0.091797 l -0.765626,0 c -1.109999,0 -2.02414,-0.1511719 -2.74414,-0.4511719 z m 65.126953,0 0.628906,0.5859375 c 0.63,0.18 1.230782,0.2695312 1.800781,0.2695312 0.75,0 1.289141,-0.1660937 1.619141,-0.4960937 -0.15,0.03 -0.329062,0.061797 -0.539062,0.091797 l -0.765625,0 c -1.11,0 -2.024141,-0.1511719 -2.744141,-0.4511719 z m 65.355465,0 c -1.14,0.33 -2.3714,0.5557812 -3.6914,0.6757813 -1.32,0.1197 -2.83492,0.1796874 -4.54492,0.1796874 l -3.375,0 -0.89258,0 0,-0.3671874 -1.59375,0 0,0.7734374 0.52734,0 c -0.1027,0.1037168 -0.21103,0.1951909 -0.56641,0.2578126 -0.40801,0.6085 -0.625,1.1405375 -0.625,1.5859374 0,0.2100001 0.0467,0.4189063 0.13672,0.6289063 0.36,0.1196 0.67336,0.1816406 0.94336,0.1816406 0.24,0 0.54039,-0.061641 0.90039,-0.1816406 l -0.6289,-0.4492187 0.40429,-0.359375 6.0293,-0.1347657 c -0.57,0 -1.57367,0.2536719 -3.01367,0.7636719 0.9,0.0897 1.85891,0.1347656 2.87891,0.1347656 0.9,0 1.7564,-0.044766 2.5664,-0.1347656 -0.27,-0.1796 -0.57039,-0.2695313 -0.90039,-0.2695312 l -1.21484,0 1.08008,-0.359375 c -0.06,-0.0898 -0.25594,-0.1347657 -0.58594,-0.1347657 0.06,0 0.24101,-0.029844 0.54101,-0.089844 0.3,-0.0898 0.52383,-0.1367188 0.67383,-0.1367188 0.15,0 0.30117,0.046719 0.45117,0.1367188 0,0.3 0.58391,0.4492187 1.75391,0.4492187 -0.06,0.1795 -0.34547,0.2695313 -0.85547,0.2695313 0,0.39 -0.10445,0.645625 -0.31445,0.765625 0.18,0.03 0.33117,0.059844 0.45117,0.089844 l 0.4043,0 c 0.42,0 0.72039,-0.089531 0.90039,-0.2695312 L 147.8457,5.5390625 c 0.42,-0.51 1.11032,-0.7636719 2.07032,-0.7636719 0.18,0 0.56992,0.014922 1.16992,0.044922 l 1.71094,0 c -0.15002,0.15 -0.22461,0.269375 -0.22461,0.359375 0,0.06 0.0298,0.1196875 0.0898,0.1796875 0.12,-0.03 0.2543,-0.044922 0.4043,-0.044922 0.18,-0.03 0.39086,-0.044922 0.63086,-0.044922 l 0.71875,0 c 0.75,0 1.29109,-0.1790624 1.62109,-0.5390624 0,-0.4200001 0.0298,-0.6905469 0.0898,-0.8105469 0.06,-0.1197 0.20922,-0.1796875 0.44922,-0.1796875 0.03,-0.03 0.0449,-0.1344532 0.0449,-0.3144532 -0.33,-0.09 -0.705,-0.1665625 -1.125,-0.2265624 -0.39,-0.0597 -0.89929,-0.1047657 -1.52929,-0.1347657 -0.6,-0.03 -1.06453,-0.074766 -1.39453,-0.1347656 L 150.27734,2.390625 c 0.09,-0.18 0.13477,-0.3013281 0.13477,-0.3613281 0,-0.06 -0.0448,-0.1346094 -0.13477,-0.2246094 z m -27.92773,0.2246094 c -1.17,3.66 -2.4293,7.035 -3.7793,10.1250001 -0.12,0.81 -0.27117,1.589844 -0.45117,2.339844 -0.15,0.75 -0.34398,1.470156 -0.58398,2.160156 -0.21,0.69 -0.48055,1.501641 -0.81055,2.431641 -0.33,0.929999 -0.71992,1.978437 -1.16992,3.148437 -0.42,1.17 -0.795,2.205469 -1.125,3.105469 -0.3,0.9 -0.54071,1.679843 -0.72071,2.339844 l 0.58594,0.855468 0.22461,-0.224609 c 0,-0.54 0.0746,-0.974688 0.22461,-1.304688 0.18,-0.36 0.45055,-0.79664 0.81055,-1.30664 0.36,-0.54 0.58578,-0.974688 0.67578,-1.304688 l 0.13476,1.125 c 0.12,0.09 0.22446,0.134766 0.31446,0.134766 0.12,0 0.22445,-0.149219 0.31445,-0.449219 0.12,-0.3 0.22641,-0.46414 0.31641,-0.49414 0.09,0.06 0.13476,0.268906 0.13476,0.628906 0,0.12 0.0448,0.179687 0.13477,0.179687 l 0.49414,-2.02539 -0.58399,0.541015 c -0.72,0 -1.13976,-0.181015 -1.25976,-0.541015 -0.12,-0.24 -0.17969,-0.493672 -0.17969,-0.763672 -0.09,-0.33 0.0144,-0.600547 0.31445,-0.810547 0.33,-0.24 0.69008,-0.465781 1.08008,-0.675781 0.42,-0.24 0.78008,-0.508594 1.08008,-0.808594 0.20926,-0.190238 0.33038,-0.428444 0.38281,-0.703125 l -0.0684,1.55664 c 0.18,-0.149999 0.3143,-0.373828 0.4043,-0.673828 0.12,-0.3 0.22641,-0.615312 0.31641,-0.945312 0.09,-0.33 0.19445,-0.630391 0.31445,-0.900391 0.12,-0.27 0.26922,-0.449062 0.44922,-0.539062 -0.12,0.6 -0.38859,1.484297 -0.8086,2.654297 -0.20999,0.54 -0.37609,1.034375 -0.49609,1.484375 -0.12,0.42 -0.20953,0.795 -0.26953,1.125 0.09,-0.15 0.17953,-0.343985 0.26953,-0.583985 0.12,-0.27 0.22445,-0.540547 0.31445,-0.810547 0.12,-0.27 0.22641,-0.523672 0.31641,-0.763671 0.09,-0.270001 0.17953,-0.495782 0.26953,-0.675782 0.18,-0.3 0.45055,-0.570547 0.81055,-0.810547 0.06,-0.27 0.20922,-0.674843 0.44922,-1.214843 0.3,-0.57 0.44922,-1.034532 0.44922,-1.394532 0,-0.21 -0.0597,-0.420859 -0.17969,-0.630859 l 1.39648,-5.128906 c -0.09,0.21 -0.18148,0.478594 -0.27148,0.808593 -0.09,0.330001 -0.19445,0.660235 -0.31445,0.990235 -0.09,0.33 -0.20938,0.63039 -0.35938,0.900391 -0.12,0.24 -0.27117,0.391171 -0.45117,0.451171 l 0.54101,-2.476562 -0.90039,0.451172 c 0.06,-0.24 0.1943,-0.465781 0.4043,-0.675781 0.24,-0.24 0.49563,-0.463829 0.76563,-0.673829 0.3,-0.24 0.60039,-0.465781 0.90039,-0.675781 0.3,-0.21 0.53875,-0.420859 0.71875,-0.6308592 0.12,-0.18 0.30101,-0.4038282 0.54101,-0.6738282 0.24,-0.3 0.35938,-0.555625 0.35938,-0.765625 0,-0.18 -0.0597,-0.3292187 -0.17969,-0.4492187 -0.39,0.03 -0.70531,0.089688 -0.94531,0.1796875 -0.24,0.09 -0.44891,0.209375 -0.62891,0.359375 -0.18,0.12 -0.36102,0.2860937 -0.54101,0.4960937 -0.18,0.18 -0.38891,0.4038282 -0.62891,0.6738281 0.03,0 0.10461,-0.059687 0.22461,-0.1796874 l 0.35937,-0.359375 c 0.15,-0.15 0.30118,-0.2713282 0.45117,-0.3613282 0.18001,-0.12 0.32922,-0.1796875 0.44922,-0.1796875 0.18,0 0.26954,0.2108594 0.26954,0.6308594 l -3.64454,4.0488285 -0.40429,-0.269532 c -0.33,0.99 -0.4961,1.620625 -0.4961,1.890625 L 120.45898,14 c -0.06,0.15 -0.16445,0.405625 -0.31445,0.765625 -0.12,0.36 -0.29906,0.839453 -0.53906,1.439453 -0.24,0.57 -0.45086,1.049453 -0.63086,1.439453 -0.15,0.39 -0.2843,0.705313 -0.4043,0.945313 0.03,-0.06 0.13446,-0.494688 0.31446,-1.304688 0.21,-0.72 0.31445,-1.290937 0.31445,-1.710937 -0.15,0.24 -0.32906,0.691562 -0.53906,1.351562 -0.24,0.66 -0.43594,1.049922 -0.58594,1.169922 0.06,-0.27 0.11969,-0.600234 0.17969,-0.990234 0.09,-0.39 0.1964,-0.675469 0.3164,-0.855469 0,-0.45 0.0298,-0.869766 0.0898,-1.259766 0.09,-0.39 0.19445,-0.765 0.31445,-1.125 0.15,-0.39 0.33101,-0.794843 0.54101,-1.214843 l 0.71876,-1.439453 c 0.29999,-0.54 0.5407,-1.021407 0.7207,-1.4414068 0.21,-0.4199999 0.3443,-0.7800781 0.4043,-1.0800781 l 0.36132,0.3613281 c 0.24,-0.06 0.43399,-0.1962499 0.58399,-0.40625 0.15,-0.21 0.26937,-0.4338281 0.35937,-0.6738281 0.12,-0.24 0.24133,-0.4508593 0.36133,-0.6308593 0.12,-0.21 0.26922,-0.3442969 0.44922,-0.4042969 0,0.12 -0.0746,0.3736718 -0.22461,0.7636719 0.12,-0.06 0.26922,-0.089844 0.44922,-0.089844 0.12,0 0.33086,0.029844 0.63086,0.089844 0.3,0.06 0.52383,0.089844 0.67383,0.089844 0.42,0 0.63086,-0.23875 0.63086,-0.71875 -0.24,0 -0.35938,-0.074609 -0.35938,-0.2246094 l 0,-0.2265625 c 0,-0.21 -0.0915,-0.3144531 -0.27148,-0.3144531 l -0.49414,0.765625 c 0,-0.12 0.0149,-0.2860937 0.0449,-0.4960937 0.06,-0.24 0.11968,-0.4638282 0.17969,-0.6738282 0.09,-0.24 0.14968,-0.4657812 0.17968,-0.6757812 0.06,-0.21 0.0898,-0.3741407 0.0898,-0.4941406 -0.06,0.06 -0.11969,0.179375 -0.17969,0.359375 -0.06,0.15 -0.13461,0.2992187 -0.22461,0.4492187 -0.06,0.15 -0.13461,0.28625 -0.22461,0.40625 -0.09,0.09 -0.17953,0.1049219 -0.26953,0.044922 l 0.4043,-1.4394532 -0.90039,1.7539063 c 0,-0.36 0.0597,-0.7648438 0.17968,-1.2148437 0.15,-0.4500001 0.25641,-0.8100782 0.31641,-1.0800782 l -1.75586,-1.9804687 z m 4.14062,0 0.90039,0.3613281 0,-0.2714844 -0.90039,-0.089844 z m 12.04102,0.044922 c 0.06,0.24 0.16445,0.3613281 0.31445,0.3613281 0.06,0 0.16641,-0.029844 0.31641,-0.089844 0.15,-0.0898 0.26937,-0.1347656 0.35937,-0.1347656 l -0.99023,-0.1367187 z m -65.501953,0.089844 c 0,0.39 0.149219,0.7202344 0.449219,0.9902344 0.66,0.27 1.365234,0.40625 2.115234,0.40625 0.6,0 1.154062,-0.091484 1.664062,-0.2714844 -0.329999,0.51 -0.86914,0.8103906 -1.61914,0.9003906 1.41,0 2.549922,-0.5391406 3.419922,-1.6191406 -0.27,-0.09 -0.510703,-0.1347656 -0.720703,-0.1347656 -0.18,0 -0.403828,0.059688 -0.673829,0.1796875 -0.269999,0.09 -0.540546,0.1944531 -0.810546,0.3144531 -0.27,0.09 -0.540547,0.1944531 -0.810547,0.3144531 -0.24,0.09 -0.463828,0.1367188 -0.673828,0.1367188 l -0.226563,0 c -0.06,-0.03 -0.164453,-0.061797 -0.314453,-0.091797 -0.21,-0.03 -0.389062,-0.1046094 -0.539063,-0.2246094 -0.149999,-0.12 -0.28625,-0.239375 -0.40625,-0.359375 -0.119999,-0.15 -0.254296,-0.269375 -0.404296,-0.359375 -0.12,-0.12 -0.269219,-0.1816406 -0.449219,-0.1816406 z m 30.599613,0.091797 c -0.75,0 -1.125,0.089531 -1.125,0.2695312 0.09,0.15 0.465,0.2246094 1.125,0.2246094 l 0,0.1347656 c -0.24,0.27 -0.59813,0.4042969 -1.07813,0.4042969 -0.18,-0.03 -0.39086,-0.3284375 -0.63086,-0.8984375 -0.51,0 -0.78054,0.044766 -0.81054,0.1347656 0.26999,0.66 0.87078,0.9902344 1.80078,0.9902344 0.27,0 0.71961,-0.044766 1.34961,-0.1347656 l 0,0.089844 c -0.48,0.42 -0.92961,0.6289063 -1.34961,0.6289063 -0.24,0 -0.48071,-0.044766 -0.72071,-0.1347656 -0.24,-0.1200001 -0.55531,-0.3139844 -0.94531,-0.5839844 -0.39,-0.27 -0.72023,-0.4659375 -0.99023,-0.5859375 -0.24,-0.12 -0.508598,-0.1796875 -0.808598,-0.1796875 -0.239999,0 -0.465781,0.044766 -0.675781,0.1347656 0.899998,1.11 2.250779,1.6640625 4.050779,1.6640625 0.57,0 1.10914,-0.044766 1.61914,-0.1347656 1.02,-0.72 1.53125,-1.3934375 1.53125,-2.0234375 -0.54,0 -1.05125,0.1342969 -1.53125,0.4042968 l 0,-0.4042968 -0.17968,0 0,0.1347656 c -0.09,0.18 -0.36055,0.2695312 -0.81055,0.2695312 l 0.17969,-0.4042968 z m -32.310551,0.044922 c 0.63,1.26 1.82961,1.8886719 3.59961,1.8886719 -0.42,0 -0.780078,-0.074609 -1.080078,-0.2246093 -0.27,-0.15 -0.585313,-0.3757813 -0.945313,-0.6757813 -0.33,-0.33 -0.598594,-0.5538281 -0.808594,-0.6738281 -0.18,-0.15 -0.435625,-0.2544531 -0.765625,-0.3144532 z m 3.509766,0 0,0.4042969 1.666016,-0.1347656 c -0.54,-0.18 -1.096016,-0.2695313 -1.666016,-0.2695313 z m 88.773435,0.3144532 c -0.42,0 -0.63086,0.1641406 -0.63086,0.4941406 l -0.13476,7.6503913 c -0.0126,-0.0388 -0.0212,-0.09377 -0.0332,-0.134766 l 0,2.730469 c 0.10101,0.2148 0.17419,0.539706 0.21289,1.003906 0.09,0.69 0.23922,1.141562 0.44922,1.351563 l 0.27149,-0.0918 c 0,-0.39 -0.0299,-0.794844 -0.0899,-1.214844 -0.03,-0.45 -0.0748,-0.914531 -0.13476,-1.394531 -0.06,-0.51 -0.10672,-0.929766 -0.13672,-1.259766 -0.03,-0.33 -0.0449,-0.585625 -0.0449,-0.765625 0,-0.9900003 0.34515,-1.8295316 1.03515,-2.5195315 l 0,-1.8457032 c 0.03,-0.66 0.0449,-1.0648437 0.0449,-1.2148437 0,-1.23 -0.2686,-2.1590625 -0.8086,-2.7890625 z M 70.869141,3.1542969 c 0,0.45 -0.01492,0.9761719 -0.04492,1.5761719 0,0.5699999 -0.01492,1.2135937 -0.04492,1.9335937 -0.03,0.69 -0.0618,1.3057031 -0.0918,1.8457031 l 0,1.3945313 c 0,2.0700001 0.210859,3.9151561 0.630859,5.5351561 -0.42,0.9 -0.630859,1.980234 -0.630859,3.240235 l 0,0.810546 c 0.03,0.33 0.0618,0.705 0.0918,1.125 0.03,0.42 0.04492,0.809922 0.04492,1.169922 0.03,0.36 0.04492,0.675313 0.04492,0.945313 0.51,0.87 1.034218,1.304687 1.574218,1.304687 l 0,-19.6660154 -1.574218,-1.2148437 z M 18.083984,3.2890625 c 0.03,0.42 0.04492,0.811875 0.04492,1.171875 0.03,0.33 0.05984,0.6433594 0.08984,0.9433594 0.03,0.27 0.07477,0.6300781 0.134766,1.0800781 0.06,0.45 0.119687,0.9761719 0.179687,1.5761719 0.18,1.2 0.301328,2.2335161 0.361328,3.1035151 0.09,0.84 0.134766,1.621797 0.134766,2.341797 0,0.3 -0.01492,0.660078 -0.04492,1.080079 -0.03,0.389999 -0.07477,0.839609 -0.134766,1.349609 L 17.859375,15.125 17.724609,15.259766 c 0.18,0.24 0.329219,0.600078 0.449219,1.080078 0.12,0.48 0.239375,0.869922 0.359375,1.169922 0.48,1.35 0.720703,3.075781 0.720703,5.175781 0,0.3 -0.01492,0.749609 -0.04492,1.349609 l 0,1.304688 c 0,1.47 0.08953,2.669609 0.269532,3.599609 0.21,0.39 0.316406,0.916172 0.316406,1.576172 0,0.15 -0.01492,0.358906 -0.04492,0.628906 0,0.24 -0.01492,0.495625 -0.04492,0.765625 l -0.0918,0.810547 0,0.539063 c 0,0.69 0.151172,1.246015 0.451172,1.666015 0.3,0.39 0.868985,0.62875 1.708985,0.71875 L 21.59375,31.505859 c -0.42,-0.06 -0.628906,-0.390234 -0.628906,-0.990234 0,-0.21 0.02984,-0.465625 0.08984,-0.765625 0.06,-0.3 0.08984,-0.479063 0.08984,-0.539062 0.18,0.15 0.269531,0.403671 0.269531,0.763671 l 0,-1.125 c 0,-0.69 0.08953,-1.169453 0.269532,-1.439453 l 0.224609,0.22461 0.40625,8.144531 c 0.72,0 1.154688,-0.04477 1.304688,-0.134766 0,-0.21 -0.04477,-0.433828 -0.134766,-0.673828 -0.09,-0.27 -0.134766,-0.436094 -0.134766,-0.496094 -0.06,0.06 -0.149531,0.13461 -0.269531,0.22461 -0.12,0.09 -0.241328,0.136719 -0.361328,0.136719 -0.12,0 -0.224453,-0.09148 -0.314453,-0.271485 0,-0.27 -0.04477,-0.585312 -0.134766,-0.945312 -0.06,-0.39 -0.08984,-0.658594 -0.08984,-0.808594 0,-0.3 0.119375,-0.570547 0.359374,-0.810547 0.09,0.09 0.134766,0.179531 0.134766,0.269531 0,-0.69 -0.02984,-1.169453 -0.08984,-1.439453 -0.06,-0.27 -0.194296,-0.480859 -0.404296,-0.630859 0.06,-0.24 0.08984,-0.389219 0.08984,-0.449219 0,-0.15 -0.02984,-0.345938 -0.08984,-0.585938 -0.06,-0.269999 -0.08984,-0.463984 -0.08984,-0.583984 0,-0.3 0.104453,-0.510859 0.314453,-0.630859 0.12,-0.33 0.179687,-0.77961 0.179687,-1.34961 0,-0.6 -0.05969,-1.004843 -0.179687,-1.214843 L 22.314461,10.130859 22.53907,9.5449219 c 0.12,0 0.224454,0.044766 0.314454,0.1347656 0.03,-0.18 0.04492,-0.3292187 0.04492,-0.4492187 0.03,-0.15 0.04492,-0.2713282 0.04492,-0.3613282 0,-0.57 -0.104453,-1.2882031 -0.314453,-2.1582031 -0.21,-0.93 -0.314453,-1.7714844 -0.314453,-2.5214844 l -1.25977,-0.1347656 c 0,0.6 0.02984,0.9899219 0.08984,1.1699219 0,-0.15 0.02984,-0.2992188 0.08984,-0.4492188 0.09,-0.18 0.209375,-0.3013281 0.359375,-0.3613281 0.12,0.12 0.179688,0.3457813 0.179688,0.6757813 0,0.3599999 0.02984,0.7797656 0.08984,1.2597656 0.06,0.48 0.0918,0.8400781 0.0918,1.0800781 0,0.39 -0.09148,0.7202344 -0.271484,0.9902344 C 21.413594,7.9399219 21.279297,7.55 21.279297,7.25 l -0.224609,0.5390625 c -0.210001,-0.36 -0.361172,-1.0185156 -0.451172,-1.9785156 -0.09,-0.99 -0.194454,-1.620625 -0.314454,-1.890625 L 18.083984,3.2890625 Z m 65.126954,0 c 0.03,0.42 0.04492,0.811875 0.04492,1.171875 0.03,0.33 0.05984,0.6433594 0.08984,0.9433594 0.03,0.27 0.07477,0.6300781 0.134766,1.0800781 0.06,0.45 0.12164,0.9761719 0.18164,1.5761719 0.18,1.2 0.299375,2.2335161 0.359375,3.1035151 0.09,0.84 0.134766,1.621797 0.134766,2.341797 0,0.3 -0.01492,0.660078 -0.04492,1.080079 -0.03,0.389999 -0.07476,0.839609 -0.134766,1.349609 L 82.986328,15.125 82.851562,15.259766 c 0.180001,0.24 0.329219,0.600078 0.449219,1.080078 0.12,0.48 0.241328,0.869922 0.361328,1.169922 0.48,1.35 0.71875,3.075781 0.71875,5.175781 0,0.3 -0.01492,0.749609 -0.04492,1.349609 l 0,1.304688 c 0,1.47 0.08953,2.669609 0.269531,3.599609 0.21,0.39 0.316406,0.916172 0.316406,1.576172 0,0.15 -0.01492,0.358906 -0.04492,0.628906 0,0.24 -0.01492,0.495625 -0.04492,0.765625 l -0.0918,0.810547 0,0.539063 c 0,0.69 0.151172,1.246015 0.451172,1.666015 0.3,0.39 0.868985,0.62875 1.708985,0.71875 l -0.179688,-4.138672 c -0.42,-0.06 -0.628906,-0.390234 -0.628906,-0.990234 0,-0.21 0.02984,-0.465625 0.08984,-0.765625 0.06,-0.3 0.08984,-0.479062 0.08984,-0.539062 0.18,0.15 0.269532,0.403671 0.269532,0.763671 l 0,-1.125 c 0,-0.69 0.08953,-1.169453 0.269531,-1.439453 l 0.226562,0.22461 0.404297,8.144531 c 0.72,0 1.154688,-0.04477 1.304688,-0.134766 0,-0.21 -0.04477,-0.433828 -0.134766,-0.673828 -0.09,-0.27 -0.134766,-0.436094 -0.134766,-0.496094 -0.06,0.06 -0.149531,0.13461 -0.269531,0.22461 -0.12,0.09 -0.241328,0.136719 -0.361328,0.136719 -0.12,0 -0.224453,-0.09148 -0.314453,-0.271485 0,-0.27 -0.04477,-0.585312 -0.134766,-0.945312 -0.06,-0.39 -0.08984,-0.658594 -0.08984,-0.808594 0,-0.3 0.119375,-0.570547 0.359375,-0.810547 0.09,0.09 0.134765,0.179531 0.134765,0.269531 0,-0.69 -0.02984,-1.169453 -0.08984,-1.439453 -0.06,-0.27 -0.194297,-0.480859 -0.404297,-0.630859 0.06,-0.24 0.08984,-0.389219 0.08984,-0.449219 0,-0.15 -0.02984,-0.345938 -0.08984,-0.585938 -0.06,-0.269999 -0.08984,-0.463984 -0.08984,-0.583984 0,-0.3 0.104453,-0.510859 0.314453,-0.630859 0.12,-0.33 0.179688,-0.77961 0.179688,-1.34961 0,-0.6 -0.05969,-1.004843 -0.179688,-1.214843 l -0.08984,-15.253907 0.22461,-0.5859371 c 0.12,0 0.224453,0.044766 0.314453,0.1347656 0.03,-0.18 0.04492,-0.3292187 0.04492,-0.4492187 0.03,-0.15 0.04492,-0.2713282 0.04492,-0.3613282 0,-0.57 -0.104453,-1.2882031 -0.314453,-2.1582031 -0.21,-0.93 -0.314453,-1.7714844 -0.314453,-2.5214844 L 86.181641,4.0546875 c 0,0.6 0.02984,0.9899219 0.08984,1.1699219 0,-0.15 0.02984,-0.2992188 0.08984,-0.4492188 0.09,-0.18 0.209375,-0.3013281 0.359375,-0.3613281 0.12,0.12 0.179688,0.3457812 0.179688,0.6757813 0,0.3599999 0.02984,0.7797656 0.08984,1.2597656 0.06,0.48 0.0918,0.8400781 0.0918,1.0800781 0,0.39 -0.09148,0.7202344 -0.271484,0.9902344 C 86.540547,7.9399219 86.40625,7.55 86.40625,7.25 l -0.224609,0.5390625 c -0.21,-0.36 -0.361172,-1.0185156 -0.451172,-1.9785156 -0.09,-0.99 -0.194453,-1.620625 -0.314453,-1.890625 L 83.210938,3.2890625 Z m 14.974609,0.091797 c 0,0.51 0.104453,0.9446875 0.314453,1.3046875 0.21,0.33 0.525312,0.7199219 0.945312,1.1699219 0.449998,0.4499999 0.765318,0.8399218 0.945308,1.1699218 0.21,0.3 0.31446,0.6899219 0.31446,1.1699219 -0.18,0.42 -0.26953,0.7800781 -0.26953,1.0800781 0,0.54 0.17906,1.0492963 0.53906,1.5292973 0.39,0.45 0.97586,0.991093 1.75586,1.621093 0.39,0.33 0.70531,0.598594 0.94531,0.808594 0.27,0.21 0.46399,0.376094 0.58399,0.496094 -0.09,-0.57 -0.26907,-1.15586 -0.53907,-1.75586 -0.27,-0.6 -0.61515,-1.305234 -1.03515,-2.1152339 -0.21,-0.42 -0.3761,-0.7800781 -0.4961,-1.0800781 -0.12,-0.33 -0.20953,-0.6135156 -0.26953,-0.8535157 0.51,0.6000001 0.94469,1.3032813 1.30469,2.1132807 0.36,0.81 0.70516,1.636563 1.03516,2.476563 0.33,0.84 0.67515,1.634766 1.03515,2.384766 0.36,0.75 0.80961,1.36375 1.34961,1.84375 -0.06,0.6 -0.1943,0.90039 -0.4043,0.90039 -0.12,0 -0.39054,-0.104453 -0.81054,-0.314453 -0.39,-0.24 -0.75008,-0.359375 -1.08008,-0.359375 0.09,-0.09 0.16461,-0.134765 0.22461,-0.134765 -0.03,-0.09 -0.11953,-0.211329 -0.26953,-0.361329 -0.12,-0.15 -0.26922,-0.284296 -0.44922,-0.404297 -0.18,-0.15 -0.3461,-0.301171 -0.49609,-0.451171 L 103,15.259766 l -0.13477,0.314453 -0.81445,-0.369141 c 0.0892,0.08851 0.13867,0.251632 0.13867,0.50586 -0.18,0 -0.43367,-0.121329 -0.76367,-0.361329 -0.33,-0.24 -0.60055,-0.359375 -0.81055,-0.359375 2.94,2.64 5.24969,5.473907 6.92969,8.503907 -0.27,0.15 -0.4043,0.390703 -0.4043,0.720703 0,0.18 0.0448,0.435625 0.13477,0.765625 0.09,0.3 0.13477,0.523828 0.13477,0.673828 0.18,0.36 0.3889,0.811562 0.6289,1.351562 0.27,0.54 0.57039,1.183594 0.90039,1.933594 0.33,0.72 0.64532,1.395391 0.94532,2.025391 0.3,0.6 0.57054,1.156015 0.81054,1.666015 0.54,1.05 1.12391,1.993985 1.75391,2.833985 0.57,0.18 1.23047,0.269531 1.98047,0.269531 0.75,0 1.39554,-0.119375 1.93554,-0.359375 -0.09,-0.21 -0.1646,-0.359219 -0.22461,-0.449219 l -0.0449,-0.136719 c 0,-0.12 0.0448,-0.224453 0.13477,-0.314453 -1.17,-1.86 -2.19055,-3.764843 -3.06055,-5.714843 -0.87,-1.98 -1.90547,-4.634844 -3.10547,-7.964844 -0.6,-1.68 -1.12422,-3.135234 -1.57422,-4.365234 -0.45,-1.230001 -0.83992,-2.235625 -1.16992,-3.015626 -0.6,-1.619999 -1.36492,-3.313984 -2.29492,-5.0839839 L 104.89062,7.25 c 0.12001,0.24 0.28415,0.615 0.49415,1.125 0.24,0.48 0.52546,1.110625 0.85546,1.890625 0.36,0.75 0.6604,1.408516 0.90039,1.978516 0.27,0.57 0.47891,1.066328 0.62891,1.486328 -0.18,-0.6 -0.41875,-1.290313 -0.71875,-2.070313 -0.27,-0.81 -0.61515,-1.7260935 -1.03516,-2.7460935 -0.42,-1.02 -0.76515,-1.8744531 -1.03515,-2.5644531 -0.27,-0.72 -0.48086,-1.2889844 -0.63086,-1.7089844 -0.45,0.27 -1.09555,0.4042969 -1.93555,0.4042969 l -1.48437,0 c 0.03,0.27 0.19609,0.764375 0.49609,1.484375 0.24,0.63 0.38922,1.14125 0.44922,1.53125 -0.18,-0.33 -0.40578,-0.7964844 -0.67578,-1.3964844 -0.27,-0.63 -0.52367,-1.124375 -0.76367,-1.484375 -0.21,-0.39 -0.510396,-0.7351563 -0.900394,-1.0351563 -0.36,-0.33 -0.809609,-0.5836718 -1.349609,-0.7636718 z M 102.05078,15.205078 C 102.00312,15.157811 101.94811,15.125 101.875,15.125 l 0.17578,0.08008 z m 55.4707,-11.6445311 c -0.24,0.18 -0.45085,0.4336718 -0.63086,0.7636719 -0.15,0.33 -0.2246,0.6303906 -0.2246,0.9003906 0,0.15 0.0298,0.2544531 0.0898,0.3144531 l 1.03516,-1.9785156 -0.26954,0 z m 7.47461,0.1796875 c 0,0.24 -0.0298,0.615 -0.0898,1.125 -0.03,0.48 -0.0449,0.9146875 -0.0449,1.3046875 0,0.78 0.0895,1.5449218 0.26953,2.2949219 l 0.63086,-0.4941407 c 0.27,0.69 0.4043,1.6936719 0.4043,3.0136719 0,0.24 -0.0149,0.600078 -0.0449,1.080078 l 0,1.035156 c 0.33,-0.6 0.49414,-1.183906 0.49414,-1.753906 0,-0.45 -0.10445,-1.080625 -0.31445,-1.8906249 -0.09,-0.42 -0.16461,-0.795 -0.22461,-1.125 -0.03,-0.33 -0.0598,-0.6154687 -0.0898,-0.8554687 0.36,-0.21 0.53906,-0.5103907 0.53906,-0.9003906 0,-0.2400001 -0.0895,-0.5682813 -0.26953,-0.9882813 -0.18003,-0.45 -0.26953,-0.7653125 -0.26953,-0.9453125 L 165.625,5.6308594 c -0.24,-0.15 -0.40414,-0.4802344 -0.49414,-0.9902344 -0.03,-0.54 -0.0748,-0.8403906 -0.13477,-0.9003906 z m -6.61914,0.4492187 c -0.24,0 -0.36133,0.13625 -0.36133,0.40625 l 0.22657,0 c 0.09,-0.03 0.13476,-0.16625 0.13476,-0.40625 z M 53.464844,4.5390625 c -0.1125,-0.0225 -0.236094,-0.018281 -0.371094,0.011719 0.03,0.87 0.509453,1.7542969 1.439453,2.6542969 0.09,-0.09 0.209375,-0.1646093 0.359375,-0.2246093 0.15,-0.09 0.226563,-0.2113282 0.226563,-0.3613282 -0.18,-0.15 -0.346094,-0.3439843 -0.496094,-0.5839844 -0.12,-0.2699999 -0.254297,-0.525625 -0.404297,-0.765625 -0.12,-0.24 -0.271172,-0.4339843 -0.451172,-0.5839843 -0.09,-0.075 -0.190234,-0.1239844 -0.302734,-0.1464844 z m -2.082032,0.056641 c -0.24,0 -0.478749,0.029844 -0.71875,0.089844 0.390001,1.26 1.048516,2.5491406 1.978516,3.8691406 0.93,1.29 1.875938,2.5960159 2.835938,3.9160159 0.48,0.36 0.810234,0.899141 0.990234,1.619141 0.21,0.69 0.374141,1.410156 0.494141,2.160156 0.15,0.75 0.331015,1.470156 0.541015,2.160156 0.24,0.66 0.644844,1.139453 1.214844,1.439453 0.18,0.48 0.435625,0.869922 0.765625,1.169922 0.36,0.3 0.764844,0.451172 1.214844,0.451172 0.3,0 0.628281,-0.09148 0.988281,-0.271484 0.24,0 0.510547,0.04672 0.810547,0.136719 0.3,0.09 0.495937,0.134765 0.585937,0.134765 0.21,0 0.344297,-0.13625 0.404297,-0.40625 l 0.08984,0.134766 c 0.06,0.06 0.134609,0.08984 0.224609,0.08984 -0.06,-0.149999 -0.179375,-0.418593 -0.359375,-0.808593 -0.18,-0.39 -0.435625,-0.90125 -0.765625,-1.53125 -0.3,-0.66 -0.553671,-1.228985 -0.763672,-1.708985 -0.21,-0.51 -0.376093,-0.959609 -0.496093,-1.349609 0.21,0.24 0.420859,0.538437 0.630859,0.898437 0.21,0.33 0.433828,0.751719 0.673828,1.261719 0.48,0.99 0.884844,1.710157 1.214844,2.160157 -0.15,-0.54 -0.373828,-1.066172 -0.673828,-1.576172 -0.27,-0.54 -0.404297,-1.049297 -0.404297,-1.529297 0.21,0.48 0.553203,1.185234 1.033203,2.115234 0.48,0.9 1.095703,2.025 1.845703,3.375 -0.06,-0.15 -0.253984,-0.554844 -0.583984,-1.214844 -0.3,-0.66 -0.751563,-1.605937 -1.351563,-2.835937 -0.6,-1.23 -1.094375,-2.280391 -1.484375,-3.150391 -0.39,-0.87 -0.69039,-1.560312 -0.90039,-2.070312 l -0.314453,0.316406 1.529296,2.96875 -0.134765,0.134766 -0.539063,-0.808594 c -0.21,-0.39 -0.480546,-0.871406 -0.810546,-1.441406 -0.33,-0.57 -0.630391,-1.064375 -0.900391,-1.484375 -0.27,-0.42 -0.523672,-0.765157 -0.763672,-1.035157 0.03,0.15 0.209063,0.525 0.539063,1.125 0.33,0.57 0.49414,1.034532 0.49414,1.394532 -0.54,-0.87 -1.034375,-1.69461 -1.484375,-2.47461 -0.45,-0.78 -0.795156,-1.544922 -1.035156,-2.294922 0.09,0.06 0.179531,0.1813281 0.269531,0.361329 0.09,0.179999 0.196406,0.299375 0.316406,0.359374 l 0.179688,-0.269531 0.720703,0.853516 c 0,-0.75 -0.240703,-1.5000005 -0.720703,-2.2500005 -0.48,-0.75 -0.974375,-1.2742188 -1.484375,-1.5742188 0.03,0.09 0.104609,0.2690625 0.224609,0.5390625 0.15,0.27 0.22461,0.525625 0.22461,0.765625 l -2.25,-2.9707031 c 0.03,0.18 0.104609,0.3610156 0.224609,0.5410156 0.12,0.15 0.239375,0.3141407 0.359375,0.4941407 0.12,0.15 0.226406,0.3160937 0.316406,0.4960937 0.12,0.15 0.179688,0.2992187 0.179688,0.4492187 l -0.22461,0 c 0.09,0.15 0.134766,0.2862501 0.134766,0.40625 0,0.3900001 -0.285469,0.6436719 -0.855469,0.7636719 0.03,0.06 0.08969,0.1664063 0.179688,0.3164063 0.09,0.15 0.196406,0.3290625 0.316406,0.5390625 0.12,0.21 0.224453,0.4208594 0.314453,0.6308595 0.12,0.21 0.224453,0.389063 0.314453,0.539063 0.15,0.36 0.22461,0.675312 0.22461,0.945312 L 54.533203,8.1503906 c -0.27,-0.27 -0.570391,-0.7345312 -0.900391,-1.3945312 -0.389999,-0.75 -0.720234,-1.2910938 -0.990234,-1.6210938 -0.33,-0.36 -0.749766,-0.5390625 -1.259766,-0.5390625 z m 23.041016,0.2246094 c 0,0.96 -0.04477,2.3853906 -0.134766,4.2753906 -0.03,0.9299995 -0.05984,1.7396875 -0.08984,2.4296875 l 0,1.664062 0,1.080078 c 0.03,0.42 0.05984,0.901407 0.08984,1.441407 0,-0.420001 0.04477,-1.530079 0.134766,-3.330079 0.09,-1.8 0.134766,-3.1806242 0.134766,-4.1406242 0,-1.11 -0.04477,-2.2499219 -0.134766,-3.4199219 z m -24.794922,0.089844 c -0.18,2.22 -0.269531,4.4252344 -0.269531,6.6152351 0,1.92 0.05969,3.929297 0.179687,6.029297 0.150001,2.07 0.373829,4.230468 0.673829,6.480468 -0.24,0.9 -0.359375,1.814141 -0.359375,2.744141 0,0.57 0.04476,1.411484 0.134765,2.521484 0.06,0.54 0.104766,1.034375 0.134766,1.484375 0.03,0.45 0.04492,0.839922 0.04492,1.169922 0,0.15 -0.01492,0.360859 -0.04492,0.63086 0,0.24 -0.01492,0.538437 -0.04492,0.898437 0.27,0.54 0.645,1.036328 1.125,1.486328 0.51,0.45 1.036172,0.748438 1.576172,0.898438 l -0.04492,-3.59961 c 0.21,-0.21 0.314453,-0.44875 0.314453,-0.71875 0,-0.06 -0.01492,-0.241015 -0.04492,-0.541015 -0.03,-0.3 -0.04492,-0.585469 -0.04492,-0.855469 l -0.361328,0.08984 -0.08984,-0.269532 c 0,-0.139729 0.07296,-0.250226 0.203126,-0.33789 0.02272,0.0213 0.100354,0.0579 0.248046,0.113281 l 0,-5.939453 c 0,-0.33 0.119375,-0.496094 0.359375,-0.496094 l 0,-0.945312 c -0.18,0.09 -0.48039,0.39039 -0.90039,0.90039 -0.39,0.48 -0.779922,0.720703 -1.169922,0.720703 l -0.449219,-0.08984 c -0.42,-0.33 -0.630859,-0.719922 -0.630859,-1.169922 0,-0.15 0.02984,-0.390703 0.08984,-0.720703 0.06,-0.36 0.08984,-0.630547 0.08984,-0.810547 0.18,-1.11 0.540078,-1.79836 1.080078,-2.06836 -0.48,1.14 -0.71875,2.098907 -0.71875,2.878907 0,0.51 0.08953,0.989453 0.269532,1.439453 l 0.630859,0 c 0.09,-0.12 0.239219,-0.284141 0.449219,-0.494141 0.21,-0.24 0.435781,-0.495625 0.675781,-0.765625 0.24,-0.27 0.463828,-0.538594 0.673828,-0.808594 0.21,-0.27 0.391016,-0.525625 0.541016,-0.765625 0.3,-0.45 0.493984,-0.991093 0.583984,-1.621093 l 0.08984,-0.449219 c 0,-0.21 -0.05969,-0.389063 -0.179688,-0.539063 -0.12,-0.15 -0.269218,-0.301172 -0.449218,-0.451171 -0.15,-0.180001 -0.28625,-0.344141 -0.40625,-0.494141 -0.12,-0.18 -0.179688,-0.39086 -0.179688,-0.630859 -0.21,1.019999 -0.915234,1.874453 -2.115234,2.564453 0.06,-0.24 0.134609,-0.389219 0.224609,-0.449219 -0.12,-0.69 -0.179687,-1.589219 -0.179687,-2.699219 l 0,-0.855469 c 0,-0.33 0.01492,-0.719921 0.04492,-1.169922 0.03,-0.48 0.04492,-0.884843 0.04492,-1.214843 l 0,-0.810547 c 0,-3.1200004 -0.598828,-5.414766 -1.798828,-6.8847661 z m 76.771484,0 -0.27148,0.765625 0.13671,0 0.22461,-0.7207031 -0.0898,-0.044922 z M 73.119141,5.0898438 c -0.27,2.22 -0.40625,4.8449999 -0.40625,7.8750002 l 0,2.474609 c 0.03,0.93 0.05984,2.025156 0.08984,3.285156 0.09,2.49 0.134766,4.06461 0.134766,4.72461 0,0.72 0.240703,1.124844 0.720703,1.214843 l 0,-0.404296 -0.179687,0 c -0.15,-0.15 -0.22461,-0.358907 -0.22461,-0.628907 0,-0.12 0.149219,-0.18164 0.449219,-0.18164 L 73.837891,6.9355469 73.658203,6.1699219 c 0,0.78 -0.08953,1.2296094 -0.269531,1.3496093 L 73.119141,5.0898438 Z m 84.537109,0.4492187 0,0.9902344 0.13477,0 0,-0.9902344 -0.13477,0 z m -0.90039,1.6210937 c 0,0.4500001 0.30039,0.8100782 0.90039,1.0800782 0,-0.27 -0.14922,-0.4957813 -0.44922,-0.6757813 -0.27,-0.21 -0.42117,-0.3442969 -0.45117,-0.4042969 z m -2.51953,1.0800782 0,0.1347656 0.26953,-0.1347656 -0.26953,0 z m -130.257814,0.8105468 0,1.9335938 0.134765,-0.134766 -0.134765,-1.7988278 z m 65.126953,0 0,1.9335938 0.134765,-0.134766 -0.134765,-1.7988278 z m 33.875001,0.2695313 -2.02539,2.3847655 0.13476,0.04492 1.98047,-2.3398438 -0.0898,-0.089844 z M 164.54492,9.4101562 164.5,9.5 l 0.36133,0.4492188 0.0449,-0.044922 -0.36133,-0.4941407 z m -43.32031,1.0351558 -0.4043,0.765626 0.13477,-0.181641 0.26953,-0.583985 z m -45.945313,0.449219 0.179687,1.214844 0.04492,-0.404297 -0.224609,-0.810547 z m -52.291016,0.585938 c -0.12,0.36 -0.179687,0.824531 -0.179687,1.394531 0,0.51 0.13625,0.780547 0.40625,0.810547 l 0,-1.259766 c 0,-0.42 -0.07656,-0.735312 -0.226563,-0.945312 z m 65.126953,0 c -0.12,0.36 -0.179687,0.824531 -0.179687,1.394531 0,0.51 0.13625,0.780547 0.40625,0.810547 l 0,-1.259766 c 0,-0.42 -0.07656,-0.735312 -0.226563,-0.945312 z m -36.101562,0.04492 c -0.18,0.54 -0.269531,1.108984 -0.269531,1.708984 0,0.18 0.01492,0.435625 0.04492,0.765625 0.03,0.33 0.05984,0.705 0.08984,1.125 0.03,0.39 0.05984,0.824687 0.08984,1.304688 0.03,0.45 0.04492,0.869765 0.04492,1.259765 0.03,0.09 0.08969,0.134766 0.179687,0.134766 0.06,0 0.149532,-0.07461 0.269532,-0.22461 l 0.271484,-0.269531 c -0.06,-0.24 -0.0918,-0.480703 -0.0918,-0.720703 0,-0.3 0.106406,-0.630234 0.316406,-0.990234 0.21,-0.39 0.314454,-0.718282 0.314454,-0.988282 0,-0.21 -0.02984,-0.405937 -0.08984,-0.585937 -0.3,-0.03 -0.481016,-0.134453 -0.541016,-0.314453 -0.06,-0.21 -0.104765,-0.435782 -0.134766,-0.675781 0,-0.27 -0.02984,-0.540547 -0.08984,-0.810547 -0.03,-0.3 -0.164297,-0.53875 -0.404297,-0.71875 z m 86.023438,0.314453 c -0.24,0 -0.39117,0.210859 -0.45117,0.630859 -0.18003,0.27 -0.26953,0.630078 -0.26953,1.080078 0,0.24 0.0298,0.585156 0.0898,1.035157 0.0164,0.121699 0.0116,0.173096 0.0234,0.279296 0.0131,-0.0915 0.0372,-0.198293 0.11133,-0.371093 0.12,-0.24 0.2264,-0.493672 0.3164,-0.763672 0.12,-0.3 0.22445,-0.585469 0.31446,-0.855469 0.11997,-0.3 0.17968,-0.570547 0.17968,-0.810547 -0.09,-0.1497 -0.19445,-0.224609 -0.31445,-0.224609 z m -37.33203,0.314453 c -0.48,0.39 -0.720705,1.216562 -0.720705,2.476562 l 0.224605,0 c 0,-0.09 0.0915,-0.22625 0.27149,-0.40625 0.03,-0.15 0.11953,-0.403672 0.26953,-0.763671 0.15,-0.360001 0.22461,-0.615626 0.22461,-0.765626 0,-0.179999 -0.0895,-0.361015 -0.26953,-0.541015 z m -39.871096,0.08984 0.449219,0.765625 0,-0.179688 -0.449219,-0.585937 z m 13.994141,1.53125 c 0,0.93 0.104453,1.409453 0.314453,1.439453 0.09,-0.12 0.136719,-0.254297 0.136719,-0.404297 0,-0.15 -0.06164,-0.316094 -0.181641,-0.496094 -0.12,-0.21 -0.209531,-0.389062 -0.269531,-0.539062 z m 64.109375,0.04492 -0.13672,0.449219 c 0.15,0 0.25641,-0.04476 0.31641,-0.134765 0,-0.09 -0.0597,-0.194454 -0.17969,-0.314454 z m -0.90039,0.945313 0,0.314453 0.31445,0 c 0,-0.06 -0.0448,-0.119687 -0.13476,-0.179687 -0.09,-0.0598 -0.14969,-0.104766 -0.17969,-0.134766 z m 6.52539,0.08984 c -0.21,0.12 -0.49547,0.209531 -0.85547,0.269531 -0.33,0.03 -0.74976,0.05984 -1.25976,0.08984 -0.48,0.03 -0.89977,0.05984 -1.25977,0.08984 -0.36,0.03 -0.66039,0.07476 -0.90039,0.134765 -0.51,0.09 -0.91484,0.420235 -1.21484,0.990235 0,0.24 -0.0448,0.495625 -0.13477,0.765624 -0.06,0.24 -0.0918,0.404141 -0.0918,0.494141 0,0.06 0.0318,0.181328 0.0918,0.361328 0.3,-0.3 0.89883,-0.451172 1.79883,-0.451172 0.36,0 1.03539,0.04477 2.02539,0.134766 l 0,-0.224609 1.03516,-0.08984 -4.2754,0 0,-0.269531 c 1.29,-0.24 2.76016,-0.361329 4.41016,-0.361329 l 1.16992,0 c 0.06,0.09 0.25594,0.211329 0.58594,0.361329 0.36,0.15 0.56891,0.31414 0.62891,0.49414 l 0.44921,0 c 0.63,-0.81 1.56102,-1.214843 2.79102,-1.214843 0.33,0 0.66023,0.04477 0.99024,0.134765 0.35999,0.24 0.53906,0.585156 0.53906,1.035156 0,0.18 -0.0298,0.331172 -0.0898,0.451172 l 0.72071,0 0.31445,-0.04492 c 0.27,0 0.40625,-0.09148 0.40625,-0.271484 0,0.09 0.0895,0.196406 0.26953,0.316406 0.21,0.09 0.31445,0.239219 0.31445,0.449219 0.15,0 0.29922,0.01492 0.44922,0.04492 0.18,0.03 0.28641,0.04492 0.31641,0.04492 0.12,0 0.20953,-0.07461 0.26953,-0.22461 l -0.63086,-0.630859 0.18164,-0.224609 -2.11523,-0.08984 c 0.36,-0.15 0.82453,-0.269375 1.39453,-0.359375 0.33,-0.06 0.60055,-0.08984 0.81055,-0.08984 0.21,-0.03 0.35921,-0.05984 0.44921,-0.08984 -0.12,-0.1197 -0.42039,-0.18164 -0.90039,-0.18164 l -0.67382,0 c -0.51,0 -0.87008,-0.08953 -1.08008,-0.269531 0.18,-0.0898 0.51023,-0.134766 0.99023,-0.134766 0.15,0 0.38875,0.01492 0.71875,0.04492 l 0.76563,0 c 0.93,0 1.49898,-0.330235 1.70898,-0.990235 l -1.5293,-0.134765 c -0.3,-0.21 -0.63023,-0.314453 -0.99023,-0.314453 -0.3,0 -0.71977,0.08953 -1.25977,0.269531 -0.54,0.1496 -0.94484,0.224609 -1.21484,0.224609 -0.39,0 -0.765,-0.134297 -1.125,-0.404297 -0.45,0.1796 -0.86977,0.269532 -1.25976,0.269532 -0.27001,0 -0.78126,-0.05969 -1.53126,-0.179688 -0.75,-0.1496 -1.48312,-0.224609 -2.20312,-0.224609 z m -7.09766,0.402343 c 0.007,0.109601 0.0312,0.277329 0.0312,0.361329 0,0.81 -0.36007,1.276484 -1.08007,1.396484 -0.09,0.27 -0.13477,0.538594 -0.13477,0.808594 0,0.42 0.13625,1.005859 0.40625,1.755859 0.3,0.72 0.44922,1.305859 0.44922,1.75586 0,0.45 -0.1343,0.869765 -0.4043,1.259765 0.21,0.24 0.3443,0.538438 0.4043,0.898438 0.09,0.36 0.14969,0.735 0.17969,1.125 0.06,0.39 0.11968,0.765 0.17968,1.125 0.09,0.33 0.24118,0.585625 0.45118,0.765625 0.12,0 0.29906,0.05969 0.53906,0.179687 0.27,0.1197 0.46594,0.179688 0.58594,0.179688 0.12,0 0.23937,-0.05969 0.35937,-0.179688 0,-0.18 -0.0448,-0.284453 -0.13476,-0.314453 -0.09,-0.06 -0.16461,-0.119688 -0.22461,-0.179688 -0.09,-0.119999 -0.13477,-0.256249 -0.13477,-0.40625 0,-0.21 0.0597,-0.433828 0.17969,-0.673828 0.15,-0.24 0.25445,-0.435937 0.31445,-0.585937 -0.27,0.06 -0.45101,-0.05937 -0.54102,-0.359375 -0.09,-0.3 -0.14968,-0.630235 -0.17968,-0.990234 -0.03,-0.390001 -0.0748,-0.735157 -0.13477,-1.035157 -0.03,-0.33 -0.14937,-0.479218 -0.35937,-0.449219 0,-0.39 0.14922,-0.585937 0.44922,-0.585937 0.09,-0.09 0.13476,-0.209375 0.13476,-0.359375 0,-0.12 -0.0448,-0.269219 -0.13476,-0.449219 -0.06,-0.21 -0.10477,-0.361172 -0.13477,-0.451172 l -0.49414,0.314453 c 0,-0.359999 -0.0298,-0.839453 -0.0898,-1.439453 -0.03,-0.63 -0.0449,-1.16914 -0.0449,-1.61914 l 0,-0.765625 c 0,-0.21 0.0149,-0.389063 0.0449,-0.539063 -0.24766,-0.1445 -0.40513,-0.327468 -0.48243,-0.542969 z m 26.90039,0.226563 0,0.451172 0.17969,0 c 0.12004,-0.03 0.18164,-0.136406 0.18164,-0.316406 -0.06,-0.0897 -0.18133,-0.134766 -0.36133,-0.134766 z m 1.6211,0.226563 -0.17969,0.673828 c -0.18,0 -0.33117,-0.07461 -0.45117,-0.22461 l -0.13477,-0.269531 c -0.09,0.9 -0.13476,1.799219 -0.13476,2.699219 0,0.42 0.0149,0.961093 0.0449,1.621094 0.03,0.66 0.0748,1.454765 0.13476,2.384765 0.06,0.93 0.10477,1.784453 0.13477,2.564453 0.03,0.78 0.0449,1.500156 0.0449,2.160156 0.18,0.179501 0.36102,0.269532 0.54102,0.269532 0.12,0 0.29906,-0.04477 0.53906,-0.134766 0.24,-0.0898 0.42102,-0.134766 0.54102,-0.134766 0,-0.119999 0.0149,-0.271171 0.0449,-0.451171 0.06,-0.18 0.0898,-0.299375 0.0898,-0.359375 0,-0.15 -0.0597,-0.239532 -0.17969,-0.269532 0,0.39 -0.15117,0.690391 -0.45117,0.900391 -0.15001,-0.15 -0.22461,-0.345937 -0.22461,-0.585937 -0.09,-0.210001 -0.13476,-0.359219 -0.13476,-0.449219 0,-0.15 0.10445,-0.390703 0.31445,-0.720703 0.24,-0.36 0.36133,-0.705157 0.36133,-1.035157 -0.45,-0.18 -0.67578,-0.629609 -0.67578,-1.349609 l 0,-0.539062 c 0.03,-0.240001 0.0449,-0.45086 0.0449,-0.63086 0,-0.24 -0.0448,-0.480703 -0.13477,-0.720703 l 0,0.855469 c 0,0.96 -0.10445,1.71 -0.31445,2.25 -0.24,-0.96 -0.36133,-2.099922 -0.36133,-3.419922 0,-0.48 0.0149,-1.019141 0.0449,-1.619141 0.03,-0.6 0.0748,-1.27539 0.13477,-2.02539 l 0.36133,0.04492 0,-1.484374 z m 0.13476,5.398437 c 0.27,-0.12 0.4043,-0.254297 0.4043,-0.404297 0,-0.09 -0.0746,-0.25414 -0.22461,-0.49414 -0.11999,-0.23999 -0.17969,-0.435927 -0.17969,-0.585927 l 0,1.484375 z M 22.988281,15.755859 c 0,0.6 0.07656,0.975 0.226563,1.125 0,-0.66 -0.07656,-1.035 -0.226563,-1.125 z m 65.126953,0 c 0,0.6 0.07656,0.975 0.226563,1.125 0,-0.66 -0.07656,-1.035 -0.226563,-1.125 z m -13.871093,0.269532 0,0.583984 0.04492,0 0,-0.583984 -0.04492,0 z m 1.664062,0.404297 c -0.15,0.269999 -0.390703,0.495781 -0.720703,0.675781 -0.33,0.15 -0.643359,0.284297 -0.943359,0.404297 l 0,0.945312 c 0,0.36 -0.01492,0.794688 -0.04492,1.304688 l 0,2.205078 0,1.710937 c 0.03,0.45 0.05984,0.839922 0.08984,1.169922 0.120001,-0.15 0.179688,-0.510078 0.179688,-1.080078 0,-0.57 0.07461,-0.959922 0.224609,-1.169922 0,-1.08 -0.134296,-1.83 -0.404297,-2.25 0.51,-0.27 0.763672,-0.751406 0.763672,-1.441406 l 0,-0.673828 c 0,-0.39 0.07656,-0.765 0.226563,-1.125 0.15,0.06 0.284297,0.22414 0.404297,0.49414 0.12,0.24 0.224453,0.361329 0.314453,0.361329 0.09,-0.21 0.134765,-0.376094 0.134765,-0.496094 0,-0.15 -0.04476,-0.329063 -0.134765,-0.539063 -0.06,-0.24 -0.08984,-0.406093 -0.08984,-0.496093 z m 87.828127,0.08984 c -0.06,0.42 -0.11969,0.884532 -0.17969,1.394531 -0.03,0.48 -0.0449,0.991251 -0.0449,1.53125 0,0.6 0.0298,1.260469 0.0898,1.980469 0.06,0.72 0.14953,1.484922 0.26953,2.294922 -0.27,0.36 -0.40625,0.824531 -0.40625,1.394531 0,0.27 0.0467,0.674844 0.13672,1.214844 0.09,0.54 0.13477,0.959766 0.13477,1.259766 0.39,0 0.72023,-0.08953 0.99023,-0.269532 L 164.5,17.734375 163.73633,16.519531 Z m -6.70899,0.179688 c -0.12,0 -0.21148,0.02984 -0.27148,0.08984 -0.06,0.06 -0.10477,0.0918 -0.13477,0.0918 l 0.31641,0 c 0,-0.06 0.0298,-0.12164 0.0898,-0.18164 z m -8.91015,0.451172 0,0.134765 0.35937,0 0,-0.134765 -0.35937,0 z m 2.16015,0 0.13477,0.49414 0,-0.359375 -0.13477,-0.134765 z m -27.43164,0.04492 0,0.449219 0.13477,0 0,-0.449219 -0.13477,0 z M 29.244141,17.375 l 0.224609,0.675781 0,-0.541015 L 29.244141,17.375 Z m 65.126953,0 0.224609,0.675781 0,-0.541015 L 94.371094,17.375 Z m 55.185546,0.134766 c -0.03,0.03 -0.11953,0.07476 -0.26953,0.134765 -0.15001,0.03 -0.22461,0.07477 -0.22461,0.134766 l 0,0.04492 c 0.03,0 0.0748,0.01492 0.13477,0.04492 l 0.17968,-0.08984 c 0.11999,-0.06 0.17969,-0.149531 0.17969,-0.269531 z m -9.90039,0.541015 0,0.04492 1.08008,0 0,-0.04492 -1.08008,0 z m 4.45508,0.673828 c -0.21,0 -0.43383,0.01492 -0.67383,0.04492 -0.21,0 -0.43578,0.01492 -0.67578,0.04492 0.12,0.0897 0.28414,0.134766 0.49414,0.134766 0.42,0 0.70547,-0.07461 0.85547,-0.22461 z m 11.25,0.22461 0,0.361328 0.0898,0 0,-0.361328 -0.0898,0 z m -91.242189,1.441406 0,0.08984 0.179687,0.449219 0.134766,-0.04492 -0.314453,-0.494141 z m -9.990235,0.990234 c -0.21,0 -0.316406,0.208907 -0.316406,0.628907 0.09,-0.06 0.151641,-0.149532 0.181641,-0.269532 0.03,-0.15 0.07476,-0.269375 0.134765,-0.359375 z m 6.570313,1.708985 c -0.21,0 -0.316407,0.08953 -0.316407,0.269531 0,0.18 0.04477,0.331172 0.134766,0.451172 0.33,-0.3 0.690078,-0.451172 1.080078,-0.451172 0.36,0 0.675313,0.09148 0.945313,0.271484 0.3,0.18 0.675,0.448594 1.125,0.808594 0.45,0.36 0.780234,0.585781 0.990234,0.675781 l -1.080078,-1.529296 c -0.36,-0.120001 -0.779766,-0.211485 -1.259766,-0.271485 -0.48,-0.09 -1.01914,-0.164609 -1.61914,-0.224609 z m 4.363281,0.314453 -0.04492,0.04492 0.585938,0.810547 0.08984,-0.08984 -0.630859,-0.765625 z m -0.763672,0.181641 c 0.09,0.359999 0.390391,0.914062 0.900391,1.664062 0.57,0.75 0.868437,1.289141 0.898437,1.619141 l -0.808594,-0.539063 c 0.03,0.15 0.149376,0.343985 0.359376,0.583984 0.239999,0.240001 0.359374,0.435938 0.359374,0.585938 0,0.15 -0.02984,0.254453 -0.08984,0.314453 -0.42,-0.33 -0.839766,-0.928828 -1.259766,-1.798828 -0.15,0 -0.329062,-0.07656 -0.539062,-0.226563 -0.18,-0.149999 -0.331172,-0.224609 -0.451172,-0.224609 -0.09,0 -0.194453,0.04477 -0.314453,0.134766 0.15,0.39 0.284296,0.765 0.404296,1.125 0.150001,0.36 0.375782,0.585781 0.675782,0.675781 0.6,1.68 1.933906,3.959844 4.003906,6.839844 0.33,-0.15 0.84125,-0.239531 1.53125,-0.269532 0.72,-0.03 1.259141,-0.119531 1.619141,-0.269531 0.39,-0.12 0.630703,-0.465156 0.720703,-1.035156 -0.45,-0.06 -0.884688,-0.300703 -1.304688,-0.720703 -0.42,-0.42 -0.72039,-0.854688 -0.90039,-1.304688 0.18,-0.03 0.269531,-0.119531 0.269531,-0.269531 0,-0.03 -0.02984,-0.121484 -0.08984,-0.271484 -0.03,-0.18 -0.04492,-0.329219 -0.04492,-0.449219 -0.45,-0.27 -0.884687,-0.704687 -1.304687,-1.304688 -0.48,-0.719999 -0.795313,-1.139765 -0.945313,-1.259765 0.12,0.3 0.286094,0.60039 0.496094,0.900391 0.24,0.27 0.359375,0.553515 0.359375,0.853515 l -0.224609,0 c 0.03,0.15 0.179218,0.405625 0.449218,0.765625 0.27,0.36 0.404297,0.675313 0.404297,0.945313 -0.39,-0.33 -0.718281,-0.660235 -0.988281,-0.990235 -0.24,-0.36 -0.555312,-0.839453 -0.945313,-1.439453 -0.39,-0.69 -0.720234,-1.171406 -0.990234,-1.441406 l 0,-0.628906 c 0.06,0 0.149531,0.05969 0.269531,0.179687 -0.18,-0.21 -0.269531,-0.540234 -0.269531,-0.990234 l 0,-0.314453 c 0.03,-0.15 0.05984,-0.316094 0.08984,-0.496094 0,0.15 -0.05969,0.316094 -0.179688,0.496094 -0.09,0.15 -0.164609,0.224609 -0.224609,0.224609 l 0.08984,0.765625 c -0.72,-0.72 -1.395391,-1.529687 -2.025391,-2.429687 z m -4.90625,0.04492 0.226563,0.404297 0,-0.224609 c -0.03,-0.12 -0.106563,-0.179688 -0.226563,-0.179688 z m 59.177732,0.179688 -0.36133,1.259765 0.0918,0.04492 0.44922,-1.259765 -0.17969,-0.04492 z m -64.306638,1.169922 0,1.035156 0.134766,-0.04492 c 0,-0.6 -0.04477,-0.930234 -0.134766,-0.990234 z m 85.257808,0.49414 0.35938,1.035157 0.13476,-1.035157 -0.49414,0 z m -115.902339,0.40625 0.08984,0.763672 0,-0.449219 -0.08984,-0.314453 z m 65.126953,0 0.08984,0.763672 0,-0.449219 -0.08984,-0.314453 z m 47.490236,1.033203 c -0.39,0 -0.6307,0.21086 -0.72071,0.63086 -0.18003,0.33 -0.26953,0.600547 -0.26953,0.810547 0,0.18 0.0895,0.34414 0.26953,0.49414 0.18001,0.15 0.37594,0.28625 0.58594,0.40625 0.21,0.12 0.40594,0.254297 0.58594,0.404297 0.18,0.15 0.28445,0.314141 0.31445,0.494141 0.42,0 0.65875,-0.07461 0.71875,-0.224609 0,-0.15 -0.0746,-0.284297 -0.22461,-0.404297 -0.11998,-0.15 -0.17968,-0.254454 -0.17968,-0.314453 1.74,0.329999 3.12062,0.688124 4.14062,1.078124 l -0.0898,0.181641 c 0.09,0.24 0.17953,0.359375 0.26953,0.359375 l 0.22461,-0.269531 c 0.18,-0.1804 0.40578,-0.271485 0.67578,-0.271485 0.27,0.03 0.47891,0.181172 0.62891,0.451172 0.15,0.24 0.30117,0.389219 0.45117,0.449219 l 0,-0.269531 c 0.21,-0.1197 0.49351,-0.179688 0.85351,-0.179688 0.33,0 0.60055,0.05969 0.81055,0.179688 l -0.31445,0.585937 0.6289,0.134766 c 1.23,-0.39 2.32516,-0.675469 3.28516,-0.855469 0.99,-0.21 2.10008,-0.314453 3.33008,-0.314453 l 0.22656,0.224609 c -0.03,0.03 -0.15133,0.08969 -0.36133,0.179688 -0.18003,0.06 -0.26953,0.209219 -0.26953,0.449219 0.09,0.1197 0.37547,0.18164 0.85547,0.18164 0.63,0 1.04975,-0.121328 1.25977,-0.361328 0.21,-0.24 0.40398,-0.615 0.58398,-1.125 0.18,-0.54 0.4207,-0.915 0.7207,-1.125 -0.6,0.18 -1.39476,0.301328 -2.38476,0.361328 -0.99,0.06 -1.8743,0.119688 -2.6543,0.179688 -0.81,0.06 -1.50031,0.194297 -2.07031,0.404297 l -0.54102,-0.359375 c 0.15,-0.21 0.34594,-0.34625 0.58594,-0.40625 0.27,-0.0597 0.53859,-0.104766 0.80859,-0.134766 0.27,-0.03 0.52563,-0.07477 0.76563,-0.134765 0.27,-0.09 0.49578,-0.239219 0.67578,-0.449219 -1.26,0.33 -2.61078,0.49414 -4.05078,0.49414 -2.28,0 -5.11391,-0.524218 -8.50391,-1.574218 -0.15,-0.03 -0.42055,-0.08969 -0.81054,-0.179688 -0.36001,-0.1196 -0.63055,-0.181641 -0.81055,-0.181641 z m -18.43164,0.136719 c -0.51,1.02 -0.76563,1.740156 -0.76563,2.160157 0,0.269999 0.0915,0.449062 0.27149,0.539062 -0.09,-0.21 -0.13477,-0.420859 -0.13477,-0.630859 0,-0.24 0.10445,-0.568282 0.31445,-0.988282 0.21,-0.45 0.31446,-0.810078 0.31446,-1.080078 z m 58.39648,0.539063 c -0.33,0 -0.87109,0.195937 -1.62109,0.585937 -0.78,0.36 -1.4236,0.539063 -1.9336,0.539063 -0.93,-0.33 -1.86101,-0.494141 -2.79101,-0.494141 -0.27,0 -0.63008,0.01492 -1.08008,0.04492 -0.42,0.03 -0.9293,0.07477 -1.5293,0.134766 -0.6,0.0598 -1.15601,0.104765 -1.66601,0.134765 -0.51,0.03 -1.00438,0.04492 -1.48438,0.04492 l -1.25976,2.609375 1.125,0.179688 0,-0.628907 c 0.3,0.06 0.47906,0.08984 0.53906,0.08984 0.21,0 0.51039,-0.02984 0.90039,-0.08984 0.39,-0.0897 0.67547,-0.134765 0.85547,-0.134765 0.54,0 0.94484,0.253672 1.21484,0.763672 0.21,-0.1196 0.46563,-0.179688 0.76563,-0.179688 0.12,0 0.29906,0.01492 0.53906,0.04492 0.27,0.03 0.46594,0.04492 0.58594,0.04492 0.57,0 0.88531,-0.268594 0.94531,-0.808594 0.75,0 1.125,0.134297 1.125,0.404297 0.27,0 0.68977,-0.02984 1.25977,-0.08984 0.6,-0.0898 1.07945,-0.134765 1.43945,-0.134765 1.02,0 1.72523,0.285468 2.11523,0.855468 l 0,-0.40625 c -0.06,-0.03 -0.19625,-0.07476 -0.40625,-0.134765 -0.21,-0.06 -0.37414,-0.13461 -0.49414,-0.22461 0.12,-0.36 0.36071,-0.541015 0.72071,-0.541015 0.18,0 0.41875,0.06164 0.71875,0.18164 0.33,0.0897 0.58562,0.134766 0.76562,0.134766 0.27,0 0.49578,-0.09148 0.67578,-0.271484 0.66,-0.12 1.09469,-0.674063 1.30469,-1.664063 0.11999,-0.45 0.17969,-0.720547 0.17969,-0.810547 -0.42,0 -0.86961,0.05969 -1.34961,0.179688 -0.45,0.09 -0.73547,0.196406 -0.85547,0.316406 -0.42,-0.45 -0.85469,-0.675781 -1.30469,-0.675781 z m -152.582029,0.04492 0,0.496093 0.08984,0 0,-0.496093 -0.08984,0 z m 0.675781,0 -0.181641,1.755859 c -0.24,0 -0.359375,-0.09148 -0.359375,-0.271484 l 0,-0.134766 c 0,-0.21 -0.04477,-0.344297 -0.134765,-0.404297 0,0.51 0.05969,1.049141 0.179687,1.619141 0.12,0.54 0.179688,0.900078 0.179688,1.080078 0,-0.45 0.05969,-0.989141 0.179687,-1.619141 0.15,-0.63 0.226563,-1.079609 0.226563,-1.349609 0,-0.27 -0.02984,-0.495781 -0.08984,-0.675781 z m 64.451172,0 0,0.496093 0.08984,0 0,-0.496093 -0.08984,0 z m 0.675781,0 -0.181641,1.755859 c -0.24,0 -0.359375,-0.09148 -0.359375,-0.271484 l 0,-0.134766 c 0,-0.21 -0.04476,-0.344297 -0.134765,-0.404297 0,0.51 0.05969,1.049141 0.179687,1.619141 0.12,0.54 0.179688,0.900078 0.179688,1.080078 0,-0.45 0.06164,-0.989141 0.18164,-1.619141 0.15,-0.63 0.22461,-1.079609 0.22461,-1.349609 0,-0.27 -0.02984,-0.495781 -0.08984,-0.675781 z m 25.863285,0.04492 -0.4961,1.394531 c 0.33,0.54 0.60055,0.929922 0.81055,1.169922 0.24,0.21 0.55531,0.316406 0.94531,0.316406 0.09,-0.12 0.13477,-0.241328 0.13477,-0.361328 0,-0.09 -0.0298,-0.254141 -0.0898,-0.494141 -0.03,-0.24 -0.0449,-0.450859 -0.0449,-0.630859 l -0.31445,-0.134766 c -0.09,0.09 -0.19641,0.256094 -0.31641,0.496094 -0.09,0.21 -0.20937,0.314453 -0.35937,0.314453 0.15,-0.93 0.31609,-1.545703 0.49609,-1.845703 -0.24,-0.15 -0.49562,-0.224609 -0.76562,-0.224609 z m -92.296879,0.269531 0,0.990234 0.04492,0 0,-0.990234 -0.04492,0 z m 65.126953,0 0,0.990234 0.04687,0 0,-0.990234 -0.04687,0 z m 67.998046,1.173828 c -0.52103,0.4001 -0.79687,0.976853 -0.79687,1.751953 0,0.24 0.0448,0.495625 0.13476,0.765625 l 0.0899,0 0,-0.451172 -0.0899,0 c 0.39,-0.12 0.58594,-0.35875 0.58594,-0.71875 0,-0.09 -0.0149,-0.241172 -0.0449,-0.451172 -0.03,-0.21 -0.0449,-0.37414 -0.0449,-0.49414 0,-0.154 0.0587,-0.287344 0.16601,-0.402344 z m 0.64258,0.582031 0,0.449219 0.27148,0 c 0,-0.21 -0.0915,-0.359219 -0.27148,-0.449219 z m -17.88867,0.339844 0.42969,0.24414 0,-0.179687 c -0.06,-0.03 -0.16446,-0.04492 -0.31446,-0.04492 -0.0451,0 -0.0782,-0.0095 -0.11523,-0.01953 z m -85.458987,0.109375 0,4.275391 0.134766,0 c 0.09,-0.39 0.134765,-0.809766 0.134765,-1.259766 0,-0.21 -0.01492,-0.450703 -0.04492,-0.720703 -0.03,-0.3 -0.05984,-0.583516 -0.08984,-0.853516 -0.03,-0.3 -0.05984,-0.570547 -0.08984,-0.810547 -0.03,-0.27 -0.04492,-0.480859 -0.04492,-0.630859 z m 81.164067,0 0,0.002 c 0.12,0.27 0.40351,0.40625 0.85351,0.40625 l 0.58594,0 0.0156,0 c -0.15279,-0.032 -0.21259,-0.0548 -0.41992,-0.0918 -0.48,-0.09 -0.82515,-0.196406 -1.03515,-0.316406 z m 46.26367,0.585937 c -0.06,0.06 -0.0898,0.149532 -0.0898,0.269532 0,0.15 0.14922,0.284297 0.44922,0.404296 0.33,0.12 0.51102,0.226407 0.54102,0.316407 l -0.90039,-0.990235 z m -24.39453,0.269532 -0.13477,0.496093 0.31445,0.134766 c 0,-0.39 -0.0597,-0.600859 -0.17968,-0.630859 z m -5.40039,0.224609 c -0.03,0 -0.0897,0.02984 -0.17969,0.08984 -0.09,0.03 -0.19446,0.04492 -0.31445,0.04492 0.09,0.09 0.11984,0.181484 0.0898,0.271484 0,0.0898 0.0746,0.134766 0.22461,0.134766 l 0.17969,-0.179688 c 0.09,-0.09 0.13476,-0.166562 0.13476,-0.226562 -0.06,-0.0897 -0.10476,-0.134766 -0.13476,-0.134766 z m -8.72852,0.271484 c 0.13869,0.052 0.35438,0.10425 0.61328,0.15625 -0.19627,-0.0952 -0.39792,-0.15625 -0.61328,-0.15625 z m 11.74414,0.134766 0,0.269531 0.26953,0 c 0.09,-0.03 0.14969,-0.07476 0.17969,-0.134765 -0.06,-0.0898 -0.20922,-0.134766 -0.44922,-0.134766 z m 3.33008,0.314453 -0.0898,0.449219 c 0,0.21 0.11937,0.420859 0.35937,0.630859 0.27,0.18 0.42117,0.359063 0.45117,0.539063 -0.09,0.0897 -0.18148,0.136719 -0.27148,0.136719 l 0,0.08984 0.40625,0 0,-0.08984 c 0.15001,-0.150001 0.22461,-0.271329 0.22461,-0.361329 0,-0.09 -0.0597,-0.179531 -0.17969,-0.269531 -0.12,-0.12 -0.25625,-0.239375 -0.40625,-0.359375 l -0.35938,-0.361328 c -0.09,-0.15 -0.13476,-0.284297 -0.13476,-0.404297 z m -8.55078,0.404297 c -0.48,0 -0.84008,0.210859 -1.08008,0.630859 0.18,0.0898 0.31625,0.134766 0.40625,0.134766 0.12,0 0.28414,-0.104453 0.49414,-0.314453 0.24,-0.21 0.46578,-0.316406 0.67578,-0.316406 -0.18,-0.0897 -0.34609,-0.134766 -0.49609,-0.134766 z m 7.4707,0.04492 0.31445,1.035156 -0.0449,-1.035156 -0.26953,0 z m -9.99023,0.720703 0,0.04492 0.67578,0 0,-0.04492 -0.67578,0 z m -91.917972,2.025391 0.134765,0.224609 0.314453,-0.08984 c -0.06,-0.09 -0.209218,-0.134765 -0.449218,-0.134765 z m -0.720704,0.359375 -0.269531,0.359375 c 0.06,-0.03 0.164453,-0.04492 0.314453,-0.04492 0.15,0 0.226563,-0.04477 0.226563,-0.134766 l -0.271485,-0.179687 z"
         style="font-style:normal;font-variant:normal;font-weight:normal;font-stretch:normal;font-size:medium;line-height:125%;font-family:Logger;-inkscape-font-specification:Logger;letter-spacing:0px;word-spacing:0px;fill:#ffe680;fill-opacity:1;stroke:#2b1100;stroke-width:0;stroke-linecap:butt;stroke-linejoin:miter;stroke-miterlimit:4;stroke-dasharray:none;stroke-opacity:1"
         inkscape:connector-curvature="0" />
    </g>
  </g>
</svg>
